<?xml version="1.0" encoding="utf-8" standalone="no"?>
<!DOCTYPE svg PUBLIC "-//W3C//DTD SVG 1.1//EN"
  "http://www.w3.org/Graphics/SVG/1.1/DTD/svg11.dtd">
<svg xmlns:xlink="http://www.w3.org/1999/xlink" width="1118.750343pt" height="521.881275pt" viewBox="0 0 1118.750343 521.881275" xmlns="http://www.w3.org/2000/svg" version="1.1">
 <metadata>
  <rdf:RDF xmlns:dc="http://purl.org/dc/elements/1.1/" xmlns:cc="http://creativecommons.org/ns#" xmlns:rdf="http://www.w3.org/1999/02/22-rdf-syntax-ns#">
   <cc:Work>
    <dc:type rdf:resource="http://purl.org/dc/dcmitype/StillImage"/>
    <dc:date>2023-02-12T17:31:35.750658</dc:date>
    <dc:format>image/svg+xml</dc:format>
    <dc:creator>
     <cc:Agent>
      <dc:title>Matplotlib v3.6.3, https://matplotlib.org/</dc:title>
     </cc:Agent>
    </dc:creator>
   </cc:Work>
  </rdf:RDF>
 </metadata>
 <defs>
  <style type="text/css">*{stroke-linejoin: round; stroke-linecap: butt}</style>
 </defs>
 <g id="figure_1">
  <g id="patch_1">
   <path d="M 0 521.881275 
L 1118.750343 521.881275 
L 1118.750343 0 
L 0 0 
z
" style="fill: #ffffff"/>
  </g>
  <g id="axes_1">
   <g id="patch_2">
    <path d="M 70.679375 423 
L 814.493375 423 
L 814.493375 7.2 
L 70.679375 7.2 
z
" style="fill: #ffffff"/>
   </g>
   <g id="patch_3">
    <path d="M 83.076275 423 
L 107.870075 423 
L 107.870075 362.962467 
L 83.076275 362.962467 
z
" clip-path="url(#p1a00829888)" style="fill: #176d9c"/>
   </g>
   <g id="patch_4">
    <path d="M 207.045275 423 
L 231.839075 423 
L 231.839075 340.352558 
L 207.045275 340.352558 
z
" clip-path="url(#p1a00829888)" style="fill: #176d9c"/>
   </g>
   <g id="patch_5">
    <path d="M 331.014275 423 
L 355.808075 423 
L 355.808075 348.217754 
L 331.014275 348.217754 
z
" clip-path="url(#p1a00829888)" style="fill: #176d9c"/>
   </g>
   <g id="patch_6">
    <path d="M 454.983275 423 
L 479.777075 423 
L 479.777075 321.156628 
L 454.983275 321.156628 
z
" clip-path="url(#p1a00829888)" style="fill: #176d9c"/>
   </g>
   <g id="patch_7">
    <path d="M 578.952275 423 
L 603.746075 423 
L 603.746075 358.975277 
L 578.952275 358.975277 
z
" clip-path="url(#p1a00829888)" style="fill: #176d9c"/>
   </g>
   <g id="patch_8">
    <path d="M 702.921275 423 
L 727.715075 423 
L 727.715075 347.308064 
L 702.921275 347.308064 
z
" clip-path="url(#p1a00829888)" style="fill: #176d9c"/>
   </g>
   <g id="patch_9">
    <path d="M 107.870075 423 
L 132.663875 423 
L 132.663875 358.830092 
L 107.870075 358.830092 
z
" clip-path="url(#p1a00829888)" style="fill: #c38820"/>
   </g>
   <g id="patch_10">
    <path d="M 231.839075 423 
L 256.632875 423 
L 256.632875 340.667144 
L 231.839075 340.667144 
z
" clip-path="url(#p1a00829888)" style="fill: #c38820"/>
   </g>
   <g id="patch_11">
    <path d="M 355.808075 423 
L 380.601875 423 
L 380.601875 346.957075 
L 355.808075 346.957075 
z
" clip-path="url(#p1a00829888)" style="fill: #c38820"/>
   </g>
   <g id="patch_12">
    <path d="M 479.777075 423 
L 504.570875 423 
L 504.570875 321.280324 
L 479.777075 321.280324 
z
" clip-path="url(#p1a00829888)" style="fill: #c38820"/>
   </g>
   <g id="patch_13">
    <path d="M 603.746075 423 
L 628.539875 423 
L 628.539875 354.297012 
L 603.746075 354.297012 
z
" clip-path="url(#p1a00829888)" style="fill: #c38820"/>
   </g>
   <g id="patch_14">
    <path d="M 727.715075 423 
L 752.508875 423 
L 752.508875 347.345691 
L 727.715075 347.345691 
z
" clip-path="url(#p1a00829888)" style="fill: #c38820"/>
   </g>
   <g id="patch_15">
    <path d="M 132.663875 423 
L 157.457675 423 
L 157.457675 114.719757 
L 132.663875 114.719757 
z
" clip-path="url(#p1a00829888)" style="fill: #158b6a"/>
   </g>
   <g id="patch_16">
    <path d="M 256.632875 423 
L 281.426675 423 
L 281.426675 133.519082 
L 256.632875 133.519082 
z
" clip-path="url(#p1a00829888)" style="fill: #158b6a"/>
   </g>
   <g id="patch_17">
    <path d="M 380.601875 423 
L 405.395675 423 
L 405.395675 122.835162 
L 380.601875 122.835162 
z
" clip-path="url(#p1a00829888)" style="fill: #158b6a"/>
   </g>
   <g id="patch_18">
    <path d="M 504.570875 423 
L 529.364675 423 
L 529.364675 119.002898 
L 504.570875 119.002898 
z
" clip-path="url(#p1a00829888)" style="fill: #158b6a"/>
   </g>
   <g id="patch_19">
    <path d="M 628.539875 423 
L 653.333675 423 
L 653.333675 139.463283 
L 628.539875 139.463283 
z
" clip-path="url(#p1a00829888)" style="fill: #158b6a"/>
   </g>
   <g id="patch_20">
    <path d="M 752.508875 423 
L 777.302675 423 
L 777.302675 101.630118 
L 752.508875 101.630118 
z
" clip-path="url(#p1a00829888)" style="fill: #158b6a"/>
   </g>
   <g id="patch_21">
    <path d="M 157.457675 423 
L 182.251475 423 
L 182.251475 90.437304 
L 157.457675 90.437304 
z
" clip-path="url(#p1a00829888)" style="fill: #ba611b"/>
   </g>
   <g id="patch_22">
    <path d="M 281.426675 423 
L 306.220475 423 
L 306.220475 170.41439 
L 281.426675 170.41439 
z
" clip-path="url(#p1a00829888)" style="fill: #ba611b"/>
   </g>
   <g id="patch_23">
    <path d="M 405.395675 423 
L 430.189475 423 
L 430.189475 56.740544 
L 405.395675 56.740544 
z
" clip-path="url(#p1a00829888)" style="fill: #ba611b"/>
   </g>
   <g id="patch_24">
    <path d="M 529.364675 423 
L 554.158475 423 
L 554.158475 110.532719 
L 529.364675 110.532719 
z
" clip-path="url(#p1a00829888)" style="fill: #ba611b"/>
   </g>
   <g id="patch_25">
    <path d="M 653.333675 423 
L 678.127475 423 
L 678.127475 128.308025 
L 653.333675 128.308025 
z
" clip-path="url(#p1a00829888)" style="fill: #ba611b"/>
   </g>
   <g id="patch_26">
    <path d="M 777.302675 423 
L 802.096475 423 
L 802.096475 142.978358 
L 777.302675 142.978358 
z
" clip-path="url(#p1a00829888)" style="fill: #ba611b"/>
   </g>
   <g id="matplotlib.axis_1">
    <g id="xtick_1">
     <g id="line2d_1">
      <defs>
       <path id="mab1a56fd53" d="M 0 0 
L 0 9 
" style="stroke: #000000; stroke-width: 1.875"/>
      </defs>
      <g>
       <use xlink:href="#mab1a56fd53" x="132.663875" y="423" style="stroke: #000000; stroke-width: 1.875"/>
      </g>
     </g>
     <g id="text_1">
      <!-- 3pg;2pg -->
      <g transform="translate(111.681034 492.769849) rotate(-45) scale(0.165 -0.165)">
       <defs>
        <path id="DejaVuSans-33" d="M 2597 2516 
Q 3050 2419 3304 2112 
Q 3559 1806 3559 1356 
Q 3559 666 3084 287 
Q 2609 -91 1734 -91 
Q 1441 -91 1130 -33 
Q 819 25 488 141 
L 488 750 
Q 750 597 1062 519 
Q 1375 441 1716 441 
Q 2309 441 2620 675 
Q 2931 909 2931 1356 
Q 2931 1769 2642 2001 
Q 2353 2234 1838 2234 
L 1294 2234 
L 1294 2753 
L 1863 2753 
Q 2328 2753 2575 2939 
Q 2822 3125 2822 3475 
Q 2822 3834 2567 4026 
Q 2313 4219 1838 4219 
Q 1578 4219 1281 4162 
Q 984 4106 628 3988 
L 628 4550 
Q 988 4650 1302 4700 
Q 1616 4750 1894 4750 
Q 2613 4750 3031 4423 
Q 3450 4097 3450 3541 
Q 3450 3153 3228 2886 
Q 3006 2619 2597 2516 
z
" transform="scale(0.015625)"/>
        <path id="DejaVuSans-70" d="M 1159 525 
L 1159 -1331 
L 581 -1331 
L 581 3500 
L 1159 3500 
L 1159 2969 
Q 1341 3281 1617 3432 
Q 1894 3584 2278 3584 
Q 2916 3584 3314 3078 
Q 3713 2572 3713 1747 
Q 3713 922 3314 415 
Q 2916 -91 2278 -91 
Q 1894 -91 1617 61 
Q 1341 213 1159 525 
z
M 3116 1747 
Q 3116 2381 2855 2742 
Q 2594 3103 2138 3103 
Q 1681 3103 1420 2742 
Q 1159 2381 1159 1747 
Q 1159 1113 1420 752 
Q 1681 391 2138 391 
Q 2594 391 2855 752 
Q 3116 1113 3116 1747 
z
" transform="scale(0.015625)"/>
        <path id="DejaVuSans-67" d="M 2906 1791 
Q 2906 2416 2648 2759 
Q 2391 3103 1925 3103 
Q 1463 3103 1205 2759 
Q 947 2416 947 1791 
Q 947 1169 1205 825 
Q 1463 481 1925 481 
Q 2391 481 2648 825 
Q 2906 1169 2906 1791 
z
M 3481 434 
Q 3481 -459 3084 -895 
Q 2688 -1331 1869 -1331 
Q 1566 -1331 1297 -1286 
Q 1028 -1241 775 -1147 
L 775 -588 
Q 1028 -725 1275 -790 
Q 1522 -856 1778 -856 
Q 2344 -856 2625 -561 
Q 2906 -266 2906 331 
L 2906 616 
Q 2728 306 2450 153 
Q 2172 0 1784 0 
Q 1141 0 747 490 
Q 353 981 353 1791 
Q 353 2603 747 3093 
Q 1141 3584 1784 3584 
Q 2172 3584 2450 3431 
Q 2728 3278 2906 2969 
L 2906 3500 
L 3481 3500 
L 3481 434 
z
" transform="scale(0.015625)"/>
        <path id="DejaVuSans-3b" d="M 750 3309 
L 1409 3309 
L 1409 2516 
L 750 2516 
L 750 3309 
z
M 750 794 
L 1409 794 
L 1409 256 
L 897 -744 
L 494 -744 
L 750 256 
L 750 794 
z
" transform="scale(0.015625)"/>
        <path id="DejaVuSans-32" d="M 1228 531 
L 3431 531 
L 3431 0 
L 469 0 
L 469 531 
Q 828 903 1448 1529 
Q 2069 2156 2228 2338 
Q 2531 2678 2651 2914 
Q 2772 3150 2772 3378 
Q 2772 3750 2511 3984 
Q 2250 4219 1831 4219 
Q 1534 4219 1204 4116 
Q 875 4013 500 3803 
L 500 4441 
Q 881 4594 1212 4672 
Q 1544 4750 1819 4750 
Q 2544 4750 2975 4387 
Q 3406 4025 3406 3419 
Q 3406 3131 3298 2873 
Q 3191 2616 2906 2266 
Q 2828 2175 2409 1742 
Q 1991 1309 1228 531 
z
" transform="scale(0.015625)"/>
       </defs>
       <use xlink:href="#DejaVuSans-33"/>
       <use xlink:href="#DejaVuSans-70" x="63.623047"/>
       <use xlink:href="#DejaVuSans-67" x="127.099609"/>
       <use xlink:href="#DejaVuSans-3b" x="190.576172"/>
       <use xlink:href="#DejaVuSans-32" x="224.267578"/>
       <use xlink:href="#DejaVuSans-70" x="287.890625"/>
       <use xlink:href="#DejaVuSans-67" x="351.367188"/>
      </g>
     </g>
    </g>
    <g id="xtick_2">
     <g id="line2d_2">
      <g>
       <use xlink:href="#mab1a56fd53" x="256.632875" y="423" style="stroke: #000000; stroke-width: 1.875"/>
      </g>
     </g>
     <g id="text_2">
      <!-- dhap -->
      <g transform="translate(245.173436 473.723044) rotate(-45) scale(0.165 -0.165)">
       <defs>
        <path id="DejaVuSans-64" d="M 2906 2969 
L 2906 4863 
L 3481 4863 
L 3481 0 
L 2906 0 
L 2906 525 
Q 2725 213 2448 61 
Q 2172 -91 1784 -91 
Q 1150 -91 751 415 
Q 353 922 353 1747 
Q 353 2572 751 3078 
Q 1150 3584 1784 3584 
Q 2172 3584 2448 3432 
Q 2725 3281 2906 2969 
z
M 947 1747 
Q 947 1113 1208 752 
Q 1469 391 1925 391 
Q 2381 391 2643 752 
Q 2906 1113 2906 1747 
Q 2906 2381 2643 2742 
Q 2381 3103 1925 3103 
Q 1469 3103 1208 2742 
Q 947 2381 947 1747 
z
" transform="scale(0.015625)"/>
        <path id="DejaVuSans-68" d="M 3513 2113 
L 3513 0 
L 2938 0 
L 2938 2094 
Q 2938 2591 2744 2837 
Q 2550 3084 2163 3084 
Q 1697 3084 1428 2787 
Q 1159 2491 1159 1978 
L 1159 0 
L 581 0 
L 581 4863 
L 1159 4863 
L 1159 2956 
Q 1366 3272 1645 3428 
Q 1925 3584 2291 3584 
Q 2894 3584 3203 3211 
Q 3513 2838 3513 2113 
z
" transform="scale(0.015625)"/>
        <path id="DejaVuSans-61" d="M 2194 1759 
Q 1497 1759 1228 1600 
Q 959 1441 959 1056 
Q 959 750 1161 570 
Q 1363 391 1709 391 
Q 2188 391 2477 730 
Q 2766 1069 2766 1631 
L 2766 1759 
L 2194 1759 
z
M 3341 1997 
L 3341 0 
L 2766 0 
L 2766 531 
Q 2569 213 2275 61 
Q 1981 -91 1556 -91 
Q 1019 -91 701 211 
Q 384 513 384 1019 
Q 384 1609 779 1909 
Q 1175 2209 1959 2209 
L 2766 2209 
L 2766 2266 
Q 2766 2663 2505 2880 
Q 2244 3097 1772 3097 
Q 1472 3097 1187 3025 
Q 903 2953 641 2809 
L 641 3341 
Q 956 3463 1253 3523 
Q 1550 3584 1831 3584 
Q 2591 3584 2966 3190 
Q 3341 2797 3341 1997 
z
" transform="scale(0.015625)"/>
       </defs>
       <use xlink:href="#DejaVuSans-64"/>
       <use xlink:href="#DejaVuSans-68" x="63.476562"/>
       <use xlink:href="#DejaVuSans-61" x="126.855469"/>
       <use xlink:href="#DejaVuSans-70" x="188.134766"/>
      </g>
     </g>
    </g>
    <g id="xtick_3">
     <g id="line2d_3">
      <g>
       <use xlink:href="#mab1a56fd53" x="380.601875" y="423" style="stroke: #000000; stroke-width: 1.875"/>
      </g>
     </g>
     <g id="text_3">
      <!-- f6p -->
      <g transform="translate(374.352598 463.30272) rotate(-45) scale(0.165 -0.165)">
       <defs>
        <path id="DejaVuSans-66" d="M 2375 4863 
L 2375 4384 
L 1825 4384 
Q 1516 4384 1395 4259 
Q 1275 4134 1275 3809 
L 1275 3500 
L 2222 3500 
L 2222 3053 
L 1275 3053 
L 1275 0 
L 697 0 
L 697 3053 
L 147 3053 
L 147 3500 
L 697 3500 
L 697 3744 
Q 697 4328 969 4595 
Q 1241 4863 1831 4863 
L 2375 4863 
z
" transform="scale(0.015625)"/>
        <path id="DejaVuSans-36" d="M 2113 2584 
Q 1688 2584 1439 2293 
Q 1191 2003 1191 1497 
Q 1191 994 1439 701 
Q 1688 409 2113 409 
Q 2538 409 2786 701 
Q 3034 994 3034 1497 
Q 3034 2003 2786 2293 
Q 2538 2584 2113 2584 
z
M 3366 4563 
L 3366 3988 
Q 3128 4100 2886 4159 
Q 2644 4219 2406 4219 
Q 1781 4219 1451 3797 
Q 1122 3375 1075 2522 
Q 1259 2794 1537 2939 
Q 1816 3084 2150 3084 
Q 2853 3084 3261 2657 
Q 3669 2231 3669 1497 
Q 3669 778 3244 343 
Q 2819 -91 2113 -91 
Q 1303 -91 875 529 
Q 447 1150 447 2328 
Q 447 3434 972 4092 
Q 1497 4750 2381 4750 
Q 2619 4750 2861 4703 
Q 3103 4656 3366 4563 
z
" transform="scale(0.015625)"/>
       </defs>
       <use xlink:href="#DejaVuSans-66"/>
       <use xlink:href="#DejaVuSans-36" x="35.205078"/>
       <use xlink:href="#DejaVuSans-70" x="98.828125"/>
      </g>
     </g>
    </g>
    <g id="xtick_4">
     <g id="line2d_4">
      <g>
       <use xlink:href="#mab1a56fd53" x="504.570875" y="423" style="stroke: #000000; stroke-width: 1.875"/>
      </g>
     </g>
     <g id="text_4">
      <!-- pep -->
      <g transform="translate(496.793916 466.358085) rotate(-45) scale(0.165 -0.165)">
       <defs>
        <path id="DejaVuSans-65" d="M 3597 1894 
L 3597 1613 
L 953 1613 
Q 991 1019 1311 708 
Q 1631 397 2203 397 
Q 2534 397 2845 478 
Q 3156 559 3463 722 
L 3463 178 
Q 3153 47 2828 -22 
Q 2503 -91 2169 -91 
Q 1331 -91 842 396 
Q 353 884 353 1716 
Q 353 2575 817 3079 
Q 1281 3584 2069 3584 
Q 2775 3584 3186 3129 
Q 3597 2675 3597 1894 
z
M 3022 2063 
Q 3016 2534 2758 2815 
Q 2500 3097 2075 3097 
Q 1594 3097 1305 2825 
Q 1016 2553 972 2059 
L 3022 2063 
z
" transform="scale(0.015625)"/>
       </defs>
       <use xlink:href="#DejaVuSans-70"/>
       <use xlink:href="#DejaVuSans-65" x="63.476562"/>
       <use xlink:href="#DejaVuSans-70" x="125"/>
      </g>
     </g>
    </g>
    <g id="xtick_5">
     <g id="line2d_5">
      <g>
       <use xlink:href="#mab1a56fd53" x="628.539875" y="423" style="stroke: #000000; stroke-width: 1.875"/>
      </g>
     </g>
     <g id="text_5">
      <!-- pyr -->
      <g transform="translate(622.204916 463.474083) rotate(-45) scale(0.165 -0.165)">
       <defs>
        <path id="DejaVuSans-79" d="M 2059 -325 
Q 1816 -950 1584 -1140 
Q 1353 -1331 966 -1331 
L 506 -1331 
L 506 -850 
L 844 -850 
Q 1081 -850 1212 -737 
Q 1344 -625 1503 -206 
L 1606 56 
L 191 3500 
L 800 3500 
L 1894 763 
L 2988 3500 
L 3597 3500 
L 2059 -325 
z
" transform="scale(0.015625)"/>
        <path id="DejaVuSans-72" d="M 2631 2963 
Q 2534 3019 2420 3045 
Q 2306 3072 2169 3072 
Q 1681 3072 1420 2755 
Q 1159 2438 1159 1844 
L 1159 0 
L 581 0 
L 581 3500 
L 1159 3500 
L 1159 2956 
Q 1341 3275 1631 3429 
Q 1922 3584 2338 3584 
Q 2397 3584 2469 3576 
Q 2541 3569 2628 3553 
L 2631 2963 
z
" transform="scale(0.015625)"/>
       </defs>
       <use xlink:href="#DejaVuSans-70"/>
       <use xlink:href="#DejaVuSans-79" x="63.476562"/>
       <use xlink:href="#DejaVuSans-72" x="122.65625"/>
      </g>
     </g>
    </g>
    <g id="xtick_6">
     <g id="line2d_6">
      <g>
       <use xlink:href="#mab1a56fd53" x="752.508875" y="423" style="stroke: #000000; stroke-width: 1.875"/>
      </g>
     </g>
     <g id="text_6">
      <!-- r5p -->
      <g transform="translate(745.915049 463.991818) rotate(-45) scale(0.165 -0.165)">
       <defs>
        <path id="DejaVuSans-35" d="M 691 4666 
L 3169 4666 
L 3169 4134 
L 1269 4134 
L 1269 2991 
Q 1406 3038 1543 3061 
Q 1681 3084 1819 3084 
Q 2600 3084 3056 2656 
Q 3513 2228 3513 1497 
Q 3513 744 3044 326 
Q 2575 -91 1722 -91 
Q 1428 -91 1123 -41 
Q 819 9 494 109 
L 494 744 
Q 775 591 1075 516 
Q 1375 441 1709 441 
Q 2250 441 2565 725 
Q 2881 1009 2881 1497 
Q 2881 1984 2565 2268 
Q 2250 2553 1709 2553 
Q 1456 2553 1204 2497 
Q 953 2441 691 2322 
L 691 4666 
z
" transform="scale(0.015625)"/>
       </defs>
       <use xlink:href="#DejaVuSans-72"/>
       <use xlink:href="#DejaVuSans-35" x="41.113281"/>
       <use xlink:href="#DejaVuSans-70" x="104.736328"/>
      </g>
     </g>
    </g>
    <g id="text_7">
     <!-- Metabolite id -->
     <g transform="translate(390.401375 511.353775) scale(0.16 -0.16)">
      <defs>
       <path id="DejaVuSans-4d" d="M 628 4666 
L 1569 4666 
L 2759 1491 
L 3956 4666 
L 4897 4666 
L 4897 0 
L 4281 0 
L 4281 4097 
L 3078 897 
L 2444 897 
L 1241 4097 
L 1241 0 
L 628 0 
L 628 4666 
z
" transform="scale(0.015625)"/>
       <path id="DejaVuSans-74" d="M 1172 4494 
L 1172 3500 
L 2356 3500 
L 2356 3053 
L 1172 3053 
L 1172 1153 
Q 1172 725 1289 603 
Q 1406 481 1766 481 
L 2356 481 
L 2356 0 
L 1766 0 
Q 1100 0 847 248 
Q 594 497 594 1153 
L 594 3053 
L 172 3053 
L 172 3500 
L 594 3500 
L 594 4494 
L 1172 4494 
z
" transform="scale(0.015625)"/>
       <path id="DejaVuSans-62" d="M 3116 1747 
Q 3116 2381 2855 2742 
Q 2594 3103 2138 3103 
Q 1681 3103 1420 2742 
Q 1159 2381 1159 1747 
Q 1159 1113 1420 752 
Q 1681 391 2138 391 
Q 2594 391 2855 752 
Q 3116 1113 3116 1747 
z
M 1159 2969 
Q 1341 3281 1617 3432 
Q 1894 3584 2278 3584 
Q 2916 3584 3314 3078 
Q 3713 2572 3713 1747 
Q 3713 922 3314 415 
Q 2916 -91 2278 -91 
Q 1894 -91 1617 61 
Q 1341 213 1159 525 
L 1159 0 
L 581 0 
L 581 4863 
L 1159 4863 
L 1159 2969 
z
" transform="scale(0.015625)"/>
       <path id="DejaVuSans-6f" d="M 1959 3097 
Q 1497 3097 1228 2736 
Q 959 2375 959 1747 
Q 959 1119 1226 758 
Q 1494 397 1959 397 
Q 2419 397 2687 759 
Q 2956 1122 2956 1747 
Q 2956 2369 2687 2733 
Q 2419 3097 1959 3097 
z
M 1959 3584 
Q 2709 3584 3137 3096 
Q 3566 2609 3566 1747 
Q 3566 888 3137 398 
Q 2709 -91 1959 -91 
Q 1206 -91 779 398 
Q 353 888 353 1747 
Q 353 2609 779 3096 
Q 1206 3584 1959 3584 
z
" transform="scale(0.015625)"/>
       <path id="DejaVuSans-6c" d="M 603 4863 
L 1178 4863 
L 1178 0 
L 603 0 
L 603 4863 
z
" transform="scale(0.015625)"/>
       <path id="DejaVuSans-69" d="M 603 3500 
L 1178 3500 
L 1178 0 
L 603 0 
L 603 3500 
z
M 603 4863 
L 1178 4863 
L 1178 4134 
L 603 4134 
L 603 4863 
z
" transform="scale(0.015625)"/>
       <path id="DejaVuSans-20" transform="scale(0.015625)"/>
      </defs>
      <use xlink:href="#DejaVuSans-4d"/>
      <use xlink:href="#DejaVuSans-65" x="86.279297"/>
      <use xlink:href="#DejaVuSans-74" x="147.802734"/>
      <use xlink:href="#DejaVuSans-61" x="187.011719"/>
      <use xlink:href="#DejaVuSans-62" x="248.291016"/>
      <use xlink:href="#DejaVuSans-6f" x="311.767578"/>
      <use xlink:href="#DejaVuSans-6c" x="372.949219"/>
      <use xlink:href="#DejaVuSans-69" x="400.732422"/>
      <use xlink:href="#DejaVuSans-74" x="428.515625"/>
      <use xlink:href="#DejaVuSans-65" x="467.724609"/>
      <use xlink:href="#DejaVuSans-20" x="529.248047"/>
      <use xlink:href="#DejaVuSans-69" x="561.035156"/>
      <use xlink:href="#DejaVuSans-64" x="588.818359"/>
     </g>
    </g>
   </g>
   <g id="matplotlib.axis_2">
    <g id="ytick_1">
     <g id="line2d_7">
      <defs>
       <path id="m82b559e903" d="M 0 0 
L -9 0 
" style="stroke: #000000; stroke-width: 1.875"/>
      </defs>
      <g>
       <use xlink:href="#m82b559e903" x="70.679375" y="423" style="stroke: #000000; stroke-width: 1.875"/>
      </g>
     </g>
     <g id="text_8">
      <!-- 0 -->
      <g transform="translate(47.68125 429.268711) scale(0.165 -0.165)">
       <defs>
        <path id="DejaVuSans-30" d="M 2034 4250 
Q 1547 4250 1301 3770 
Q 1056 3291 1056 2328 
Q 1056 1369 1301 889 
Q 1547 409 2034 409 
Q 2525 409 2770 889 
Q 3016 1369 3016 2328 
Q 3016 3291 2770 3770 
Q 2525 4250 2034 4250 
z
M 2034 4750 
Q 2819 4750 3233 4129 
Q 3647 3509 3647 2328 
Q 3647 1150 3233 529 
Q 2819 -91 2034 -91 
Q 1250 -91 836 529 
Q 422 1150 422 2328 
Q 422 3509 836 4129 
Q 1250 4750 2034 4750 
z
" transform="scale(0.015625)"/>
       </defs>
       <use xlink:href="#DejaVuSans-30"/>
      </g>
     </g>
    </g>
    <g id="ytick_2">
     <g id="line2d_8">
      <g>
       <use xlink:href="#m82b559e903" x="70.679375" y="362.404873" style="stroke: #000000; stroke-width: 1.875"/>
      </g>
     </g>
     <g id="text_9">
      <!-- 20 -->
      <g transform="translate(37.183125 368.673584) scale(0.165 -0.165)">
       <use xlink:href="#DejaVuSans-32"/>
       <use xlink:href="#DejaVuSans-30" x="63.623047"/>
      </g>
     </g>
    </g>
    <g id="ytick_3">
     <g id="line2d_9">
      <g>
       <use xlink:href="#m82b559e903" x="70.679375" y="301.809746" style="stroke: #000000; stroke-width: 1.875"/>
      </g>
     </g>
     <g id="text_10">
      <!-- 40 -->
      <g transform="translate(37.183125 308.078457) scale(0.165 -0.165)">
       <defs>
        <path id="DejaVuSans-34" d="M 2419 4116 
L 825 1625 
L 2419 1625 
L 2419 4116 
z
M 2253 4666 
L 3047 4666 
L 3047 1625 
L 3713 1625 
L 3713 1100 
L 3047 1100 
L 3047 0 
L 2419 0 
L 2419 1100 
L 313 1100 
L 313 1709 
L 2253 4666 
z
" transform="scale(0.015625)"/>
       </defs>
       <use xlink:href="#DejaVuSans-34"/>
       <use xlink:href="#DejaVuSans-30" x="63.623047"/>
      </g>
     </g>
    </g>
    <g id="ytick_4">
     <g id="line2d_10">
      <g>
       <use xlink:href="#m82b559e903" x="70.679375" y="241.214619" style="stroke: #000000; stroke-width: 1.875"/>
      </g>
     </g>
     <g id="text_11">
      <!-- 60 -->
      <g transform="translate(37.183125 247.48333) scale(0.165 -0.165)">
       <use xlink:href="#DejaVuSans-36"/>
       <use xlink:href="#DejaVuSans-30" x="63.623047"/>
      </g>
     </g>
    </g>
    <g id="ytick_5">
     <g id="line2d_11">
      <g>
       <use xlink:href="#m82b559e903" x="70.679375" y="180.619492" style="stroke: #000000; stroke-width: 1.875"/>
      </g>
     </g>
     <g id="text_12">
      <!-- 80 -->
      <g transform="translate(37.183125 186.888203) scale(0.165 -0.165)">
       <defs>
        <path id="DejaVuSans-38" d="M 2034 2216 
Q 1584 2216 1326 1975 
Q 1069 1734 1069 1313 
Q 1069 891 1326 650 
Q 1584 409 2034 409 
Q 2484 409 2743 651 
Q 3003 894 3003 1313 
Q 3003 1734 2745 1975 
Q 2488 2216 2034 2216 
z
M 1403 2484 
Q 997 2584 770 2862 
Q 544 3141 544 3541 
Q 544 4100 942 4425 
Q 1341 4750 2034 4750 
Q 2731 4750 3128 4425 
Q 3525 4100 3525 3541 
Q 3525 3141 3298 2862 
Q 3072 2584 2669 2484 
Q 3125 2378 3379 2068 
Q 3634 1759 3634 1313 
Q 3634 634 3220 271 
Q 2806 -91 2034 -91 
Q 1263 -91 848 271 
Q 434 634 434 1313 
Q 434 1759 690 2068 
Q 947 2378 1403 2484 
z
M 1172 3481 
Q 1172 3119 1398 2916 
Q 1625 2713 2034 2713 
Q 2441 2713 2670 2916 
Q 2900 3119 2900 3481 
Q 2900 3844 2670 4047 
Q 2441 4250 2034 4250 
Q 1625 4250 1398 4047 
Q 1172 3844 1172 3481 
z
" transform="scale(0.015625)"/>
       </defs>
       <use xlink:href="#DejaVuSans-38"/>
       <use xlink:href="#DejaVuSans-30" x="63.623047"/>
      </g>
     </g>
    </g>
    <g id="ytick_6">
     <g id="line2d_12">
      <g>
       <use xlink:href="#m82b559e903" x="70.679375" y="120.024365" style="stroke: #000000; stroke-width: 1.875"/>
      </g>
     </g>
     <g id="text_13">
      <!-- 100 -->
      <g transform="translate(26.685 126.293076) scale(0.165 -0.165)">
       <defs>
        <path id="DejaVuSans-31" d="M 794 531 
L 1825 531 
L 1825 4091 
L 703 3866 
L 703 4441 
L 1819 4666 
L 2450 4666 
L 2450 531 
L 3481 531 
L 3481 0 
L 794 0 
L 794 531 
z
" transform="scale(0.015625)"/>
       </defs>
       <use xlink:href="#DejaVuSans-31"/>
       <use xlink:href="#DejaVuSans-30" x="63.623047"/>
       <use xlink:href="#DejaVuSans-30" x="127.246094"/>
      </g>
     </g>
    </g>
    <g id="ytick_7">
     <g id="line2d_13">
      <g>
       <use xlink:href="#m82b559e903" x="70.679375" y="59.429238" style="stroke: #000000; stroke-width: 1.875"/>
      </g>
     </g>
     <g id="text_14">
      <!-- 120 -->
      <g transform="translate(26.685 65.697949) scale(0.165 -0.165)">
       <use xlink:href="#DejaVuSans-31"/>
       <use xlink:href="#DejaVuSans-32" x="63.623047"/>
       <use xlink:href="#DejaVuSans-30" x="127.246094"/>
      </g>
     </g>
    </g>
    <g id="text_15">
     <!-- Median APE of log fold change (%) -->
     <g transform="translate(19.3575 353.01125) rotate(-90) scale(0.16 -0.16)">
      <defs>
       <path id="DejaVuSans-6e" d="M 3513 2113 
L 3513 0 
L 2938 0 
L 2938 2094 
Q 2938 2591 2744 2837 
Q 2550 3084 2163 3084 
Q 1697 3084 1428 2787 
Q 1159 2491 1159 1978 
L 1159 0 
L 581 0 
L 581 3500 
L 1159 3500 
L 1159 2956 
Q 1366 3272 1645 3428 
Q 1925 3584 2291 3584 
Q 2894 3584 3203 3211 
Q 3513 2838 3513 2113 
z
" transform="scale(0.015625)"/>
       <path id="DejaVuSans-41" d="M 2188 4044 
L 1331 1722 
L 3047 1722 
L 2188 4044 
z
M 1831 4666 
L 2547 4666 
L 4325 0 
L 3669 0 
L 3244 1197 
L 1141 1197 
L 716 0 
L 50 0 
L 1831 4666 
z
" transform="scale(0.015625)"/>
       <path id="DejaVuSans-50" d="M 1259 4147 
L 1259 2394 
L 2053 2394 
Q 2494 2394 2734 2622 
Q 2975 2850 2975 3272 
Q 2975 3691 2734 3919 
Q 2494 4147 2053 4147 
L 1259 4147 
z
M 628 4666 
L 2053 4666 
Q 2838 4666 3239 4311 
Q 3641 3956 3641 3272 
Q 3641 2581 3239 2228 
Q 2838 1875 2053 1875 
L 1259 1875 
L 1259 0 
L 628 0 
L 628 4666 
z
" transform="scale(0.015625)"/>
       <path id="DejaVuSans-45" d="M 628 4666 
L 3578 4666 
L 3578 4134 
L 1259 4134 
L 1259 2753 
L 3481 2753 
L 3481 2222 
L 1259 2222 
L 1259 531 
L 3634 531 
L 3634 0 
L 628 0 
L 628 4666 
z
" transform="scale(0.015625)"/>
       <path id="DejaVuSans-63" d="M 3122 3366 
L 3122 2828 
Q 2878 2963 2633 3030 
Q 2388 3097 2138 3097 
Q 1578 3097 1268 2742 
Q 959 2388 959 1747 
Q 959 1106 1268 751 
Q 1578 397 2138 397 
Q 2388 397 2633 464 
Q 2878 531 3122 666 
L 3122 134 
Q 2881 22 2623 -34 
Q 2366 -91 2075 -91 
Q 1284 -91 818 406 
Q 353 903 353 1747 
Q 353 2603 823 3093 
Q 1294 3584 2113 3584 
Q 2378 3584 2631 3529 
Q 2884 3475 3122 3366 
z
" transform="scale(0.015625)"/>
       <path id="DejaVuSans-28" d="M 1984 4856 
Q 1566 4138 1362 3434 
Q 1159 2731 1159 2009 
Q 1159 1288 1364 580 
Q 1569 -128 1984 -844 
L 1484 -844 
Q 1016 -109 783 600 
Q 550 1309 550 2009 
Q 550 2706 781 3412 
Q 1013 4119 1484 4856 
L 1984 4856 
z
" transform="scale(0.015625)"/>
       <path id="DejaVuSans-25" d="M 4653 2053 
Q 4381 2053 4226 1822 
Q 4072 1591 4072 1178 
Q 4072 772 4226 539 
Q 4381 306 4653 306 
Q 4919 306 5073 539 
Q 5228 772 5228 1178 
Q 5228 1588 5073 1820 
Q 4919 2053 4653 2053 
z
M 4653 2450 
Q 5147 2450 5437 2106 
Q 5728 1763 5728 1178 
Q 5728 594 5436 251 
Q 5144 -91 4653 -91 
Q 4153 -91 3862 251 
Q 3572 594 3572 1178 
Q 3572 1766 3864 2108 
Q 4156 2450 4653 2450 
z
M 1428 4353 
Q 1159 4353 1004 4120 
Q 850 3888 850 3481 
Q 850 3069 1003 2837 
Q 1156 2606 1428 2606 
Q 1700 2606 1854 2837 
Q 2009 3069 2009 3481 
Q 2009 3884 1853 4118 
Q 1697 4353 1428 4353 
z
M 4250 4750 
L 4750 4750 
L 1831 -91 
L 1331 -91 
L 4250 4750 
z
M 1428 4750 
Q 1922 4750 2215 4408 
Q 2509 4066 2509 3481 
Q 2509 2891 2217 2550 
Q 1925 2209 1428 2209 
Q 931 2209 642 2551 
Q 353 2894 353 3481 
Q 353 4063 643 4406 
Q 934 4750 1428 4750 
z
" transform="scale(0.015625)"/>
       <path id="DejaVuSans-29" d="M 513 4856 
L 1013 4856 
Q 1481 4119 1714 3412 
Q 1947 2706 1947 2009 
Q 1947 1309 1714 600 
Q 1481 -109 1013 -844 
L 513 -844 
Q 928 -128 1133 580 
Q 1338 1288 1338 2009 
Q 1338 2731 1133 3434 
Q 928 4138 513 4856 
z
" transform="scale(0.015625)"/>
      </defs>
      <use xlink:href="#DejaVuSans-4d"/>
      <use xlink:href="#DejaVuSans-65" x="86.279297"/>
      <use xlink:href="#DejaVuSans-64" x="147.802734"/>
      <use xlink:href="#DejaVuSans-69" x="211.279297"/>
      <use xlink:href="#DejaVuSans-61" x="239.0625"/>
      <use xlink:href="#DejaVuSans-6e" x="300.341797"/>
      <use xlink:href="#DejaVuSans-20" x="363.720703"/>
      <use xlink:href="#DejaVuSans-41" x="395.507812"/>
      <use xlink:href="#DejaVuSans-50" x="463.916016"/>
      <use xlink:href="#DejaVuSans-45" x="524.21875"/>
      <use xlink:href="#DejaVuSans-20" x="587.402344"/>
      <use xlink:href="#DejaVuSans-6f" x="619.189453"/>
      <use xlink:href="#DejaVuSans-66" x="680.371094"/>
      <use xlink:href="#DejaVuSans-20" x="715.576172"/>
      <use xlink:href="#DejaVuSans-6c" x="747.363281"/>
      <use xlink:href="#DejaVuSans-6f" x="775.146484"/>
      <use xlink:href="#DejaVuSans-67" x="836.328125"/>
      <use xlink:href="#DejaVuSans-20" x="899.804688"/>
      <use xlink:href="#DejaVuSans-66" x="931.591797"/>
      <use xlink:href="#DejaVuSans-6f" x="966.796875"/>
      <use xlink:href="#DejaVuSans-6c" x="1027.978516"/>
      <use xlink:href="#DejaVuSans-64" x="1055.761719"/>
      <use xlink:href="#DejaVuSans-20" x="1119.238281"/>
      <use xlink:href="#DejaVuSans-63" x="1151.025391"/>
      <use xlink:href="#DejaVuSans-68" x="1206.005859"/>
      <use xlink:href="#DejaVuSans-61" x="1269.384766"/>
      <use xlink:href="#DejaVuSans-6e" x="1330.664062"/>
      <use xlink:href="#DejaVuSans-67" x="1394.042969"/>
      <use xlink:href="#DejaVuSans-65" x="1457.519531"/>
      <use xlink:href="#DejaVuSans-20" x="1519.042969"/>
      <use xlink:href="#DejaVuSans-28" x="1550.830078"/>
      <use xlink:href="#DejaVuSans-25" x="1589.84375"/>
      <use xlink:href="#DejaVuSans-29" x="1684.863281"/>
     </g>
    </g>
   </g>
   <g id="line2d_14">
    <path d="M 95.473175 362.962467 
L 95.473175 362.962467 
" clip-path="url(#p1a00829888)" style="fill: none; stroke: #424242; stroke-width: 4.05; stroke-linecap: square"/>
   </g>
   <g id="line2d_15">
    <path d="M 219.442175 340.352558 
L 219.442175 340.352558 
" clip-path="url(#p1a00829888)" style="fill: none; stroke: #424242; stroke-width: 4.05; stroke-linecap: square"/>
   </g>
   <g id="line2d_16">
    <path d="M 343.411175 348.217754 
L 343.411175 348.217754 
" clip-path="url(#p1a00829888)" style="fill: none; stroke: #424242; stroke-width: 4.05; stroke-linecap: square"/>
   </g>
   <g id="line2d_17">
    <path d="M 467.380175 321.156628 
L 467.380175 321.156628 
" clip-path="url(#p1a00829888)" style="fill: none; stroke: #424242; stroke-width: 4.05; stroke-linecap: square"/>
   </g>
   <g id="line2d_18">
    <path d="M 591.349175 358.975277 
L 591.349175 358.975277 
" clip-path="url(#p1a00829888)" style="fill: none; stroke: #424242; stroke-width: 4.05; stroke-linecap: square"/>
   </g>
   <g id="line2d_19">
    <path d="M 715.318175 347.308064 
L 715.318175 347.308064 
" clip-path="url(#p1a00829888)" style="fill: none; stroke: #424242; stroke-width: 4.05; stroke-linecap: square"/>
   </g>
   <g id="line2d_20">
    <path d="M 120.266975 358.830092 
L 120.266975 358.830092 
" clip-path="url(#p1a00829888)" style="fill: none; stroke: #424242; stroke-width: 4.05; stroke-linecap: square"/>
   </g>
   <g id="line2d_21">
    <path d="M 244.235975 340.667144 
L 244.235975 340.667144 
" clip-path="url(#p1a00829888)" style="fill: none; stroke: #424242; stroke-width: 4.05; stroke-linecap: square"/>
   </g>
   <g id="line2d_22">
    <path d="M 368.204975 346.957075 
L 368.204975 346.957075 
" clip-path="url(#p1a00829888)" style="fill: none; stroke: #424242; stroke-width: 4.05; stroke-linecap: square"/>
   </g>
   <g id="line2d_23">
    <path d="M 492.173975 321.280324 
L 492.173975 321.280324 
" clip-path="url(#p1a00829888)" style="fill: none; stroke: #424242; stroke-width: 4.05; stroke-linecap: square"/>
   </g>
   <g id="line2d_24">
    <path d="M 616.142975 354.297012 
L 616.142975 354.297012 
" clip-path="url(#p1a00829888)" style="fill: none; stroke: #424242; stroke-width: 4.05; stroke-linecap: square"/>
   </g>
   <g id="line2d_25">
    <path d="M 740.111975 347.345691 
L 740.111975 347.345691 
" clip-path="url(#p1a00829888)" style="fill: none; stroke: #424242; stroke-width: 4.05; stroke-linecap: square"/>
   </g>
   <g id="line2d_26">
    <path d="M 145.060775 145.194712 
L 145.060775 78.957068 
" clip-path="url(#p1a00829888)" style="fill: none; stroke: #424242; stroke-width: 4.05; stroke-linecap: square"/>
   </g>
   <g id="line2d_27">
    <path d="M 269.029775 160.348364 
L 269.029775 111.863947 
" clip-path="url(#p1a00829888)" style="fill: none; stroke: #424242; stroke-width: 4.05; stroke-linecap: square"/>
   </g>
   <g id="line2d_28">
    <path d="M 392.998775 149.576297 
L 392.998775 104.829493 
" clip-path="url(#p1a00829888)" style="fill: none; stroke: #424242; stroke-width: 4.05; stroke-linecap: square"/>
   </g>
   <g id="line2d_29">
    <path d="M 516.967775 122.919373 
L 516.967775 116.395077 
" clip-path="url(#p1a00829888)" style="fill: none; stroke: #424242; stroke-width: 4.05; stroke-linecap: square"/>
   </g>
   <g id="line2d_30">
    <path d="M 640.936775 159.585163 
L 640.936775 120.968966 
" clip-path="url(#p1a00829888)" style="fill: none; stroke: #424242; stroke-width: 4.05; stroke-linecap: square"/>
   </g>
   <g id="line2d_31">
    <path d="M 764.905775 121.88162 
L 764.905775 74.676054 
" clip-path="url(#p1a00829888)" style="fill: none; stroke: #424242; stroke-width: 4.05; stroke-linecap: square"/>
   </g>
   <g id="line2d_32">
    <path d="M 169.854575 104.522963 
L 169.854575 72.434454 
" clip-path="url(#p1a00829888)" style="fill: none; stroke: #424242; stroke-width: 4.05; stroke-linecap: square"/>
   </g>
   <g id="line2d_33">
    <path d="M 293.823575 209.514136 
L 293.823575 126.920614 
" clip-path="url(#p1a00829888)" style="fill: none; stroke: #424242; stroke-width: 4.05; stroke-linecap: square"/>
   </g>
   <g id="line2d_34">
    <path d="M 417.792575 85.669591 
L 417.792575 27 
" clip-path="url(#p1a00829888)" style="fill: none; stroke: #424242; stroke-width: 4.05; stroke-linecap: square"/>
   </g>
   <g id="line2d_35">
    <path d="M 541.761575 142.869268 
L 541.761575 74.584873 
" clip-path="url(#p1a00829888)" style="fill: none; stroke: #424242; stroke-width: 4.05; stroke-linecap: square"/>
   </g>
   <g id="line2d_36">
    <path d="M 665.730575 165.389746 
L 665.730575 97.35766 
" clip-path="url(#p1a00829888)" style="fill: none; stroke: #424242; stroke-width: 4.05; stroke-linecap: square"/>
   </g>
   <g id="line2d_37">
    <path d="M 789.699575 181.91673 
L 789.699575 100.834159 
" clip-path="url(#p1a00829888)" style="fill: none; stroke: #424242; stroke-width: 4.05; stroke-linecap: square"/>
   </g>
   <g id="patch_27">
    <path d="M 70.679375 423 
L 70.679375 7.2 
" style="fill: none; stroke: #000000; stroke-width: 1.875; stroke-linejoin: miter; stroke-linecap: square"/>
   </g>
   <g id="patch_28">
    <path d="M 814.493375 423 
L 814.493375 7.2 
" style="fill: none; stroke: #000000; stroke-width: 1.875; stroke-linejoin: miter; stroke-linecap: square"/>
   </g>
   <g id="patch_29">
    <path d="M 70.679375 423 
L 814.493375 423 
" style="fill: none; stroke: #000000; stroke-width: 1.875; stroke-linejoin: miter; stroke-linecap: square"/>
   </g>
   <g id="patch_30">
    <path d="M 70.679375 7.2 
L 814.493375 7.2 
" style="fill: none; stroke: #000000; stroke-width: 1.875; stroke-linejoin: miter; stroke-linecap: square"/>
   </g>
   <g id="legend_1">
    <g id="patch_31">
     <path d="M 833.481515 226.10625 
L 1108.250343 226.10625 
Q 1111.550343 226.10625 1111.550343 222.80625 
L 1111.550343 101.91 
Q 1111.550343 98.61 1108.250343 98.61 
L 833.481515 98.61 
Q 830.181515 98.61 830.181515 101.91 
L 830.181515 222.80625 
Q 830.181515 226.10625 833.481515 226.10625 
z
" style="fill: #ffffff; opacity: 0.8; stroke: #cccccc; stroke-width: 1.5; stroke-linejoin: miter"/>
    </g>
    <g id="text_16">
     <!-- Biological information -->
     <g transform="translate(872.695617 118.887187) scale(0.18 -0.18)">
      <defs>
       <path id="DejaVuSans-42" d="M 1259 2228 
L 1259 519 
L 2272 519 
Q 2781 519 3026 730 
Q 3272 941 3272 1375 
Q 3272 1813 3026 2020 
Q 2781 2228 2272 2228 
L 1259 2228 
z
M 1259 4147 
L 1259 2741 
L 2194 2741 
Q 2656 2741 2882 2914 
Q 3109 3088 3109 3444 
Q 3109 3797 2882 3972 
Q 2656 4147 2194 4147 
L 1259 4147 
z
M 628 4666 
L 2241 4666 
Q 2963 4666 3353 4366 
Q 3744 4066 3744 3513 
Q 3744 3084 3544 2831 
Q 3344 2578 2956 2516 
Q 3422 2416 3680 2098 
Q 3938 1781 3938 1306 
Q 3938 681 3513 340 
Q 3088 0 2303 0 
L 628 0 
L 628 4666 
z
" transform="scale(0.015625)"/>
       <path id="DejaVuSans-6d" d="M 3328 2828 
Q 3544 3216 3844 3400 
Q 4144 3584 4550 3584 
Q 5097 3584 5394 3201 
Q 5691 2819 5691 2113 
L 5691 0 
L 5113 0 
L 5113 2094 
Q 5113 2597 4934 2840 
Q 4756 3084 4391 3084 
Q 3944 3084 3684 2787 
Q 3425 2491 3425 1978 
L 3425 0 
L 2847 0 
L 2847 2094 
Q 2847 2600 2669 2842 
Q 2491 3084 2119 3084 
Q 1678 3084 1418 2786 
Q 1159 2488 1159 1978 
L 1159 0 
L 581 0 
L 581 3500 
L 1159 3500 
L 1159 2956 
Q 1356 3278 1631 3431 
Q 1906 3584 2284 3584 
Q 2666 3584 2933 3390 
Q 3200 3197 3328 2828 
z
" transform="scale(0.015625)"/>
      </defs>
      <use xlink:href="#DejaVuSans-42"/>
      <use xlink:href="#DejaVuSans-69" x="68.603516"/>
      <use xlink:href="#DejaVuSans-6f" x="96.386719"/>
      <use xlink:href="#DejaVuSans-6c" x="157.568359"/>
      <use xlink:href="#DejaVuSans-6f" x="185.351562"/>
      <use xlink:href="#DejaVuSans-67" x="246.533203"/>
      <use xlink:href="#DejaVuSans-69" x="310.009766"/>
      <use xlink:href="#DejaVuSans-63" x="337.792969"/>
      <use xlink:href="#DejaVuSans-61" x="392.773438"/>
      <use xlink:href="#DejaVuSans-6c" x="454.052734"/>
      <use xlink:href="#DejaVuSans-20" x="481.835938"/>
      <use xlink:href="#DejaVuSans-69" x="513.623047"/>
      <use xlink:href="#DejaVuSans-6e" x="541.40625"/>
      <use xlink:href="#DejaVuSans-66" x="604.785156"/>
      <use xlink:href="#DejaVuSans-6f" x="639.990234"/>
      <use xlink:href="#DejaVuSans-72" x="701.171875"/>
      <use xlink:href="#DejaVuSans-6d" x="740.535156"/>
      <use xlink:href="#DejaVuSans-61" x="837.947266"/>
      <use xlink:href="#DejaVuSans-74" x="899.226562"/>
      <use xlink:href="#DejaVuSans-69" x="938.435547"/>
      <use xlink:href="#DejaVuSans-6f" x="966.21875"/>
      <use xlink:href="#DejaVuSans-6e" x="1027.400391"/>
     </g>
    </g>
    <g id="patch_32">
     <path d="M 836.781515 143.418047 
L 869.781515 143.418047 
L 869.781515 131.868047 
L 836.781515 131.868047 
z
" style="fill: #176d9c"/>
    </g>
    <g id="text_17">
     <!-- Baseline -->
     <g transform="translate(882.981515 143.418047) scale(0.165 -0.165)">
      <defs>
       <path id="DejaVuSans-73" d="M 2834 3397 
L 2834 2853 
Q 2591 2978 2328 3040 
Q 2066 3103 1784 3103 
Q 1356 3103 1142 2972 
Q 928 2841 928 2578 
Q 928 2378 1081 2264 
Q 1234 2150 1697 2047 
L 1894 2003 
Q 2506 1872 2764 1633 
Q 3022 1394 3022 966 
Q 3022 478 2636 193 
Q 2250 -91 1575 -91 
Q 1294 -91 989 -36 
Q 684 19 347 128 
L 347 722 
Q 666 556 975 473 
Q 1284 391 1588 391 
Q 1994 391 2212 530 
Q 2431 669 2431 922 
Q 2431 1156 2273 1281 
Q 2116 1406 1581 1522 
L 1381 1569 
Q 847 1681 609 1914 
Q 372 2147 372 2553 
Q 372 3047 722 3315 
Q 1072 3584 1716 3584 
Q 2034 3584 2315 3537 
Q 2597 3491 2834 3397 
z
" transform="scale(0.015625)"/>
      </defs>
      <use xlink:href="#DejaVuSans-42"/>
      <use xlink:href="#DejaVuSans-61" x="68.603516"/>
      <use xlink:href="#DejaVuSans-73" x="129.882812"/>
      <use xlink:href="#DejaVuSans-65" x="181.982422"/>
      <use xlink:href="#DejaVuSans-6c" x="243.505859"/>
      <use xlink:href="#DejaVuSans-69" x="271.289062"/>
      <use xlink:href="#DejaVuSans-6e" x="299.072266"/>
      <use xlink:href="#DejaVuSans-65" x="362.451172"/>
     </g>
    </g>
    <g id="patch_33">
     <path d="M 836.781515 167.636953 
L 869.781515 167.636953 
L 869.781515 156.086953 
L 836.781515 156.086953 
z
" style="fill: #c38820"/>
    </g>
    <g id="text_18">
     <!-- PPI -->
     <g transform="translate(882.981515 167.636953) scale(0.165 -0.165)">
      <defs>
       <path id="DejaVuSans-49" d="M 628 4666 
L 1259 4666 
L 1259 0 
L 628 0 
L 628 4666 
z
" transform="scale(0.015625)"/>
      </defs>
      <use xlink:href="#DejaVuSans-50"/>
      <use xlink:href="#DejaVuSans-50" x="60.302734"/>
      <use xlink:href="#DejaVuSans-49" x="120.605469"/>
     </g>
    </g>
    <g id="patch_34">
     <path d="M 836.781515 191.855859 
L 869.781515 191.855859 
L 869.781515 180.305859 
L 836.781515 180.305859 
z
" style="fill: #158b6a"/>
    </g>
    <g id="text_19">
     <!-- Stiochiometric protein -->
     <g transform="translate(882.981515 191.855859) scale(0.165 -0.165)">
      <defs>
       <path id="DejaVuSans-53" d="M 3425 4513 
L 3425 3897 
Q 3066 4069 2747 4153 
Q 2428 4238 2131 4238 
Q 1616 4238 1336 4038 
Q 1056 3838 1056 3469 
Q 1056 3159 1242 3001 
Q 1428 2844 1947 2747 
L 2328 2669 
Q 3034 2534 3370 2195 
Q 3706 1856 3706 1288 
Q 3706 609 3251 259 
Q 2797 -91 1919 -91 
Q 1588 -91 1214 -16 
Q 841 59 441 206 
L 441 856 
Q 825 641 1194 531 
Q 1563 422 1919 422 
Q 2459 422 2753 634 
Q 3047 847 3047 1241 
Q 3047 1584 2836 1778 
Q 2625 1972 2144 2069 
L 1759 2144 
Q 1053 2284 737 2584 
Q 422 2884 422 3419 
Q 422 4038 858 4394 
Q 1294 4750 2059 4750 
Q 2388 4750 2728 4690 
Q 3069 4631 3425 4513 
z
" transform="scale(0.015625)"/>
      </defs>
      <use xlink:href="#DejaVuSans-53"/>
      <use xlink:href="#DejaVuSans-74" x="63.476562"/>
      <use xlink:href="#DejaVuSans-69" x="102.685547"/>
      <use xlink:href="#DejaVuSans-6f" x="130.46875"/>
      <use xlink:href="#DejaVuSans-63" x="191.650391"/>
      <use xlink:href="#DejaVuSans-68" x="246.630859"/>
      <use xlink:href="#DejaVuSans-69" x="310.009766"/>
      <use xlink:href="#DejaVuSans-6f" x="337.792969"/>
      <use xlink:href="#DejaVuSans-6d" x="398.974609"/>
      <use xlink:href="#DejaVuSans-65" x="496.386719"/>
      <use xlink:href="#DejaVuSans-74" x="557.910156"/>
      <use xlink:href="#DejaVuSans-72" x="597.119141"/>
      <use xlink:href="#DejaVuSans-69" x="638.232422"/>
      <use xlink:href="#DejaVuSans-63" x="666.015625"/>
      <use xlink:href="#DejaVuSans-20" x="720.996094"/>
      <use xlink:href="#DejaVuSans-70" x="752.783203"/>
      <use xlink:href="#DejaVuSans-72" x="816.259766"/>
      <use xlink:href="#DejaVuSans-6f" x="855.123047"/>
      <use xlink:href="#DejaVuSans-74" x="916.304688"/>
      <use xlink:href="#DejaVuSans-65" x="955.513672"/>
      <use xlink:href="#DejaVuSans-69" x="1017.037109"/>
      <use xlink:href="#DejaVuSans-6e" x="1044.820312"/>
     </g>
    </g>
    <g id="patch_35">
     <path d="M 836.781515 216.074766 
L 869.781515 216.074766 
L 869.781515 204.524766 
L 836.781515 204.524766 
z
" style="fill: #ba611b"/>
    </g>
    <g id="text_20">
     <!-- Stiochiometric metabolites -->
     <g transform="translate(882.981515 216.074766) scale(0.165 -0.165)">
      <use xlink:href="#DejaVuSans-53"/>
      <use xlink:href="#DejaVuSans-74" x="63.476562"/>
      <use xlink:href="#DejaVuSans-69" x="102.685547"/>
      <use xlink:href="#DejaVuSans-6f" x="130.46875"/>
      <use xlink:href="#DejaVuSans-63" x="191.650391"/>
      <use xlink:href="#DejaVuSans-68" x="246.630859"/>
      <use xlink:href="#DejaVuSans-69" x="310.009766"/>
      <use xlink:href="#DejaVuSans-6f" x="337.792969"/>
      <use xlink:href="#DejaVuSans-6d" x="398.974609"/>
      <use xlink:href="#DejaVuSans-65" x="496.386719"/>
      <use xlink:href="#DejaVuSans-74" x="557.910156"/>
      <use xlink:href="#DejaVuSans-72" x="597.119141"/>
      <use xlink:href="#DejaVuSans-69" x="638.232422"/>
      <use xlink:href="#DejaVuSans-63" x="666.015625"/>
      <use xlink:href="#DejaVuSans-20" x="720.996094"/>
      <use xlink:href="#DejaVuSans-6d" x="752.783203"/>
      <use xlink:href="#DejaVuSans-65" x="850.195312"/>
      <use xlink:href="#DejaVuSans-74" x="911.71875"/>
      <use xlink:href="#DejaVuSans-61" x="950.927734"/>
      <use xlink:href="#DejaVuSans-62" x="1012.207031"/>
      <use xlink:href="#DejaVuSans-6f" x="1075.683594"/>
      <use xlink:href="#DejaVuSans-6c" x="1136.865234"/>
      <use xlink:href="#DejaVuSans-69" x="1164.648438"/>
      <use xlink:href="#DejaVuSans-74" x="1192.431641"/>
      <use xlink:href="#DejaVuSans-65" x="1231.640625"/>
      <use xlink:href="#DejaVuSans-73" x="1293.164062"/>
     </g>
    </g>
   </g>
  </g>
 </g>
 <defs>
  <clipPath id="p1a00829888">
   <rect x="70.679375" y="7.2" width="743.814" height="415.8"/>
  </clipPath>
 </defs>
</svg>
