<?xml version="1.0" encoding="utf-8" standalone="no"?>
<!DOCTYPE svg PUBLIC "-//W3C//DTD SVG 1.1//EN"
  "http://www.w3.org/Graphics/SVG/1.1/DTD/svg11.dtd">
<svg xmlns:xlink="http://www.w3.org/1999/xlink" width="1015.692374pt" height="560.306932pt" viewBox="0 0 1015.692374 560.306932" xmlns="http://www.w3.org/2000/svg" version="1.1">
 <metadata>
  <rdf:RDF xmlns:dc="http://purl.org/dc/elements/1.1/" xmlns:cc="http://creativecommons.org/ns#" xmlns:rdf="http://www.w3.org/1999/02/22-rdf-syntax-ns#">
   <cc:Work>
    <dc:type rdf:resource="http://purl.org/dc/dcmitype/StillImage"/>
    <dc:date>2023-01-09T11:39:28.016875</dc:date>
    <dc:format>image/svg+xml</dc:format>
    <dc:creator>
     <cc:Agent>
      <dc:title>Matplotlib v3.6.2, https://matplotlib.org/</dc:title>
     </cc:Agent>
    </dc:creator>
   </cc:Work>
  </rdf:RDF>
 </metadata>
 <defs>
  <style type="text/css">*{stroke-linejoin: round; stroke-linecap: butt}</style>
 </defs>
 <g id="figure_1">
  <g id="patch_1">
   <path d="M 0 560.306932 
L 1015.692374 560.306932 
L 1015.692374 0 
L 0 0 
z
" style="fill: #ffffff"/>
  </g>
  <g id="axes_1">
   <g id="patch_2">
    <path d="M 65.425156 426.766598 
L 809.239156 426.766598 
L 809.239156 10.966598 
L 65.425156 10.966598 
z
" style="fill: #ffffff"/>
   </g>
   <g id="patch_3">
    <path d="M 72.45758 256.32466 
L 98.964406 256.32466 
L 98.964406 158.46011 
L 72.45758 158.46011 
L 72.45758 256.32466 
z
" clip-path="url(#p17e078c173)" style="fill: #3274a1; stroke: #3f3f3f; stroke-width: 2.25; stroke-linejoin: miter"/>
   </g>
   <g id="patch_4">
    <path d="M 99.505361 127.954471 
L 126.012188 127.954471 
L 126.012188 96.317027 
L 99.505361 96.317027 
L 99.505361 127.954471 
z
" clip-path="url(#p17e078c173)" style="fill: #e1812c; stroke: #3f3f3f; stroke-width: 2.25; stroke-linejoin: miter"/>
   </g>
   <g id="patch_5">
    <path d="M 140.077034 255.183552 
L 166.58386 255.183552 
L 166.58386 198.986033 
L 140.077034 198.986033 
L 140.077034 255.183552 
z
" clip-path="url(#p17e078c173)" style="fill: #3274a1; stroke: #3f3f3f; stroke-width: 2.25; stroke-linejoin: miter"/>
   </g>
   <g id="patch_6">
    <path d="M 167.124816 131.730096 
L 193.631642 131.730096 
L 193.631642 110.170073 
L 167.124816 110.170073 
L 167.124816 131.730096 
z
" clip-path="url(#p17e078c173)" style="fill: #e1812c; stroke: #3f3f3f; stroke-width: 2.25; stroke-linejoin: miter"/>
   </g>
   <g id="patch_7">
    <path d="M 207.696489 229.87189 
L 234.203315 229.87189 
L 234.203315 127.679227 
L 207.696489 127.679227 
L 207.696489 229.87189 
z
" clip-path="url(#p17e078c173)" style="fill: #3274a1; stroke: #3f3f3f; stroke-width: 2.25; stroke-linejoin: miter"/>
   </g>
   <g id="patch_8">
    <path d="M 234.74427 93.436479 
L 261.251097 93.436479 
L 261.251097 61.880527 
L 234.74427 61.880527 
L 234.74427 93.436479 
z
" clip-path="url(#p17e078c173)" style="fill: #e1812c; stroke: #3f3f3f; stroke-width: 2.25; stroke-linejoin: miter"/>
   </g>
   <g id="patch_9">
    <path d="M 275.315943 282.79955 
L 301.822769 282.79955 
L 301.822769 184.042275 
L 275.315943 184.042275 
L 275.315943 282.79955 
z
" clip-path="url(#p17e078c173)" style="fill: #3274a1; stroke: #3f3f3f; stroke-width: 2.25; stroke-linejoin: miter"/>
   </g>
   <g id="patch_10">
    <path d="M 302.363725 335.283484 
L 328.870551 335.283484 
L 328.870551 290.966817 
L 302.363725 290.966817 
L 302.363725 335.283484 
z
" clip-path="url(#p17e078c173)" style="fill: #e1812c; stroke: #3f3f3f; stroke-width: 2.25; stroke-linejoin: miter"/>
   </g>
   <g id="patch_11">
    <path d="M 342.935398 301.533339 
L 369.442224 301.533339 
L 369.442224 238.53856 
L 342.935398 238.53856 
L 342.935398 301.533339 
z
" clip-path="url(#p17e078c173)" style="fill: #3274a1; stroke: #3f3f3f; stroke-width: 2.25; stroke-linejoin: miter"/>
   </g>
   <g id="patch_12">
    <path d="M 369.98318 364.858554 
L 396.490006 364.858554 
L 396.490006 362.018933 
L 369.98318 362.018933 
L 369.98318 364.858554 
z
" clip-path="url(#p17e078c173)" style="fill: #e1812c; stroke: #3f3f3f; stroke-width: 2.25; stroke-linejoin: miter"/>
   </g>
   <g id="patch_13">
    <path d="M 410.554852 243.879577 
L 437.061678 243.879577 
L 437.061678 158.562153 
L 410.554852 158.562153 
L 410.554852 243.879577 
z
" clip-path="url(#p17e078c173)" style="fill: #3274a1; stroke: #3f3f3f; stroke-width: 2.25; stroke-linejoin: miter"/>
   </g>
   <g id="patch_14">
    <path d="M 437.602634 139.331425 
L 464.10946 139.331425 
L 464.10946 111.094021 
L 437.602634 111.094021 
L 437.602634 139.331425 
z
" clip-path="url(#p17e078c173)" style="fill: #e1812c; stroke: #3f3f3f; stroke-width: 2.25; stroke-linejoin: miter"/>
   </g>
   <g id="patch_15">
    <path d="M 478.174307 300.422419 
L 504.681133 300.422419 
L 504.681133 230.157052 
L 478.174307 230.157052 
L 478.174307 300.422419 
z
" clip-path="url(#p17e078c173)" style="fill: #3274a1; stroke: #3f3f3f; stroke-width: 2.25; stroke-linejoin: miter"/>
   </g>
   <g id="patch_16">
    <path d="M 505.222089 160.917313 
L 531.728915 160.917313 
L 531.728915 154.775161 
L 505.222089 154.775161 
L 505.222089 160.917313 
z
" clip-path="url(#p17e078c173)" style="fill: #e1812c; stroke: #3f3f3f; stroke-width: 2.25; stroke-linejoin: miter"/>
   </g>
   <g id="patch_17">
    <path d="M 545.793761 257.403016 
L 572.300588 257.403016 
L 572.300588 206.514326 
L 545.793761 206.514326 
L 545.793761 257.403016 
z
" clip-path="url(#p17e078c173)" style="fill: #3274a1; stroke: #3f3f3f; stroke-width: 2.25; stroke-linejoin: miter"/>
   </g>
   <g id="patch_18">
    <path d="M 572.841543 148.319864 
L 599.348369 148.319864 
L 599.348369 120.610236 
L 572.841543 120.610236 
L 572.841543 148.319864 
z
" clip-path="url(#p17e078c173)" style="fill: #e1812c; stroke: #3f3f3f; stroke-width: 2.25; stroke-linejoin: miter"/>
   </g>
   <g id="patch_19">
    <path d="M 613.413216 371.541301 
L 639.920042 371.541301 
L 639.920042 334.916346 
L 613.413216 334.916346 
L 613.413216 371.541301 
z
" clip-path="url(#p17e078c173)" style="fill: #3274a1; stroke: #3f3f3f; stroke-width: 2.25; stroke-linejoin: miter"/>
   </g>
   <g id="patch_20">
    <path d="M 640.460998 285.464813 
L 666.967824 285.464813 
L 666.967824 158.795926 
L 640.460998 158.795926 
L 640.460998 285.464813 
z
" clip-path="url(#p17e078c173)" style="fill: #e1812c; stroke: #3f3f3f; stroke-width: 2.25; stroke-linejoin: miter"/>
   </g>
   <g id="patch_21">
    <path d="M 681.03267 280.701002 
L 707.539497 280.701002 
L 707.539497 250.899503 
L 681.03267 250.899503 
L 681.03267 280.701002 
z
" clip-path="url(#p17e078c173)" style="fill: #3274a1; stroke: #3f3f3f; stroke-width: 2.25; stroke-linejoin: miter"/>
   </g>
   <g id="patch_22">
    <path d="M 708.080452 284.283276 
L 734.587278 284.283276 
L 734.587278 251.377878 
L 708.080452 251.377878 
L 708.080452 284.283276 
z
" clip-path="url(#p17e078c173)" style="fill: #e1812c; stroke: #3f3f3f; stroke-width: 2.25; stroke-linejoin: miter"/>
   </g>
   <g id="patch_23">
    <path d="M 748.652125 298.4678 
L 775.158951 298.4678 
L 775.158951 280.971105 
L 748.652125 280.971105 
L 748.652125 298.4678 
z
" clip-path="url(#p17e078c173)" style="fill: #3274a1; stroke: #3f3f3f; stroke-width: 2.25; stroke-linejoin: miter"/>
   </g>
   <g id="patch_24">
    <path d="M 775.699907 286.716129 
L 802.206733 286.716129 
L 802.206733 277.687133 
L 775.699907 277.687133 
L 775.699907 286.716129 
z
" clip-path="url(#p17e078c173)" style="fill: #e1812c; stroke: #3f3f3f; stroke-width: 2.25; stroke-linejoin: miter"/>
   </g>
   <g id="patch_25">
    <path d="M 99.234884 430.40752 
L 99.234884 430.40752 
L 99.234884 430.40752 
L 99.234884 430.40752 
z
" clip-path="url(#p17e078c173)" style="fill: #3274a1; stroke: #3f3f3f; stroke-width: 1.125; stroke-linejoin: miter"/>
   </g>
   <g id="patch_26">
    <path d="M 99.234884 430.40752 
L 99.234884 430.40752 
L 99.234884 430.40752 
L 99.234884 430.40752 
z
" clip-path="url(#p17e078c173)" style="fill: #e1812c; stroke: #3f3f3f; stroke-width: 1.125; stroke-linejoin: miter"/>
   </g>
   <g id="matplotlib.axis_1">
    <g id="xtick_1">
     <g id="line2d_1">
      <defs>
       <path id="m66ecf4ff09" d="M 0 0 
L 0 9 
" style="stroke: #000000; stroke-width: 1.875"/>
      </defs>
      <g>
       <use xlink:href="#m66ecf4ff09" x="99.234884" y="426.766598" style="stroke: #000000; stroke-width: 1.875"/>
      </g>
     </g>
     <g id="text_1">
      <!-- 3pg;2pg -->
      <g transform="translate(78.252042 496.536446) rotate(-45) scale(0.165 -0.165)">
       <defs>
        <path id="DejaVuSans-33" d="M 2597 2516 
Q 3050 2419 3304 2112 
Q 3559 1806 3559 1356 
Q 3559 666 3084 287 
Q 2609 -91 1734 -91 
Q 1441 -91 1130 -33 
Q 819 25 488 141 
L 488 750 
Q 750 597 1062 519 
Q 1375 441 1716 441 
Q 2309 441 2620 675 
Q 2931 909 2931 1356 
Q 2931 1769 2642 2001 
Q 2353 2234 1838 2234 
L 1294 2234 
L 1294 2753 
L 1863 2753 
Q 2328 2753 2575 2939 
Q 2822 3125 2822 3475 
Q 2822 3834 2567 4026 
Q 2313 4219 1838 4219 
Q 1578 4219 1281 4162 
Q 984 4106 628 3988 
L 628 4550 
Q 988 4650 1302 4700 
Q 1616 4750 1894 4750 
Q 2613 4750 3031 4423 
Q 3450 4097 3450 3541 
Q 3450 3153 3228 2886 
Q 3006 2619 2597 2516 
z
" transform="scale(0.015625)"/>
        <path id="DejaVuSans-70" d="M 1159 525 
L 1159 -1331 
L 581 -1331 
L 581 3500 
L 1159 3500 
L 1159 2969 
Q 1341 3281 1617 3432 
Q 1894 3584 2278 3584 
Q 2916 3584 3314 3078 
Q 3713 2572 3713 1747 
Q 3713 922 3314 415 
Q 2916 -91 2278 -91 
Q 1894 -91 1617 61 
Q 1341 213 1159 525 
z
M 3116 1747 
Q 3116 2381 2855 2742 
Q 2594 3103 2138 3103 
Q 1681 3103 1420 2742 
Q 1159 2381 1159 1747 
Q 1159 1113 1420 752 
Q 1681 391 2138 391 
Q 2594 391 2855 752 
Q 3116 1113 3116 1747 
z
" transform="scale(0.015625)"/>
        <path id="DejaVuSans-67" d="M 2906 1791 
Q 2906 2416 2648 2759 
Q 2391 3103 1925 3103 
Q 1463 3103 1205 2759 
Q 947 2416 947 1791 
Q 947 1169 1205 825 
Q 1463 481 1925 481 
Q 2391 481 2648 825 
Q 2906 1169 2906 1791 
z
M 3481 434 
Q 3481 -459 3084 -895 
Q 2688 -1331 1869 -1331 
Q 1566 -1331 1297 -1286 
Q 1028 -1241 775 -1147 
L 775 -588 
Q 1028 -725 1275 -790 
Q 1522 -856 1778 -856 
Q 2344 -856 2625 -561 
Q 2906 -266 2906 331 
L 2906 616 
Q 2728 306 2450 153 
Q 2172 0 1784 0 
Q 1141 0 747 490 
Q 353 981 353 1791 
Q 353 2603 747 3093 
Q 1141 3584 1784 3584 
Q 2172 3584 2450 3431 
Q 2728 3278 2906 2969 
L 2906 3500 
L 3481 3500 
L 3481 434 
z
" transform="scale(0.015625)"/>
        <path id="DejaVuSans-3b" d="M 750 3309 
L 1409 3309 
L 1409 2516 
L 750 2516 
L 750 3309 
z
M 750 794 
L 1409 794 
L 1409 256 
L 897 -744 
L 494 -744 
L 750 256 
L 750 794 
z
" transform="scale(0.015625)"/>
        <path id="DejaVuSans-32" d="M 1228 531 
L 3431 531 
L 3431 0 
L 469 0 
L 469 531 
Q 828 903 1448 1529 
Q 2069 2156 2228 2338 
Q 2531 2678 2651 2914 
Q 2772 3150 2772 3378 
Q 2772 3750 2511 3984 
Q 2250 4219 1831 4219 
Q 1534 4219 1204 4116 
Q 875 4013 500 3803 
L 500 4441 
Q 881 4594 1212 4672 
Q 1544 4750 1819 4750 
Q 2544 4750 2975 4387 
Q 3406 4025 3406 3419 
Q 3406 3131 3298 2873 
Q 3191 2616 2906 2266 
Q 2828 2175 2409 1742 
Q 1991 1309 1228 531 
z
" transform="scale(0.015625)"/>
       </defs>
       <use xlink:href="#DejaVuSans-33"/>
       <use xlink:href="#DejaVuSans-70" x="63.623047"/>
       <use xlink:href="#DejaVuSans-67" x="127.099609"/>
       <use xlink:href="#DejaVuSans-3b" x="190.576172"/>
       <use xlink:href="#DejaVuSans-32" x="224.267578"/>
       <use xlink:href="#DejaVuSans-70" x="287.890625"/>
       <use xlink:href="#DejaVuSans-67" x="351.367188"/>
      </g>
     </g>
    </g>
    <g id="xtick_2">
     <g id="line2d_2">
      <g>
       <use xlink:href="#m66ecf4ff09" x="166.854338" y="426.766598" style="stroke: #000000; stroke-width: 1.875"/>
      </g>
     </g>
     <g id="text_2">
      <!-- dhap -->
      <g transform="translate(155.394899 477.489641) rotate(-45) scale(0.165 -0.165)">
       <defs>
        <path id="DejaVuSans-64" d="M 2906 2969 
L 2906 4863 
L 3481 4863 
L 3481 0 
L 2906 0 
L 2906 525 
Q 2725 213 2448 61 
Q 2172 -91 1784 -91 
Q 1150 -91 751 415 
Q 353 922 353 1747 
Q 353 2572 751 3078 
Q 1150 3584 1784 3584 
Q 2172 3584 2448 3432 
Q 2725 3281 2906 2969 
z
M 947 1747 
Q 947 1113 1208 752 
Q 1469 391 1925 391 
Q 2381 391 2643 752 
Q 2906 1113 2906 1747 
Q 2906 2381 2643 2742 
Q 2381 3103 1925 3103 
Q 1469 3103 1208 2742 
Q 947 2381 947 1747 
z
" transform="scale(0.015625)"/>
        <path id="DejaVuSans-68" d="M 3513 2113 
L 3513 0 
L 2938 0 
L 2938 2094 
Q 2938 2591 2744 2837 
Q 2550 3084 2163 3084 
Q 1697 3084 1428 2787 
Q 1159 2491 1159 1978 
L 1159 0 
L 581 0 
L 581 4863 
L 1159 4863 
L 1159 2956 
Q 1366 3272 1645 3428 
Q 1925 3584 2291 3584 
Q 2894 3584 3203 3211 
Q 3513 2838 3513 2113 
z
" transform="scale(0.015625)"/>
        <path id="DejaVuSans-61" d="M 2194 1759 
Q 1497 1759 1228 1600 
Q 959 1441 959 1056 
Q 959 750 1161 570 
Q 1363 391 1709 391 
Q 2188 391 2477 730 
Q 2766 1069 2766 1631 
L 2766 1759 
L 2194 1759 
z
M 3341 1997 
L 3341 0 
L 2766 0 
L 2766 531 
Q 2569 213 2275 61 
Q 1981 -91 1556 -91 
Q 1019 -91 701 211 
Q 384 513 384 1019 
Q 384 1609 779 1909 
Q 1175 2209 1959 2209 
L 2766 2209 
L 2766 2266 
Q 2766 2663 2505 2880 
Q 2244 3097 1772 3097 
Q 1472 3097 1187 3025 
Q 903 2953 641 2809 
L 641 3341 
Q 956 3463 1253 3523 
Q 1550 3584 1831 3584 
Q 2591 3584 2966 3190 
Q 3341 2797 3341 1997 
z
" transform="scale(0.015625)"/>
       </defs>
       <use xlink:href="#DejaVuSans-64"/>
       <use xlink:href="#DejaVuSans-68" x="63.476562"/>
       <use xlink:href="#DejaVuSans-61" x="126.855469"/>
       <use xlink:href="#DejaVuSans-70" x="188.134766"/>
      </g>
     </g>
    </g>
    <g id="xtick_3">
     <g id="line2d_3">
      <g>
       <use xlink:href="#m66ecf4ff09" x="234.473793" y="426.766598" style="stroke: #000000; stroke-width: 1.875"/>
      </g>
     </g>
     <g id="text_3">
      <!-- f6p -->
      <g transform="translate(228.224515 467.069318) rotate(-45) scale(0.165 -0.165)">
       <defs>
        <path id="DejaVuSans-66" d="M 2375 4863 
L 2375 4384 
L 1825 4384 
Q 1516 4384 1395 4259 
Q 1275 4134 1275 3809 
L 1275 3500 
L 2222 3500 
L 2222 3053 
L 1275 3053 
L 1275 0 
L 697 0 
L 697 3053 
L 147 3053 
L 147 3500 
L 697 3500 
L 697 3744 
Q 697 4328 969 4595 
Q 1241 4863 1831 4863 
L 2375 4863 
z
" transform="scale(0.015625)"/>
        <path id="DejaVuSans-36" d="M 2113 2584 
Q 1688 2584 1439 2293 
Q 1191 2003 1191 1497 
Q 1191 994 1439 701 
Q 1688 409 2113 409 
Q 2538 409 2786 701 
Q 3034 994 3034 1497 
Q 3034 2003 2786 2293 
Q 2538 2584 2113 2584 
z
M 3366 4563 
L 3366 3988 
Q 3128 4100 2886 4159 
Q 2644 4219 2406 4219 
Q 1781 4219 1451 3797 
Q 1122 3375 1075 2522 
Q 1259 2794 1537 2939 
Q 1816 3084 2150 3084 
Q 2853 3084 3261 2657 
Q 3669 2231 3669 1497 
Q 3669 778 3244 343 
Q 2819 -91 2113 -91 
Q 1303 -91 875 529 
Q 447 1150 447 2328 
Q 447 3434 972 4092 
Q 1497 4750 2381 4750 
Q 2619 4750 2861 4703 
Q 3103 4656 3366 4563 
z
" transform="scale(0.015625)"/>
       </defs>
       <use xlink:href="#DejaVuSans-66"/>
       <use xlink:href="#DejaVuSans-36" x="35.205078"/>
       <use xlink:href="#DejaVuSans-70" x="98.828125"/>
      </g>
     </g>
    </g>
    <g id="xtick_4">
     <g id="line2d_4">
      <g>
       <use xlink:href="#m66ecf4ff09" x="302.093247" y="426.766598" style="stroke: #000000; stroke-width: 1.875"/>
      </g>
     </g>
     <g id="text_4">
      <!-- g6p;f6p;g6p-B -->
      <g transform="translate(263.780876 531.195506) rotate(-45) scale(0.165 -0.165)">
       <defs>
        <path id="DejaVuSans-2d" d="M 313 2009 
L 1997 2009 
L 1997 1497 
L 313 1497 
L 313 2009 
z
" transform="scale(0.015625)"/>
        <path id="DejaVuSans-42" d="M 1259 2228 
L 1259 519 
L 2272 519 
Q 2781 519 3026 730 
Q 3272 941 3272 1375 
Q 3272 1813 3026 2020 
Q 2781 2228 2272 2228 
L 1259 2228 
z
M 1259 4147 
L 1259 2741 
L 2194 2741 
Q 2656 2741 2882 2914 
Q 3109 3088 3109 3444 
Q 3109 3797 2882 3972 
Q 2656 4147 2194 4147 
L 1259 4147 
z
M 628 4666 
L 2241 4666 
Q 2963 4666 3353 4366 
Q 3744 4066 3744 3513 
Q 3744 3084 3544 2831 
Q 3344 2578 2956 2516 
Q 3422 2416 3680 2098 
Q 3938 1781 3938 1306 
Q 3938 681 3513 340 
Q 3088 0 2303 0 
L 628 0 
L 628 4666 
z
" transform="scale(0.015625)"/>
       </defs>
       <use xlink:href="#DejaVuSans-67"/>
       <use xlink:href="#DejaVuSans-36" x="63.476562"/>
       <use xlink:href="#DejaVuSans-70" x="127.099609"/>
       <use xlink:href="#DejaVuSans-3b" x="190.576172"/>
       <use xlink:href="#DejaVuSans-66" x="224.267578"/>
       <use xlink:href="#DejaVuSans-36" x="259.472656"/>
       <use xlink:href="#DejaVuSans-70" x="323.095703"/>
       <use xlink:href="#DejaVuSans-3b" x="386.572266"/>
       <use xlink:href="#DejaVuSans-67" x="420.263672"/>
       <use xlink:href="#DejaVuSans-36" x="483.740234"/>
       <use xlink:href="#DejaVuSans-70" x="547.363281"/>
       <use xlink:href="#DejaVuSans-2d" x="610.839844"/>
       <use xlink:href="#DejaVuSans-42" x="643.298828"/>
      </g>
     </g>
    </g>
    <g id="xtick_5">
     <g id="line2d_5">
      <g>
       <use xlink:href="#m66ecf4ff09" x="369.712702" y="426.766598" style="stroke: #000000; stroke-width: 1.875"/>
      </g>
     </g>
     <g id="text_5">
      <!-- g6p;g6p-B -->
      <g transform="translate(342.834247 508.327673) rotate(-45) scale(0.165 -0.165)">
       <use xlink:href="#DejaVuSans-67"/>
       <use xlink:href="#DejaVuSans-36" x="63.476562"/>
       <use xlink:href="#DejaVuSans-70" x="127.099609"/>
       <use xlink:href="#DejaVuSans-3b" x="190.576172"/>
       <use xlink:href="#DejaVuSans-67" x="224.267578"/>
       <use xlink:href="#DejaVuSans-36" x="287.744141"/>
       <use xlink:href="#DejaVuSans-70" x="351.367188"/>
       <use xlink:href="#DejaVuSans-2d" x="414.84375"/>
       <use xlink:href="#DejaVuSans-42" x="447.302734"/>
      </g>
     </g>
    </g>
    <g id="xtick_6">
     <g id="line2d_6">
      <g>
       <use xlink:href="#m66ecf4ff09" x="437.332156" y="426.766598" style="stroke: #000000; stroke-width: 1.875"/>
      </g>
     </g>
     <g id="text_6">
      <!-- pep -->
      <g transform="translate(429.555197 470.124682) rotate(-45) scale(0.165 -0.165)">
       <defs>
        <path id="DejaVuSans-65" d="M 3597 1894 
L 3597 1613 
L 953 1613 
Q 991 1019 1311 708 
Q 1631 397 2203 397 
Q 2534 397 2845 478 
Q 3156 559 3463 722 
L 3463 178 
Q 3153 47 2828 -22 
Q 2503 -91 2169 -91 
Q 1331 -91 842 396 
Q 353 884 353 1716 
Q 353 2575 817 3079 
Q 1281 3584 2069 3584 
Q 2775 3584 3186 3129 
Q 3597 2675 3597 1894 
z
M 3022 2063 
Q 3016 2534 2758 2815 
Q 2500 3097 2075 3097 
Q 1594 3097 1305 2825 
Q 1016 2553 972 2059 
L 3022 2063 
z
" transform="scale(0.015625)"/>
       </defs>
       <use xlink:href="#DejaVuSans-70"/>
       <use xlink:href="#DejaVuSans-65" x="63.476562"/>
       <use xlink:href="#DejaVuSans-70" x="125"/>
      </g>
     </g>
    </g>
    <g id="xtick_7">
     <g id="line2d_7">
      <g>
       <use xlink:href="#m66ecf4ff09" x="504.951611" y="426.766598" style="stroke: #000000; stroke-width: 1.875"/>
      </g>
     </g>
     <g id="text_7">
      <!-- pyr -->
      <g transform="translate(498.616652 467.240681) rotate(-45) scale(0.165 -0.165)">
       <defs>
        <path id="DejaVuSans-79" d="M 2059 -325 
Q 1816 -950 1584 -1140 
Q 1353 -1331 966 -1331 
L 506 -1331 
L 506 -850 
L 844 -850 
Q 1081 -850 1212 -737 
Q 1344 -625 1503 -206 
L 1606 56 
L 191 3500 
L 800 3500 
L 1894 763 
L 2988 3500 
L 3597 3500 
L 2059 -325 
z
" transform="scale(0.015625)"/>
        <path id="DejaVuSans-72" d="M 2631 2963 
Q 2534 3019 2420 3045 
Q 2306 3072 2169 3072 
Q 1681 3072 1420 2755 
Q 1159 2438 1159 1844 
L 1159 0 
L 581 0 
L 581 3500 
L 1159 3500 
L 1159 2956 
Q 1341 3275 1631 3429 
Q 1922 3584 2338 3584 
Q 2397 3584 2469 3576 
Q 2541 3569 2628 3553 
L 2631 2963 
z
" transform="scale(0.015625)"/>
       </defs>
       <use xlink:href="#DejaVuSans-70"/>
       <use xlink:href="#DejaVuSans-79" x="63.476562"/>
       <use xlink:href="#DejaVuSans-72" x="122.65625"/>
      </g>
     </g>
    </g>
    <g id="xtick_8">
     <g id="line2d_8">
      <g>
       <use xlink:href="#m66ecf4ff09" x="572.571065" y="426.766598" style="stroke: #000000; stroke-width: 1.875"/>
      </g>
     </g>
     <g id="text_8">
      <!-- r5p -->
      <g transform="translate(565.977239 467.758416) rotate(-45) scale(0.165 -0.165)">
       <defs>
        <path id="DejaVuSans-35" d="M 691 4666 
L 3169 4666 
L 3169 4134 
L 1269 4134 
L 1269 2991 
Q 1406 3038 1543 3061 
Q 1681 3084 1819 3084 
Q 2600 3084 3056 2656 
Q 3513 2228 3513 1497 
Q 3513 744 3044 326 
Q 2575 -91 1722 -91 
Q 1428 -91 1123 -41 
Q 819 9 494 109 
L 494 744 
Q 775 591 1075 516 
Q 1375 441 1709 441 
Q 2250 441 2565 725 
Q 2881 1009 2881 1497 
Q 2881 1984 2565 2268 
Q 2250 2553 1709 2553 
Q 1456 2553 1204 2497 
Q 953 2441 691 2322 
L 691 4666 
z
" transform="scale(0.015625)"/>
       </defs>
       <use xlink:href="#DejaVuSans-72"/>
       <use xlink:href="#DejaVuSans-35" x="41.113281"/>
       <use xlink:href="#DejaVuSans-70" x="104.736328"/>
      </g>
     </g>
    </g>
    <g id="xtick_9">
     <g id="line2d_9">
      <g>
       <use xlink:href="#m66ecf4ff09" x="640.19052" y="426.766598" style="stroke: #000000; stroke-width: 1.875"/>
      </g>
     </g>
     <g id="text_9">
      <!-- accoa -->
      <g transform="translate(626.275487 482.400829) rotate(-45) scale(0.165 -0.165)">
       <defs>
        <path id="DejaVuSans-63" d="M 3122 3366 
L 3122 2828 
Q 2878 2963 2633 3030 
Q 2388 3097 2138 3097 
Q 1578 3097 1268 2742 
Q 959 2388 959 1747 
Q 959 1106 1268 751 
Q 1578 397 2138 397 
Q 2388 397 2633 464 
Q 2878 531 3122 666 
L 3122 134 
Q 2881 22 2623 -34 
Q 2366 -91 2075 -91 
Q 1284 -91 818 406 
Q 353 903 353 1747 
Q 353 2603 823 3093 
Q 1294 3584 2113 3584 
Q 2378 3584 2631 3529 
Q 2884 3475 3122 3366 
z
" transform="scale(0.015625)"/>
        <path id="DejaVuSans-6f" d="M 1959 3097 
Q 1497 3097 1228 2736 
Q 959 2375 959 1747 
Q 959 1119 1226 758 
Q 1494 397 1959 397 
Q 2419 397 2687 759 
Q 2956 1122 2956 1747 
Q 2956 2369 2687 2733 
Q 2419 3097 1959 3097 
z
M 1959 3584 
Q 2709 3584 3137 3096 
Q 3566 2609 3566 1747 
Q 3566 888 3137 398 
Q 2709 -91 1959 -91 
Q 1206 -91 779 398 
Q 353 888 353 1747 
Q 353 2609 779 3096 
Q 1206 3584 1959 3584 
z
" transform="scale(0.015625)"/>
       </defs>
       <use xlink:href="#DejaVuSans-61"/>
       <use xlink:href="#DejaVuSans-63" x="61.279297"/>
       <use xlink:href="#DejaVuSans-63" x="116.259766"/>
       <use xlink:href="#DejaVuSans-6f" x="171.240234"/>
       <use xlink:href="#DejaVuSans-61" x="232.421875"/>
      </g>
     </g>
    </g>
    <g id="xtick_10">
     <g id="line2d_10">
      <g>
       <use xlink:href="#m66ecf4ff09" x="707.809974" y="426.766598" style="stroke: #000000; stroke-width: 1.875"/>
      </g>
     </g>
     <g id="text_10">
      <!-- akg -->
      <g transform="translate(700.373006 469.4447) rotate(-45) scale(0.165 -0.165)">
       <defs>
        <path id="DejaVuSans-6b" d="M 581 4863 
L 1159 4863 
L 1159 1991 
L 2875 3500 
L 3609 3500 
L 1753 1863 
L 3688 0 
L 2938 0 
L 1159 1709 
L 1159 0 
L 581 0 
L 581 4863 
z
" transform="scale(0.015625)"/>
       </defs>
       <use xlink:href="#DejaVuSans-61"/>
       <use xlink:href="#DejaVuSans-6b" x="61.279297"/>
       <use xlink:href="#DejaVuSans-67" x="119.189453"/>
      </g>
     </g>
    </g>
    <g id="xtick_11">
     <g id="line2d_11">
      <g>
       <use xlink:href="#m66ecf4ff09" x="775.429429" y="426.766598" style="stroke: #000000; stroke-width: 1.875"/>
      </g>
     </g>
     <g id="text_11">
      <!-- oaa -->
      <g transform="translate(767.929567 469.570487) rotate(-45) scale(0.165 -0.165)">
       <use xlink:href="#DejaVuSans-6f"/>
       <use xlink:href="#DejaVuSans-61" x="61.181641"/>
       <use xlink:href="#DejaVuSans-61" x="122.460938"/>
      </g>
     </g>
    </g>
    <g id="text_12">
     <!-- Metabolite id -->
     <g transform="translate(385.147156 549.779432) scale(0.16 -0.16)">
      <defs>
       <path id="DejaVuSans-4d" d="M 628 4666 
L 1569 4666 
L 2759 1491 
L 3956 4666 
L 4897 4666 
L 4897 0 
L 4281 0 
L 4281 4097 
L 3078 897 
L 2444 897 
L 1241 4097 
L 1241 0 
L 628 0 
L 628 4666 
z
" transform="scale(0.015625)"/>
       <path id="DejaVuSans-74" d="M 1172 4494 
L 1172 3500 
L 2356 3500 
L 2356 3053 
L 1172 3053 
L 1172 1153 
Q 1172 725 1289 603 
Q 1406 481 1766 481 
L 2356 481 
L 2356 0 
L 1766 0 
Q 1100 0 847 248 
Q 594 497 594 1153 
L 594 3053 
L 172 3053 
L 172 3500 
L 594 3500 
L 594 4494 
L 1172 4494 
z
" transform="scale(0.015625)"/>
       <path id="DejaVuSans-62" d="M 3116 1747 
Q 3116 2381 2855 2742 
Q 2594 3103 2138 3103 
Q 1681 3103 1420 2742 
Q 1159 2381 1159 1747 
Q 1159 1113 1420 752 
Q 1681 391 2138 391 
Q 2594 391 2855 752 
Q 3116 1113 3116 1747 
z
M 1159 2969 
Q 1341 3281 1617 3432 
Q 1894 3584 2278 3584 
Q 2916 3584 3314 3078 
Q 3713 2572 3713 1747 
Q 3713 922 3314 415 
Q 2916 -91 2278 -91 
Q 1894 -91 1617 61 
Q 1341 213 1159 525 
L 1159 0 
L 581 0 
L 581 4863 
L 1159 4863 
L 1159 2969 
z
" transform="scale(0.015625)"/>
       <path id="DejaVuSans-6c" d="M 603 4863 
L 1178 4863 
L 1178 0 
L 603 0 
L 603 4863 
z
" transform="scale(0.015625)"/>
       <path id="DejaVuSans-69" d="M 603 3500 
L 1178 3500 
L 1178 0 
L 603 0 
L 603 3500 
z
M 603 4863 
L 1178 4863 
L 1178 4134 
L 603 4134 
L 603 4863 
z
" transform="scale(0.015625)"/>
       <path id="DejaVuSans-20" transform="scale(0.015625)"/>
      </defs>
      <use xlink:href="#DejaVuSans-4d"/>
      <use xlink:href="#DejaVuSans-65" x="86.279297"/>
      <use xlink:href="#DejaVuSans-74" x="147.802734"/>
      <use xlink:href="#DejaVuSans-61" x="187.011719"/>
      <use xlink:href="#DejaVuSans-62" x="248.291016"/>
      <use xlink:href="#DejaVuSans-6f" x="311.767578"/>
      <use xlink:href="#DejaVuSans-6c" x="372.949219"/>
      <use xlink:href="#DejaVuSans-69" x="400.732422"/>
      <use xlink:href="#DejaVuSans-74" x="428.515625"/>
      <use xlink:href="#DejaVuSans-65" x="467.724609"/>
      <use xlink:href="#DejaVuSans-20" x="529.248047"/>
      <use xlink:href="#DejaVuSans-69" x="561.035156"/>
      <use xlink:href="#DejaVuSans-64" x="588.818359"/>
     </g>
    </g>
   </g>
   <g id="matplotlib.axis_2">
    <g id="ytick_1">
     <g id="line2d_12">
      <defs>
       <path id="m474c5cd150" d="M 0 0 
L -9 0 
" style="stroke: #000000; stroke-width: 1.875"/>
      </defs>
      <g>
       <use xlink:href="#m474c5cd150" x="65.425156" y="384.080986" style="stroke: #000000; stroke-width: 1.875"/>
      </g>
     </g>
     <g id="text_13">
      <!-- 0.1 -->
      <g transform="translate(26.685 390.349697) scale(0.165 -0.165)">
       <defs>
        <path id="DejaVuSans-30" d="M 2034 4250 
Q 1547 4250 1301 3770 
Q 1056 3291 1056 2328 
Q 1056 1369 1301 889 
Q 1547 409 2034 409 
Q 2525 409 2770 889 
Q 3016 1369 3016 2328 
Q 3016 3291 2770 3770 
Q 2525 4250 2034 4250 
z
M 2034 4750 
Q 2819 4750 3233 4129 
Q 3647 3509 3647 2328 
Q 3647 1150 3233 529 
Q 2819 -91 2034 -91 
Q 1250 -91 836 529 
Q 422 1150 422 2328 
Q 422 3509 836 4129 
Q 1250 4750 2034 4750 
z
" transform="scale(0.015625)"/>
        <path id="DejaVuSans-2e" d="M 684 794 
L 1344 794 
L 1344 0 
L 684 0 
L 684 794 
z
" transform="scale(0.015625)"/>
        <path id="DejaVuSans-31" d="M 794 531 
L 1825 531 
L 1825 4091 
L 703 3866 
L 703 4441 
L 1819 4666 
L 2450 4666 
L 2450 531 
L 3481 531 
L 3481 0 
L 794 0 
L 794 531 
z
" transform="scale(0.015625)"/>
       </defs>
       <use xlink:href="#DejaVuSans-30"/>
       <use xlink:href="#DejaVuSans-2e" x="63.623047"/>
       <use xlink:href="#DejaVuSans-31" x="95.410156"/>
      </g>
     </g>
    </g>
    <g id="ytick_2">
     <g id="line2d_13">
      <g>
       <use xlink:href="#m474c5cd150" x="65.425156" y="337.754451" style="stroke: #000000; stroke-width: 1.875"/>
      </g>
     </g>
     <g id="text_14">
      <!-- 0.2 -->
      <g transform="translate(26.685 344.023162) scale(0.165 -0.165)">
       <use xlink:href="#DejaVuSans-30"/>
       <use xlink:href="#DejaVuSans-2e" x="63.623047"/>
       <use xlink:href="#DejaVuSans-32" x="95.410156"/>
      </g>
     </g>
    </g>
    <g id="ytick_3">
     <g id="line2d_14">
      <g>
       <use xlink:href="#m474c5cd150" x="65.425156" y="291.427917" style="stroke: #000000; stroke-width: 1.875"/>
      </g>
     </g>
     <g id="text_15">
      <!-- 0.3 -->
      <g transform="translate(26.685 297.696628) scale(0.165 -0.165)">
       <use xlink:href="#DejaVuSans-30"/>
       <use xlink:href="#DejaVuSans-2e" x="63.623047"/>
       <use xlink:href="#DejaVuSans-33" x="95.410156"/>
      </g>
     </g>
    </g>
    <g id="ytick_4">
     <g id="line2d_15">
      <g>
       <use xlink:href="#m474c5cd150" x="65.425156" y="245.101383" style="stroke: #000000; stroke-width: 1.875"/>
      </g>
     </g>
     <g id="text_16">
      <!-- 0.4 -->
      <g transform="translate(26.685 251.370094) scale(0.165 -0.165)">
       <defs>
        <path id="DejaVuSans-34" d="M 2419 4116 
L 825 1625 
L 2419 1625 
L 2419 4116 
z
M 2253 4666 
L 3047 4666 
L 3047 1625 
L 3713 1625 
L 3713 1100 
L 3047 1100 
L 3047 0 
L 2419 0 
L 2419 1100 
L 313 1100 
L 313 1709 
L 2253 4666 
z
" transform="scale(0.015625)"/>
       </defs>
       <use xlink:href="#DejaVuSans-30"/>
       <use xlink:href="#DejaVuSans-2e" x="63.623047"/>
       <use xlink:href="#DejaVuSans-34" x="95.410156"/>
      </g>
     </g>
    </g>
    <g id="ytick_5">
     <g id="line2d_16">
      <g>
       <use xlink:href="#m474c5cd150" x="65.425156" y="198.774848" style="stroke: #000000; stroke-width: 1.875"/>
      </g>
     </g>
     <g id="text_17">
      <!-- 0.5 -->
      <g transform="translate(26.685 205.043559) scale(0.165 -0.165)">
       <use xlink:href="#DejaVuSans-30"/>
       <use xlink:href="#DejaVuSans-2e" x="63.623047"/>
       <use xlink:href="#DejaVuSans-35" x="95.410156"/>
      </g>
     </g>
    </g>
    <g id="ytick_6">
     <g id="line2d_17">
      <g>
       <use xlink:href="#m474c5cd150" x="65.425156" y="152.448314" style="stroke: #000000; stroke-width: 1.875"/>
      </g>
     </g>
     <g id="text_18">
      <!-- 0.6 -->
      <g transform="translate(26.685 158.717025) scale(0.165 -0.165)">
       <use xlink:href="#DejaVuSans-30"/>
       <use xlink:href="#DejaVuSans-2e" x="63.623047"/>
       <use xlink:href="#DejaVuSans-36" x="95.410156"/>
      </g>
     </g>
    </g>
    <g id="ytick_7">
     <g id="line2d_18">
      <g>
       <use xlink:href="#m474c5cd150" x="65.425156" y="106.12178" style="stroke: #000000; stroke-width: 1.875"/>
      </g>
     </g>
     <g id="text_19">
      <!-- 0.7 -->
      <g transform="translate(26.685 112.390491) scale(0.165 -0.165)">
       <defs>
        <path id="DejaVuSans-37" d="M 525 4666 
L 3525 4666 
L 3525 4397 
L 1831 0 
L 1172 0 
L 2766 4134 
L 525 4134 
L 525 4666 
z
" transform="scale(0.015625)"/>
       </defs>
       <use xlink:href="#DejaVuSans-30"/>
       <use xlink:href="#DejaVuSans-2e" x="63.623047"/>
       <use xlink:href="#DejaVuSans-37" x="95.410156"/>
      </g>
     </g>
    </g>
    <g id="ytick_8">
     <g id="line2d_19">
      <g>
       <use xlink:href="#m474c5cd150" x="65.425156" y="59.795245" style="stroke: #000000; stroke-width: 1.875"/>
      </g>
     </g>
     <g id="text_20">
      <!-- 0.8 -->
      <g transform="translate(26.685 66.063956) scale(0.165 -0.165)">
       <defs>
        <path id="DejaVuSans-38" d="M 2034 2216 
Q 1584 2216 1326 1975 
Q 1069 1734 1069 1313 
Q 1069 891 1326 650 
Q 1584 409 2034 409 
Q 2484 409 2743 651 
Q 3003 894 3003 1313 
Q 3003 1734 2745 1975 
Q 2488 2216 2034 2216 
z
M 1403 2484 
Q 997 2584 770 2862 
Q 544 3141 544 3541 
Q 544 4100 942 4425 
Q 1341 4750 2034 4750 
Q 2731 4750 3128 4425 
Q 3525 4100 3525 3541 
Q 3525 3141 3298 2862 
Q 3072 2584 2669 2484 
Q 3125 2378 3379 2068 
Q 3634 1759 3634 1313 
Q 3634 634 3220 271 
Q 2806 -91 2034 -91 
Q 1263 -91 848 271 
Q 434 634 434 1313 
Q 434 1759 690 2068 
Q 947 2378 1403 2484 
z
M 1172 3481 
Q 1172 3119 1398 2916 
Q 1625 2713 2034 2713 
Q 2441 2713 2670 2916 
Q 2900 3119 2900 3481 
Q 2900 3844 2670 4047 
Q 2441 4250 2034 4250 
Q 1625 4250 1398 4047 
Q 1172 3844 1172 3481 
z
" transform="scale(0.015625)"/>
       </defs>
       <use xlink:href="#DejaVuSans-30"/>
       <use xlink:href="#DejaVuSans-2e" x="63.623047"/>
       <use xlink:href="#DejaVuSans-38" x="95.410156"/>
      </g>
     </g>
    </g>
    <g id="ytick_9">
     <g id="line2d_20">
      <g>
       <use xlink:href="#m474c5cd150" x="65.425156" y="13.468711" style="stroke: #000000; stroke-width: 1.875"/>
      </g>
     </g>
     <g id="text_21">
      <!-- 0.9 -->
      <g transform="translate(26.685 19.737422) scale(0.165 -0.165)">
       <defs>
        <path id="DejaVuSans-39" d="M 703 97 
L 703 672 
Q 941 559 1184 500 
Q 1428 441 1663 441 
Q 2288 441 2617 861 
Q 2947 1281 2994 2138 
Q 2813 1869 2534 1725 
Q 2256 1581 1919 1581 
Q 1219 1581 811 2004 
Q 403 2428 403 3163 
Q 403 3881 828 4315 
Q 1253 4750 1959 4750 
Q 2769 4750 3195 4129 
Q 3622 3509 3622 2328 
Q 3622 1225 3098 567 
Q 2575 -91 1691 -91 
Q 1453 -91 1209 -44 
Q 966 3 703 97 
z
M 1959 2075 
Q 2384 2075 2632 2365 
Q 2881 2656 2881 3163 
Q 2881 3666 2632 3958 
Q 2384 4250 1959 4250 
Q 1534 4250 1286 3958 
Q 1038 3666 1038 3163 
Q 1038 2656 1286 2365 
Q 1534 2075 1959 2075 
z
" transform="scale(0.015625)"/>
       </defs>
       <use xlink:href="#DejaVuSans-30"/>
       <use xlink:href="#DejaVuSans-2e" x="63.623047"/>
       <use xlink:href="#DejaVuSans-39" x="95.410156"/>
      </g>
     </g>
    </g>
    <g id="text_22">
     <!-- MAE of log fold change -->
     <g transform="translate(19.3575 310.829098) rotate(-90) scale(0.16 -0.16)">
      <defs>
       <path id="DejaVuSans-41" d="M 2188 4044 
L 1331 1722 
L 3047 1722 
L 2188 4044 
z
M 1831 4666 
L 2547 4666 
L 4325 0 
L 3669 0 
L 3244 1197 
L 1141 1197 
L 716 0 
L 50 0 
L 1831 4666 
z
" transform="scale(0.015625)"/>
       <path id="DejaVuSans-45" d="M 628 4666 
L 3578 4666 
L 3578 4134 
L 1259 4134 
L 1259 2753 
L 3481 2753 
L 3481 2222 
L 1259 2222 
L 1259 531 
L 3634 531 
L 3634 0 
L 628 0 
L 628 4666 
z
" transform="scale(0.015625)"/>
       <path id="DejaVuSans-6e" d="M 3513 2113 
L 3513 0 
L 2938 0 
L 2938 2094 
Q 2938 2591 2744 2837 
Q 2550 3084 2163 3084 
Q 1697 3084 1428 2787 
Q 1159 2491 1159 1978 
L 1159 0 
L 581 0 
L 581 3500 
L 1159 3500 
L 1159 2956 
Q 1366 3272 1645 3428 
Q 1925 3584 2291 3584 
Q 2894 3584 3203 3211 
Q 3513 2838 3513 2113 
z
" transform="scale(0.015625)"/>
      </defs>
      <use xlink:href="#DejaVuSans-4d"/>
      <use xlink:href="#DejaVuSans-41" x="86.279297"/>
      <use xlink:href="#DejaVuSans-45" x="154.6875"/>
      <use xlink:href="#DejaVuSans-20" x="217.871094"/>
      <use xlink:href="#DejaVuSans-6f" x="249.658203"/>
      <use xlink:href="#DejaVuSans-66" x="310.839844"/>
      <use xlink:href="#DejaVuSans-20" x="346.044922"/>
      <use xlink:href="#DejaVuSans-6c" x="377.832031"/>
      <use xlink:href="#DejaVuSans-6f" x="405.615234"/>
      <use xlink:href="#DejaVuSans-67" x="466.796875"/>
      <use xlink:href="#DejaVuSans-20" x="530.273438"/>
      <use xlink:href="#DejaVuSans-66" x="562.060547"/>
      <use xlink:href="#DejaVuSans-6f" x="597.265625"/>
      <use xlink:href="#DejaVuSans-6c" x="658.447266"/>
      <use xlink:href="#DejaVuSans-64" x="686.230469"/>
      <use xlink:href="#DejaVuSans-20" x="749.707031"/>
      <use xlink:href="#DejaVuSans-63" x="781.494141"/>
      <use xlink:href="#DejaVuSans-68" x="836.474609"/>
      <use xlink:href="#DejaVuSans-61" x="899.853516"/>
      <use xlink:href="#DejaVuSans-6e" x="961.132812"/>
      <use xlink:href="#DejaVuSans-67" x="1024.511719"/>
      <use xlink:href="#DejaVuSans-65" x="1087.988281"/>
     </g>
    </g>
   </g>
   <g id="line2d_21">
    <path d="M 85.710993 256.32466 
L 85.710993 262.860252 
" clip-path="url(#p17e078c173)" style="fill: none; stroke: #3f3f3f; stroke-width: 2.25; stroke-linecap: square"/>
   </g>
   <g id="line2d_22">
    <path d="M 85.710993 158.46011 
L 85.710993 67.131153 
" clip-path="url(#p17e078c173)" style="fill: none; stroke: #3f3f3f; stroke-width: 2.25; stroke-linecap: square"/>
   </g>
   <g id="line2d_23">
    <path d="M 79.084286 262.860252 
L 92.337699 262.860252 
" clip-path="url(#p17e078c173)" style="fill: none; stroke: #3f3f3f; stroke-width: 2.25; stroke-linecap: square"/>
   </g>
   <g id="line2d_24">
    <path d="M 79.084286 67.131153 
L 92.337699 67.131153 
" clip-path="url(#p17e078c173)" style="fill: none; stroke: #3f3f3f; stroke-width: 2.25; stroke-linecap: square"/>
   </g>
   <g id="line2d_25"/>
   <g id="line2d_26">
    <path d="M 112.758774 127.954471 
L 112.758774 132.00319 
" clip-path="url(#p17e078c173)" style="fill: none; stroke: #3f3f3f; stroke-width: 2.25; stroke-linecap: square"/>
   </g>
   <g id="line2d_27">
    <path d="M 112.758774 96.317027 
L 112.758774 68.728303 
" clip-path="url(#p17e078c173)" style="fill: none; stroke: #3f3f3f; stroke-width: 2.25; stroke-linecap: square"/>
   </g>
   <g id="line2d_28">
    <path d="M 106.132068 132.00319 
L 119.385481 132.00319 
" clip-path="url(#p17e078c173)" style="fill: none; stroke: #3f3f3f; stroke-width: 2.25; stroke-linecap: square"/>
   </g>
   <g id="line2d_29">
    <path d="M 106.132068 68.728303 
L 119.385481 68.728303 
" clip-path="url(#p17e078c173)" style="fill: none; stroke: #3f3f3f; stroke-width: 2.25; stroke-linecap: square"/>
   </g>
   <g id="line2d_30"/>
   <g id="line2d_31">
    <path d="M 153.330447 255.183552 
L 153.330447 263.347389 
" clip-path="url(#p17e078c173)" style="fill: none; stroke: #3f3f3f; stroke-width: 2.25; stroke-linecap: square"/>
   </g>
   <g id="line2d_32">
    <path d="M 153.330447 198.986033 
L 153.330447 150.952351 
" clip-path="url(#p17e078c173)" style="fill: none; stroke: #3f3f3f; stroke-width: 2.25; stroke-linecap: square"/>
   </g>
   <g id="line2d_33">
    <path d="M 146.703741 263.347389 
L 159.957154 263.347389 
" clip-path="url(#p17e078c173)" style="fill: none; stroke: #3f3f3f; stroke-width: 2.25; stroke-linecap: square"/>
   </g>
   <g id="line2d_34">
    <path d="M 146.703741 150.952351 
L 159.957154 150.952351 
" clip-path="url(#p17e078c173)" style="fill: none; stroke: #3f3f3f; stroke-width: 2.25; stroke-linecap: square"/>
   </g>
   <g id="line2d_35"/>
   <g id="line2d_36">
    <path d="M 180.378229 131.730096 
L 180.378229 151.526796 
" clip-path="url(#p17e078c173)" style="fill: none; stroke: #3f3f3f; stroke-width: 2.25; stroke-linecap: square"/>
   </g>
   <g id="line2d_37">
    <path d="M 180.378229 110.170073 
L 180.378229 108.406749 
" clip-path="url(#p17e078c173)" style="fill: none; stroke: #3f3f3f; stroke-width: 2.25; stroke-linecap: square"/>
   </g>
   <g id="line2d_38">
    <path d="M 173.751522 151.526796 
L 187.004936 151.526796 
" clip-path="url(#p17e078c173)" style="fill: none; stroke: #3f3f3f; stroke-width: 2.25; stroke-linecap: square"/>
   </g>
   <g id="line2d_39">
    <path d="M 173.751522 108.406749 
L 187.004936 108.406749 
" clip-path="url(#p17e078c173)" style="fill: none; stroke: #3f3f3f; stroke-width: 2.25; stroke-linecap: square"/>
   </g>
   <g id="line2d_40"/>
   <g id="line2d_41">
    <path d="M 220.949902 229.87189 
L 220.949902 234.251924 
" clip-path="url(#p17e078c173)" style="fill: none; stroke: #3f3f3f; stroke-width: 2.25; stroke-linecap: square"/>
   </g>
   <g id="line2d_42">
    <path d="M 220.949902 127.679227 
L 220.949902 29.866598 
" clip-path="url(#p17e078c173)" style="fill: none; stroke: #3f3f3f; stroke-width: 2.25; stroke-linecap: square"/>
   </g>
   <g id="line2d_43">
    <path d="M 214.323195 234.251924 
L 227.576608 234.251924 
" clip-path="url(#p17e078c173)" style="fill: none; stroke: #3f3f3f; stroke-width: 2.25; stroke-linecap: square"/>
   </g>
   <g id="line2d_44">
    <path d="M 214.323195 29.866598 
L 227.576608 29.866598 
" clip-path="url(#p17e078c173)" style="fill: none; stroke: #3f3f3f; stroke-width: 2.25; stroke-linecap: square"/>
   </g>
   <g id="line2d_45"/>
   <g id="line2d_46">
    <path d="M 247.997684 93.436479 
L 247.997684 96.050093 
" clip-path="url(#p17e078c173)" style="fill: none; stroke: #3f3f3f; stroke-width: 2.25; stroke-linecap: square"/>
   </g>
   <g id="line2d_47">
    <path d="M 247.997684 61.880527 
L 247.997684 32.938189 
" clip-path="url(#p17e078c173)" style="fill: none; stroke: #3f3f3f; stroke-width: 2.25; stroke-linecap: square"/>
   </g>
   <g id="line2d_48">
    <path d="M 241.370977 96.050093 
L 254.62439 96.050093 
" clip-path="url(#p17e078c173)" style="fill: none; stroke: #3f3f3f; stroke-width: 2.25; stroke-linecap: square"/>
   </g>
   <g id="line2d_49">
    <path d="M 241.370977 32.938189 
L 254.62439 32.938189 
" clip-path="url(#p17e078c173)" style="fill: none; stroke: #3f3f3f; stroke-width: 2.25; stroke-linecap: square"/>
   </g>
   <g id="line2d_50"/>
   <g id="line2d_51">
    <path d="M 288.569356 282.79955 
L 288.569356 370.66986 
" clip-path="url(#p17e078c173)" style="fill: none; stroke: #3f3f3f; stroke-width: 2.25; stroke-linecap: square"/>
   </g>
   <g id="line2d_52">
    <path d="M 288.569356 184.042275 
L 288.569356 173.15531 
" clip-path="url(#p17e078c173)" style="fill: none; stroke: #3f3f3f; stroke-width: 2.25; stroke-linecap: square"/>
   </g>
   <g id="line2d_53">
    <path d="M 281.94265 370.66986 
L 295.196063 370.66986 
" clip-path="url(#p17e078c173)" style="fill: none; stroke: #3f3f3f; stroke-width: 2.25; stroke-linecap: square"/>
   </g>
   <g id="line2d_54">
    <path d="M 281.94265 173.15531 
L 295.196063 173.15531 
" clip-path="url(#p17e078c173)" style="fill: none; stroke: #3f3f3f; stroke-width: 2.25; stroke-linecap: square"/>
   </g>
   <g id="line2d_55"/>
   <g id="line2d_56">
    <path d="M 315.617138 335.283484 
L 315.617138 371.729678 
" clip-path="url(#p17e078c173)" style="fill: none; stroke: #3f3f3f; stroke-width: 2.25; stroke-linecap: square"/>
   </g>
   <g id="line2d_57">
    <path d="M 315.617138 290.966817 
L 315.617138 283.096345 
" clip-path="url(#p17e078c173)" style="fill: none; stroke: #3f3f3f; stroke-width: 2.25; stroke-linecap: square"/>
   </g>
   <g id="line2d_58">
    <path d="M 308.990432 371.729678 
L 322.243845 371.729678 
" clip-path="url(#p17e078c173)" style="fill: none; stroke: #3f3f3f; stroke-width: 2.25; stroke-linecap: square"/>
   </g>
   <g id="line2d_59">
    <path d="M 308.990432 283.096345 
L 322.243845 283.096345 
" clip-path="url(#p17e078c173)" style="fill: none; stroke: #3f3f3f; stroke-width: 2.25; stroke-linecap: square"/>
   </g>
   <g id="line2d_60"/>
   <g id="line2d_61">
    <path d="M 356.188811 301.533339 
L 356.188811 358.702819 
" clip-path="url(#p17e078c173)" style="fill: none; stroke: #3f3f3f; stroke-width: 2.25; stroke-linecap: square"/>
   </g>
   <g id="line2d_62">
    <path d="M 356.188811 238.53856 
L 356.188811 232.713261 
" clip-path="url(#p17e078c173)" style="fill: none; stroke: #3f3f3f; stroke-width: 2.25; stroke-linecap: square"/>
   </g>
   <g id="line2d_63">
    <path d="M 349.562104 358.702819 
L 362.815517 358.702819 
" clip-path="url(#p17e078c173)" style="fill: none; stroke: #3f3f3f; stroke-width: 2.25; stroke-linecap: square"/>
   </g>
   <g id="line2d_64">
    <path d="M 349.562104 232.713261 
L 362.815517 232.713261 
" clip-path="url(#p17e078c173)" style="fill: none; stroke: #3f3f3f; stroke-width: 2.25; stroke-linecap: square"/>
   </g>
   <g id="line2d_65"/>
   <g id="line2d_66">
    <path d="M 383.236593 364.858554 
L 383.236593 364.980752 
" clip-path="url(#p17e078c173)" style="fill: none; stroke: #3f3f3f; stroke-width: 2.25; stroke-linecap: square"/>
   </g>
   <g id="line2d_67">
    <path d="M 383.236593 362.018933 
L 383.236593 359.301508 
" clip-path="url(#p17e078c173)" style="fill: none; stroke: #3f3f3f; stroke-width: 2.25; stroke-linecap: square"/>
   </g>
   <g id="line2d_68">
    <path d="M 376.609886 364.980752 
L 389.863299 364.980752 
" clip-path="url(#p17e078c173)" style="fill: none; stroke: #3f3f3f; stroke-width: 2.25; stroke-linecap: square"/>
   </g>
   <g id="line2d_69">
    <path d="M 376.609886 359.301508 
L 389.863299 359.301508 
" clip-path="url(#p17e078c173)" style="fill: none; stroke: #3f3f3f; stroke-width: 2.25; stroke-linecap: square"/>
   </g>
   <g id="line2d_70"/>
   <g id="line2d_71">
    <path d="M 423.808265 243.879577 
L 423.808265 246.785468 
" clip-path="url(#p17e078c173)" style="fill: none; stroke: #3f3f3f; stroke-width: 2.25; stroke-linecap: square"/>
   </g>
   <g id="line2d_72">
    <path d="M 423.808265 158.562153 
L 423.808265 76.15062 
" clip-path="url(#p17e078c173)" style="fill: none; stroke: #3f3f3f; stroke-width: 2.25; stroke-linecap: square"/>
   </g>
   <g id="line2d_73">
    <path d="M 417.181559 246.785468 
L 430.434972 246.785468 
" clip-path="url(#p17e078c173)" style="fill: none; stroke: #3f3f3f; stroke-width: 2.25; stroke-linecap: square"/>
   </g>
   <g id="line2d_74">
    <path d="M 417.181559 76.15062 
L 430.434972 76.15062 
" clip-path="url(#p17e078c173)" style="fill: none; stroke: #3f3f3f; stroke-width: 2.25; stroke-linecap: square"/>
   </g>
   <g id="line2d_75"/>
   <g id="line2d_76">
    <path d="M 450.856047 139.331425 
L 450.856047 140.147849 
" clip-path="url(#p17e078c173)" style="fill: none; stroke: #3f3f3f; stroke-width: 2.25; stroke-linecap: square"/>
   </g>
   <g id="line2d_77">
    <path d="M 450.856047 111.094021 
L 450.856047 83.673041 
" clip-path="url(#p17e078c173)" style="fill: none; stroke: #3f3f3f; stroke-width: 2.25; stroke-linecap: square"/>
   </g>
   <g id="line2d_78">
    <path d="M 444.229341 140.147849 
L 457.482754 140.147849 
" clip-path="url(#p17e078c173)" style="fill: none; stroke: #3f3f3f; stroke-width: 2.25; stroke-linecap: square"/>
   </g>
   <g id="line2d_79">
    <path d="M 444.229341 83.673041 
L 457.482754 83.673041 
" clip-path="url(#p17e078c173)" style="fill: none; stroke: #3f3f3f; stroke-width: 2.25; stroke-linecap: square"/>
   </g>
   <g id="line2d_80"/>
   <g id="line2d_81">
    <path d="M 491.42772 300.422419 
L 491.42772 304.784148 
" clip-path="url(#p17e078c173)" style="fill: none; stroke: #3f3f3f; stroke-width: 2.25; stroke-linecap: square"/>
   </g>
   <g id="line2d_82">
    <path d="M 491.42772 230.157052 
L 491.42772 164.253414 
" clip-path="url(#p17e078c173)" style="fill: none; stroke: #3f3f3f; stroke-width: 2.25; stroke-linecap: square"/>
   </g>
   <g id="line2d_83">
    <path d="M 484.801013 304.784148 
L 498.054426 304.784148 
" clip-path="url(#p17e078c173)" style="fill: none; stroke: #3f3f3f; stroke-width: 2.25; stroke-linecap: square"/>
   </g>
   <g id="line2d_84">
    <path d="M 484.801013 164.253414 
L 498.054426 164.253414 
" clip-path="url(#p17e078c173)" style="fill: none; stroke: #3f3f3f; stroke-width: 2.25; stroke-linecap: square"/>
   </g>
   <g id="line2d_85"/>
   <g id="line2d_86">
    <path d="M 518.475502 160.917313 
L 518.475502 164.849734 
" clip-path="url(#p17e078c173)" style="fill: none; stroke: #3f3f3f; stroke-width: 2.25; stroke-linecap: square"/>
   </g>
   <g id="line2d_87">
    <path d="M 518.475502 154.775161 
L 518.475502 152.565429 
" clip-path="url(#p17e078c173)" style="fill: none; stroke: #3f3f3f; stroke-width: 2.25; stroke-linecap: square"/>
   </g>
   <g id="line2d_88">
    <path d="M 511.848795 164.849734 
L 525.102208 164.849734 
" clip-path="url(#p17e078c173)" style="fill: none; stroke: #3f3f3f; stroke-width: 2.25; stroke-linecap: square"/>
   </g>
   <g id="line2d_89">
    <path d="M 511.848795 152.565429 
L 525.102208 152.565429 
" clip-path="url(#p17e078c173)" style="fill: none; stroke: #3f3f3f; stroke-width: 2.25; stroke-linecap: square"/>
   </g>
   <g id="line2d_90"/>
   <g id="line2d_91">
    <path d="M 559.047174 257.403016 
L 559.047174 263.225791 
" clip-path="url(#p17e078c173)" style="fill: none; stroke: #3f3f3f; stroke-width: 2.25; stroke-linecap: square"/>
   </g>
   <g id="line2d_92">
    <path d="M 559.047174 206.514326 
L 559.047174 161.448411 
" clip-path="url(#p17e078c173)" style="fill: none; stroke: #3f3f3f; stroke-width: 2.25; stroke-linecap: square"/>
   </g>
   <g id="line2d_93">
    <path d="M 552.420468 263.225791 
L 565.673881 263.225791 
" clip-path="url(#p17e078c173)" style="fill: none; stroke: #3f3f3f; stroke-width: 2.25; stroke-linecap: square"/>
   </g>
   <g id="line2d_94">
    <path d="M 552.420468 161.448411 
L 565.673881 161.448411 
" clip-path="url(#p17e078c173)" style="fill: none; stroke: #3f3f3f; stroke-width: 2.25; stroke-linecap: square"/>
   </g>
   <g id="line2d_95"/>
   <g id="line2d_96">
    <path d="M 586.094956 148.319864 
L 586.094956 171.753883 
" clip-path="url(#p17e078c173)" style="fill: none; stroke: #3f3f3f; stroke-width: 2.25; stroke-linecap: square"/>
   </g>
   <g id="line2d_97">
    <path d="M 586.094956 120.610236 
L 586.094956 116.334625 
" clip-path="url(#p17e078c173)" style="fill: none; stroke: #3f3f3f; stroke-width: 2.25; stroke-linecap: square"/>
   </g>
   <g id="line2d_98">
    <path d="M 579.46825 171.753883 
L 592.721663 171.753883 
" clip-path="url(#p17e078c173)" style="fill: none; stroke: #3f3f3f; stroke-width: 2.25; stroke-linecap: square"/>
   </g>
   <g id="line2d_99">
    <path d="M 579.46825 116.334625 
L 592.721663 116.334625 
" clip-path="url(#p17e078c173)" style="fill: none; stroke: #3f3f3f; stroke-width: 2.25; stroke-linecap: square"/>
   </g>
   <g id="line2d_100"/>
   <g id="line2d_101">
    <path d="M 626.666629 371.541301 
L 626.666629 403.214498 
" clip-path="url(#p17e078c173)" style="fill: none; stroke: #3f3f3f; stroke-width: 2.25; stroke-linecap: square"/>
   </g>
   <g id="line2d_102">
    <path d="M 626.666629 334.916346 
L 626.666629 329.964587 
" clip-path="url(#p17e078c173)" style="fill: none; stroke: #3f3f3f; stroke-width: 2.25; stroke-linecap: square"/>
   </g>
   <g id="line2d_103">
    <path d="M 620.039922 403.214498 
L 633.293336 403.214498 
" clip-path="url(#p17e078c173)" style="fill: none; stroke: #3f3f3f; stroke-width: 2.25; stroke-linecap: square"/>
   </g>
   <g id="line2d_104">
    <path d="M 620.039922 329.964587 
L 633.293336 329.964587 
" clip-path="url(#p17e078c173)" style="fill: none; stroke: #3f3f3f; stroke-width: 2.25; stroke-linecap: square"/>
   </g>
   <g id="line2d_105"/>
   <g id="line2d_106">
    <path d="M 653.714411 285.464813 
L 653.714411 407.866598 
" clip-path="url(#p17e078c173)" style="fill: none; stroke: #3f3f3f; stroke-width: 2.25; stroke-linecap: square"/>
   </g>
   <g id="line2d_107">
    <path d="M 653.714411 158.795926 
L 653.714411 154.528823 
" clip-path="url(#p17e078c173)" style="fill: none; stroke: #3f3f3f; stroke-width: 2.25; stroke-linecap: square"/>
   </g>
   <g id="line2d_108">
    <path d="M 647.087704 407.866598 
L 660.341117 407.866598 
" clip-path="url(#p17e078c173)" style="fill: none; stroke: #3f3f3f; stroke-width: 2.25; stroke-linecap: square"/>
   </g>
   <g id="line2d_109">
    <path d="M 647.087704 154.528823 
L 660.341117 154.528823 
" clip-path="url(#p17e078c173)" style="fill: none; stroke: #3f3f3f; stroke-width: 2.25; stroke-linecap: square"/>
   </g>
   <g id="line2d_110"/>
   <g id="line2d_111">
    <path d="M 694.286084 280.701002 
L 694.286084 305.302516 
" clip-path="url(#p17e078c173)" style="fill: none; stroke: #3f3f3f; stroke-width: 2.25; stroke-linecap: square"/>
   </g>
   <g id="line2d_112">
    <path d="M 694.286084 250.899503 
L 694.286084 245.699519 
" clip-path="url(#p17e078c173)" style="fill: none; stroke: #3f3f3f; stroke-width: 2.25; stroke-linecap: square"/>
   </g>
   <g id="line2d_113">
    <path d="M 687.659377 305.302516 
L 700.91279 305.302516 
" clip-path="url(#p17e078c173)" style="fill: none; stroke: #3f3f3f; stroke-width: 2.25; stroke-linecap: square"/>
   </g>
   <g id="line2d_114">
    <path d="M 687.659377 245.699519 
L 700.91279 245.699519 
" clip-path="url(#p17e078c173)" style="fill: none; stroke: #3f3f3f; stroke-width: 2.25; stroke-linecap: square"/>
   </g>
   <g id="line2d_115"/>
   <g id="line2d_116">
    <path d="M 721.333865 284.283276 
L 721.333865 306.909139 
" clip-path="url(#p17e078c173)" style="fill: none; stroke: #3f3f3f; stroke-width: 2.25; stroke-linecap: square"/>
   </g>
   <g id="line2d_117">
    <path d="M 721.333865 251.377878 
L 721.333865 241.098342 
" clip-path="url(#p17e078c173)" style="fill: none; stroke: #3f3f3f; stroke-width: 2.25; stroke-linecap: square"/>
   </g>
   <g id="line2d_118">
    <path d="M 714.707159 306.909139 
L 727.960572 306.909139 
" clip-path="url(#p17e078c173)" style="fill: none; stroke: #3f3f3f; stroke-width: 2.25; stroke-linecap: square"/>
   </g>
   <g id="line2d_119">
    <path d="M 714.707159 241.098342 
L 727.960572 241.098342 
" clip-path="url(#p17e078c173)" style="fill: none; stroke: #3f3f3f; stroke-width: 2.25; stroke-linecap: square"/>
   </g>
   <g id="line2d_120"/>
   <g id="line2d_121">
    <path d="M 761.905538 298.4678 
L 761.905538 300.489187 
" clip-path="url(#p17e078c173)" style="fill: none; stroke: #3f3f3f; stroke-width: 2.25; stroke-linecap: square"/>
   </g>
   <g id="line2d_122">
    <path d="M 761.905538 280.971105 
L 761.905538 265.495798 
" clip-path="url(#p17e078c173)" style="fill: none; stroke: #3f3f3f; stroke-width: 2.25; stroke-linecap: square"/>
   </g>
   <g id="line2d_123">
    <path d="M 755.278832 300.489187 
L 768.532245 300.489187 
" clip-path="url(#p17e078c173)" style="fill: none; stroke: #3f3f3f; stroke-width: 2.25; stroke-linecap: square"/>
   </g>
   <g id="line2d_124">
    <path d="M 755.278832 265.495798 
L 768.532245 265.495798 
" clip-path="url(#p17e078c173)" style="fill: none; stroke: #3f3f3f; stroke-width: 2.25; stroke-linecap: square"/>
   </g>
   <g id="line2d_125"/>
   <g id="line2d_126">
    <path d="M 788.95332 286.716129 
L 788.95332 287.289565 
" clip-path="url(#p17e078c173)" style="fill: none; stroke: #3f3f3f; stroke-width: 2.25; stroke-linecap: square"/>
   </g>
   <g id="line2d_127">
    <path d="M 788.95332 277.687133 
L 788.95332 269.231574 
" clip-path="url(#p17e078c173)" style="fill: none; stroke: #3f3f3f; stroke-width: 2.25; stroke-linecap: square"/>
   </g>
   <g id="line2d_128">
    <path d="M 782.326613 287.289565 
L 795.580026 287.289565 
" clip-path="url(#p17e078c173)" style="fill: none; stroke: #3f3f3f; stroke-width: 2.25; stroke-linecap: square"/>
   </g>
   <g id="line2d_129">
    <path d="M 782.326613 269.231574 
L 795.580026 269.231574 
" clip-path="url(#p17e078c173)" style="fill: none; stroke: #3f3f3f; stroke-width: 2.25; stroke-linecap: square"/>
   </g>
   <g id="line2d_130"/>
   <g id="line2d_131">
    <path d="M 72.45758 249.789067 
L 98.964406 249.789067 
" clip-path="url(#p17e078c173)" style="fill: none; stroke: #3f3f3f; stroke-width: 2.25; stroke-linecap: square"/>
   </g>
   <g id="line2d_132">
    <path d="M 99.505361 123.905751 
L 126.012188 123.905751 
" clip-path="url(#p17e078c173)" style="fill: none; stroke: #3f3f3f; stroke-width: 2.25; stroke-linecap: square"/>
   </g>
   <g id="line2d_133">
    <path d="M 140.077034 247.019715 
L 166.58386 247.019715 
" clip-path="url(#p17e078c173)" style="fill: none; stroke: #3f3f3f; stroke-width: 2.25; stroke-linecap: square"/>
   </g>
   <g id="line2d_134">
    <path d="M 167.124816 111.933397 
L 193.631642 111.933397 
" clip-path="url(#p17e078c173)" style="fill: none; stroke: #3f3f3f; stroke-width: 2.25; stroke-linecap: square"/>
   </g>
   <g id="line2d_135">
    <path d="M 207.696489 225.491856 
L 234.203315 225.491856 
" clip-path="url(#p17e078c173)" style="fill: none; stroke: #3f3f3f; stroke-width: 2.25; stroke-linecap: square"/>
   </g>
   <g id="line2d_136">
    <path d="M 234.74427 90.822865 
L 261.251097 90.822865 
" clip-path="url(#p17e078c173)" style="fill: none; stroke: #3f3f3f; stroke-width: 2.25; stroke-linecap: square"/>
   </g>
   <g id="line2d_137">
    <path d="M 275.315943 194.929239 
L 301.822769 194.929239 
" clip-path="url(#p17e078c173)" style="fill: none; stroke: #3f3f3f; stroke-width: 2.25; stroke-linecap: square"/>
   </g>
   <g id="line2d_138">
    <path d="M 302.363725 298.83729 
L 328.870551 298.83729 
" clip-path="url(#p17e078c173)" style="fill: none; stroke: #3f3f3f; stroke-width: 2.25; stroke-linecap: square"/>
   </g>
   <g id="line2d_139">
    <path d="M 342.935398 244.363859 
L 369.442224 244.363859 
" clip-path="url(#p17e078c173)" style="fill: none; stroke: #3f3f3f; stroke-width: 2.25; stroke-linecap: square"/>
   </g>
   <g id="line2d_140">
    <path d="M 369.98318 364.736357 
L 396.490006 364.736357 
" clip-path="url(#p17e078c173)" style="fill: none; stroke: #3f3f3f; stroke-width: 2.25; stroke-linecap: square"/>
   </g>
   <g id="line2d_141">
    <path d="M 410.554852 240.973687 
L 437.061678 240.973687 
" clip-path="url(#p17e078c173)" style="fill: none; stroke: #3f3f3f; stroke-width: 2.25; stroke-linecap: square"/>
   </g>
   <g id="line2d_142">
    <path d="M 437.602634 138.515 
L 464.10946 138.515 
" clip-path="url(#p17e078c173)" style="fill: none; stroke: #3f3f3f; stroke-width: 2.25; stroke-linecap: square"/>
   </g>
   <g id="line2d_143">
    <path d="M 478.174307 296.060691 
L 504.681133 296.060691 
" clip-path="url(#p17e078c173)" style="fill: none; stroke: #3f3f3f; stroke-width: 2.25; stroke-linecap: square"/>
   </g>
   <g id="line2d_144">
    <path d="M 505.222089 156.984893 
L 531.728915 156.984893 
" clip-path="url(#p17e078c173)" style="fill: none; stroke: #3f3f3f; stroke-width: 2.25; stroke-linecap: square"/>
   </g>
   <g id="line2d_145">
    <path d="M 545.793761 251.58024 
L 572.300588 251.58024 
" clip-path="url(#p17e078c173)" style="fill: none; stroke: #3f3f3f; stroke-width: 2.25; stroke-linecap: square"/>
   </g>
   <g id="line2d_146">
    <path d="M 572.841543 124.885846 
L 599.348369 124.885846 
" clip-path="url(#p17e078c173)" style="fill: none; stroke: #3f3f3f; stroke-width: 2.25; stroke-linecap: square"/>
   </g>
   <g id="line2d_147">
    <path d="M 613.413216 339.868105 
L 639.920042 339.868105 
" clip-path="url(#p17e078c173)" style="fill: none; stroke: #3f3f3f; stroke-width: 2.25; stroke-linecap: square"/>
   </g>
   <g id="line2d_148">
    <path d="M 640.460998 163.063029 
L 666.967824 163.063029 
" clip-path="url(#p17e078c173)" style="fill: none; stroke: #3f3f3f; stroke-width: 2.25; stroke-linecap: square"/>
   </g>
   <g id="line2d_149">
    <path d="M 681.03267 256.099488 
L 707.539497 256.099488 
" clip-path="url(#p17e078c173)" style="fill: none; stroke: #3f3f3f; stroke-width: 2.25; stroke-linecap: square"/>
   </g>
   <g id="line2d_150">
    <path d="M 708.080452 261.657413 
L 734.587278 261.657413 
" clip-path="url(#p17e078c173)" style="fill: none; stroke: #3f3f3f; stroke-width: 2.25; stroke-linecap: square"/>
   </g>
   <g id="line2d_151">
    <path d="M 748.652125 296.446413 
L 775.158951 296.446413 
" clip-path="url(#p17e078c173)" style="fill: none; stroke: #3f3f3f; stroke-width: 2.25; stroke-linecap: square"/>
   </g>
   <g id="line2d_152">
    <path d="M 775.699907 286.142693 
L 802.206733 286.142693 
" clip-path="url(#p17e078c173)" style="fill: none; stroke: #3f3f3f; stroke-width: 2.25; stroke-linecap: square"/>
   </g>
   <g id="patch_27">
    <path d="M 65.425156 426.766598 
L 65.425156 10.966598 
" style="fill: none; stroke: #000000; stroke-width: 1.875; stroke-linejoin: miter; stroke-linecap: square"/>
   </g>
   <g id="patch_28">
    <path d="M 809.239156 426.766598 
L 809.239156 10.966598 
" style="fill: none; stroke: #000000; stroke-width: 1.875; stroke-linejoin: miter; stroke-linecap: square"/>
   </g>
   <g id="patch_29">
    <path d="M 65.425156 426.766598 
L 809.239156 426.766598 
" style="fill: none; stroke: #000000; stroke-width: 1.875; stroke-linejoin: miter; stroke-linecap: square"/>
   </g>
   <g id="patch_30">
    <path d="M 65.425156 10.966598 
L 809.239156 10.966598 
" style="fill: none; stroke: #000000; stroke-width: 1.875; stroke-linejoin: miter; stroke-linecap: square"/>
   </g>
   <g id="legend_1">
    <g id="patch_31">
     <path d="M 828.227296 181.435035 
L 1005.192374 181.435035 
Q 1008.492374 181.435035 1008.492374 178.135035 
L 1008.492374 105.676598 
Q 1008.492374 102.376598 1005.192374 102.376598 
L 828.227296 102.376598 
Q 824.927296 102.376598 824.927296 105.676598 
L 824.927296 178.135035 
Q 824.927296 181.435035 828.227296 181.435035 
z
" style="fill: #ffffff; opacity: 0.8; stroke: #cccccc; stroke-width: 1.5; stroke-linejoin: miter"/>
    </g>
    <g id="text_23">
     <!-- Architecture -->
     <g transform="translate(861.621398 122.653785) scale(0.18 -0.18)">
      <defs>
       <path id="DejaVuSans-75" d="M 544 1381 
L 544 3500 
L 1119 3500 
L 1119 1403 
Q 1119 906 1312 657 
Q 1506 409 1894 409 
Q 2359 409 2629 706 
Q 2900 1003 2900 1516 
L 2900 3500 
L 3475 3500 
L 3475 0 
L 2900 0 
L 2900 538 
Q 2691 219 2414 64 
Q 2138 -91 1772 -91 
Q 1169 -91 856 284 
Q 544 659 544 1381 
z
M 1991 3584 
L 1991 3584 
z
" transform="scale(0.015625)"/>
      </defs>
      <use xlink:href="#DejaVuSans-41"/>
      <use xlink:href="#DejaVuSans-72" x="68.408203"/>
      <use xlink:href="#DejaVuSans-63" x="107.271484"/>
      <use xlink:href="#DejaVuSans-68" x="162.251953"/>
      <use xlink:href="#DejaVuSans-69" x="225.630859"/>
      <use xlink:href="#DejaVuSans-74" x="253.414062"/>
      <use xlink:href="#DejaVuSans-65" x="292.623047"/>
      <use xlink:href="#DejaVuSans-63" x="354.146484"/>
      <use xlink:href="#DejaVuSans-74" x="409.126953"/>
      <use xlink:href="#DejaVuSans-75" x="448.335938"/>
      <use xlink:href="#DejaVuSans-72" x="511.714844"/>
      <use xlink:href="#DejaVuSans-65" x="550.578125"/>
     </g>
    </g>
    <g id="patch_32">
     <path d="M 831.527296 147.184644 
L 864.527296 147.184644 
L 864.527296 135.634644 
L 831.527296 135.634644 
z
" style="fill: #3274a1; stroke: #3f3f3f; stroke-width: 1.125; stroke-linejoin: miter"/>
    </g>
    <g id="text_24">
     <!-- Random Forest -->
     <g transform="translate(877.727296 147.184644) scale(0.165 -0.165)">
      <defs>
       <path id="DejaVuSans-52" d="M 2841 2188 
Q 3044 2119 3236 1894 
Q 3428 1669 3622 1275 
L 4263 0 
L 3584 0 
L 2988 1197 
Q 2756 1666 2539 1819 
Q 2322 1972 1947 1972 
L 1259 1972 
L 1259 0 
L 628 0 
L 628 4666 
L 2053 4666 
Q 2853 4666 3247 4331 
Q 3641 3997 3641 3322 
Q 3641 2881 3436 2590 
Q 3231 2300 2841 2188 
z
M 1259 4147 
L 1259 2491 
L 2053 2491 
Q 2509 2491 2742 2702 
Q 2975 2913 2975 3322 
Q 2975 3731 2742 3939 
Q 2509 4147 2053 4147 
L 1259 4147 
z
" transform="scale(0.015625)"/>
       <path id="DejaVuSans-6d" d="M 3328 2828 
Q 3544 3216 3844 3400 
Q 4144 3584 4550 3584 
Q 5097 3584 5394 3201 
Q 5691 2819 5691 2113 
L 5691 0 
L 5113 0 
L 5113 2094 
Q 5113 2597 4934 2840 
Q 4756 3084 4391 3084 
Q 3944 3084 3684 2787 
Q 3425 2491 3425 1978 
L 3425 0 
L 2847 0 
L 2847 2094 
Q 2847 2600 2669 2842 
Q 2491 3084 2119 3084 
Q 1678 3084 1418 2786 
Q 1159 2488 1159 1978 
L 1159 0 
L 581 0 
L 581 3500 
L 1159 3500 
L 1159 2956 
Q 1356 3278 1631 3431 
Q 1906 3584 2284 3584 
Q 2666 3584 2933 3390 
Q 3200 3197 3328 2828 
z
" transform="scale(0.015625)"/>
       <path id="DejaVuSans-46" d="M 628 4666 
L 3309 4666 
L 3309 4134 
L 1259 4134 
L 1259 2759 
L 3109 2759 
L 3109 2228 
L 1259 2228 
L 1259 0 
L 628 0 
L 628 4666 
z
" transform="scale(0.015625)"/>
       <path id="DejaVuSans-73" d="M 2834 3397 
L 2834 2853 
Q 2591 2978 2328 3040 
Q 2066 3103 1784 3103 
Q 1356 3103 1142 2972 
Q 928 2841 928 2578 
Q 928 2378 1081 2264 
Q 1234 2150 1697 2047 
L 1894 2003 
Q 2506 1872 2764 1633 
Q 3022 1394 3022 966 
Q 3022 478 2636 193 
Q 2250 -91 1575 -91 
Q 1294 -91 989 -36 
Q 684 19 347 128 
L 347 722 
Q 666 556 975 473 
Q 1284 391 1588 391 
Q 1994 391 2212 530 
Q 2431 669 2431 922 
Q 2431 1156 2273 1281 
Q 2116 1406 1581 1522 
L 1381 1569 
Q 847 1681 609 1914 
Q 372 2147 372 2553 
Q 372 3047 722 3315 
Q 1072 3584 1716 3584 
Q 2034 3584 2315 3537 
Q 2597 3491 2834 3397 
z
" transform="scale(0.015625)"/>
      </defs>
      <use xlink:href="#DejaVuSans-52"/>
      <use xlink:href="#DejaVuSans-61" x="67.232422"/>
      <use xlink:href="#DejaVuSans-6e" x="128.511719"/>
      <use xlink:href="#DejaVuSans-64" x="191.890625"/>
      <use xlink:href="#DejaVuSans-6f" x="255.367188"/>
      <use xlink:href="#DejaVuSans-6d" x="316.548828"/>
      <use xlink:href="#DejaVuSans-20" x="413.960938"/>
      <use xlink:href="#DejaVuSans-46" x="445.748047"/>
      <use xlink:href="#DejaVuSans-6f" x="499.642578"/>
      <use xlink:href="#DejaVuSans-72" x="560.824219"/>
      <use xlink:href="#DejaVuSans-65" x="599.6875"/>
      <use xlink:href="#DejaVuSans-73" x="661.210938"/>
      <use xlink:href="#DejaVuSans-74" x="713.310547"/>
     </g>
    </g>
    <g id="patch_33">
     <path d="M 831.527296 171.403551 
L 864.527296 171.403551 
L 864.527296 159.853551 
L 831.527296 159.853551 
z
" style="fill: #e1812c; stroke: #3f3f3f; stroke-width: 1.125; stroke-linejoin: miter"/>
    </g>
    <g id="text_25">
     <!-- Elastic net -->
     <g transform="translate(877.727296 171.403551) scale(0.165 -0.165)">
      <use xlink:href="#DejaVuSans-45"/>
      <use xlink:href="#DejaVuSans-6c" x="63.183594"/>
      <use xlink:href="#DejaVuSans-61" x="90.966797"/>
      <use xlink:href="#DejaVuSans-73" x="152.246094"/>
      <use xlink:href="#DejaVuSans-74" x="204.345703"/>
      <use xlink:href="#DejaVuSans-69" x="243.554688"/>
      <use xlink:href="#DejaVuSans-63" x="271.337891"/>
      <use xlink:href="#DejaVuSans-20" x="326.318359"/>
      <use xlink:href="#DejaVuSans-6e" x="358.105469"/>
      <use xlink:href="#DejaVuSans-65" x="421.484375"/>
      <use xlink:href="#DejaVuSans-74" x="483.007812"/>
     </g>
    </g>
   </g>
  </g>
 </g>
 <defs>
  <clipPath id="p17e078c173">
   <rect x="65.425156" y="10.966598" width="743.814" height="415.8"/>
  </clipPath>
 </defs>
</svg>
