<?xml version="1.0" encoding="utf-8" standalone="no"?>
<!DOCTYPE svg PUBLIC "-//W3C//DTD SVG 1.1//EN"
  "http://www.w3.org/Graphics/SVG/1.1/DTD/svg11.dtd">
<svg xmlns:xlink="http://www.w3.org/1999/xlink" width="959.614514pt" height="481.862187pt" viewBox="0 0 959.614514 481.862187" xmlns="http://www.w3.org/2000/svg" version="1.1">
 <metadata>
  <rdf:RDF xmlns:dc="http://purl.org/dc/elements/1.1/" xmlns:cc="http://creativecommons.org/ns#" xmlns:rdf="http://www.w3.org/1999/02/22-rdf-syntax-ns#">
   <cc:Work>
    <dc:type rdf:resource="http://purl.org/dc/dcmitype/StillImage"/>
    <dc:date>2023-02-08T10:43:06.314683</dc:date>
    <dc:format>image/svg+xml</dc:format>
    <dc:creator>
     <cc:Agent>
      <dc:title>Matplotlib v3.6.3, https://matplotlib.org/</dc:title>
     </cc:Agent>
    </dc:creator>
   </cc:Work>
  </rdf:RDF>
 </metadata>
 <defs>
  <style type="text/css">*{stroke-linejoin: round; stroke-linecap: butt}</style>
 </defs>
 <g id="figure_1">
  <g id="patch_1">
   <path d="M 0 481.862187 
L 959.614514 481.862187 
L 959.614514 0 
L 0 0 
z
" style="fill: #ffffff"/>
  </g>
  <g id="axes_1">
   <g id="patch_2">
    <path d="M 79.251641 442.677187 
L 195.472578 442.677187 
L 195.472578 26.877187 
L 79.251641 26.877187 
z
" style="fill: #ffffff"/>
   </g>
   <g id="patch_3">
    <path d="M 96.684781 292.148969 
L 119.928969 292.148969 
L 119.928969 96.546197 
L 96.684781 96.546197 
L 96.684781 292.148969 
z
" clip-path="url(#p3d0e7076af)" style="fill: #176d9c; stroke: #363636; stroke-width: 2.25; stroke-linejoin: miter"/>
   </g>
   <g id="patch_4">
    <path d="M 154.79525 180.814169 
L 178.039437 180.814169 
L 178.039437 90.637542 
L 154.79525 90.637542 
L 154.79525 180.814169 
z
" clip-path="url(#p3d0e7076af)" style="fill: #c38820; stroke: #363636; stroke-width: 2.25; stroke-linejoin: miter"/>
   </g>
   <g id="matplotlib.axis_1">
    <g id="xtick_1"/>
    <g id="xtick_2"/>
    <g id="text_1">
     <!-- Metabolites -->
     <g transform="translate(90.853359 471.334687) scale(0.16 -0.16)">
      <defs>
       <path id="DejaVuSans-4d" d="M 628 4666 
L 1569 4666 
L 2759 1491 
L 3956 4666 
L 4897 4666 
L 4897 0 
L 4281 0 
L 4281 4097 
L 3078 897 
L 2444 897 
L 1241 4097 
L 1241 0 
L 628 0 
L 628 4666 
z
" transform="scale(0.015625)"/>
       <path id="DejaVuSans-65" d="M 3597 1894 
L 3597 1613 
L 953 1613 
Q 991 1019 1311 708 
Q 1631 397 2203 397 
Q 2534 397 2845 478 
Q 3156 559 3463 722 
L 3463 178 
Q 3153 47 2828 -22 
Q 2503 -91 2169 -91 
Q 1331 -91 842 396 
Q 353 884 353 1716 
Q 353 2575 817 3079 
Q 1281 3584 2069 3584 
Q 2775 3584 3186 3129 
Q 3597 2675 3597 1894 
z
M 3022 2063 
Q 3016 2534 2758 2815 
Q 2500 3097 2075 3097 
Q 1594 3097 1305 2825 
Q 1016 2553 972 2059 
L 3022 2063 
z
" transform="scale(0.015625)"/>
       <path id="DejaVuSans-74" d="M 1172 4494 
L 1172 3500 
L 2356 3500 
L 2356 3053 
L 1172 3053 
L 1172 1153 
Q 1172 725 1289 603 
Q 1406 481 1766 481 
L 2356 481 
L 2356 0 
L 1766 0 
Q 1100 0 847 248 
Q 594 497 594 1153 
L 594 3053 
L 172 3053 
L 172 3500 
L 594 3500 
L 594 4494 
L 1172 4494 
z
" transform="scale(0.015625)"/>
       <path id="DejaVuSans-61" d="M 2194 1759 
Q 1497 1759 1228 1600 
Q 959 1441 959 1056 
Q 959 750 1161 570 
Q 1363 391 1709 391 
Q 2188 391 2477 730 
Q 2766 1069 2766 1631 
L 2766 1759 
L 2194 1759 
z
M 3341 1997 
L 3341 0 
L 2766 0 
L 2766 531 
Q 2569 213 2275 61 
Q 1981 -91 1556 -91 
Q 1019 -91 701 211 
Q 384 513 384 1019 
Q 384 1609 779 1909 
Q 1175 2209 1959 2209 
L 2766 2209 
L 2766 2266 
Q 2766 2663 2505 2880 
Q 2244 3097 1772 3097 
Q 1472 3097 1187 3025 
Q 903 2953 641 2809 
L 641 3341 
Q 956 3463 1253 3523 
Q 1550 3584 1831 3584 
Q 2591 3584 2966 3190 
Q 3341 2797 3341 1997 
z
" transform="scale(0.015625)"/>
       <path id="DejaVuSans-62" d="M 3116 1747 
Q 3116 2381 2855 2742 
Q 2594 3103 2138 3103 
Q 1681 3103 1420 2742 
Q 1159 2381 1159 1747 
Q 1159 1113 1420 752 
Q 1681 391 2138 391 
Q 2594 391 2855 752 
Q 3116 1113 3116 1747 
z
M 1159 2969 
Q 1341 3281 1617 3432 
Q 1894 3584 2278 3584 
Q 2916 3584 3314 3078 
Q 3713 2572 3713 1747 
Q 3713 922 3314 415 
Q 2916 -91 2278 -91 
Q 1894 -91 1617 61 
Q 1341 213 1159 525 
L 1159 0 
L 581 0 
L 581 4863 
L 1159 4863 
L 1159 2969 
z
" transform="scale(0.015625)"/>
       <path id="DejaVuSans-6f" d="M 1959 3097 
Q 1497 3097 1228 2736 
Q 959 2375 959 1747 
Q 959 1119 1226 758 
Q 1494 397 1959 397 
Q 2419 397 2687 759 
Q 2956 1122 2956 1747 
Q 2956 2369 2687 2733 
Q 2419 3097 1959 3097 
z
M 1959 3584 
Q 2709 3584 3137 3096 
Q 3566 2609 3566 1747 
Q 3566 888 3137 398 
Q 2709 -91 1959 -91 
Q 1206 -91 779 398 
Q 353 888 353 1747 
Q 353 2609 779 3096 
Q 1206 3584 1959 3584 
z
" transform="scale(0.015625)"/>
       <path id="DejaVuSans-6c" d="M 603 4863 
L 1178 4863 
L 1178 0 
L 603 0 
L 603 4863 
z
" transform="scale(0.015625)"/>
       <path id="DejaVuSans-69" d="M 603 3500 
L 1178 3500 
L 1178 0 
L 603 0 
L 603 3500 
z
M 603 4863 
L 1178 4863 
L 1178 4134 
L 603 4134 
L 603 4863 
z
" transform="scale(0.015625)"/>
       <path id="DejaVuSans-73" d="M 2834 3397 
L 2834 2853 
Q 2591 2978 2328 3040 
Q 2066 3103 1784 3103 
Q 1356 3103 1142 2972 
Q 928 2841 928 2578 
Q 928 2378 1081 2264 
Q 1234 2150 1697 2047 
L 1894 2003 
Q 2506 1872 2764 1633 
Q 3022 1394 3022 966 
Q 3022 478 2636 193 
Q 2250 -91 1575 -91 
Q 1294 -91 989 -36 
Q 684 19 347 128 
L 347 722 
Q 666 556 975 473 
Q 1284 391 1588 391 
Q 1994 391 2212 530 
Q 2431 669 2431 922 
Q 2431 1156 2273 1281 
Q 2116 1406 1581 1522 
L 1381 1569 
Q 847 1681 609 1914 
Q 372 2147 372 2553 
Q 372 3047 722 3315 
Q 1072 3584 1716 3584 
Q 2034 3584 2315 3537 
Q 2597 3491 2834 3397 
z
" transform="scale(0.015625)"/>
      </defs>
      <use xlink:href="#DejaVuSans-4d"/>
      <use xlink:href="#DejaVuSans-65" x="86.279297"/>
      <use xlink:href="#DejaVuSans-74" x="147.802734"/>
      <use xlink:href="#DejaVuSans-61" x="187.011719"/>
      <use xlink:href="#DejaVuSans-62" x="248.291016"/>
      <use xlink:href="#DejaVuSans-6f" x="311.767578"/>
      <use xlink:href="#DejaVuSans-6c" x="372.949219"/>
      <use xlink:href="#DejaVuSans-69" x="400.732422"/>
      <use xlink:href="#DejaVuSans-74" x="428.515625"/>
      <use xlink:href="#DejaVuSans-65" x="467.724609"/>
      <use xlink:href="#DejaVuSans-73" x="529.248047"/>
     </g>
    </g>
   </g>
   <g id="matplotlib.axis_2">
    <g id="ytick_1">
     <g id="line2d_1">
      <defs>
       <path id="mbe30af8bd0" d="M 0 0 
L -9 0 
" style="stroke: #000000; stroke-width: 1.875"/>
      </defs>
      <g>
       <use xlink:href="#mbe30af8bd0" x="79.251641" y="396.57893" style="stroke: #000000; stroke-width: 1.875"/>
      </g>
     </g>
     <g id="text_2">
      <!-- −1.0 -->
      <g transform="translate(26.685 402.847641) scale(0.165 -0.165)">
       <defs>
        <path id="DejaVuSans-2212" d="M 678 2272 
L 4684 2272 
L 4684 1741 
L 678 1741 
L 678 2272 
z
" transform="scale(0.015625)"/>
        <path id="DejaVuSans-31" d="M 794 531 
L 1825 531 
L 1825 4091 
L 703 3866 
L 703 4441 
L 1819 4666 
L 2450 4666 
L 2450 531 
L 3481 531 
L 3481 0 
L 794 0 
L 794 531 
z
" transform="scale(0.015625)"/>
        <path id="DejaVuSans-2e" d="M 684 794 
L 1344 794 
L 1344 0 
L 684 0 
L 684 794 
z
" transform="scale(0.015625)"/>
        <path id="DejaVuSans-30" d="M 2034 4250 
Q 1547 4250 1301 3770 
Q 1056 3291 1056 2328 
Q 1056 1369 1301 889 
Q 1547 409 2034 409 
Q 2525 409 2770 889 
Q 3016 1369 3016 2328 
Q 3016 3291 2770 3770 
Q 2525 4250 2034 4250 
z
M 2034 4750 
Q 2819 4750 3233 4129 
Q 3647 3509 3647 2328 
Q 3647 1150 3233 529 
Q 2819 -91 2034 -91 
Q 1250 -91 836 529 
Q 422 1150 422 2328 
Q 422 3509 836 4129 
Q 1250 4750 2034 4750 
z
" transform="scale(0.015625)"/>
       </defs>
       <use xlink:href="#DejaVuSans-2212"/>
       <use xlink:href="#DejaVuSans-31" x="83.789062"/>
       <use xlink:href="#DejaVuSans-2e" x="147.412109"/>
       <use xlink:href="#DejaVuSans-30" x="179.199219"/>
      </g>
     </g>
    </g>
    <g id="ytick_2">
     <g id="line2d_2">
      <g>
       <use xlink:href="#mbe30af8bd0" x="79.251641" y="315.54885" style="stroke: #000000; stroke-width: 1.875"/>
      </g>
     </g>
     <g id="text_3">
      <!-- −0.5 -->
      <g transform="translate(26.685 321.817561) scale(0.165 -0.165)">
       <defs>
        <path id="DejaVuSans-35" d="M 691 4666 
L 3169 4666 
L 3169 4134 
L 1269 4134 
L 1269 2991 
Q 1406 3038 1543 3061 
Q 1681 3084 1819 3084 
Q 2600 3084 3056 2656 
Q 3513 2228 3513 1497 
Q 3513 744 3044 326 
Q 2575 -91 1722 -91 
Q 1428 -91 1123 -41 
Q 819 9 494 109 
L 494 744 
Q 775 591 1075 516 
Q 1375 441 1709 441 
Q 2250 441 2565 725 
Q 2881 1009 2881 1497 
Q 2881 1984 2565 2268 
Q 2250 2553 1709 2553 
Q 1456 2553 1204 2497 
Q 953 2441 691 2322 
L 691 4666 
z
" transform="scale(0.015625)"/>
       </defs>
       <use xlink:href="#DejaVuSans-2212"/>
       <use xlink:href="#DejaVuSans-30" x="83.789062"/>
       <use xlink:href="#DejaVuSans-2e" x="147.412109"/>
       <use xlink:href="#DejaVuSans-35" x="179.199219"/>
      </g>
     </g>
    </g>
    <g id="ytick_3">
     <g id="line2d_3">
      <g>
       <use xlink:href="#mbe30af8bd0" x="79.251641" y="234.518771" style="stroke: #000000; stroke-width: 1.875"/>
      </g>
     </g>
     <g id="text_4">
      <!-- 0.0 -->
      <g transform="translate(40.511484 240.787482) scale(0.165 -0.165)">
       <use xlink:href="#DejaVuSans-30"/>
       <use xlink:href="#DejaVuSans-2e" x="63.623047"/>
       <use xlink:href="#DejaVuSans-30" x="95.410156"/>
      </g>
     </g>
    </g>
    <g id="ytick_4">
     <g id="line2d_4">
      <g>
       <use xlink:href="#mbe30af8bd0" x="79.251641" y="153.488691" style="stroke: #000000; stroke-width: 1.875"/>
      </g>
     </g>
     <g id="text_5">
      <!-- 0.5 -->
      <g transform="translate(40.511484 159.757402) scale(0.165 -0.165)">
       <use xlink:href="#DejaVuSans-30"/>
       <use xlink:href="#DejaVuSans-2e" x="63.623047"/>
       <use xlink:href="#DejaVuSans-35" x="95.410156"/>
      </g>
     </g>
    </g>
    <g id="ytick_5">
     <g id="line2d_5">
      <g>
       <use xlink:href="#mbe30af8bd0" x="79.251641" y="72.458612" style="stroke: #000000; stroke-width: 1.875"/>
      </g>
     </g>
     <g id="text_6">
      <!-- 1.0 -->
      <g transform="translate(40.511484 78.727323) scale(0.165 -0.165)">
       <use xlink:href="#DejaVuSans-31"/>
       <use xlink:href="#DejaVuSans-2e" x="63.623047"/>
       <use xlink:href="#DejaVuSans-30" x="95.410156"/>
      </g>
     </g>
    </g>
    <g id="text_7">
     <!-- Metabolite fold-change -->
     <g transform="translate(19.3575 327.002187) rotate(-90) scale(0.16 -0.16)">
      <defs>
       <path id="DejaVuSans-20" transform="scale(0.015625)"/>
       <path id="DejaVuSans-66" d="M 2375 4863 
L 2375 4384 
L 1825 4384 
Q 1516 4384 1395 4259 
Q 1275 4134 1275 3809 
L 1275 3500 
L 2222 3500 
L 2222 3053 
L 1275 3053 
L 1275 0 
L 697 0 
L 697 3053 
L 147 3053 
L 147 3500 
L 697 3500 
L 697 3744 
Q 697 4328 969 4595 
Q 1241 4863 1831 4863 
L 2375 4863 
z
" transform="scale(0.015625)"/>
       <path id="DejaVuSans-64" d="M 2906 2969 
L 2906 4863 
L 3481 4863 
L 3481 0 
L 2906 0 
L 2906 525 
Q 2725 213 2448 61 
Q 2172 -91 1784 -91 
Q 1150 -91 751 415 
Q 353 922 353 1747 
Q 353 2572 751 3078 
Q 1150 3584 1784 3584 
Q 2172 3584 2448 3432 
Q 2725 3281 2906 2969 
z
M 947 1747 
Q 947 1113 1208 752 
Q 1469 391 1925 391 
Q 2381 391 2643 752 
Q 2906 1113 2906 1747 
Q 2906 2381 2643 2742 
Q 2381 3103 1925 3103 
Q 1469 3103 1208 2742 
Q 947 2381 947 1747 
z
" transform="scale(0.015625)"/>
       <path id="DejaVuSans-2d" d="M 313 2009 
L 1997 2009 
L 1997 1497 
L 313 1497 
L 313 2009 
z
" transform="scale(0.015625)"/>
       <path id="DejaVuSans-63" d="M 3122 3366 
L 3122 2828 
Q 2878 2963 2633 3030 
Q 2388 3097 2138 3097 
Q 1578 3097 1268 2742 
Q 959 2388 959 1747 
Q 959 1106 1268 751 
Q 1578 397 2138 397 
Q 2388 397 2633 464 
Q 2878 531 3122 666 
L 3122 134 
Q 2881 22 2623 -34 
Q 2366 -91 2075 -91 
Q 1284 -91 818 406 
Q 353 903 353 1747 
Q 353 2603 823 3093 
Q 1294 3584 2113 3584 
Q 2378 3584 2631 3529 
Q 2884 3475 3122 3366 
z
" transform="scale(0.015625)"/>
       <path id="DejaVuSans-68" d="M 3513 2113 
L 3513 0 
L 2938 0 
L 2938 2094 
Q 2938 2591 2744 2837 
Q 2550 3084 2163 3084 
Q 1697 3084 1428 2787 
Q 1159 2491 1159 1978 
L 1159 0 
L 581 0 
L 581 4863 
L 1159 4863 
L 1159 2956 
Q 1366 3272 1645 3428 
Q 1925 3584 2291 3584 
Q 2894 3584 3203 3211 
Q 3513 2838 3513 2113 
z
" transform="scale(0.015625)"/>
       <path id="DejaVuSans-6e" d="M 3513 2113 
L 3513 0 
L 2938 0 
L 2938 2094 
Q 2938 2591 2744 2837 
Q 2550 3084 2163 3084 
Q 1697 3084 1428 2787 
Q 1159 2491 1159 1978 
L 1159 0 
L 581 0 
L 581 3500 
L 1159 3500 
L 1159 2956 
Q 1366 3272 1645 3428 
Q 1925 3584 2291 3584 
Q 2894 3584 3203 3211 
Q 3513 2838 3513 2113 
z
" transform="scale(0.015625)"/>
       <path id="DejaVuSans-67" d="M 2906 1791 
Q 2906 2416 2648 2759 
Q 2391 3103 1925 3103 
Q 1463 3103 1205 2759 
Q 947 2416 947 1791 
Q 947 1169 1205 825 
Q 1463 481 1925 481 
Q 2391 481 2648 825 
Q 2906 1169 2906 1791 
z
M 3481 434 
Q 3481 -459 3084 -895 
Q 2688 -1331 1869 -1331 
Q 1566 -1331 1297 -1286 
Q 1028 -1241 775 -1147 
L 775 -588 
Q 1028 -725 1275 -790 
Q 1522 -856 1778 -856 
Q 2344 -856 2625 -561 
Q 2906 -266 2906 331 
L 2906 616 
Q 2728 306 2450 153 
Q 2172 0 1784 0 
Q 1141 0 747 490 
Q 353 981 353 1791 
Q 353 2603 747 3093 
Q 1141 3584 1784 3584 
Q 2172 3584 2450 3431 
Q 2728 3278 2906 2969 
L 2906 3500 
L 3481 3500 
L 3481 434 
z
" transform="scale(0.015625)"/>
      </defs>
      <use xlink:href="#DejaVuSans-4d"/>
      <use xlink:href="#DejaVuSans-65" x="86.279297"/>
      <use xlink:href="#DejaVuSans-74" x="147.802734"/>
      <use xlink:href="#DejaVuSans-61" x="187.011719"/>
      <use xlink:href="#DejaVuSans-62" x="248.291016"/>
      <use xlink:href="#DejaVuSans-6f" x="311.767578"/>
      <use xlink:href="#DejaVuSans-6c" x="372.949219"/>
      <use xlink:href="#DejaVuSans-69" x="400.732422"/>
      <use xlink:href="#DejaVuSans-74" x="428.515625"/>
      <use xlink:href="#DejaVuSans-65" x="467.724609"/>
      <use xlink:href="#DejaVuSans-20" x="529.248047"/>
      <use xlink:href="#DejaVuSans-66" x="561.035156"/>
      <use xlink:href="#DejaVuSans-6f" x="596.240234"/>
      <use xlink:href="#DejaVuSans-6c" x="657.421875"/>
      <use xlink:href="#DejaVuSans-64" x="685.205078"/>
      <use xlink:href="#DejaVuSans-2d" x="748.681641"/>
      <use xlink:href="#DejaVuSans-63" x="784.765625"/>
      <use xlink:href="#DejaVuSans-68" x="839.746094"/>
      <use xlink:href="#DejaVuSans-61" x="903.125"/>
      <use xlink:href="#DejaVuSans-6e" x="964.404297"/>
      <use xlink:href="#DejaVuSans-67" x="1027.783203"/>
      <use xlink:href="#DejaVuSans-65" x="1091.259766"/>
     </g>
    </g>
   </g>
   <g id="line2d_6">
    <path d="M 108.306875 292.148969 
L 108.306875 362.063827 
" clip-path="url(#p3d0e7076af)" style="fill: none; stroke: #363636; stroke-width: 2.25; stroke-linecap: square"/>
   </g>
   <g id="line2d_7">
    <path d="M 108.306875 96.546197 
L 108.306875 65.173597 
" clip-path="url(#p3d0e7076af)" style="fill: none; stroke: #363636; stroke-width: 2.25; stroke-linecap: square"/>
   </g>
   <g id="line2d_8">
    <path d="M 102.495828 362.063827 
L 114.117922 362.063827 
" clip-path="url(#p3d0e7076af)" style="fill: none; stroke: #363636; stroke-width: 2.25; stroke-linecap: square"/>
   </g>
   <g id="line2d_9">
    <path d="M 102.495828 65.173597 
L 114.117922 65.173597 
" clip-path="url(#p3d0e7076af)" style="fill: none; stroke: #363636; stroke-width: 2.25; stroke-linecap: square"/>
   </g>
   <g id="line2d_10"/>
   <g id="line2d_11">
    <path d="M 166.417344 180.814169 
L 166.417344 216.517651 
" clip-path="url(#p3d0e7076af)" style="fill: none; stroke: #363636; stroke-width: 2.25; stroke-linecap: square"/>
   </g>
   <g id="line2d_12">
    <path d="M 166.417344 90.637542 
L 166.417344 45.777187 
" clip-path="url(#p3d0e7076af)" style="fill: none; stroke: #363636; stroke-width: 2.25; stroke-linecap: square"/>
   </g>
   <g id="line2d_13">
    <path d="M 160.606297 216.517651 
L 172.228391 216.517651 
" clip-path="url(#p3d0e7076af)" style="fill: none; stroke: #363636; stroke-width: 2.25; stroke-linecap: square"/>
   </g>
   <g id="line2d_14">
    <path d="M 160.606297 45.777187 
L 172.228391 45.777187 
" clip-path="url(#p3d0e7076af)" style="fill: none; stroke: #363636; stroke-width: 2.25; stroke-linecap: square"/>
   </g>
   <g id="line2d_15">
    <defs>
     <path id="m81534f3656" d="M -0 3.535534 
L 2.12132 0 
L -0 -3.535534 
L -2.12132 -0 
z
" style="stroke: #363636; stroke-linejoin: miter"/>
    </defs>
    <g clip-path="url(#p3d0e7076af)">
     <use xlink:href="#m81534f3656" x="166.417344" y="393.12497" style="fill: #363636; stroke: #363636; stroke-linejoin: miter"/>
     <use xlink:href="#m81534f3656" x="166.417344" y="404.250029" style="fill: #363636; stroke: #363636; stroke-linejoin: miter"/>
     <use xlink:href="#m81534f3656" x="166.417344" y="423.777187" style="fill: #363636; stroke: #363636; stroke-linejoin: miter"/>
    </g>
   </g>
   <g id="line2d_16">
    <path d="M 96.684781 116.950833 
L 119.928969 116.950833 
" clip-path="url(#p3d0e7076af)" style="fill: none; stroke: #363636; stroke-width: 2.25; stroke-linecap: square"/>
   </g>
   <g id="line2d_17">
    <path d="M 154.79525 128.60148 
L 178.039437 128.60148 
" clip-path="url(#p3d0e7076af)" style="fill: none; stroke: #363636; stroke-width: 2.25; stroke-linecap: square"/>
   </g>
   <g id="patch_5">
    <path d="M 79.251641 442.677187 
L 79.251641 26.877187 
" style="fill: none; stroke: #000000; stroke-width: 1.875; stroke-linejoin: miter; stroke-linecap: square"/>
   </g>
   <g id="patch_6">
    <path d="M 195.472578 442.677187 
L 195.472578 26.877187 
" style="fill: none; stroke: #000000; stroke-width: 1.875; stroke-linejoin: miter; stroke-linecap: square"/>
   </g>
   <g id="patch_7">
    <path d="M 79.251641 442.677187 
L 195.472578 442.677187 
" style="fill: none; stroke: #000000; stroke-width: 1.875; stroke-linejoin: miter; stroke-linecap: square"/>
   </g>
   <g id="patch_8">
    <path d="M 79.251641 26.877187 
L 195.472578 26.877187 
" style="fill: none; stroke: #000000; stroke-width: 1.875; stroke-linejoin: miter; stroke-linecap: square"/>
   </g>
   <g id="text_8">
    <!-- A -->
    <g transform="translate(79.251641 20.877187) scale(0.18 -0.18)">
     <defs>
      <path id="DejaVuSans-41" d="M 2188 4044 
L 1331 1722 
L 3047 1722 
L 2188 4044 
z
M 1831 4666 
L 2547 4666 
L 4325 0 
L 3669 0 
L 3244 1197 
L 1141 1197 
L 716 0 
L 50 0 
L 1831 4666 
z
" transform="scale(0.015625)"/>
     </defs>
     <use xlink:href="#DejaVuSans-41"/>
    </g>
   </g>
  </g>
  <g id="axes_2">
   <g id="patch_9">
    <path d="M 288.449328 442.677187 
L 404.670266 442.677187 
L 404.670266 26.877187 
L 288.449328 26.877187 
z
" style="fill: #ffffff"/>
   </g>
   <g id="patch_10">
    <path d="M 305.882469 408.161365 
L 329.126656 408.161365 
L 329.126656 239.450506 
L 305.882469 239.450506 
L 305.882469 408.161365 
z
" clip-path="url(#pea74ef47ce)" style="fill: #176d9c; stroke: #363636; stroke-width: 2.25; stroke-linejoin: miter"/>
   </g>
   <g id="patch_11">
    <path d="M 363.992938 395.191991 
L 387.237125 395.191991 
L 387.237125 326.537467 
L 363.992938 326.537467 
L 363.992938 395.191991 
z
" clip-path="url(#pea74ef47ce)" style="fill: #c38820; stroke: #363636; stroke-width: 2.25; stroke-linejoin: miter"/>
   </g>
   <g id="patch_12">
    <path d="M 317.504563 423.791113 
L 317.504563 423.791113 
L 317.504563 423.791113 
L 317.504563 423.791113 
z
" clip-path="url(#pea74ef47ce)" style="fill: #176d9c; stroke: #363636; stroke-width: 1.125; stroke-linejoin: miter"/>
   </g>
   <g id="patch_13">
    <path d="M 317.504563 423.791113 
L 317.504563 423.791113 
L 317.504563 423.791113 
L 317.504563 423.791113 
z
" clip-path="url(#pea74ef47ce)" style="fill: #c38820; stroke: #363636; stroke-width: 1.125; stroke-linejoin: miter"/>
   </g>
   <g id="matplotlib.axis_3">
    <g id="xtick_3"/>
    <g id="xtick_4"/>
    <g id="text_9">
     <!-- Metabolites -->
     <g transform="translate(300.051047 471.334687) scale(0.16 -0.16)">
      <use xlink:href="#DejaVuSans-4d"/>
      <use xlink:href="#DejaVuSans-65" x="86.279297"/>
      <use xlink:href="#DejaVuSans-74" x="147.802734"/>
      <use xlink:href="#DejaVuSans-61" x="187.011719"/>
      <use xlink:href="#DejaVuSans-62" x="248.291016"/>
      <use xlink:href="#DejaVuSans-6f" x="311.767578"/>
      <use xlink:href="#DejaVuSans-6c" x="372.949219"/>
      <use xlink:href="#DejaVuSans-69" x="400.732422"/>
      <use xlink:href="#DejaVuSans-74" x="428.515625"/>
      <use xlink:href="#DejaVuSans-65" x="467.724609"/>
      <use xlink:href="#DejaVuSans-73" x="529.248047"/>
     </g>
    </g>
   </g>
   <g id="matplotlib.axis_4">
    <g id="ytick_6">
     <g id="line2d_18">
      <g>
       <use xlink:href="#mbe30af8bd0" x="288.449328" y="423.791113" style="stroke: #000000; stroke-width: 1.875"/>
      </g>
     </g>
     <g id="text_10">
      <!-- 0 -->
      <g transform="translate(265.451203 430.059824) scale(0.165 -0.165)">
       <use xlink:href="#DejaVuSans-30"/>
      </g>
     </g>
    </g>
    <g id="ytick_7">
     <g id="line2d_19">
      <g>
       <use xlink:href="#mbe30af8bd0" x="288.449328" y="372.642474" style="stroke: #000000; stroke-width: 1.875"/>
      </g>
     </g>
     <g id="text_11">
      <!-- 50 -->
      <g transform="translate(254.953078 378.911185) scale(0.165 -0.165)">
       <use xlink:href="#DejaVuSans-35"/>
       <use xlink:href="#DejaVuSans-30" x="63.623047"/>
      </g>
     </g>
    </g>
    <g id="ytick_8">
     <g id="line2d_20">
      <g>
       <use xlink:href="#mbe30af8bd0" x="288.449328" y="321.493835" style="stroke: #000000; stroke-width: 1.875"/>
      </g>
     </g>
     <g id="text_12">
      <!-- 100 -->
      <g transform="translate(244.454953 327.762546) scale(0.165 -0.165)">
       <use xlink:href="#DejaVuSans-31"/>
       <use xlink:href="#DejaVuSans-30" x="63.623047"/>
       <use xlink:href="#DejaVuSans-30" x="127.246094"/>
      </g>
     </g>
    </g>
    <g id="ytick_9">
     <g id="line2d_21">
      <g>
       <use xlink:href="#mbe30af8bd0" x="288.449328" y="270.345196" style="stroke: #000000; stroke-width: 1.875"/>
      </g>
     </g>
     <g id="text_13">
      <!-- 150 -->
      <g transform="translate(244.454953 276.613907) scale(0.165 -0.165)">
       <use xlink:href="#DejaVuSans-31"/>
       <use xlink:href="#DejaVuSans-35" x="63.623047"/>
       <use xlink:href="#DejaVuSans-30" x="127.246094"/>
      </g>
     </g>
    </g>
    <g id="ytick_10">
     <g id="line2d_22">
      <g>
       <use xlink:href="#mbe30af8bd0" x="288.449328" y="219.196558" style="stroke: #000000; stroke-width: 1.875"/>
      </g>
     </g>
     <g id="text_14">
      <!-- 200 -->
      <g transform="translate(244.454953 225.465268) scale(0.165 -0.165)">
       <defs>
        <path id="DejaVuSans-32" d="M 1228 531 
L 3431 531 
L 3431 0 
L 469 0 
L 469 531 
Q 828 903 1448 1529 
Q 2069 2156 2228 2338 
Q 2531 2678 2651 2914 
Q 2772 3150 2772 3378 
Q 2772 3750 2511 3984 
Q 2250 4219 1831 4219 
Q 1534 4219 1204 4116 
Q 875 4013 500 3803 
L 500 4441 
Q 881 4594 1212 4672 
Q 1544 4750 1819 4750 
Q 2544 4750 2975 4387 
Q 3406 4025 3406 3419 
Q 3406 3131 3298 2873 
Q 3191 2616 2906 2266 
Q 2828 2175 2409 1742 
Q 1991 1309 1228 531 
z
" transform="scale(0.015625)"/>
       </defs>
       <use xlink:href="#DejaVuSans-32"/>
       <use xlink:href="#DejaVuSans-30" x="63.623047"/>
       <use xlink:href="#DejaVuSans-30" x="127.246094"/>
      </g>
     </g>
    </g>
    <g id="ytick_11">
     <g id="line2d_23">
      <g>
       <use xlink:href="#mbe30af8bd0" x="288.449328" y="168.047919" style="stroke: #000000; stroke-width: 1.875"/>
      </g>
     </g>
     <g id="text_15">
      <!-- 250 -->
      <g transform="translate(244.454953 174.31663) scale(0.165 -0.165)">
       <use xlink:href="#DejaVuSans-32"/>
       <use xlink:href="#DejaVuSans-35" x="63.623047"/>
       <use xlink:href="#DejaVuSans-30" x="127.246094"/>
      </g>
     </g>
    </g>
    <g id="ytick_12">
     <g id="line2d_24">
      <g>
       <use xlink:href="#mbe30af8bd0" x="288.449328" y="116.89928" style="stroke: #000000; stroke-width: 1.875"/>
      </g>
     </g>
     <g id="text_16">
      <!-- 300 -->
      <g transform="translate(244.454953 123.167991) scale(0.165 -0.165)">
       <defs>
        <path id="DejaVuSans-33" d="M 2597 2516 
Q 3050 2419 3304 2112 
Q 3559 1806 3559 1356 
Q 3559 666 3084 287 
Q 2609 -91 1734 -91 
Q 1441 -91 1130 -33 
Q 819 25 488 141 
L 488 750 
Q 750 597 1062 519 
Q 1375 441 1716 441 
Q 2309 441 2620 675 
Q 2931 909 2931 1356 
Q 2931 1769 2642 2001 
Q 2353 2234 1838 2234 
L 1294 2234 
L 1294 2753 
L 1863 2753 
Q 2328 2753 2575 2939 
Q 2822 3125 2822 3475 
Q 2822 3834 2567 4026 
Q 2313 4219 1838 4219 
Q 1578 4219 1281 4162 
Q 984 4106 628 3988 
L 628 4550 
Q 988 4650 1302 4700 
Q 1616 4750 1894 4750 
Q 2613 4750 3031 4423 
Q 3450 4097 3450 3541 
Q 3450 3153 3228 2886 
Q 3006 2619 2597 2516 
z
" transform="scale(0.015625)"/>
       </defs>
       <use xlink:href="#DejaVuSans-33"/>
       <use xlink:href="#DejaVuSans-30" x="63.623047"/>
       <use xlink:href="#DejaVuSans-30" x="127.246094"/>
      </g>
     </g>
    </g>
    <g id="ytick_13">
     <g id="line2d_25">
      <g>
       <use xlink:href="#mbe30af8bd0" x="288.449328" y="65.750641" style="stroke: #000000; stroke-width: 1.875"/>
      </g>
     </g>
     <g id="text_17">
      <!-- 350 -->
      <g transform="translate(244.454953 72.019352) scale(0.165 -0.165)">
       <use xlink:href="#DejaVuSans-33"/>
       <use xlink:href="#DejaVuSans-35" x="63.623047"/>
       <use xlink:href="#DejaVuSans-30" x="127.246094"/>
      </g>
     </g>
    </g>
    <g id="text_18">
     <!-- APE of log fold change (%) -->
     <g transform="translate(237.127453 341.047187) rotate(-90) scale(0.16 -0.16)">
      <defs>
       <path id="DejaVuSans-50" d="M 1259 4147 
L 1259 2394 
L 2053 2394 
Q 2494 2394 2734 2622 
Q 2975 2850 2975 3272 
Q 2975 3691 2734 3919 
Q 2494 4147 2053 4147 
L 1259 4147 
z
M 628 4666 
L 2053 4666 
Q 2838 4666 3239 4311 
Q 3641 3956 3641 3272 
Q 3641 2581 3239 2228 
Q 2838 1875 2053 1875 
L 1259 1875 
L 1259 0 
L 628 0 
L 628 4666 
z
" transform="scale(0.015625)"/>
       <path id="DejaVuSans-45" d="M 628 4666 
L 3578 4666 
L 3578 4134 
L 1259 4134 
L 1259 2753 
L 3481 2753 
L 3481 2222 
L 1259 2222 
L 1259 531 
L 3634 531 
L 3634 0 
L 628 0 
L 628 4666 
z
" transform="scale(0.015625)"/>
       <path id="DejaVuSans-28" d="M 1984 4856 
Q 1566 4138 1362 3434 
Q 1159 2731 1159 2009 
Q 1159 1288 1364 580 
Q 1569 -128 1984 -844 
L 1484 -844 
Q 1016 -109 783 600 
Q 550 1309 550 2009 
Q 550 2706 781 3412 
Q 1013 4119 1484 4856 
L 1984 4856 
z
" transform="scale(0.015625)"/>
       <path id="DejaVuSans-25" d="M 4653 2053 
Q 4381 2053 4226 1822 
Q 4072 1591 4072 1178 
Q 4072 772 4226 539 
Q 4381 306 4653 306 
Q 4919 306 5073 539 
Q 5228 772 5228 1178 
Q 5228 1588 5073 1820 
Q 4919 2053 4653 2053 
z
M 4653 2450 
Q 5147 2450 5437 2106 
Q 5728 1763 5728 1178 
Q 5728 594 5436 251 
Q 5144 -91 4653 -91 
Q 4153 -91 3862 251 
Q 3572 594 3572 1178 
Q 3572 1766 3864 2108 
Q 4156 2450 4653 2450 
z
M 1428 4353 
Q 1159 4353 1004 4120 
Q 850 3888 850 3481 
Q 850 3069 1003 2837 
Q 1156 2606 1428 2606 
Q 1700 2606 1854 2837 
Q 2009 3069 2009 3481 
Q 2009 3884 1853 4118 
Q 1697 4353 1428 4353 
z
M 4250 4750 
L 4750 4750 
L 1831 -91 
L 1331 -91 
L 4250 4750 
z
M 1428 4750 
Q 1922 4750 2215 4408 
Q 2509 4066 2509 3481 
Q 2509 2891 2217 2550 
Q 1925 2209 1428 2209 
Q 931 2209 642 2551 
Q 353 2894 353 3481 
Q 353 4063 643 4406 
Q 934 4750 1428 4750 
z
" transform="scale(0.015625)"/>
       <path id="DejaVuSans-29" d="M 513 4856 
L 1013 4856 
Q 1481 4119 1714 3412 
Q 1947 2706 1947 2009 
Q 1947 1309 1714 600 
Q 1481 -109 1013 -844 
L 513 -844 
Q 928 -128 1133 580 
Q 1338 1288 1338 2009 
Q 1338 2731 1133 3434 
Q 928 4138 513 4856 
z
" transform="scale(0.015625)"/>
      </defs>
      <use xlink:href="#DejaVuSans-41"/>
      <use xlink:href="#DejaVuSans-50" x="68.408203"/>
      <use xlink:href="#DejaVuSans-45" x="128.710938"/>
      <use xlink:href="#DejaVuSans-20" x="191.894531"/>
      <use xlink:href="#DejaVuSans-6f" x="223.681641"/>
      <use xlink:href="#DejaVuSans-66" x="284.863281"/>
      <use xlink:href="#DejaVuSans-20" x="320.068359"/>
      <use xlink:href="#DejaVuSans-6c" x="351.855469"/>
      <use xlink:href="#DejaVuSans-6f" x="379.638672"/>
      <use xlink:href="#DejaVuSans-67" x="440.820312"/>
      <use xlink:href="#DejaVuSans-20" x="504.296875"/>
      <use xlink:href="#DejaVuSans-66" x="536.083984"/>
      <use xlink:href="#DejaVuSans-6f" x="571.289062"/>
      <use xlink:href="#DejaVuSans-6c" x="632.470703"/>
      <use xlink:href="#DejaVuSans-64" x="660.253906"/>
      <use xlink:href="#DejaVuSans-20" x="723.730469"/>
      <use xlink:href="#DejaVuSans-63" x="755.517578"/>
      <use xlink:href="#DejaVuSans-68" x="810.498047"/>
      <use xlink:href="#DejaVuSans-61" x="873.876953"/>
      <use xlink:href="#DejaVuSans-6e" x="935.15625"/>
      <use xlink:href="#DejaVuSans-67" x="998.535156"/>
      <use xlink:href="#DejaVuSans-65" x="1062.011719"/>
      <use xlink:href="#DejaVuSans-20" x="1123.535156"/>
      <use xlink:href="#DejaVuSans-28" x="1155.322266"/>
      <use xlink:href="#DejaVuSans-25" x="1194.335938"/>
      <use xlink:href="#DejaVuSans-29" x="1289.355469"/>
     </g>
    </g>
   </g>
   <g id="line2d_26">
    <path d="M 317.504563 408.161365 
L 317.504563 423.777187 
" clip-path="url(#pea74ef47ce)" style="fill: none; stroke: #363636; stroke-width: 2.25; stroke-linecap: square"/>
   </g>
   <g id="line2d_27">
    <path d="M 317.504563 239.450506 
L 317.504563 85.729118 
" clip-path="url(#pea74ef47ce)" style="fill: none; stroke: #363636; stroke-width: 2.25; stroke-linecap: square"/>
   </g>
   <g id="line2d_28">
    <path d="M 311.693516 423.777187 
L 323.315609 423.777187 
" clip-path="url(#pea74ef47ce)" style="fill: none; stroke: #363636; stroke-width: 2.25; stroke-linecap: square"/>
   </g>
   <g id="line2d_29">
    <path d="M 311.693516 85.729118 
L 323.315609 85.729118 
" clip-path="url(#pea74ef47ce)" style="fill: none; stroke: #363636; stroke-width: 2.25; stroke-linecap: square"/>
   </g>
   <g id="line2d_30"/>
   <g id="line2d_31">
    <path d="M 375.615031 395.191991 
L 375.615031 412.475376 
" clip-path="url(#pea74ef47ce)" style="fill: none; stroke: #363636; stroke-width: 2.25; stroke-linecap: square"/>
   </g>
   <g id="line2d_32">
    <path d="M 375.615031 326.537467 
L 375.615031 236.626165 
" clip-path="url(#pea74ef47ce)" style="fill: none; stroke: #363636; stroke-width: 2.25; stroke-linecap: square"/>
   </g>
   <g id="line2d_33">
    <path d="M 369.803984 412.475376 
L 381.426078 412.475376 
" clip-path="url(#pea74ef47ce)" style="fill: none; stroke: #363636; stroke-width: 2.25; stroke-linecap: square"/>
   </g>
   <g id="line2d_34">
    <path d="M 369.803984 236.626165 
L 381.426078 236.626165 
" clip-path="url(#pea74ef47ce)" style="fill: none; stroke: #363636; stroke-width: 2.25; stroke-linecap: square"/>
   </g>
   <g id="line2d_35">
    <g clip-path="url(#pea74ef47ce)">
     <use xlink:href="#m81534f3656" x="375.615031" y="45.777187" style="fill: #363636; stroke: #363636; stroke-linejoin: miter"/>
     <use xlink:href="#m81534f3656" x="375.615031" y="45.777187" style="fill: #363636; stroke: #363636; stroke-linejoin: miter"/>
     <use xlink:href="#m81534f3656" x="375.615031" y="45.777187" style="fill: #363636; stroke: #363636; stroke-linejoin: miter"/>
     <use xlink:href="#m81534f3656" x="375.615031" y="45.777187" style="fill: #363636; stroke: #363636; stroke-linejoin: miter"/>
     <use xlink:href="#m81534f3656" x="375.615031" y="45.777187" style="fill: #363636; stroke: #363636; stroke-linejoin: miter"/>
     <use xlink:href="#m81534f3656" x="375.615031" y="45.777187" style="fill: #363636; stroke: #363636; stroke-linejoin: miter"/>
     <use xlink:href="#m81534f3656" x="375.615031" y="45.777187" style="fill: #363636; stroke: #363636; stroke-linejoin: miter"/>
     <use xlink:href="#m81534f3656" x="375.615031" y="45.777187" style="fill: #363636; stroke: #363636; stroke-linejoin: miter"/>
     <use xlink:href="#m81534f3656" x="375.615031" y="45.777187" style="fill: #363636; stroke: #363636; stroke-linejoin: miter"/>
     <use xlink:href="#m81534f3656" x="375.615031" y="45.777187" style="fill: #363636; stroke: #363636; stroke-linejoin: miter"/>
    </g>
   </g>
   <g id="line2d_36">
    <path d="M 305.882469 394.22072 
L 329.126656 394.22072 
" clip-path="url(#pea74ef47ce)" style="fill: none; stroke: #363636; stroke-width: 2.25; stroke-linecap: square"/>
   </g>
   <g id="line2d_37">
    <path d="M 363.992938 377.534256 
L 387.237125 377.534256 
" clip-path="url(#pea74ef47ce)" style="fill: none; stroke: #363636; stroke-width: 2.25; stroke-linecap: square"/>
   </g>
   <g id="patch_14">
    <path d="M 288.449328 442.677187 
L 288.449328 26.877187 
" style="fill: none; stroke: #000000; stroke-width: 1.875; stroke-linejoin: miter; stroke-linecap: square"/>
   </g>
   <g id="patch_15">
    <path d="M 404.670266 442.677187 
L 404.670266 26.877187 
" style="fill: none; stroke: #000000; stroke-width: 1.875; stroke-linejoin: miter; stroke-linecap: square"/>
   </g>
   <g id="patch_16">
    <path d="M 288.449328 442.677187 
L 404.670266 442.677187 
" style="fill: none; stroke: #000000; stroke-width: 1.875; stroke-linejoin: miter; stroke-linecap: square"/>
   </g>
   <g id="patch_17">
    <path d="M 288.449328 26.877187 
L 404.670266 26.877187 
" style="fill: none; stroke: #000000; stroke-width: 1.875; stroke-linejoin: miter; stroke-linecap: square"/>
   </g>
   <g id="text_19">
    <!-- B -->
    <g transform="translate(288.449328 20.877187) scale(0.18 -0.18)">
     <defs>
      <path id="DejaVuSans-42" d="M 1259 2228 
L 1259 519 
L 2272 519 
Q 2781 519 3026 730 
Q 3272 941 3272 1375 
Q 3272 1813 3026 2020 
Q 2781 2228 2272 2228 
L 1259 2228 
z
M 1259 4147 
L 1259 2741 
L 2194 2741 
Q 2656 2741 2882 2914 
Q 3109 3088 3109 3444 
Q 3109 3797 2882 3972 
Q 2656 4147 2194 4147 
L 1259 4147 
z
M 628 4666 
L 2241 4666 
Q 2963 4666 3353 4366 
Q 3744 4066 3744 3513 
Q 3744 3084 3544 2831 
Q 3344 2578 2956 2516 
Q 3422 2416 3680 2098 
Q 3938 1781 3938 1306 
Q 3938 681 3513 340 
Q 3088 0 2303 0 
L 628 0 
L 628 4666 
z
" transform="scale(0.015625)"/>
     </defs>
     <use xlink:href="#DejaVuSans-42"/>
    </g>
   </g>
  </g>
  <g id="axes_3">
   <g id="patch_18">
    <path d="M 497.647016 207.659796 
L 823.065641 207.659796 
L 823.065641 26.877187 
L 497.647016 26.877187 
z
" style="fill: #ffffff"/>
   </g>
   <g id="patch_19">
    <path d="M 497.669165 207.659796 
L 513.940097 207.659796 
L 513.940097 35.485883 
L 497.669165 35.485883 
z
" clip-path="url(#p8ed1a6d3d5)" style="fill: #0173b2; fill-opacity: 0.5; stroke: #000000; stroke-width: 0.870103; stroke-linejoin: miter"/>
   </g>
   <g id="patch_20">
    <path d="M 513.940097 207.659796 
L 530.211028 207.659796 
L 530.211028 64.181535 
L 513.940097 64.181535 
z
" clip-path="url(#p8ed1a6d3d5)" style="fill: #0173b2; fill-opacity: 0.5; stroke: #000000; stroke-width: 0.870103; stroke-linejoin: miter"/>
   </g>
   <g id="patch_21">
    <path d="M 530.211028 207.659796 
L 546.481959 207.659796 
L 546.481959 92.877187 
L 530.211028 92.877187 
z
" clip-path="url(#p8ed1a6d3d5)" style="fill: #0173b2; fill-opacity: 0.5; stroke: #000000; stroke-width: 0.870103; stroke-linejoin: miter"/>
   </g>
   <g id="patch_22">
    <path d="M 546.481959 207.659796 
L 562.75289 207.659796 
L 562.75289 150.268492 
L 546.481959 150.268492 
z
" clip-path="url(#p8ed1a6d3d5)" style="fill: #0173b2; fill-opacity: 0.5; stroke: #000000; stroke-width: 0.870103; stroke-linejoin: miter"/>
   </g>
   <g id="patch_23">
    <path d="M 562.75289 207.659796 
L 579.023822 207.659796 
L 579.023822 178.964144 
L 562.75289 178.964144 
z
" clip-path="url(#p8ed1a6d3d5)" style="fill: #0173b2; fill-opacity: 0.5; stroke: #000000; stroke-width: 0.870103; stroke-linejoin: miter"/>
   </g>
   <g id="patch_24">
    <path d="M 579.023822 207.659796 
L 595.294753 207.659796 
L 595.294753 178.964144 
L 579.023822 178.964144 
z
" clip-path="url(#p8ed1a6d3d5)" style="fill: #0173b2; fill-opacity: 0.5; stroke: #000000; stroke-width: 0.870103; stroke-linejoin: miter"/>
   </g>
   <g id="patch_25">
    <path d="M 595.294753 207.659796 
L 611.565684 207.659796 
L 611.565684 178.964144 
L 595.294753 178.964144 
z
" clip-path="url(#p8ed1a6d3d5)" style="fill: #0173b2; fill-opacity: 0.5; stroke: #000000; stroke-width: 0.870103; stroke-linejoin: miter"/>
   </g>
   <g id="patch_26">
    <path d="M 611.565684 207.659796 
L 627.836615 207.659796 
L 627.836615 207.659796 
L 611.565684 207.659796 
z
" clip-path="url(#p8ed1a6d3d5)" style="fill: #0173b2; fill-opacity: 0.5; stroke: #000000; stroke-width: 0.870103; stroke-linejoin: miter"/>
   </g>
   <g id="patch_27">
    <path d="M 627.836615 207.659796 
L 644.107547 207.659796 
L 644.107547 207.659796 
L 627.836615 207.659796 
z
" clip-path="url(#p8ed1a6d3d5)" style="fill: #0173b2; fill-opacity: 0.5; stroke: #000000; stroke-width: 0.870103; stroke-linejoin: miter"/>
   </g>
   <g id="patch_28">
    <path d="M 644.107547 207.659796 
L 660.378478 207.659796 
L 660.378478 207.659796 
L 644.107547 207.659796 
z
" clip-path="url(#p8ed1a6d3d5)" style="fill: #0173b2; fill-opacity: 0.5; stroke: #000000; stroke-width: 0.870103; stroke-linejoin: miter"/>
   </g>
   <g id="patch_29">
    <path d="M 660.378478 207.659796 
L 676.649409 207.659796 
L 676.649409 207.659796 
L 660.378478 207.659796 
z
" clip-path="url(#p8ed1a6d3d5)" style="fill: #0173b2; fill-opacity: 0.5; stroke: #000000; stroke-width: 0.870103; stroke-linejoin: miter"/>
   </g>
   <g id="patch_30">
    <path d="M 676.649409 207.659796 
L 692.92034 207.659796 
L 692.92034 207.659796 
L 676.649409 207.659796 
z
" clip-path="url(#p8ed1a6d3d5)" style="fill: #0173b2; fill-opacity: 0.5; stroke: #000000; stroke-width: 0.870103; stroke-linejoin: miter"/>
   </g>
   <g id="patch_31">
    <path d="M 692.92034 207.659796 
L 709.191272 207.659796 
L 709.191272 207.659796 
L 692.92034 207.659796 
z
" clip-path="url(#p8ed1a6d3d5)" style="fill: #0173b2; fill-opacity: 0.5; stroke: #000000; stroke-width: 0.870103; stroke-linejoin: miter"/>
   </g>
   <g id="patch_32">
    <path d="M 709.191272 207.659796 
L 725.462203 207.659796 
L 725.462203 207.659796 
L 709.191272 207.659796 
z
" clip-path="url(#p8ed1a6d3d5)" style="fill: #0173b2; fill-opacity: 0.5; stroke: #000000; stroke-width: 0.870103; stroke-linejoin: miter"/>
   </g>
   <g id="patch_33">
    <path d="M 725.462203 207.659796 
L 741.733134 207.659796 
L 741.733134 207.659796 
L 725.462203 207.659796 
z
" clip-path="url(#p8ed1a6d3d5)" style="fill: #0173b2; fill-opacity: 0.5; stroke: #000000; stroke-width: 0.870103; stroke-linejoin: miter"/>
   </g>
   <g id="patch_34">
    <path d="M 741.733134 207.659796 
L 758.004065 207.659796 
L 758.004065 178.964144 
L 741.733134 178.964144 
z
" clip-path="url(#p8ed1a6d3d5)" style="fill: #0173b2; fill-opacity: 0.5; stroke: #000000; stroke-width: 0.870103; stroke-linejoin: miter"/>
   </g>
   <g id="patch_35">
    <path d="M 758.004065 207.659796 
L 774.274997 207.659796 
L 774.274997 207.659796 
L 758.004065 207.659796 
z
" clip-path="url(#p8ed1a6d3d5)" style="fill: #0173b2; fill-opacity: 0.5; stroke: #000000; stroke-width: 0.870103; stroke-linejoin: miter"/>
   </g>
   <g id="patch_36">
    <path d="M 774.274997 207.659796 
L 790.545928 207.659796 
L 790.545928 207.659796 
L 774.274997 207.659796 
z
" clip-path="url(#p8ed1a6d3d5)" style="fill: #0173b2; fill-opacity: 0.5; stroke: #000000; stroke-width: 0.870103; stroke-linejoin: miter"/>
   </g>
   <g id="patch_37">
    <path d="M 790.545928 207.659796 
L 806.816859 207.659796 
L 806.816859 92.877187 
L 790.545928 92.877187 
z
" clip-path="url(#p8ed1a6d3d5)" style="fill: #0173b2; fill-opacity: 0.5; stroke: #000000; stroke-width: 0.870103; stroke-linejoin: miter"/>
   </g>
   <g id="patch_38">
    <path d="M 806.816859 207.659796 
L 823.08779 207.659796 
L 823.08779 207.659796 
L 806.816859 207.659796 
z
" clip-path="url(#p8ed1a6d3d5)" style="fill: #0173b2; fill-opacity: 0.5; stroke: #000000; stroke-width: 0.870103; stroke-linejoin: miter"/>
   </g>
   <g id="patch_39">
    <path d="M 823.08779 207.659796 
L 839.358722 207.659796 
L 839.358722 207.659796 
L 823.08779 207.659796 
z
" clip-path="url(#p8ed1a6d3d5)" style="fill: #0173b2; fill-opacity: 0.5; stroke: #000000; stroke-width: 0.870103; stroke-linejoin: miter"/>
   </g>
   <g id="patch_40">
    <path d="M 839.358722 207.659796 
L 855.629653 207.659796 
L 855.629653 178.964144 
L 839.358722 178.964144 
z
" clip-path="url(#p8ed1a6d3d5)" style="fill: #0173b2; fill-opacity: 0.5; stroke: #000000; stroke-width: 0.870103; stroke-linejoin: miter"/>
   </g>
   <g id="patch_41">
    <path d="M 855.629653 207.659796 
L 871.900584 207.659796 
L 871.900584 150.268492 
L 855.629653 150.268492 
z
" clip-path="url(#p8ed1a6d3d5)" style="fill: #0173b2; fill-opacity: 0.5; stroke: #000000; stroke-width: 0.870103; stroke-linejoin: miter"/>
   </g>
   <g id="patch_42">
    <path d="M 871.900584 207.659796 
L 888.171515 207.659796 
L 888.171515 207.659796 
L 871.900584 207.659796 
z
" clip-path="url(#p8ed1a6d3d5)" style="fill: #0173b2; fill-opacity: 0.5; stroke: #000000; stroke-width: 0.870103; stroke-linejoin: miter"/>
   </g>
   <g id="patch_43">
    <path d="M 888.171515 207.659796 
L 904.442447 207.659796 
L 904.442447 207.659796 
L 888.171515 207.659796 
z
" clip-path="url(#p8ed1a6d3d5)" style="fill: #0173b2; fill-opacity: 0.5; stroke: #000000; stroke-width: 0.870103; stroke-linejoin: miter"/>
   </g>
   <g id="patch_44">
    <path d="M 904.442447 207.659796 
L 920.713378 207.659796 
L 920.713378 207.659796 
L 904.442447 207.659796 
z
" clip-path="url(#p8ed1a6d3d5)" style="fill: #0173b2; fill-opacity: 0.5; stroke: #000000; stroke-width: 0.870103; stroke-linejoin: miter"/>
   </g>
   <g id="patch_45">
    <path d="M 920.713378 207.659796 
L 936.984309 207.659796 
L 936.984309 207.659796 
L 920.713378 207.659796 
z
" clip-path="url(#p8ed1a6d3d5)" style="fill: #0173b2; fill-opacity: 0.5; stroke: #000000; stroke-width: 0.870103; stroke-linejoin: miter"/>
   </g>
   <g id="patch_46">
    <path d="M 936.984309 207.659796 
L 953.25524 207.659796 
L 953.25524 207.659796 
L 936.984309 207.659796 
z
" clip-path="url(#p8ed1a6d3d5)" style="fill: #0173b2; fill-opacity: 0.5; stroke: #000000; stroke-width: 0.870103; stroke-linejoin: miter"/>
   </g>
   <g id="patch_47">
    <path d="M 953.25524 207.659796 
L 969.526172 207.659796 
L 969.526172 207.659796 
L 953.25524 207.659796 
z
" clip-path="url(#p8ed1a6d3d5)" style="fill: #0173b2; fill-opacity: 0.5; stroke: #000000; stroke-width: 0.870103; stroke-linejoin: miter"/>
   </g>
   <g id="patch_48">
    <path d="M 969.526172 207.659796 
L 985.797103 207.659796 
L 985.797103 207.659796 
L 969.526172 207.659796 
z
" clip-path="url(#p8ed1a6d3d5)" style="fill: #0173b2; fill-opacity: 0.5; stroke: #000000; stroke-width: 0.870103; stroke-linejoin: miter"/>
   </g>
   <g id="patch_49">
    <path d="M 985.797103 207.659796 
L 1002.068034 207.659796 
L 1002.068034 207.659796 
L 985.797103 207.659796 
z
" clip-path="url(#p8ed1a6d3d5)" style="fill: #0173b2; fill-opacity: 0.5; stroke: #000000; stroke-width: 0.870103; stroke-linejoin: miter"/>
   </g>
   <g id="patch_50">
    <path d="M 1002.068034 207.659796 
L 1018.338965 207.659796 
L 1018.338965 207.659796 
L 1002.068034 207.659796 
z
" clip-path="url(#p8ed1a6d3d5)" style="fill: #0173b2; fill-opacity: 0.5; stroke: #000000; stroke-width: 0.870103; stroke-linejoin: miter"/>
   </g>
   <g id="patch_51">
    <path d="M 1018.338965 207.659796 
L 1034.609897 207.659796 
L 1034.609897 207.659796 
L 1018.338965 207.659796 
z
" clip-path="url(#p8ed1a6d3d5)" style="fill: #0173b2; fill-opacity: 0.5; stroke: #000000; stroke-width: 0.870103; stroke-linejoin: miter"/>
   </g>
   <g id="patch_52">
    <path d="M 1034.609897 207.659796 
L 1050.880828 207.659796 
L 1050.880828 178.964144 
L 1034.609897 178.964144 
z
" clip-path="url(#p8ed1a6d3d5)" style="fill: #0173b2; fill-opacity: 0.5; stroke: #000000; stroke-width: 0.870103; stroke-linejoin: miter"/>
   </g>
   <g id="matplotlib.axis_5">
    <g id="xtick_5">
     <g id="line2d_38">
      <defs>
       <path id="m55c3891322" d="M 0 0 
L 0 9 
" style="stroke: #000000; stroke-width: 1.875"/>
      </defs>
      <g>
       <use xlink:href="#m55c3891322" x="497.647016" y="207.659796" style="stroke: #000000; stroke-width: 1.875"/>
      </g>
     </g>
     <g id="text_20">
      <!-- 0 -->
      <g transform="translate(492.397953 232.697218) scale(0.165 -0.165)">
       <use xlink:href="#DejaVuSans-30"/>
      </g>
     </g>
    </g>
    <g id="xtick_6">
     <g id="line2d_39">
      <g>
       <use xlink:href="#m55c3891322" x="579.001672" y="207.659796" style="stroke: #000000; stroke-width: 1.875"/>
      </g>
     </g>
     <g id="text_21">
      <!-- 50 -->
      <g transform="translate(568.503547 232.697218) scale(0.165 -0.165)">
       <use xlink:href="#DejaVuSans-35"/>
       <use xlink:href="#DejaVuSans-30" x="63.623047"/>
      </g>
     </g>
    </g>
    <g id="xtick_7">
     <g id="line2d_40">
      <g>
       <use xlink:href="#m55c3891322" x="660.356328" y="207.659796" style="stroke: #000000; stroke-width: 1.875"/>
      </g>
     </g>
     <g id="text_22">
      <!-- 100 -->
      <g transform="translate(644.609141 232.697218) scale(0.165 -0.165)">
       <use xlink:href="#DejaVuSans-31"/>
       <use xlink:href="#DejaVuSans-30" x="63.623047"/>
       <use xlink:href="#DejaVuSans-30" x="127.246094"/>
      </g>
     </g>
    </g>
    <g id="xtick_8">
     <g id="line2d_41">
      <g>
       <use xlink:href="#m55c3891322" x="741.710984" y="207.659796" style="stroke: #000000; stroke-width: 1.875"/>
      </g>
     </g>
     <g id="text_23">
      <!-- 150 -->
      <g transform="translate(725.963797 232.697218) scale(0.165 -0.165)">
       <use xlink:href="#DejaVuSans-31"/>
       <use xlink:href="#DejaVuSans-35" x="63.623047"/>
       <use xlink:href="#DejaVuSans-30" x="127.246094"/>
      </g>
     </g>
    </g>
    <g id="xtick_9">
     <g id="line2d_42">
      <g>
       <use xlink:href="#m55c3891322" x="823.065641" y="207.659796" style="stroke: #000000; stroke-width: 1.875"/>
      </g>
     </g>
     <g id="text_24">
      <!-- 200 -->
      <g transform="translate(807.318453 232.697218) scale(0.165 -0.165)">
       <use xlink:href="#DejaVuSans-32"/>
       <use xlink:href="#DejaVuSans-30" x="63.623047"/>
       <use xlink:href="#DejaVuSans-30" x="127.246094"/>
      </g>
     </g>
    </g>
   </g>
   <g id="matplotlib.axis_6">
    <g id="ytick_14">
     <g id="line2d_43">
      <g>
       <use xlink:href="#mbe30af8bd0" x="497.647016" y="207.659796" style="stroke: #000000; stroke-width: 1.875"/>
      </g>
     </g>
     <g id="text_25">
      <!-- 0 -->
      <g transform="translate(474.648891 213.928507) scale(0.165 -0.165)">
       <use xlink:href="#DejaVuSans-30"/>
      </g>
     </g>
    </g>
    <g id="ytick_15">
     <g id="line2d_44">
      <g>
       <use xlink:href="#mbe30af8bd0" x="497.647016" y="150.268492" style="stroke: #000000; stroke-width: 1.875"/>
      </g>
     </g>
     <g id="text_26">
      <!-- 20 -->
      <g transform="translate(464.150766 156.537203) scale(0.165 -0.165)">
       <use xlink:href="#DejaVuSans-32"/>
       <use xlink:href="#DejaVuSans-30" x="63.623047"/>
      </g>
     </g>
    </g>
    <g id="ytick_16">
     <g id="line2d_45">
      <g>
       <use xlink:href="#mbe30af8bd0" x="497.647016" y="92.877187" style="stroke: #000000; stroke-width: 1.875"/>
      </g>
     </g>
     <g id="text_27">
      <!-- 40 -->
      <g transform="translate(464.150766 99.145898) scale(0.165 -0.165)">
       <defs>
        <path id="DejaVuSans-34" d="M 2419 4116 
L 825 1625 
L 2419 1625 
L 2419 4116 
z
M 2253 4666 
L 3047 4666 
L 3047 1625 
L 3713 1625 
L 3713 1100 
L 3047 1100 
L 3047 0 
L 2419 0 
L 2419 1100 
L 313 1100 
L 313 1709 
L 2253 4666 
z
" transform="scale(0.015625)"/>
       </defs>
       <use xlink:href="#DejaVuSans-34"/>
       <use xlink:href="#DejaVuSans-30" x="63.623047"/>
      </g>
     </g>
    </g>
    <g id="ytick_17">
     <g id="line2d_46">
      <g>
       <use xlink:href="#mbe30af8bd0" x="497.647016" y="35.485883" style="stroke: #000000; stroke-width: 1.875"/>
      </g>
     </g>
     <g id="text_28">
      <!-- 60 -->
      <g transform="translate(464.150766 41.754594) scale(0.165 -0.165)">
       <defs>
        <path id="DejaVuSans-36" d="M 2113 2584 
Q 1688 2584 1439 2293 
Q 1191 2003 1191 1497 
Q 1191 994 1439 701 
Q 1688 409 2113 409 
Q 2538 409 2786 701 
Q 3034 994 3034 1497 
Q 3034 2003 2786 2293 
Q 2538 2584 2113 2584 
z
M 3366 4563 
L 3366 3988 
Q 3128 4100 2886 4159 
Q 2644 4219 2406 4219 
Q 1781 4219 1451 3797 
Q 1122 3375 1075 2522 
Q 1259 2794 1537 2939 
Q 1816 3084 2150 3084 
Q 2853 3084 3261 2657 
Q 3669 2231 3669 1497 
Q 3669 778 3244 343 
Q 2819 -91 2113 -91 
Q 1303 -91 875 529 
Q 447 1150 447 2328 
Q 447 3434 972 4092 
Q 1497 4750 2381 4750 
Q 2619 4750 2861 4703 
Q 3103 4656 3366 4563 
z
" transform="scale(0.015625)"/>
       </defs>
       <use xlink:href="#DejaVuSans-36"/>
       <use xlink:href="#DejaVuSans-30" x="63.623047"/>
      </g>
     </g>
    </g>
    <g id="text_29">
     <!-- Frequency of APE -->
     <g transform="translate(456.823266 186.743492) rotate(-90) scale(0.16 -0.16)">
      <defs>
       <path id="DejaVuSans-46" d="M 628 4666 
L 3309 4666 
L 3309 4134 
L 1259 4134 
L 1259 2759 
L 3109 2759 
L 3109 2228 
L 1259 2228 
L 1259 0 
L 628 0 
L 628 4666 
z
" transform="scale(0.015625)"/>
       <path id="DejaVuSans-72" d="M 2631 2963 
Q 2534 3019 2420 3045 
Q 2306 3072 2169 3072 
Q 1681 3072 1420 2755 
Q 1159 2438 1159 1844 
L 1159 0 
L 581 0 
L 581 3500 
L 1159 3500 
L 1159 2956 
Q 1341 3275 1631 3429 
Q 1922 3584 2338 3584 
Q 2397 3584 2469 3576 
Q 2541 3569 2628 3553 
L 2631 2963 
z
" transform="scale(0.015625)"/>
       <path id="DejaVuSans-71" d="M 947 1747 
Q 947 1113 1208 752 
Q 1469 391 1925 391 
Q 2381 391 2643 752 
Q 2906 1113 2906 1747 
Q 2906 2381 2643 2742 
Q 2381 3103 1925 3103 
Q 1469 3103 1208 2742 
Q 947 2381 947 1747 
z
M 2906 525 
Q 2725 213 2448 61 
Q 2172 -91 1784 -91 
Q 1150 -91 751 415 
Q 353 922 353 1747 
Q 353 2572 751 3078 
Q 1150 3584 1784 3584 
Q 2172 3584 2448 3432 
Q 2725 3281 2906 2969 
L 2906 3500 
L 3481 3500 
L 3481 -1331 
L 2906 -1331 
L 2906 525 
z
" transform="scale(0.015625)"/>
       <path id="DejaVuSans-75" d="M 544 1381 
L 544 3500 
L 1119 3500 
L 1119 1403 
Q 1119 906 1312 657 
Q 1506 409 1894 409 
Q 2359 409 2629 706 
Q 2900 1003 2900 1516 
L 2900 3500 
L 3475 3500 
L 3475 0 
L 2900 0 
L 2900 538 
Q 2691 219 2414 64 
Q 2138 -91 1772 -91 
Q 1169 -91 856 284 
Q 544 659 544 1381 
z
M 1991 3584 
L 1991 3584 
z
" transform="scale(0.015625)"/>
       <path id="DejaVuSans-79" d="M 2059 -325 
Q 1816 -950 1584 -1140 
Q 1353 -1331 966 -1331 
L 506 -1331 
L 506 -850 
L 844 -850 
Q 1081 -850 1212 -737 
Q 1344 -625 1503 -206 
L 1606 56 
L 191 3500 
L 800 3500 
L 1894 763 
L 2988 3500 
L 3597 3500 
L 2059 -325 
z
" transform="scale(0.015625)"/>
      </defs>
      <use xlink:href="#DejaVuSans-46"/>
      <use xlink:href="#DejaVuSans-72" x="50.269531"/>
      <use xlink:href="#DejaVuSans-65" x="89.132812"/>
      <use xlink:href="#DejaVuSans-71" x="150.65625"/>
      <use xlink:href="#DejaVuSans-75" x="214.132812"/>
      <use xlink:href="#DejaVuSans-65" x="277.511719"/>
      <use xlink:href="#DejaVuSans-6e" x="339.035156"/>
      <use xlink:href="#DejaVuSans-63" x="402.414062"/>
      <use xlink:href="#DejaVuSans-79" x="457.394531"/>
      <use xlink:href="#DejaVuSans-20" x="516.574219"/>
      <use xlink:href="#DejaVuSans-6f" x="548.361328"/>
      <use xlink:href="#DejaVuSans-66" x="609.542969"/>
      <use xlink:href="#DejaVuSans-20" x="644.748047"/>
      <use xlink:href="#DejaVuSans-41" x="676.535156"/>
      <use xlink:href="#DejaVuSans-50" x="744.943359"/>
      <use xlink:href="#DejaVuSans-45" x="805.246094"/>
     </g>
    </g>
   </g>
   <g id="line2d_47">
    <path d="M 497.669165 151.276545 
L 503.073021 148.201083 
L 505.774948 146.83493 
L 508.476876 145.595148 
L 511.178804 144.489655 
L 513.880731 143.525408 
L 516.582659 142.70832 
L 519.284587 142.043205 
L 521.986514 141.533721 
L 524.688442 141.182347 
L 527.39037 140.990357 
L 530.092297 140.957828 
L 532.794225 141.08365 
L 535.496153 141.365558 
L 538.19808 141.800176 
L 540.900008 142.383077 
L 543.601936 143.108851 
L 546.303863 143.971189 
L 549.005791 144.962968 
L 554.409646 147.302892 
L 559.813501 150.059213 
L 565.217357 153.156118 
L 570.621212 156.514757 
L 578.726995 161.871955 
L 597.640489 174.623362 
L 605.746272 179.729411 
L 611.150127 182.909703 
L 616.553982 185.879601 
L 621.957837 188.620665 
L 627.361693 191.121024 
L 632.765548 193.3744 
L 638.169403 195.379111 
L 643.573259 197.137101 
L 648.977114 198.653051 
L 654.380969 199.933575 
L 659.784825 200.986535 
L 665.18868 201.820475 
L 670.592535 202.444186 
L 675.99639 202.866399 
L 681.400246 203.095612 
L 686.804101 203.140039 
L 692.207956 203.007692 
L 697.611812 202.706565 
L 703.015667 202.244917 
L 711.12145 201.271147 
L 719.227233 199.991047 
L 727.333016 198.447277 
L 735.438799 196.692807 
L 748.948437 193.480012 
L 765.160003 189.600404 
L 773.265786 187.849417 
L 781.371569 186.331866 
L 789.477352 185.114521 
L 794.881207 184.495114 
L 800.285063 184.041573 
L 805.688918 183.759732 
L 811.092773 183.65143 
L 816.496628 183.71476 
L 821.900484 183.944461 
L 827.304339 184.332396 
L 835.410122 185.187513 
L 843.515905 186.3319 
L 851.621688 187.71681 
L 862.429399 189.846864 
L 875.939037 192.783688 
L 897.554458 197.523307 
L 908.362169 199.656759 
L 916.467952 201.071042 
L 924.573735 202.292218 
L 932.679518 203.300674 
L 940.7853 204.087476 
L 948.891083 204.654227 
L 956.996866 205.01236 
L 960.614514 205.107684 
L 960.614514 205.107684 
" clip-path="url(#p8ed1a6d3d5)" style="fill: none; stroke: #0173b2; stroke-width: 2.25; stroke-linecap: square"/>
   </g>
   <g id="patch_53">
    <path d="M 497.647016 207.659796 
L 497.647016 26.877187 
" style="fill: none; stroke: #000000; stroke-width: 1.875; stroke-linejoin: miter; stroke-linecap: square"/>
   </g>
   <g id="patch_54">
    <path d="M 823.065641 207.659796 
L 823.065641 26.877187 
" style="fill: none; stroke: #000000; stroke-width: 1.875; stroke-linejoin: miter; stroke-linecap: square"/>
   </g>
   <g id="patch_55">
    <path d="M 497.647016 207.659796 
L 823.065641 207.659796 
" style="fill: none; stroke: #000000; stroke-width: 1.875; stroke-linejoin: miter; stroke-linecap: square"/>
   </g>
   <g id="patch_56">
    <path d="M 497.647016 26.877187 
L 823.065641 26.877187 
" style="fill: none; stroke: #000000; stroke-width: 1.875; stroke-linejoin: miter; stroke-linecap: square"/>
   </g>
   <g id="text_30">
    <!-- C -->
    <g transform="translate(497.647016 20.877187) scale(0.18 -0.18)">
     <defs>
      <path id="DejaVuSans-43" d="M 4122 4306 
L 4122 3641 
Q 3803 3938 3442 4084 
Q 3081 4231 2675 4231 
Q 1875 4231 1450 3742 
Q 1025 3253 1025 2328 
Q 1025 1406 1450 917 
Q 1875 428 2675 428 
Q 3081 428 3442 575 
Q 3803 722 4122 1019 
L 4122 359 
Q 3791 134 3420 21 
Q 3050 -91 2638 -91 
Q 1578 -91 968 557 
Q 359 1206 359 2328 
Q 359 3453 968 4101 
Q 1578 4750 2638 4750 
Q 3056 4750 3426 4639 
Q 3797 4528 4122 4306 
z
" transform="scale(0.015625)"/>
     </defs>
     <use xlink:href="#DejaVuSans-43"/>
    </g>
   </g>
  </g>
  <g id="axes_4">
   <g id="patch_57">
    <path d="M 497.647016 442.677187 
L 823.065641 442.677187 
L 823.065641 261.894579 
L 497.647016 261.894579 
z
" style="fill: #ffffff"/>
   </g>
   <g id="patch_58">
    <path d="M 515.645303 442.677187 
L 531.916234 442.677187 
L 531.916234 270.503274 
L 515.645303 270.503274 
z
" clip-path="url(#pc203061c46)" style="fill: #de8f05; fill-opacity: 0.5; stroke: #000000; stroke-width: 1.5; stroke-linejoin: miter"/>
   </g>
   <g id="patch_59">
    <path d="M 531.916234 442.677187 
L 548.187166 442.677187 
L 548.187166 385.285883 
L 531.916234 385.285883 
z
" clip-path="url(#pc203061c46)" style="fill: #de8f05; fill-opacity: 0.5; stroke: #000000; stroke-width: 1.5; stroke-linejoin: miter"/>
   </g>
   <g id="patch_60">
    <path d="M 548.187166 442.677187 
L 564.458097 442.677187 
L 564.458097 299.198927 
L 548.187166 299.198927 
z
" clip-path="url(#pc203061c46)" style="fill: #de8f05; fill-opacity: 0.5; stroke: #000000; stroke-width: 1.5; stroke-linejoin: miter"/>
   </g>
   <g id="patch_61">
    <path d="M 564.458097 442.677187 
L 580.729028 442.677187 
L 580.729028 385.285883 
L 564.458097 385.285883 
z
" clip-path="url(#pc203061c46)" style="fill: #de8f05; fill-opacity: 0.5; stroke: #000000; stroke-width: 1.5; stroke-linejoin: miter"/>
   </g>
   <g id="patch_62">
    <path d="M 580.729028 442.677187 
L 596.999959 442.677187 
L 596.999959 356.590231 
L 580.729028 356.590231 
z
" clip-path="url(#pc203061c46)" style="fill: #de8f05; fill-opacity: 0.5; stroke: #000000; stroke-width: 1.5; stroke-linejoin: miter"/>
   </g>
   <g id="patch_63">
    <path d="M 596.999959 442.677187 
L 613.270891 442.677187 
L 613.270891 385.285883 
L 596.999959 385.285883 
z
" clip-path="url(#pc203061c46)" style="fill: #de8f05; fill-opacity: 0.5; stroke: #000000; stroke-width: 1.5; stroke-linejoin: miter"/>
   </g>
   <g id="patch_64">
    <path d="M 613.270891 442.677187 
L 629.541822 442.677187 
L 629.541822 413.981535 
L 613.270891 413.981535 
z
" clip-path="url(#pc203061c46)" style="fill: #de8f05; fill-opacity: 0.5; stroke: #000000; stroke-width: 1.5; stroke-linejoin: miter"/>
   </g>
   <g id="patch_65">
    <path d="M 629.541822 442.677187 
L 645.812753 442.677187 
L 645.812753 442.677187 
L 629.541822 442.677187 
z
" clip-path="url(#pc203061c46)" style="fill: #de8f05; fill-opacity: 0.5; stroke: #000000; stroke-width: 1.5; stroke-linejoin: miter"/>
   </g>
   <g id="patch_66">
    <path d="M 645.812753 442.677187 
L 662.083684 442.677187 
L 662.083684 385.285883 
L 645.812753 385.285883 
z
" clip-path="url(#pc203061c46)" style="fill: #de8f05; fill-opacity: 0.5; stroke: #000000; stroke-width: 1.5; stroke-linejoin: miter"/>
   </g>
   <g id="patch_67">
    <path d="M 662.083684 442.677187 
L 678.354616 442.677187 
L 678.354616 413.981535 
L 662.083684 413.981535 
z
" clip-path="url(#pc203061c46)" style="fill: #de8f05; fill-opacity: 0.5; stroke: #000000; stroke-width: 1.5; stroke-linejoin: miter"/>
   </g>
   <g id="patch_68">
    <path d="M 678.354616 442.677187 
L 694.625547 442.677187 
L 694.625547 413.981535 
L 678.354616 413.981535 
z
" clip-path="url(#pc203061c46)" style="fill: #de8f05; fill-opacity: 0.5; stroke: #000000; stroke-width: 1.5; stroke-linejoin: miter"/>
   </g>
   <g id="patch_69">
    <path d="M 694.625547 442.677187 
L 710.896478 442.677187 
L 710.896478 442.677187 
L 694.625547 442.677187 
z
" clip-path="url(#pc203061c46)" style="fill: #de8f05; fill-opacity: 0.5; stroke: #000000; stroke-width: 1.5; stroke-linejoin: miter"/>
   </g>
   <g id="patch_70">
    <path d="M 710.896478 442.677187 
L 727.167409 442.677187 
L 727.167409 413.981535 
L 710.896478 413.981535 
z
" clip-path="url(#pc203061c46)" style="fill: #de8f05; fill-opacity: 0.5; stroke: #000000; stroke-width: 1.5; stroke-linejoin: miter"/>
   </g>
   <g id="patch_71">
    <path d="M 727.167409 442.677187 
L 743.438341 442.677187 
L 743.438341 442.677187 
L 727.167409 442.677187 
z
" clip-path="url(#pc203061c46)" style="fill: #de8f05; fill-opacity: 0.5; stroke: #000000; stroke-width: 1.5; stroke-linejoin: miter"/>
   </g>
   <g id="patch_72">
    <path d="M 743.438341 442.677187 
L 759.709272 442.677187 
L 759.709272 413.981535 
L 743.438341 413.981535 
z
" clip-path="url(#pc203061c46)" style="fill: #de8f05; fill-opacity: 0.5; stroke: #000000; stroke-width: 1.5; stroke-linejoin: miter"/>
   </g>
   <g id="patch_73">
    <path d="M 759.709272 442.677187 
L 775.980203 442.677187 
L 775.980203 442.677187 
L 759.709272 442.677187 
z
" clip-path="url(#pc203061c46)" style="fill: #de8f05; fill-opacity: 0.5; stroke: #000000; stroke-width: 1.5; stroke-linejoin: miter"/>
   </g>
   <g id="patch_74">
    <path d="M 775.980203 442.677187 
L 792.251134 442.677187 
L 792.251134 442.677187 
L 775.980203 442.677187 
z
" clip-path="url(#pc203061c46)" style="fill: #de8f05; fill-opacity: 0.5; stroke: #000000; stroke-width: 1.5; stroke-linejoin: miter"/>
   </g>
   <g id="patch_75">
    <path d="M 792.251134 442.677187 
L 808.522066 442.677187 
L 808.522066 413.981535 
L 792.251134 413.981535 
z
" clip-path="url(#pc203061c46)" style="fill: #de8f05; fill-opacity: 0.5; stroke: #000000; stroke-width: 1.5; stroke-linejoin: miter"/>
   </g>
   <g id="patch_76">
    <path d="M 808.522066 442.677187 
L 824.792997 442.677187 
L 824.792997 442.677187 
L 808.522066 442.677187 
z
" clip-path="url(#pc203061c46)" style="fill: #de8f05; fill-opacity: 0.5; stroke: #000000; stroke-width: 1.5; stroke-linejoin: miter"/>
   </g>
   <g id="patch_77">
    <path d="M 824.792997 442.677187 
L 841.063928 442.677187 
L 841.063928 442.677187 
L 824.792997 442.677187 
z
" clip-path="url(#pc203061c46)" style="fill: #de8f05; fill-opacity: 0.5; stroke: #000000; stroke-width: 1.5; stroke-linejoin: miter"/>
   </g>
   <g id="patch_78">
    <path d="M 841.063928 442.677187 
L 857.334859 442.677187 
L 857.334859 442.677187 
L 841.063928 442.677187 
z
" clip-path="url(#pc203061c46)" style="fill: #de8f05; fill-opacity: 0.5; stroke: #000000; stroke-width: 1.5; stroke-linejoin: miter"/>
   </g>
   <g id="patch_79">
    <path d="M 857.334859 442.677187 
L 873.605791 442.677187 
L 873.605791 442.677187 
L 857.334859 442.677187 
z
" clip-path="url(#pc203061c46)" style="fill: #de8f05; fill-opacity: 0.5; stroke: #000000; stroke-width: 1.5; stroke-linejoin: miter"/>
   </g>
   <g id="patch_80">
    <path d="M 873.605791 442.677187 
L 889.876722 442.677187 
L 889.876722 442.677187 
L 873.605791 442.677187 
z
" clip-path="url(#pc203061c46)" style="fill: #de8f05; fill-opacity: 0.5; stroke: #000000; stroke-width: 1.5; stroke-linejoin: miter"/>
   </g>
   <g id="patch_81">
    <path d="M 889.876722 442.677187 
L 906.147653 442.677187 
L 906.147653 442.677187 
L 889.876722 442.677187 
z
" clip-path="url(#pc203061c46)" style="fill: #de8f05; fill-opacity: 0.5; stroke: #000000; stroke-width: 1.5; stroke-linejoin: miter"/>
   </g>
   <g id="patch_82">
    <path d="M 906.147653 442.677187 
L 922.418584 442.677187 
L 922.418584 442.677187 
L 906.147653 442.677187 
z
" clip-path="url(#pc203061c46)" style="fill: #de8f05; fill-opacity: 0.5; stroke: #000000; stroke-width: 1.5; stroke-linejoin: miter"/>
   </g>
   <g id="patch_83">
    <path d="M 922.418584 442.677187 
L 938.689516 442.677187 
L 938.689516 442.677187 
L 922.418584 442.677187 
z
" clip-path="url(#pc203061c46)" style="fill: #de8f05; fill-opacity: 0.5; stroke: #000000; stroke-width: 1.5; stroke-linejoin: miter"/>
   </g>
   <g id="patch_84">
    <path d="M 938.689516 442.677187 
L 954.960447 442.677187 
L 954.960447 442.677187 
L 938.689516 442.677187 
z
" clip-path="url(#pc203061c46)" style="fill: #de8f05; fill-opacity: 0.5; stroke: #000000; stroke-width: 1.5; stroke-linejoin: miter"/>
   </g>
   <g id="patch_85">
    <path d="M 954.960447 442.677187 
L 971.231378 442.677187 
L 971.231378 442.677187 
L 954.960447 442.677187 
z
" clip-path="url(#pc203061c46)" style="fill: #de8f05; fill-opacity: 0.5; stroke: #000000; stroke-width: 1.5; stroke-linejoin: miter"/>
   </g>
   <g id="patch_86">
    <path d="M 971.231378 442.677187 
L 987.502309 442.677187 
L 987.502309 442.677187 
L 971.231378 442.677187 
z
" clip-path="url(#pc203061c46)" style="fill: #de8f05; fill-opacity: 0.5; stroke: #000000; stroke-width: 1.5; stroke-linejoin: miter"/>
   </g>
   <g id="patch_87">
    <path d="M 987.502309 442.677187 
L 1003.773241 442.677187 
L 1003.773241 442.677187 
L 987.502309 442.677187 
z
" clip-path="url(#pc203061c46)" style="fill: #de8f05; fill-opacity: 0.5; stroke: #000000; stroke-width: 1.5; stroke-linejoin: miter"/>
   </g>
   <g id="patch_88">
    <path d="M 1003.773241 442.677187 
L 1020.044172 442.677187 
L 1020.044172 442.677187 
L 1003.773241 442.677187 
z
" clip-path="url(#pc203061c46)" style="fill: #de8f05; fill-opacity: 0.5; stroke: #000000; stroke-width: 1.5; stroke-linejoin: miter"/>
   </g>
   <g id="patch_89">
    <path d="M 1020.044172 442.677187 
L 1036.315103 442.677187 
L 1036.315103 442.677187 
L 1020.044172 442.677187 
z
" clip-path="url(#pc203061c46)" style="fill: #de8f05; fill-opacity: 0.5; stroke: #000000; stroke-width: 1.5; stroke-linejoin: miter"/>
   </g>
   <g id="patch_90">
    <path d="M 1036.315103 442.677187 
L 1052.586034 442.677187 
L 1052.586034 442.677187 
L 1036.315103 442.677187 
z
" clip-path="url(#pc203061c46)" style="fill: #de8f05; fill-opacity: 0.5; stroke: #000000; stroke-width: 1.5; stroke-linejoin: miter"/>
   </g>
   <g id="patch_91">
    <path d="M 1052.586034 442.677187 
L 1068.856966 442.677187 
L 1068.856966 442.677187 
L 1052.586034 442.677187 
z
" clip-path="url(#pc203061c46)" style="fill: #de8f05; fill-opacity: 0.5; stroke: #000000; stroke-width: 1.5; stroke-linejoin: miter"/>
   </g>
   <g id="patch_92">
    <path d="M 1068.856966 442.677187 
L 1085.127897 442.677187 
L 1085.127897 442.677187 
L 1068.856966 442.677187 
z
" clip-path="url(#pc203061c46)" style="fill: #de8f05; fill-opacity: 0.5; stroke: #000000; stroke-width: 1.5; stroke-linejoin: miter"/>
   </g>
   <g id="patch_93">
    <path d="M 1085.127897 442.677187 
L 1101.398828 442.677187 
L 1101.398828 413.981535 
L 1085.127897 413.981535 
z
" clip-path="url(#pc203061c46)" style="fill: #de8f05; fill-opacity: 0.5; stroke: #000000; stroke-width: 1.5; stroke-linejoin: miter"/>
   </g>
   <g id="matplotlib.axis_7">
    <g id="xtick_10">
     <g id="line2d_48">
      <g>
       <use xlink:href="#m55c3891322" x="497.647016" y="442.677187" style="stroke: #000000; stroke-width: 1.875"/>
      </g>
     </g>
     <g id="text_31">
      <!-- 0 -->
      <g transform="translate(492.397953 467.714609) scale(0.165 -0.165)">
       <use xlink:href="#DejaVuSans-30"/>
      </g>
     </g>
    </g>
    <g id="xtick_11">
     <g id="line2d_49">
      <g>
       <use xlink:href="#m55c3891322" x="579.001672" y="442.677187" style="stroke: #000000; stroke-width: 1.875"/>
      </g>
     </g>
     <g id="text_32">
      <!-- 50 -->
      <g transform="translate(568.503547 467.714609) scale(0.165 -0.165)">
       <use xlink:href="#DejaVuSans-35"/>
       <use xlink:href="#DejaVuSans-30" x="63.623047"/>
      </g>
     </g>
    </g>
    <g id="xtick_12">
     <g id="line2d_50">
      <g>
       <use xlink:href="#m55c3891322" x="660.356328" y="442.677187" style="stroke: #000000; stroke-width: 1.875"/>
      </g>
     </g>
     <g id="text_33">
      <!-- 100 -->
      <g transform="translate(644.609141 467.714609) scale(0.165 -0.165)">
       <use xlink:href="#DejaVuSans-31"/>
       <use xlink:href="#DejaVuSans-30" x="63.623047"/>
       <use xlink:href="#DejaVuSans-30" x="127.246094"/>
      </g>
     </g>
    </g>
    <g id="xtick_13">
     <g id="line2d_51">
      <g>
       <use xlink:href="#m55c3891322" x="741.710984" y="442.677187" style="stroke: #000000; stroke-width: 1.875"/>
      </g>
     </g>
     <g id="text_34">
      <!-- 150 -->
      <g transform="translate(725.963797 467.714609) scale(0.165 -0.165)">
       <use xlink:href="#DejaVuSans-31"/>
       <use xlink:href="#DejaVuSans-35" x="63.623047"/>
       <use xlink:href="#DejaVuSans-30" x="127.246094"/>
      </g>
     </g>
    </g>
    <g id="xtick_14">
     <g id="line2d_52">
      <g>
       <use xlink:href="#m55c3891322" x="823.065641" y="442.677187" style="stroke: #000000; stroke-width: 1.875"/>
      </g>
     </g>
     <g id="text_35">
      <!-- 200 -->
      <g transform="translate(807.318453 467.714609) scale(0.165 -0.165)">
       <use xlink:href="#DejaVuSans-32"/>
       <use xlink:href="#DejaVuSans-30" x="63.623047"/>
       <use xlink:href="#DejaVuSans-30" x="127.246094"/>
      </g>
     </g>
    </g>
   </g>
   <g id="matplotlib.axis_8">
    <g id="ytick_18">
     <g id="line2d_53">
      <g>
       <use xlink:href="#mbe30af8bd0" x="497.647016" y="442.677187" style="stroke: #000000; stroke-width: 1.875"/>
      </g>
     </g>
     <g id="text_36">
      <!-- 0 -->
      <g transform="translate(474.648891 448.945898) scale(0.165 -0.165)">
       <use xlink:href="#DejaVuSans-30"/>
      </g>
     </g>
    </g>
    <g id="ytick_19">
     <g id="line2d_54">
      <g>
       <use xlink:href="#mbe30af8bd0" x="497.647016" y="385.285883" style="stroke: #000000; stroke-width: 1.875"/>
      </g>
     </g>
     <g id="text_37">
      <!-- 20 -->
      <g transform="translate(464.150766 391.554594) scale(0.165 -0.165)">
       <use xlink:href="#DejaVuSans-32"/>
       <use xlink:href="#DejaVuSans-30" x="63.623047"/>
      </g>
     </g>
    </g>
    <g id="ytick_20">
     <g id="line2d_55">
      <g>
       <use xlink:href="#mbe30af8bd0" x="497.647016" y="327.894579" style="stroke: #000000; stroke-width: 1.875"/>
      </g>
     </g>
     <g id="text_38">
      <!-- 40 -->
      <g transform="translate(464.150766 334.16329) scale(0.165 -0.165)">
       <use xlink:href="#DejaVuSans-34"/>
       <use xlink:href="#DejaVuSans-30" x="63.623047"/>
      </g>
     </g>
    </g>
    <g id="ytick_21">
     <g id="line2d_56">
      <g>
       <use xlink:href="#mbe30af8bd0" x="497.647016" y="270.503274" style="stroke: #000000; stroke-width: 1.875"/>
      </g>
     </g>
     <g id="text_39">
      <!-- 60 -->
      <g transform="translate(464.150766 276.771985) scale(0.165 -0.165)">
       <use xlink:href="#DejaVuSans-36"/>
       <use xlink:href="#DejaVuSans-30" x="63.623047"/>
      </g>
     </g>
    </g>
    <g id="text_40">
     <!-- Frequency of APE -->
     <g transform="translate(456.823266 421.760883) rotate(-90) scale(0.16 -0.16)">
      <use xlink:href="#DejaVuSans-46"/>
      <use xlink:href="#DejaVuSans-72" x="50.269531"/>
      <use xlink:href="#DejaVuSans-65" x="89.132812"/>
      <use xlink:href="#DejaVuSans-71" x="150.65625"/>
      <use xlink:href="#DejaVuSans-75" x="214.132812"/>
      <use xlink:href="#DejaVuSans-65" x="277.511719"/>
      <use xlink:href="#DejaVuSans-6e" x="339.035156"/>
      <use xlink:href="#DejaVuSans-63" x="402.414062"/>
      <use xlink:href="#DejaVuSans-79" x="457.394531"/>
      <use xlink:href="#DejaVuSans-20" x="516.574219"/>
      <use xlink:href="#DejaVuSans-6f" x="548.361328"/>
      <use xlink:href="#DejaVuSans-66" x="609.542969"/>
      <use xlink:href="#DejaVuSans-20" x="644.748047"/>
      <use xlink:href="#DejaVuSans-41" x="676.535156"/>
      <use xlink:href="#DejaVuSans-50" x="744.943359"/>
      <use xlink:href="#DejaVuSans-45" x="805.246094"/>
     </g>
    </g>
   </g>
   <g id="line2d_57">
    <path d="M 515.645303 385.596642 
L 521.507144 380.471547 
L 524.438064 378.112854 
L 527.368985 375.914214 
L 530.299905 373.891552 
L 533.230825 372.058814 
L 536.161746 370.42783 
L 539.092666 369.008226 
L 542.023587 367.807379 
L 544.954507 366.830404 
L 547.885427 366.080191 
L 550.816348 365.557455 
L 553.747268 365.260827 
L 556.678188 365.186951 
L 559.609109 365.330605 
L 562.540029 365.684828 
L 565.47095 366.24105 
L 568.40187 366.989237 
L 571.33279 367.918026 
L 574.263711 369.014873 
L 577.194631 370.266192 
L 580.125552 371.65751 
L 585.987392 374.798694 
L 591.849233 378.310699 
L 600.641994 383.986256 
L 612.365676 391.653835 
L 618.227516 395.283994 
L 624.089357 398.66658 
L 629.951198 401.747358 
L 635.813039 404.497737 
L 641.67488 406.913876 
L 647.53672 409.013704 
L 653.398561 410.832237 
L 659.260402 412.415832 
L 668.053163 414.463739 
L 679.776844 416.838684 
L 729.602491 426.312161 
L 741.326172 428.309757 
L 753.049854 430.07195 
L 764.773536 431.599153 
L 782.359058 433.59955 
L 811.668262 436.895496 
L 832.184704 439.218591 
L 843.908386 440.348772 
L 855.632067 441.235133 
L 867.355749 441.859422 
L 879.07943 442.253897 
L 893.734032 442.514232 
L 917.181395 442.651179 
L 960.614514 442.671169 
L 960.614514 442.671169 
" clip-path="url(#pc203061c46)" style="fill: none; stroke: #de8f05; stroke-width: 2.25; stroke-linecap: square"/>
   </g>
   <g id="patch_94">
    <path d="M 497.647016 442.677187 
L 497.647016 261.894579 
" style="fill: none; stroke: #000000; stroke-width: 1.875; stroke-linejoin: miter; stroke-linecap: square"/>
   </g>
   <g id="patch_95">
    <path d="M 823.065641 442.677187 
L 823.065641 261.894579 
" style="fill: none; stroke: #000000; stroke-width: 1.875; stroke-linejoin: miter; stroke-linecap: square"/>
   </g>
   <g id="patch_96">
    <path d="M 497.647016 442.677187 
L 823.065641 442.677187 
" style="fill: none; stroke: #000000; stroke-width: 1.875; stroke-linejoin: miter; stroke-linecap: square"/>
   </g>
   <g id="patch_97">
    <path d="M 497.647016 261.894579 
L 823.065641 261.894579 
" style="fill: none; stroke: #000000; stroke-width: 1.875; stroke-linejoin: miter; stroke-linecap: square"/>
   </g>
   <g id="text_41">
    <!-- D -->
    <g transform="translate(497.647016 255.894579) scale(0.18 -0.18)">
     <defs>
      <path id="DejaVuSans-44" d="M 1259 4147 
L 1259 519 
L 2022 519 
Q 2988 519 3436 956 
Q 3884 1394 3884 2338 
Q 3884 3275 3436 3711 
Q 2988 4147 2022 4147 
L 1259 4147 
z
M 628 4666 
L 1925 4666 
Q 3281 4666 3915 4102 
Q 4550 3538 4550 2338 
Q 4550 1131 3912 565 
Q 3275 0 1925 0 
L 628 0 
L 628 4666 
z
" transform="scale(0.015625)"/>
     </defs>
     <use xlink:href="#DejaVuSans-44"/>
    </g>
   </g>
   <g id="legend_1">
    <g id="patch_98">
     <path d="M 837.869827 105.146495 
L 949.114514 105.146495 
Q 952.414514 105.146495 952.414514 101.846495 
L 952.414514 29.388057 
Q 952.414514 26.088057 949.114514 26.088057 
L 837.869827 26.088057 
Q 834.569827 26.088057 834.569827 29.388057 
L 834.569827 101.846495 
Q 834.569827 105.146495 837.869827 105.146495 
z
" style="fill: #ffffff; opacity: 0.8; stroke: #cccccc; stroke-width: 1.5; stroke-linejoin: miter"/>
    </g>
    <g id="text_42">
     <!-- Metabolites -->
     <g transform="translate(841.169827 46.365245) scale(0.18 -0.18)">
      <use xlink:href="#DejaVuSans-4d"/>
      <use xlink:href="#DejaVuSans-65" x="86.279297"/>
      <use xlink:href="#DejaVuSans-74" x="147.802734"/>
      <use xlink:href="#DejaVuSans-61" x="187.011719"/>
      <use xlink:href="#DejaVuSans-62" x="248.291016"/>
      <use xlink:href="#DejaVuSans-6f" x="311.767578"/>
      <use xlink:href="#DejaVuSans-6c" x="372.949219"/>
      <use xlink:href="#DejaVuSans-69" x="400.732422"/>
      <use xlink:href="#DejaVuSans-74" x="428.515625"/>
      <use xlink:href="#DejaVuSans-65" x="467.724609"/>
      <use xlink:href="#DejaVuSans-73" x="529.248047"/>
     </g>
    </g>
    <g id="patch_99">
     <path d="M 841.169827 70.896104 
L 874.169827 70.896104 
L 874.169827 59.346104 
L 841.169827 59.346104 
z
" style="fill: #176d9c; stroke: #363636; stroke-width: 1.125; stroke-linejoin: miter"/>
    </g>
    <g id="text_43">
     <!-- f6p -->
     <g transform="translate(887.369827 70.896104) scale(0.165 -0.165)">
      <defs>
       <path id="DejaVuSans-70" d="M 1159 525 
L 1159 -1331 
L 581 -1331 
L 581 3500 
L 1159 3500 
L 1159 2969 
Q 1341 3281 1617 3432 
Q 1894 3584 2278 3584 
Q 2916 3584 3314 3078 
Q 3713 2572 3713 1747 
Q 3713 922 3314 415 
Q 2916 -91 2278 -91 
Q 1894 -91 1617 61 
Q 1341 213 1159 525 
z
M 3116 1747 
Q 3116 2381 2855 2742 
Q 2594 3103 2138 3103 
Q 1681 3103 1420 2742 
Q 1159 2381 1159 1747 
Q 1159 1113 1420 752 
Q 1681 391 2138 391 
Q 2594 391 2855 752 
Q 3116 1113 3116 1747 
z
" transform="scale(0.015625)"/>
      </defs>
      <use xlink:href="#DejaVuSans-66"/>
      <use xlink:href="#DejaVuSans-36" x="35.205078"/>
      <use xlink:href="#DejaVuSans-70" x="98.828125"/>
     </g>
    </g>
    <g id="patch_100">
     <path d="M 841.169827 95.11501 
L 874.169827 95.11501 
L 874.169827 83.56501 
L 841.169827 83.56501 
z
" style="fill: #c38820; stroke: #363636; stroke-width: 1.125; stroke-linejoin: miter"/>
    </g>
    <g id="text_44">
     <!-- pep -->
     <g transform="translate(887.369827 95.11501) scale(0.165 -0.165)">
      <use xlink:href="#DejaVuSans-70"/>
      <use xlink:href="#DejaVuSans-65" x="63.476562"/>
      <use xlink:href="#DejaVuSans-70" x="125"/>
     </g>
    </g>
   </g>
  </g>
 </g>
 <defs>
  <clipPath id="p3d0e7076af">
   <rect x="79.251641" y="26.877187" width="116.220937" height="415.8"/>
  </clipPath>
  <clipPath id="pea74ef47ce">
   <rect x="288.449328" y="26.877187" width="116.220937" height="415.8"/>
  </clipPath>
  <clipPath id="p8ed1a6d3d5">
   <rect x="497.647016" y="26.877187" width="325.418625" height="180.782609"/>
  </clipPath>
  <clipPath id="pc203061c46">
   <rect x="497.647016" y="261.894579" width="325.418625" height="180.782609"/>
  </clipPath>
 </defs>
</svg>
