<?xml version="1.0" encoding="UTF-8" standalone="no"?>
<!DOCTYPE svg PUBLIC "-//W3C//DTD SVG 1.1//EN"
 "http://www.w3.org/Graphics/SVG/1.1/DTD/svg11.dtd">
<!-- Generated by graphviz version 2.43.0 (0)
 -->
<!-- Title: %3 Pages: 1 -->
<svg width="321pt" height="423pt"
 viewBox="0.00 0.00 321.49 423.14" xmlns="http://www.w3.org/2000/svg" xmlns:xlink="http://www.w3.org/1999/xlink">
<g id="graph0" class="graph" transform="scale(1 1) rotate(0) translate(4 419.14)">
<title>%3</title>
<polygon fill="white" stroke="transparent" points="-4,4 -4,-419.14 317.49,-419.14 317.49,4 -4,4"/>
<!-- A -->
<g id="node1" class="node">
<title>A</title>
<polygon fill="lightgray" stroke="black" points="85.99,-341.15 62.99,-341.15 62.99,-323.15 85.99,-323.15 85.99,-341.15"/>
<text text-anchor="middle" x="74.49" y="-329.95" font-family="Times,serif" font-size="9.00">A</text>
</g>
<!-- 130 -->
<g id="node4" class="node">
<title>130</title>
<ellipse fill="white" stroke="black" cx="60.49" cy="-144.19" rx="25" ry="25"/>
<text text-anchor="middle" x="60.49" y="-141.99" font-family="Times,serif" font-size="9.00">130</text>
</g>
<!-- A&#45;&gt;130 -->
<g id="edge1" class="edge">
<title>A&#45;&gt;130</title>
<path fill="none" stroke="green" stroke-width="0.32" d="M73.86,-322.68C71.97,-297.68 66.37,-223.24 63.05,-179.1"/>
<polygon fill="green" stroke="green" stroke-width="0.32" points="66.54,-178.82 62.29,-169.11 59.56,-179.35 66.54,-178.82"/>
</g>
<!-- 1718 -->
<g id="node7" class="node">
<title>1718</title>
<ellipse fill="white" stroke="black" cx="125.49" cy="-238.17" rx="28.98" ry="28.98"/>
<text text-anchor="middle" x="125.49" y="-235.97" font-family="Times,serif" font-size="9.00">1718</text>
</g>
<!-- A&#45;&gt;1718 -->
<g id="edge9" class="edge">
<title>A&#45;&gt;1718</title>
<path fill="none" stroke="red" stroke-width="0.31" d="M79.02,-322.99C85.21,-311.83 96.68,-291.14 106.67,-273.11"/>
<polygon fill="red" stroke="red" stroke-width="0.31" points="109.94,-274.43 111.73,-263.99 103.82,-271.04 109.94,-274.43"/>
</g>
<!-- B -->
<g id="node2" class="node">
<title>B</title>
<polygon fill="lightgray" stroke="black" points="88.99,-415.14 65.99,-415.14 65.99,-397.14 88.99,-397.14 88.99,-415.14"/>
<text text-anchor="middle" x="77.49" y="-403.94" font-family="Times,serif" font-size="9.00">B</text>
</g>
<!-- A XOR B -->
<g id="node3" class="node">
<title>A XOR B</title>
<ellipse fill="lightblue" stroke="black" cx="113.49" cy="-39.6" rx="39.7" ry="39.7"/>
<text text-anchor="middle" x="113.49" y="-37.4" font-family="Times,serif" font-size="9.00">A XOR B</text>
</g>
<!-- B&#45;&gt;A XOR B -->
<g id="edge4" class="edge">
<title>B&#45;&gt;A XOR B</title>
<path fill="none" stroke="red" stroke-width="0.25" d="M68.27,-397.1C59.67,-388.98 47.32,-375.61 41.49,-361.14 0.6,-259.55 -19.26,-214.69 26.49,-115.2 35.85,-94.85 53.8,-77.97 70.98,-65.44"/>
<polygon fill="red" stroke="red" stroke-width="0.25" points="73.1,-68.23 79.31,-59.65 69.1,-62.49 73.1,-68.23"/>
</g>
<!-- B&#45;&gt;130 -->
<g id="edge2" class="edge">
<title>B&#45;&gt;130</title>
<path fill="none" stroke="red" stroke-width="0.32" stroke-dasharray="1,5" d="M71.35,-396.91C65.45,-388.45 56.93,-374.63 53.49,-361.14 37.44,-298.18 46.32,-221.55 53.73,-178.58"/>
<polygon fill="red" stroke="red" stroke-width="0.32" points="57.19,-179.12 55.53,-168.66 50.3,-177.88 57.19,-179.12"/>
</g>
<!-- 1865 -->
<g id="node5" class="node">
<title>1865</title>
<ellipse fill="white" stroke="black" cx="182.49" cy="-332.15" rx="28.98" ry="28.98"/>
<text text-anchor="middle" x="182.49" y="-329.95" font-family="Times,serif" font-size="9.00">1865</text>
</g>
<!-- B&#45;&gt;1865 -->
<g id="edge7" class="edge">
<title>B&#45;&gt;1865</title>
<path fill="none" stroke="red" stroke-width="0.54" d="M89.13,-397.16C103.87,-387.06 129.84,-369.25 150.66,-354.98"/>
<polygon fill="red" stroke="red" stroke-width="0.54" points="152.66,-357.85 158.93,-349.31 148.7,-352.08 152.66,-357.85"/>
</g>
<!-- B&#45;&gt;1718 -->
<g id="edge5" class="edge">
<title>B&#45;&gt;1718</title>
<path fill="none" stroke="red" stroke-width="0.83" d="M80.92,-397.14C84.58,-388.4 90.41,-373.94 94.49,-361.14 103.44,-333.09 111.56,-300.78 117.24,-276.46"/>
<polygon fill="red" stroke="red" stroke-width="0.83" points="120.69,-277.09 119.52,-266.56 113.86,-275.52 120.69,-277.09"/>
</g>
<!-- 130&#45;&gt;A XOR B -->
<g id="edge3" class="edge">
<title>130&#45;&gt;A XOR B</title>
<path fill="none" stroke="red" stroke-width="1.7" d="M71.48,-121.93C77.14,-110.96 84.27,-97.17 91.04,-84.07"/>
<polygon fill="red" stroke="red" stroke-width="1.7" points="94.16,-85.64 95.64,-75.15 87.94,-82.43 94.16,-85.64"/>
</g>
<!-- 1865&#45;&gt;A XOR B -->
<g id="edge10" class="edge">
<title>1865&#45;&gt;A XOR B</title>
<path fill="none" stroke="green" stroke-width="0.46" d="M194.29,-305.37C211.71,-263.28 239.12,-178.19 208.49,-115.2 197.76,-93.12 176.98,-75.63 157.58,-63.16"/>
<polygon fill="green" stroke="green" stroke-width="0.46" points="159.16,-60.02 148.8,-57.78 155.5,-65.99 159.16,-60.02"/>
</g>
<!-- 2609 -->
<g id="node6" class="node">
<title>2609</title>
<ellipse fill="white" stroke="black" cx="284.49" cy="-238.17" rx="28.98" ry="28.98"/>
<text text-anchor="middle" x="284.49" y="-235.97" font-family="Times,serif" font-size="9.00">2609</text>
</g>
<!-- 1865&#45;&gt;2609 -->
<g id="edge14" class="edge">
<title>1865&#45;&gt;2609</title>
<path fill="none" stroke="green" stroke-width="0.27" d="M203.63,-312.09C218.67,-298.53 239.07,-280.13 255.61,-265.21"/>
<polygon fill="green" stroke="green" stroke-width="0.27" points="258.3,-267.5 263.39,-258.2 253.62,-262.3 258.3,-267.5"/>
</g>
<!-- 1865&#45;&gt;1718 -->
<g id="edge8" class="edge">
<title>1865&#45;&gt;1718</title>
<path fill="none" stroke="green" stroke-width="0.41" stroke-dasharray="1,5" d="M167.52,-306.99C160.84,-296.21 152.88,-283.36 145.68,-271.75"/>
<polygon fill="green" stroke="green" stroke-width="0.41" points="148.61,-269.83 140.37,-263.18 142.66,-273.52 148.61,-269.83"/>
</g>
<!-- 2585 -->
<g id="node8" class="node">
<title>2585</title>
<ellipse fill="white" stroke="black" cx="170.49" cy="-144.19" rx="28.98" ry="28.98"/>
<text text-anchor="middle" x="170.49" y="-141.99" font-family="Times,serif" font-size="9.00">2585</text>
</g>
<!-- 1865&#45;&gt;2585 -->
<g id="edge12" class="edge">
<title>1865&#45;&gt;2585</title>
<path fill="none" stroke="red" stroke-width="0.23" d="M180.67,-302.91C178.61,-271 175.25,-218.91 172.96,-183.39"/>
<polygon fill="red" stroke="red" stroke-width="0.23" points="176.45,-183.15 172.31,-173.39 169.47,-183.6 176.45,-183.15"/>
</g>
<!-- 1718&#45;&gt;A XOR B -->
<g id="edge11" class="edge">
<title>1718&#45;&gt;A XOR B</title>
<path fill="none" stroke="red" stroke-width="0.2" d="M123.77,-209.01C121.87,-177.86 118.77,-127.1 116.48,-89.44"/>
<polygon fill="red" stroke="red" stroke-width="0.2" points="119.95,-88.96 115.85,-79.19 112.97,-89.39 119.95,-88.96"/>
</g>
<!-- 1718&#45;&gt;130 -->
<g id="edge6" class="edge">
<title>1718&#45;&gt;130</title>
<path fill="none" stroke="green" stroke-width="0.72" d="M109.09,-213.96C100.33,-201.56 89.48,-186.21 80.26,-173.15"/>
<polygon fill="green" stroke="green" stroke-width="0.72" points="83.1,-171.11 74.47,-164.96 77.38,-175.15 83.1,-171.11"/>
</g>
<!-- 2585&#45;&gt;A XOR B -->
<g id="edge13" class="edge">
<title>2585&#45;&gt;A XOR B</title>
<path fill="none" stroke="green" stroke-width="0.27" d="M156.7,-118.35C150.87,-107.86 143.91,-95.34 137.3,-83.44"/>
<polygon fill="green" stroke="green" stroke-width="0.27" points="140.25,-81.55 132.33,-74.51 134.13,-84.95 140.25,-81.55"/>
</g>
</g>
</svg>
