<?xml version="1.0" encoding="utf-8" standalone="no"?>
<!DOCTYPE svg PUBLIC "-//W3C//DTD SVG 1.1//EN"
  "http://www.w3.org/Graphics/SVG/1.1/DTD/svg11.dtd">
<svg xmlns:xlink="http://www.w3.org/1999/xlink" width="960.1125pt" height="392.514375pt" viewBox="0 0 960.1125 392.514375" xmlns="http://www.w3.org/2000/svg" version="1.1">
 <metadata>
  <rdf:RDF xmlns:dc="http://purl.org/dc/elements/1.1/" xmlns:cc="http://creativecommons.org/ns#" xmlns:rdf="http://www.w3.org/1999/02/22-rdf-syntax-ns#">
   <cc:Work>
    <dc:type rdf:resource="http://purl.org/dc/dcmitype/StillImage"/>
    <dc:date>2022-10-29T16:16:28.810024</dc:date>
    <dc:format>image/svg+xml</dc:format>
    <dc:creator>
     <cc:Agent>
      <dc:title>Matplotlib v3.5.2, https://matplotlib.org/</dc:title>
     </cc:Agent>
    </dc:creator>
   </cc:Work>
  </rdf:RDF>
 </metadata>
 <defs>
  <style type="text/css">*{stroke-linejoin: round; stroke-linecap: butt}</style>
 </defs>
 <g id="figure_1">
  <g id="patch_1">
   <path d="M 0 392.514375 
L 960.1125 392.514375 
L 960.1125 0 
L 0 0 
z
" style="fill: #ffffff"/>
  </g>
  <g id="axes_1">
   <g id="patch_2">
    <path d="M 52.160938 354.958125 
L 944.960938 354.958125 
L 944.960938 22.318125 
L 52.160938 22.318125 
z
" style="fill: #ffffff"/>
   </g>
   <g id="PolyCollection_1">
    <defs>
     <path id="m1d4cdb3d08" d="M 42.129477 -169.536924 
L 42.129477 -100.785157 
L 142.444084 -116.780928 
L 242.75869 -117.664304 
L 343.073297 -135.901344 
L 443.387904 -127.54889 
L 543.702511 -143.18507 
L 644.017117 -140.639014 
L 744.331724 -126.615516 
L 844.646331 -135.587722 
L 944.960938 -155.215053 
L 944.960938 -172.768551 
L 944.960938 -172.768551 
L 844.646331 -156.46233 
L 744.331724 -150.349996 
L 644.017117 -165.981727 
L 543.702511 -172.435347 
L 443.387904 -161.282004 
L 343.073297 -167.277548 
L 242.75869 -154.54821 
L 142.444084 -159.646519 
L 42.129477 -169.536924 
z
" style="stroke: #0173b2; stroke-opacity: 0.2"/>
    </defs>
    <g clip-path="url(#p5aea336cf9)">
     <use xlink:href="#m1d4cdb3d08" x="0" y="392.514375" style="fill: #0173b2; fill-opacity: 0.2; stroke: #0173b2; stroke-opacity: 0.2"/>
    </g>
   </g>
   <g id="PolyCollection_2">
    <defs>
     <path id="m5f4e3f170c" d="M 42.129477 -226.411812 
L 42.129477 -160.332301 
L 142.444084 -225.62667 
L 242.75869 -248.864732 
L 343.073297 -286.547202 
L 443.387904 -305.385112 
L 543.702511 -323.3298 
L 644.017117 -321.556296 
L 744.331724 -336.540806 
L 844.646331 -342.591496 
L 944.960938 -340.092573 
L 944.960938 -346.738849 
L 944.960938 -346.738849 
L 844.646331 -347.996425 
L 744.331724 -344.148719 
L 644.017117 -333.983382 
L 543.702511 -337.414804 
L 443.387904 -323.008223 
L 343.073297 -312.461111 
L 242.75869 -283.301699 
L 142.444084 -267.925513 
L 42.129477 -226.411812 
z
" style="stroke: #de8f05; stroke-opacity: 0.2"/>
    </defs>
    <g clip-path="url(#p5aea336cf9)">
     <use xlink:href="#m5f4e3f170c" x="0" y="392.514375" style="fill: #de8f05; fill-opacity: 0.2; stroke: #de8f05; stroke-opacity: 0.2"/>
    </g>
   </g>
   <g id="PolyCollection_3">
    <defs>
     <path id="m2e0d71be7d" d="M 42.129477 -266.109461 
L 42.129477 -204.208011 
L 142.444084 -219.105719 
L 242.75869 -255.508801 
L 343.073297 -276.750698 
L 443.387904 -291.579706 
L 543.702511 -309.224441 
L 644.017117 -318.575194 
L 744.331724 -327.515492 
L 844.646331 -331.2962 
L 944.960938 -332.774814 
L 944.960938 -337.810379 
L 944.960938 -337.810379 
L 844.646331 -337.185843 
L 744.331724 -334.699993 
L 644.017117 -330.68748 
L 543.702511 -324.692519 
L 443.387904 -312.588373 
L 343.073297 -302.583362 
L 242.75869 -284.208245 
L 142.444084 -262.213557 
L 42.129477 -266.109461 
z
" style="stroke: #029e73; stroke-opacity: 0.2"/>
    </defs>
    <g clip-path="url(#p5aea336cf9)">
     <use xlink:href="#m2e0d71be7d" x="0" y="392.514375" style="fill: #029e73; fill-opacity: 0.2; stroke: #029e73; stroke-opacity: 0.2"/>
    </g>
   </g>
   <g id="PolyCollection_4">
    <defs>
     <path id="mcaf57b28fb" d="M 42.129477 -251.856293 
L 42.129477 -195.050432 
L 142.444084 -208.457401 
L 242.75869 -258.504205 
L 343.073297 -292.165034 
L 443.387904 -306.357188 
L 543.702511 -325.026811 
L 644.017117 -332.063257 
L 744.331724 -342.037428 
L 844.646331 -351.276794 
L 944.960938 -345.776669 
L 944.960938 -349.059308 
L 944.960938 -349.059308 
L 844.646331 -355.07625 
L 744.331724 -350.51875 
L 644.017117 -340.5858 
L 543.702511 -338.284506 
L 443.387904 -322.674937 
L 343.073297 -314.348642 
L 242.75869 -290.033615 
L 142.444084 -259.29696 
L 42.129477 -251.856293 
z
" style="stroke: #d55e00; stroke-opacity: 0.2"/>
    </defs>
    <g clip-path="url(#p5aea336cf9)">
     <use xlink:href="#mcaf57b28fb" x="0" y="392.514375" style="fill: #d55e00; fill-opacity: 0.2; stroke: #d55e00; stroke-opacity: 0.2"/>
    </g>
   </g>
   <g id="PolyCollection_5">
    <defs>
     <path id="m040014af36" d="M 42.129477 -242.21754 
L 42.129477 -179.145762 
L 142.444084 -222.872433 
L 242.75869 -247.884489 
L 343.073297 -284.800297 
L 443.387904 -297.806619 
L 543.702511 -311.394921 
L 644.017117 -327.740798 
L 744.331724 -332.66827 
L 844.646331 -335.235062 
L 944.960938 -341.081283 
L 944.960938 -345.312073 
L 944.960938 -345.312073 
L 844.646331 -342.273524 
L 744.331724 -342.808193 
L 644.017117 -335.04733 
L 543.702511 -327.965078 
L 443.387904 -316.451963 
L 343.073297 -307.087887 
L 242.75869 -282.902074 
L 142.444084 -263.18856 
L 42.129477 -242.21754 
z
" style="stroke: #cc78bc; stroke-opacity: 0.2"/>
    </defs>
    <g clip-path="url(#p5aea336cf9)">
     <use xlink:href="#m040014af36" x="0" y="392.514375" style="fill: #cc78bc; fill-opacity: 0.2; stroke: #cc78bc; stroke-opacity: 0.2"/>
    </g>
   </g>
   <g id="PolyCollection_6">
    <defs>
     <path id="m40d6964ac4" d="M 42.129477 -233.631093 
L 42.129477 -169.542383 
L 142.444084 -214.822799 
L 242.75869 -255.070352 
L 343.073297 -270.236029 
L 443.387904 -295.276002 
L 543.702511 -314.400889 
L 644.017117 -312.351407 
L 744.331724 -333.179632 
L 844.646331 -336.925809 
L 944.960938 -334.251543 
L 944.960938 -340.100169 
L 944.960938 -340.100169 
L 844.646331 -344.251417 
L 744.331724 -341.120512 
L 644.017117 -327.025536 
L 543.702511 -327.797806 
L 443.387904 -315.04506 
L 343.073297 -294.592131 
L 242.75869 -287.094082 
L 142.444084 -259.803072 
L 42.129477 -233.631093 
z
" style="stroke: #ca9161; stroke-opacity: 0.2"/>
    </defs>
    <g clip-path="url(#p5aea336cf9)">
     <use xlink:href="#m40d6964ac4" x="0" y="392.514375" style="fill: #ca9161; fill-opacity: 0.2; stroke: #ca9161; stroke-opacity: 0.2"/>
    </g>
   </g>
   <g id="PolyCollection_7">
    <defs>
     <path id="meae2f7b7d4" d="M 42.129477 -265.127014 
L 42.129477 -208.568862 
L 142.444084 -238.188967 
L 242.75869 -246.201984 
L 343.073297 -288.537305 
L 443.387904 -300.631808 
L 543.702511 -316.481718 
L 644.017117 -324.562691 
L 744.331724 -338.290617 
L 844.646331 -343.418132 
L 944.960938 -337.80352 
L 944.960938 -342.268123 
L 944.960938 -342.268123 
L 844.646331 -349.065996 
L 744.331724 -348.962238 
L 644.017117 -334.803821 
L 543.702511 -330.999302 
L 443.387904 -319.981829 
L 343.073297 -314.090396 
L 242.75869 -284.703735 
L 142.444084 -275.689498 
L 42.129477 -265.127014 
z
" style="stroke: #fbafe4; stroke-opacity: 0.2"/>
    </defs>
    <g clip-path="url(#p5aea336cf9)">
     <use xlink:href="#meae2f7b7d4" x="0" y="392.514375" style="fill: #fbafe4; fill-opacity: 0.2; stroke: #fbafe4; stroke-opacity: 0.2"/>
    </g>
   </g>
   <g id="PolyCollection_8">
    <defs>
     <path id="m783e98feb9" d="M 242.75869 -174.065692 
L 242.75869 -79.437478 
L 343.073297 -79.437478 
L 443.387904 -109.408689 
L 543.702511 -123.30983 
L 644.017117 -104.980641 
L 744.331724 -117.283859 
L 844.646331 -133.331398 
L 944.960938 -106.992839 
L 944.960938 -152.247479 
L 944.960938 -152.247479 
L 844.646331 -177.859531 
L 744.331724 -173.949824 
L 644.017117 -158.054781 
L 543.702511 -193.768865 
L 443.387904 -177.028672 
L 343.073297 -174.065692 
L 242.75869 -174.065692 
z
" style="stroke: #949494; stroke-opacity: 0.2"/>
    </defs>
    <g clip-path="url(#p5aea336cf9)">
     <use xlink:href="#m783e98feb9" x="0" y="392.514375" style="fill: #949494; fill-opacity: 0.2; stroke: #949494; stroke-opacity: 0.2"/>
    </g>
   </g>
   <g id="PolyCollection_9">
    <defs>
     <path id="m6fb85e7e77" d="M 242.75869 -169.209771 
L 242.75869 -69.476614 
L 343.073297 -99.359208 
L 443.387904 -93.167596 
L 543.702511 -129.895579 
L 644.017117 -141.629134 
L 744.331724 -160.170533 
L 844.646331 -166.145683 
L 944.960938 -191.124713 
L 944.960938 -232.370199 
L 944.960938 -232.370199 
L 844.646331 -213.978035 
L 744.331724 -213.058584 
L 644.017117 -202.223624 
L 543.702511 -201.372941 
L 443.387904 -168.668245 
L 343.073297 -198.967854 
L 242.75869 -169.209771 
z
" style="stroke: #ece133; stroke-opacity: 0.2"/>
    </defs>
    <g clip-path="url(#p5aea336cf9)">
     <use xlink:href="#m6fb85e7e77" x="0" y="392.514375" style="fill: #ece133; fill-opacity: 0.2; stroke: #ece133; stroke-opacity: 0.2"/>
    </g>
   </g>
   <g id="PolyCollection_10">
    <defs>
     <path id="m7e3ae437b6" d="M 242.75869 -169.209771 
L 242.75869 -74.457046 
L 343.073297 -54.535317 
L 443.387904 -148.040714 
L 543.702511 -113.411761 
L 644.017117 -67.905486 
L 744.331724 -112.59779 
L 844.646331 -139.845051 
L 944.960938 -136.123464 
L 944.960938 -184.347267 
L 944.960938 -184.347267 
L 844.646331 -196.071355 
L 744.331724 -172.623287 
L 644.017117 -119.005435 
L 543.702511 -171.217935 
L 443.387904 -216.782315 
L 343.073297 -154.143963 
L 242.75869 -169.209771 
z
" style="stroke: #56b4e9; stroke-opacity: 0.2"/>
    </defs>
    <g clip-path="url(#p5aea336cf9)">
     <use xlink:href="#m7e3ae437b6" x="0" y="392.514375" style="fill: #56b4e9; fill-opacity: 0.2; stroke: #56b4e9; stroke-opacity: 0.2"/>
    </g>
   </g>
   <g id="PolyCollection_11">
    <defs>
     <path id="m0bf88f3f51" d="M 242.75869 -179.046124 
L 242.75869 -84.417911 
L 343.073297 -74.457046 
L 443.387904 -87.145072 
L 543.702511 -83.450106 
L 644.017117 -89.103442 
L 744.331724 -60.834041 
L 844.646331 -58.926382 
L 944.960938 -52.67625 
L 944.960938 -100.972696 
L 944.960938 -100.972696 
L 844.646331 -109.328894 
L 744.331724 -114.834171 
L 644.017117 -148.545136 
L 543.702511 -138.538861 
L 443.387904 -152.490947 
L 343.073297 -169.08526 
L 242.75869 -179.046124 
z
" style="stroke: #0173b2; stroke-opacity: 0.2"/>
    </defs>
    <g clip-path="url(#p5aea336cf9)">
     <use xlink:href="#m0bf88f3f51" x="0" y="392.514375" style="fill: #0173b2; fill-opacity: 0.2; stroke: #0173b2; stroke-opacity: 0.2"/>
    </g>
   </g>
   <g id="matplotlib.axis_1">
    <g id="xtick_1">
     <g id="line2d_1">
      <defs>
       <path id="mb905901b3b" d="M 0 0 
L 0 3.5 
" style="stroke: #000000; stroke-width: 0.8"/>
      </defs>
      <g>
       <use xlink:href="#mb905901b3b" x="142.444084" y="354.958125" style="stroke: #000000; stroke-width: 0.8"/>
      </g>
     </g>
     <g id="text_1">
      <!-- 0.2 -->
      <g transform="translate(134.492521 369.556562)scale(0.1 -0.1)">
       <defs>
        <path id="DejaVuSans-30" d="M 2034 4250 
Q 1547 4250 1301 3770 
Q 1056 3291 1056 2328 
Q 1056 1369 1301 889 
Q 1547 409 2034 409 
Q 2525 409 2770 889 
Q 3016 1369 3016 2328 
Q 3016 3291 2770 3770 
Q 2525 4250 2034 4250 
z
M 2034 4750 
Q 2819 4750 3233 4129 
Q 3647 3509 3647 2328 
Q 3647 1150 3233 529 
Q 2819 -91 2034 -91 
Q 1250 -91 836 529 
Q 422 1150 422 2328 
Q 422 3509 836 4129 
Q 1250 4750 2034 4750 
z
" transform="scale(0.015625)"/>
        <path id="DejaVuSans-2e" d="M 684 794 
L 1344 794 
L 1344 0 
L 684 0 
L 684 794 
z
" transform="scale(0.015625)"/>
        <path id="DejaVuSans-32" d="M 1228 531 
L 3431 531 
L 3431 0 
L 469 0 
L 469 531 
Q 828 903 1448 1529 
Q 2069 2156 2228 2338 
Q 2531 2678 2651 2914 
Q 2772 3150 2772 3378 
Q 2772 3750 2511 3984 
Q 2250 4219 1831 4219 
Q 1534 4219 1204 4116 
Q 875 4013 500 3803 
L 500 4441 
Q 881 4594 1212 4672 
Q 1544 4750 1819 4750 
Q 2544 4750 2975 4387 
Q 3406 4025 3406 3419 
Q 3406 3131 3298 2873 
Q 3191 2616 2906 2266 
Q 2828 2175 2409 1742 
Q 1991 1309 1228 531 
z
" transform="scale(0.015625)"/>
       </defs>
       <use xlink:href="#DejaVuSans-30"/>
       <use xlink:href="#DejaVuSans-2e" x="63.623047"/>
       <use xlink:href="#DejaVuSans-32" x="95.410156"/>
      </g>
     </g>
    </g>
    <g id="xtick_2">
     <g id="line2d_2">
      <g>
       <use xlink:href="#mb905901b3b" x="242.75869" y="354.958125" style="stroke: #000000; stroke-width: 0.8"/>
      </g>
     </g>
     <g id="text_2">
      <!-- 0.3 -->
      <g transform="translate(234.807128 369.556562)scale(0.1 -0.1)">
       <defs>
        <path id="DejaVuSans-33" d="M 2597 2516 
Q 3050 2419 3304 2112 
Q 3559 1806 3559 1356 
Q 3559 666 3084 287 
Q 2609 -91 1734 -91 
Q 1441 -91 1130 -33 
Q 819 25 488 141 
L 488 750 
Q 750 597 1062 519 
Q 1375 441 1716 441 
Q 2309 441 2620 675 
Q 2931 909 2931 1356 
Q 2931 1769 2642 2001 
Q 2353 2234 1838 2234 
L 1294 2234 
L 1294 2753 
L 1863 2753 
Q 2328 2753 2575 2939 
Q 2822 3125 2822 3475 
Q 2822 3834 2567 4026 
Q 2313 4219 1838 4219 
Q 1578 4219 1281 4162 
Q 984 4106 628 3988 
L 628 4550 
Q 988 4650 1302 4700 
Q 1616 4750 1894 4750 
Q 2613 4750 3031 4423 
Q 3450 4097 3450 3541 
Q 3450 3153 3228 2886 
Q 3006 2619 2597 2516 
z
" transform="scale(0.015625)"/>
       </defs>
       <use xlink:href="#DejaVuSans-30"/>
       <use xlink:href="#DejaVuSans-2e" x="63.623047"/>
       <use xlink:href="#DejaVuSans-33" x="95.410156"/>
      </g>
     </g>
    </g>
    <g id="xtick_3">
     <g id="line2d_3">
      <g>
       <use xlink:href="#mb905901b3b" x="343.073297" y="354.958125" style="stroke: #000000; stroke-width: 0.8"/>
      </g>
     </g>
     <g id="text_3">
      <!-- 0.4 -->
      <g transform="translate(335.121735 369.556562)scale(0.1 -0.1)">
       <defs>
        <path id="DejaVuSans-34" d="M 2419 4116 
L 825 1625 
L 2419 1625 
L 2419 4116 
z
M 2253 4666 
L 3047 4666 
L 3047 1625 
L 3713 1625 
L 3713 1100 
L 3047 1100 
L 3047 0 
L 2419 0 
L 2419 1100 
L 313 1100 
L 313 1709 
L 2253 4666 
z
" transform="scale(0.015625)"/>
       </defs>
       <use xlink:href="#DejaVuSans-30"/>
       <use xlink:href="#DejaVuSans-2e" x="63.623047"/>
       <use xlink:href="#DejaVuSans-34" x="95.410156"/>
      </g>
     </g>
    </g>
    <g id="xtick_4">
     <g id="line2d_4">
      <g>
       <use xlink:href="#mb905901b3b" x="443.387904" y="354.958125" style="stroke: #000000; stroke-width: 0.8"/>
      </g>
     </g>
     <g id="text_4">
      <!-- 0.5 -->
      <g transform="translate(435.436341 369.556562)scale(0.1 -0.1)">
       <defs>
        <path id="DejaVuSans-35" d="M 691 4666 
L 3169 4666 
L 3169 4134 
L 1269 4134 
L 1269 2991 
Q 1406 3038 1543 3061 
Q 1681 3084 1819 3084 
Q 2600 3084 3056 2656 
Q 3513 2228 3513 1497 
Q 3513 744 3044 326 
Q 2575 -91 1722 -91 
Q 1428 -91 1123 -41 
Q 819 9 494 109 
L 494 744 
Q 775 591 1075 516 
Q 1375 441 1709 441 
Q 2250 441 2565 725 
Q 2881 1009 2881 1497 
Q 2881 1984 2565 2268 
Q 2250 2553 1709 2553 
Q 1456 2553 1204 2497 
Q 953 2441 691 2322 
L 691 4666 
z
" transform="scale(0.015625)"/>
       </defs>
       <use xlink:href="#DejaVuSans-30"/>
       <use xlink:href="#DejaVuSans-2e" x="63.623047"/>
       <use xlink:href="#DejaVuSans-35" x="95.410156"/>
      </g>
     </g>
    </g>
    <g id="xtick_5">
     <g id="line2d_5">
      <g>
       <use xlink:href="#mb905901b3b" x="543.702511" y="354.958125" style="stroke: #000000; stroke-width: 0.8"/>
      </g>
     </g>
     <g id="text_5">
      <!-- 0.6 -->
      <g transform="translate(535.750948 369.556562)scale(0.1 -0.1)">
       <defs>
        <path id="DejaVuSans-36" d="M 2113 2584 
Q 1688 2584 1439 2293 
Q 1191 2003 1191 1497 
Q 1191 994 1439 701 
Q 1688 409 2113 409 
Q 2538 409 2786 701 
Q 3034 994 3034 1497 
Q 3034 2003 2786 2293 
Q 2538 2584 2113 2584 
z
M 3366 4563 
L 3366 3988 
Q 3128 4100 2886 4159 
Q 2644 4219 2406 4219 
Q 1781 4219 1451 3797 
Q 1122 3375 1075 2522 
Q 1259 2794 1537 2939 
Q 1816 3084 2150 3084 
Q 2853 3084 3261 2657 
Q 3669 2231 3669 1497 
Q 3669 778 3244 343 
Q 2819 -91 2113 -91 
Q 1303 -91 875 529 
Q 447 1150 447 2328 
Q 447 3434 972 4092 
Q 1497 4750 2381 4750 
Q 2619 4750 2861 4703 
Q 3103 4656 3366 4563 
z
" transform="scale(0.015625)"/>
       </defs>
       <use xlink:href="#DejaVuSans-30"/>
       <use xlink:href="#DejaVuSans-2e" x="63.623047"/>
       <use xlink:href="#DejaVuSans-36" x="95.410156"/>
      </g>
     </g>
    </g>
    <g id="xtick_6">
     <g id="line2d_6">
      <g>
       <use xlink:href="#mb905901b3b" x="644.017117" y="354.958125" style="stroke: #000000; stroke-width: 0.8"/>
      </g>
     </g>
     <g id="text_6">
      <!-- 0.7 -->
      <g transform="translate(636.065555 369.556562)scale(0.1 -0.1)">
       <defs>
        <path id="DejaVuSans-37" d="M 525 4666 
L 3525 4666 
L 3525 4397 
L 1831 0 
L 1172 0 
L 2766 4134 
L 525 4134 
L 525 4666 
z
" transform="scale(0.015625)"/>
       </defs>
       <use xlink:href="#DejaVuSans-30"/>
       <use xlink:href="#DejaVuSans-2e" x="63.623047"/>
       <use xlink:href="#DejaVuSans-37" x="95.410156"/>
      </g>
     </g>
    </g>
    <g id="xtick_7">
     <g id="line2d_7">
      <g>
       <use xlink:href="#mb905901b3b" x="744.331724" y="354.958125" style="stroke: #000000; stroke-width: 0.8"/>
      </g>
     </g>
     <g id="text_7">
      <!-- 0.8 -->
      <g transform="translate(736.380162 369.556562)scale(0.1 -0.1)">
       <defs>
        <path id="DejaVuSans-38" d="M 2034 2216 
Q 1584 2216 1326 1975 
Q 1069 1734 1069 1313 
Q 1069 891 1326 650 
Q 1584 409 2034 409 
Q 2484 409 2743 651 
Q 3003 894 3003 1313 
Q 3003 1734 2745 1975 
Q 2488 2216 2034 2216 
z
M 1403 2484 
Q 997 2584 770 2862 
Q 544 3141 544 3541 
Q 544 4100 942 4425 
Q 1341 4750 2034 4750 
Q 2731 4750 3128 4425 
Q 3525 4100 3525 3541 
Q 3525 3141 3298 2862 
Q 3072 2584 2669 2484 
Q 3125 2378 3379 2068 
Q 3634 1759 3634 1313 
Q 3634 634 3220 271 
Q 2806 -91 2034 -91 
Q 1263 -91 848 271 
Q 434 634 434 1313 
Q 434 1759 690 2068 
Q 947 2378 1403 2484 
z
M 1172 3481 
Q 1172 3119 1398 2916 
Q 1625 2713 2034 2713 
Q 2441 2713 2670 2916 
Q 2900 3119 2900 3481 
Q 2900 3844 2670 4047 
Q 2441 4250 2034 4250 
Q 1625 4250 1398 4047 
Q 1172 3844 1172 3481 
z
" transform="scale(0.015625)"/>
       </defs>
       <use xlink:href="#DejaVuSans-30"/>
       <use xlink:href="#DejaVuSans-2e" x="63.623047"/>
       <use xlink:href="#DejaVuSans-38" x="95.410156"/>
      </g>
     </g>
    </g>
    <g id="xtick_8">
     <g id="line2d_8">
      <g>
       <use xlink:href="#mb905901b3b" x="844.646331" y="354.958125" style="stroke: #000000; stroke-width: 0.8"/>
      </g>
     </g>
     <g id="text_8">
      <!-- 0.9 -->
      <g transform="translate(836.694768 369.556562)scale(0.1 -0.1)">
       <defs>
        <path id="DejaVuSans-39" d="M 703 97 
L 703 672 
Q 941 559 1184 500 
Q 1428 441 1663 441 
Q 2288 441 2617 861 
Q 2947 1281 2994 2138 
Q 2813 1869 2534 1725 
Q 2256 1581 1919 1581 
Q 1219 1581 811 2004 
Q 403 2428 403 3163 
Q 403 3881 828 4315 
Q 1253 4750 1959 4750 
Q 2769 4750 3195 4129 
Q 3622 3509 3622 2328 
Q 3622 1225 3098 567 
Q 2575 -91 1691 -91 
Q 1453 -91 1209 -44 
Q 966 3 703 97 
z
M 1959 2075 
Q 2384 2075 2632 2365 
Q 2881 2656 2881 3163 
Q 2881 3666 2632 3958 
Q 2384 4250 1959 4250 
Q 1534 4250 1286 3958 
Q 1038 3666 1038 3163 
Q 1038 2656 1286 2365 
Q 1534 2075 1959 2075 
z
" transform="scale(0.015625)"/>
       </defs>
       <use xlink:href="#DejaVuSans-30"/>
       <use xlink:href="#DejaVuSans-2e" x="63.623047"/>
       <use xlink:href="#DejaVuSans-39" x="95.410156"/>
      </g>
     </g>
    </g>
    <g id="xtick_9">
     <g id="line2d_9">
      <g>
       <use xlink:href="#mb905901b3b" x="944.960938" y="354.958125" style="stroke: #000000; stroke-width: 0.8"/>
      </g>
     </g>
     <g id="text_9">
      <!-- 1.0 -->
      <g transform="translate(937.009375 369.556562)scale(0.1 -0.1)">
       <defs>
        <path id="DejaVuSans-31" d="M 794 531 
L 1825 531 
L 1825 4091 
L 703 3866 
L 703 4441 
L 1819 4666 
L 2450 4666 
L 2450 531 
L 3481 531 
L 3481 0 
L 794 0 
L 794 531 
z
" transform="scale(0.015625)"/>
       </defs>
       <use xlink:href="#DejaVuSans-31"/>
       <use xlink:href="#DejaVuSans-2e" x="63.623047"/>
       <use xlink:href="#DejaVuSans-30" x="95.410156"/>
      </g>
     </g>
    </g>
    <g id="text_10">
     <!-- Number of samples used for training (%) -->
     <g transform="translate(396.416406 383.234687)scale(0.1 -0.1)">
      <defs>
       <path id="DejaVuSans-4e" d="M 628 4666 
L 1478 4666 
L 3547 763 
L 3547 4666 
L 4159 4666 
L 4159 0 
L 3309 0 
L 1241 3903 
L 1241 0 
L 628 0 
L 628 4666 
z
" transform="scale(0.015625)"/>
       <path id="DejaVuSans-75" d="M 544 1381 
L 544 3500 
L 1119 3500 
L 1119 1403 
Q 1119 906 1312 657 
Q 1506 409 1894 409 
Q 2359 409 2629 706 
Q 2900 1003 2900 1516 
L 2900 3500 
L 3475 3500 
L 3475 0 
L 2900 0 
L 2900 538 
Q 2691 219 2414 64 
Q 2138 -91 1772 -91 
Q 1169 -91 856 284 
Q 544 659 544 1381 
z
M 1991 3584 
L 1991 3584 
z
" transform="scale(0.015625)"/>
       <path id="DejaVuSans-6d" d="M 3328 2828 
Q 3544 3216 3844 3400 
Q 4144 3584 4550 3584 
Q 5097 3584 5394 3201 
Q 5691 2819 5691 2113 
L 5691 0 
L 5113 0 
L 5113 2094 
Q 5113 2597 4934 2840 
Q 4756 3084 4391 3084 
Q 3944 3084 3684 2787 
Q 3425 2491 3425 1978 
L 3425 0 
L 2847 0 
L 2847 2094 
Q 2847 2600 2669 2842 
Q 2491 3084 2119 3084 
Q 1678 3084 1418 2786 
Q 1159 2488 1159 1978 
L 1159 0 
L 581 0 
L 581 3500 
L 1159 3500 
L 1159 2956 
Q 1356 3278 1631 3431 
Q 1906 3584 2284 3584 
Q 2666 3584 2933 3390 
Q 3200 3197 3328 2828 
z
" transform="scale(0.015625)"/>
       <path id="DejaVuSans-62" d="M 3116 1747 
Q 3116 2381 2855 2742 
Q 2594 3103 2138 3103 
Q 1681 3103 1420 2742 
Q 1159 2381 1159 1747 
Q 1159 1113 1420 752 
Q 1681 391 2138 391 
Q 2594 391 2855 752 
Q 3116 1113 3116 1747 
z
M 1159 2969 
Q 1341 3281 1617 3432 
Q 1894 3584 2278 3584 
Q 2916 3584 3314 3078 
Q 3713 2572 3713 1747 
Q 3713 922 3314 415 
Q 2916 -91 2278 -91 
Q 1894 -91 1617 61 
Q 1341 213 1159 525 
L 1159 0 
L 581 0 
L 581 4863 
L 1159 4863 
L 1159 2969 
z
" transform="scale(0.015625)"/>
       <path id="DejaVuSans-65" d="M 3597 1894 
L 3597 1613 
L 953 1613 
Q 991 1019 1311 708 
Q 1631 397 2203 397 
Q 2534 397 2845 478 
Q 3156 559 3463 722 
L 3463 178 
Q 3153 47 2828 -22 
Q 2503 -91 2169 -91 
Q 1331 -91 842 396 
Q 353 884 353 1716 
Q 353 2575 817 3079 
Q 1281 3584 2069 3584 
Q 2775 3584 3186 3129 
Q 3597 2675 3597 1894 
z
M 3022 2063 
Q 3016 2534 2758 2815 
Q 2500 3097 2075 3097 
Q 1594 3097 1305 2825 
Q 1016 2553 972 2059 
L 3022 2063 
z
" transform="scale(0.015625)"/>
       <path id="DejaVuSans-72" d="M 2631 2963 
Q 2534 3019 2420 3045 
Q 2306 3072 2169 3072 
Q 1681 3072 1420 2755 
Q 1159 2438 1159 1844 
L 1159 0 
L 581 0 
L 581 3500 
L 1159 3500 
L 1159 2956 
Q 1341 3275 1631 3429 
Q 1922 3584 2338 3584 
Q 2397 3584 2469 3576 
Q 2541 3569 2628 3553 
L 2631 2963 
z
" transform="scale(0.015625)"/>
       <path id="DejaVuSans-20" transform="scale(0.015625)"/>
       <path id="DejaVuSans-6f" d="M 1959 3097 
Q 1497 3097 1228 2736 
Q 959 2375 959 1747 
Q 959 1119 1226 758 
Q 1494 397 1959 397 
Q 2419 397 2687 759 
Q 2956 1122 2956 1747 
Q 2956 2369 2687 2733 
Q 2419 3097 1959 3097 
z
M 1959 3584 
Q 2709 3584 3137 3096 
Q 3566 2609 3566 1747 
Q 3566 888 3137 398 
Q 2709 -91 1959 -91 
Q 1206 -91 779 398 
Q 353 888 353 1747 
Q 353 2609 779 3096 
Q 1206 3584 1959 3584 
z
" transform="scale(0.015625)"/>
       <path id="DejaVuSans-66" d="M 2375 4863 
L 2375 4384 
L 1825 4384 
Q 1516 4384 1395 4259 
Q 1275 4134 1275 3809 
L 1275 3500 
L 2222 3500 
L 2222 3053 
L 1275 3053 
L 1275 0 
L 697 0 
L 697 3053 
L 147 3053 
L 147 3500 
L 697 3500 
L 697 3744 
Q 697 4328 969 4595 
Q 1241 4863 1831 4863 
L 2375 4863 
z
" transform="scale(0.015625)"/>
       <path id="DejaVuSans-73" d="M 2834 3397 
L 2834 2853 
Q 2591 2978 2328 3040 
Q 2066 3103 1784 3103 
Q 1356 3103 1142 2972 
Q 928 2841 928 2578 
Q 928 2378 1081 2264 
Q 1234 2150 1697 2047 
L 1894 2003 
Q 2506 1872 2764 1633 
Q 3022 1394 3022 966 
Q 3022 478 2636 193 
Q 2250 -91 1575 -91 
Q 1294 -91 989 -36 
Q 684 19 347 128 
L 347 722 
Q 666 556 975 473 
Q 1284 391 1588 391 
Q 1994 391 2212 530 
Q 2431 669 2431 922 
Q 2431 1156 2273 1281 
Q 2116 1406 1581 1522 
L 1381 1569 
Q 847 1681 609 1914 
Q 372 2147 372 2553 
Q 372 3047 722 3315 
Q 1072 3584 1716 3584 
Q 2034 3584 2315 3537 
Q 2597 3491 2834 3397 
z
" transform="scale(0.015625)"/>
       <path id="DejaVuSans-61" d="M 2194 1759 
Q 1497 1759 1228 1600 
Q 959 1441 959 1056 
Q 959 750 1161 570 
Q 1363 391 1709 391 
Q 2188 391 2477 730 
Q 2766 1069 2766 1631 
L 2766 1759 
L 2194 1759 
z
M 3341 1997 
L 3341 0 
L 2766 0 
L 2766 531 
Q 2569 213 2275 61 
Q 1981 -91 1556 -91 
Q 1019 -91 701 211 
Q 384 513 384 1019 
Q 384 1609 779 1909 
Q 1175 2209 1959 2209 
L 2766 2209 
L 2766 2266 
Q 2766 2663 2505 2880 
Q 2244 3097 1772 3097 
Q 1472 3097 1187 3025 
Q 903 2953 641 2809 
L 641 3341 
Q 956 3463 1253 3523 
Q 1550 3584 1831 3584 
Q 2591 3584 2966 3190 
Q 3341 2797 3341 1997 
z
" transform="scale(0.015625)"/>
       <path id="DejaVuSans-70" d="M 1159 525 
L 1159 -1331 
L 581 -1331 
L 581 3500 
L 1159 3500 
L 1159 2969 
Q 1341 3281 1617 3432 
Q 1894 3584 2278 3584 
Q 2916 3584 3314 3078 
Q 3713 2572 3713 1747 
Q 3713 922 3314 415 
Q 2916 -91 2278 -91 
Q 1894 -91 1617 61 
Q 1341 213 1159 525 
z
M 3116 1747 
Q 3116 2381 2855 2742 
Q 2594 3103 2138 3103 
Q 1681 3103 1420 2742 
Q 1159 2381 1159 1747 
Q 1159 1113 1420 752 
Q 1681 391 2138 391 
Q 2594 391 2855 752 
Q 3116 1113 3116 1747 
z
" transform="scale(0.015625)"/>
       <path id="DejaVuSans-6c" d="M 603 4863 
L 1178 4863 
L 1178 0 
L 603 0 
L 603 4863 
z
" transform="scale(0.015625)"/>
       <path id="DejaVuSans-64" d="M 2906 2969 
L 2906 4863 
L 3481 4863 
L 3481 0 
L 2906 0 
L 2906 525 
Q 2725 213 2448 61 
Q 2172 -91 1784 -91 
Q 1150 -91 751 415 
Q 353 922 353 1747 
Q 353 2572 751 3078 
Q 1150 3584 1784 3584 
Q 2172 3584 2448 3432 
Q 2725 3281 2906 2969 
z
M 947 1747 
Q 947 1113 1208 752 
Q 1469 391 1925 391 
Q 2381 391 2643 752 
Q 2906 1113 2906 1747 
Q 2906 2381 2643 2742 
Q 2381 3103 1925 3103 
Q 1469 3103 1208 2742 
Q 947 2381 947 1747 
z
" transform="scale(0.015625)"/>
       <path id="DejaVuSans-74" d="M 1172 4494 
L 1172 3500 
L 2356 3500 
L 2356 3053 
L 1172 3053 
L 1172 1153 
Q 1172 725 1289 603 
Q 1406 481 1766 481 
L 2356 481 
L 2356 0 
L 1766 0 
Q 1100 0 847 248 
Q 594 497 594 1153 
L 594 3053 
L 172 3053 
L 172 3500 
L 594 3500 
L 594 4494 
L 1172 4494 
z
" transform="scale(0.015625)"/>
       <path id="DejaVuSans-69" d="M 603 3500 
L 1178 3500 
L 1178 0 
L 603 0 
L 603 3500 
z
M 603 4863 
L 1178 4863 
L 1178 4134 
L 603 4134 
L 603 4863 
z
" transform="scale(0.015625)"/>
       <path id="DejaVuSans-6e" d="M 3513 2113 
L 3513 0 
L 2938 0 
L 2938 2094 
Q 2938 2591 2744 2837 
Q 2550 3084 2163 3084 
Q 1697 3084 1428 2787 
Q 1159 2491 1159 1978 
L 1159 0 
L 581 0 
L 581 3500 
L 1159 3500 
L 1159 2956 
Q 1366 3272 1645 3428 
Q 1925 3584 2291 3584 
Q 2894 3584 3203 3211 
Q 3513 2838 3513 2113 
z
" transform="scale(0.015625)"/>
       <path id="DejaVuSans-67" d="M 2906 1791 
Q 2906 2416 2648 2759 
Q 2391 3103 1925 3103 
Q 1463 3103 1205 2759 
Q 947 2416 947 1791 
Q 947 1169 1205 825 
Q 1463 481 1925 481 
Q 2391 481 2648 825 
Q 2906 1169 2906 1791 
z
M 3481 434 
Q 3481 -459 3084 -895 
Q 2688 -1331 1869 -1331 
Q 1566 -1331 1297 -1286 
Q 1028 -1241 775 -1147 
L 775 -588 
Q 1028 -725 1275 -790 
Q 1522 -856 1778 -856 
Q 2344 -856 2625 -561 
Q 2906 -266 2906 331 
L 2906 616 
Q 2728 306 2450 153 
Q 2172 0 1784 0 
Q 1141 0 747 490 
Q 353 981 353 1791 
Q 353 2603 747 3093 
Q 1141 3584 1784 3584 
Q 2172 3584 2450 3431 
Q 2728 3278 2906 2969 
L 2906 3500 
L 3481 3500 
L 3481 434 
z
" transform="scale(0.015625)"/>
       <path id="DejaVuSans-28" d="M 1984 4856 
Q 1566 4138 1362 3434 
Q 1159 2731 1159 2009 
Q 1159 1288 1364 580 
Q 1569 -128 1984 -844 
L 1484 -844 
Q 1016 -109 783 600 
Q 550 1309 550 2009 
Q 550 2706 781 3412 
Q 1013 4119 1484 4856 
L 1984 4856 
z
" transform="scale(0.015625)"/>
       <path id="DejaVuSans-25" d="M 4653 2053 
Q 4381 2053 4226 1822 
Q 4072 1591 4072 1178 
Q 4072 772 4226 539 
Q 4381 306 4653 306 
Q 4919 306 5073 539 
Q 5228 772 5228 1178 
Q 5228 1588 5073 1820 
Q 4919 2053 4653 2053 
z
M 4653 2450 
Q 5147 2450 5437 2106 
Q 5728 1763 5728 1178 
Q 5728 594 5436 251 
Q 5144 -91 4653 -91 
Q 4153 -91 3862 251 
Q 3572 594 3572 1178 
Q 3572 1766 3864 2108 
Q 4156 2450 4653 2450 
z
M 1428 4353 
Q 1159 4353 1004 4120 
Q 850 3888 850 3481 
Q 850 3069 1003 2837 
Q 1156 2606 1428 2606 
Q 1700 2606 1854 2837 
Q 2009 3069 2009 3481 
Q 2009 3884 1853 4118 
Q 1697 4353 1428 4353 
z
M 4250 4750 
L 4750 4750 
L 1831 -91 
L 1331 -91 
L 4250 4750 
z
M 1428 4750 
Q 1922 4750 2215 4408 
Q 2509 4066 2509 3481 
Q 2509 2891 2217 2550 
Q 1925 2209 1428 2209 
Q 931 2209 642 2551 
Q 353 2894 353 3481 
Q 353 4063 643 4406 
Q 934 4750 1428 4750 
z
" transform="scale(0.015625)"/>
       <path id="DejaVuSans-29" d="M 513 4856 
L 1013 4856 
Q 1481 4119 1714 3412 
Q 1947 2706 1947 2009 
Q 1947 1309 1714 600 
Q 1481 -109 1013 -844 
L 513 -844 
Q 928 -128 1133 580 
Q 1338 1288 1338 2009 
Q 1338 2731 1133 3434 
Q 928 4138 513 4856 
z
" transform="scale(0.015625)"/>
      </defs>
      <use xlink:href="#DejaVuSans-4e"/>
      <use xlink:href="#DejaVuSans-75" x="74.804688"/>
      <use xlink:href="#DejaVuSans-6d" x="138.183594"/>
      <use xlink:href="#DejaVuSans-62" x="235.595703"/>
      <use xlink:href="#DejaVuSans-65" x="299.072266"/>
      <use xlink:href="#DejaVuSans-72" x="360.595703"/>
      <use xlink:href="#DejaVuSans-20" x="401.708984"/>
      <use xlink:href="#DejaVuSans-6f" x="433.496094"/>
      <use xlink:href="#DejaVuSans-66" x="494.677734"/>
      <use xlink:href="#DejaVuSans-20" x="529.882812"/>
      <use xlink:href="#DejaVuSans-73" x="561.669922"/>
      <use xlink:href="#DejaVuSans-61" x="613.769531"/>
      <use xlink:href="#DejaVuSans-6d" x="675.048828"/>
      <use xlink:href="#DejaVuSans-70" x="772.460938"/>
      <use xlink:href="#DejaVuSans-6c" x="835.9375"/>
      <use xlink:href="#DejaVuSans-65" x="863.720703"/>
      <use xlink:href="#DejaVuSans-73" x="925.244141"/>
      <use xlink:href="#DejaVuSans-20" x="977.34375"/>
      <use xlink:href="#DejaVuSans-75" x="1009.130859"/>
      <use xlink:href="#DejaVuSans-73" x="1072.509766"/>
      <use xlink:href="#DejaVuSans-65" x="1124.609375"/>
      <use xlink:href="#DejaVuSans-64" x="1186.132812"/>
      <use xlink:href="#DejaVuSans-20" x="1249.609375"/>
      <use xlink:href="#DejaVuSans-66" x="1281.396484"/>
      <use xlink:href="#DejaVuSans-6f" x="1316.601562"/>
      <use xlink:href="#DejaVuSans-72" x="1377.783203"/>
      <use xlink:href="#DejaVuSans-20" x="1418.896484"/>
      <use xlink:href="#DejaVuSans-74" x="1450.683594"/>
      <use xlink:href="#DejaVuSans-72" x="1489.892578"/>
      <use xlink:href="#DejaVuSans-61" x="1531.005859"/>
      <use xlink:href="#DejaVuSans-69" x="1592.285156"/>
      <use xlink:href="#DejaVuSans-6e" x="1620.068359"/>
      <use xlink:href="#DejaVuSans-69" x="1683.447266"/>
      <use xlink:href="#DejaVuSans-6e" x="1711.230469"/>
      <use xlink:href="#DejaVuSans-67" x="1774.609375"/>
      <use xlink:href="#DejaVuSans-20" x="1838.085938"/>
      <use xlink:href="#DejaVuSans-28" x="1869.873047"/>
      <use xlink:href="#DejaVuSans-25" x="1908.886719"/>
      <use xlink:href="#DejaVuSans-29" x="2003.90625"/>
     </g>
    </g>
   </g>
   <g id="matplotlib.axis_2">
    <g id="ytick_1">
     <g id="line2d_10">
      <defs>
       <path id="mdca443c0cc" d="M 0 0 
L -3.5 0 
" style="stroke: #000000; stroke-width: 0.8"/>
      </defs>
      <g>
       <use xlink:href="#mdca443c0cc" x="52.160938" y="318.057329" style="stroke: #000000; stroke-width: 0.8"/>
      </g>
     </g>
     <g id="text_11">
      <!-- −0.2 -->
      <g transform="translate(20.878125 321.856548)scale(0.1 -0.1)">
       <defs>
        <path id="DejaVuSans-2212" d="M 678 2272 
L 4684 2272 
L 4684 1741 
L 678 1741 
L 678 2272 
z
" transform="scale(0.015625)"/>
       </defs>
       <use xlink:href="#DejaVuSans-2212"/>
       <use xlink:href="#DejaVuSans-30" x="83.789062"/>
       <use xlink:href="#DejaVuSans-2e" x="147.412109"/>
       <use xlink:href="#DejaVuSans-32" x="179.199219"/>
      </g>
     </g>
    </g>
    <g id="ytick_2">
     <g id="line2d_11">
      <g>
       <use xlink:href="#mdca443c0cc" x="52.160938" y="268.253006" style="stroke: #000000; stroke-width: 0.8"/>
      </g>
     </g>
     <g id="text_12">
      <!-- 0.0 -->
      <g transform="translate(29.257813 272.052225)scale(0.1 -0.1)">
       <use xlink:href="#DejaVuSans-30"/>
       <use xlink:href="#DejaVuSans-2e" x="63.623047"/>
       <use xlink:href="#DejaVuSans-30" x="95.410156"/>
      </g>
     </g>
    </g>
    <g id="ytick_3">
     <g id="line2d_12">
      <g>
       <use xlink:href="#mdca443c0cc" x="52.160938" y="218.448683" style="stroke: #000000; stroke-width: 0.8"/>
      </g>
     </g>
     <g id="text_13">
      <!-- 0.2 -->
      <g transform="translate(29.257813 222.247902)scale(0.1 -0.1)">
       <use xlink:href="#DejaVuSans-30"/>
       <use xlink:href="#DejaVuSans-2e" x="63.623047"/>
       <use xlink:href="#DejaVuSans-32" x="95.410156"/>
      </g>
     </g>
    </g>
    <g id="ytick_4">
     <g id="line2d_13">
      <g>
       <use xlink:href="#mdca443c0cc" x="52.160938" y="168.64436" style="stroke: #000000; stroke-width: 0.8"/>
      </g>
     </g>
     <g id="text_14">
      <!-- 0.4 -->
      <g transform="translate(29.257813 172.443579)scale(0.1 -0.1)">
       <use xlink:href="#DejaVuSans-30"/>
       <use xlink:href="#DejaVuSans-2e" x="63.623047"/>
       <use xlink:href="#DejaVuSans-34" x="95.410156"/>
      </g>
     </g>
    </g>
    <g id="ytick_5">
     <g id="line2d_14">
      <g>
       <use xlink:href="#mdca443c0cc" x="52.160938" y="118.840037" style="stroke: #000000; stroke-width: 0.8"/>
      </g>
     </g>
     <g id="text_15">
      <!-- 0.6 -->
      <g transform="translate(29.257813 122.639256)scale(0.1 -0.1)">
       <use xlink:href="#DejaVuSans-30"/>
       <use xlink:href="#DejaVuSans-2e" x="63.623047"/>
       <use xlink:href="#DejaVuSans-36" x="95.410156"/>
      </g>
     </g>
    </g>
    <g id="ytick_6">
     <g id="line2d_15">
      <g>
       <use xlink:href="#mdca443c0cc" x="52.160938" y="69.035714" style="stroke: #000000; stroke-width: 0.8"/>
      </g>
     </g>
     <g id="text_16">
      <!-- 0.8 -->
      <g transform="translate(29.257813 72.834933)scale(0.1 -0.1)">
       <use xlink:href="#DejaVuSans-30"/>
       <use xlink:href="#DejaVuSans-2e" x="63.623047"/>
       <use xlink:href="#DejaVuSans-38" x="95.410156"/>
      </g>
     </g>
    </g>
    <g id="text_17">
     <!-- R2 score on test set -->
     <g transform="translate(14.798438 238.55375)rotate(-90)scale(0.1 -0.1)">
      <defs>
       <path id="DejaVuSans-52" d="M 2841 2188 
Q 3044 2119 3236 1894 
Q 3428 1669 3622 1275 
L 4263 0 
L 3584 0 
L 2988 1197 
Q 2756 1666 2539 1819 
Q 2322 1972 1947 1972 
L 1259 1972 
L 1259 0 
L 628 0 
L 628 4666 
L 2053 4666 
Q 2853 4666 3247 4331 
Q 3641 3997 3641 3322 
Q 3641 2881 3436 2590 
Q 3231 2300 2841 2188 
z
M 1259 4147 
L 1259 2491 
L 2053 2491 
Q 2509 2491 2742 2702 
Q 2975 2913 2975 3322 
Q 2975 3731 2742 3939 
Q 2509 4147 2053 4147 
L 1259 4147 
z
" transform="scale(0.015625)"/>
       <path id="DejaVuSans-63" d="M 3122 3366 
L 3122 2828 
Q 2878 2963 2633 3030 
Q 2388 3097 2138 3097 
Q 1578 3097 1268 2742 
Q 959 2388 959 1747 
Q 959 1106 1268 751 
Q 1578 397 2138 397 
Q 2388 397 2633 464 
Q 2878 531 3122 666 
L 3122 134 
Q 2881 22 2623 -34 
Q 2366 -91 2075 -91 
Q 1284 -91 818 406 
Q 353 903 353 1747 
Q 353 2603 823 3093 
Q 1294 3584 2113 3584 
Q 2378 3584 2631 3529 
Q 2884 3475 3122 3366 
z
" transform="scale(0.015625)"/>
      </defs>
      <use xlink:href="#DejaVuSans-52"/>
      <use xlink:href="#DejaVuSans-32" x="69.482422"/>
      <use xlink:href="#DejaVuSans-20" x="133.105469"/>
      <use xlink:href="#DejaVuSans-73" x="164.892578"/>
      <use xlink:href="#DejaVuSans-63" x="216.992188"/>
      <use xlink:href="#DejaVuSans-6f" x="271.972656"/>
      <use xlink:href="#DejaVuSans-72" x="333.154297"/>
      <use xlink:href="#DejaVuSans-65" x="372.017578"/>
      <use xlink:href="#DejaVuSans-20" x="433.541016"/>
      <use xlink:href="#DejaVuSans-6f" x="465.328125"/>
      <use xlink:href="#DejaVuSans-6e" x="526.509766"/>
      <use xlink:href="#DejaVuSans-20" x="589.888672"/>
      <use xlink:href="#DejaVuSans-74" x="621.675781"/>
      <use xlink:href="#DejaVuSans-65" x="660.884766"/>
      <use xlink:href="#DejaVuSans-73" x="722.408203"/>
      <use xlink:href="#DejaVuSans-74" x="774.507812"/>
      <use xlink:href="#DejaVuSans-20" x="813.716797"/>
      <use xlink:href="#DejaVuSans-73" x="845.503906"/>
      <use xlink:href="#DejaVuSans-65" x="897.603516"/>
      <use xlink:href="#DejaVuSans-74" x="959.126953"/>
     </g>
    </g>
   </g>
   <g id="line2d_16">
    <path d="M 42.129477 257.319855 
L 142.444084 254.507942 
L 242.75869 256.846409 
L 343.073297 241.042952 
L 443.387904 247.607857 
L 543.702511 234.476911 
L 644.017117 239.643776 
L 744.331724 253.423137 
L 844.646331 246.733638 
L 944.960938 228.564347 
" clip-path="url(#p5aea336cf9)" style="fill: none; stroke: #0173b2; stroke-width: 0.75; stroke-linecap: square"/>
   </g>
   <g id="line2d_17">
    <path d="M 42.129477 199.426976 
L 142.444084 144.699763 
L 242.75869 125.366738 
L 343.073297 92.615013 
L 443.387904 77.823273 
L 543.702511 61.996237 
L 644.017117 64.385274 
L 744.331724 51.956565 
L 844.646331 47.027717 
L 944.960938 48.770999 
" clip-path="url(#p5aea336cf9)" style="fill: none; stroke: #de8f05; stroke-width: 0.75; stroke-linecap: square"/>
   </g>
   <g id="line2d_18">
    <path d="M 42.129477 157.264591 
L 142.444084 151.091809 
L 242.75869 122.201824 
L 343.073297 102.08856 
L 443.387904 89.324108 
L 543.702511 75.082236 
L 644.017117 67.286381 
L 744.331724 61.230777 
L 844.646331 58.149136 
L 944.960938 57.31252 
" clip-path="url(#p5aea336cf9)" style="fill: none; stroke: #029e73; stroke-width: 0.75; stroke-linecap: square"/>
   </g>
   <g id="line2d_19">
    <path d="M 42.129477 168.098187 
L 142.444084 158.518315 
L 242.75869 118.545906 
L 343.073297 88.693537 
L 443.387904 77.322793 
L 543.702511 60.467512 
L 644.017117 55.76849 
L 744.331724 45.763723 
L 844.646331 39.166435 
L 944.960938 45.081386 
" clip-path="url(#p5aea336cf9)" style="fill: none; stroke: #d55e00; stroke-width: 0.75; stroke-linecap: square"/>
   </g>
   <g id="line2d_20">
    <path d="M 42.129477 180.893373 
L 142.444084 148.967914 
L 242.75869 125.850087 
L 343.073297 96.352408 
L 443.387904 84.729219 
L 543.702511 72.172776 
L 644.017117 61.132499 
L 744.331724 54.146025 
L 844.646331 53.790459 
L 944.960938 49.289373 
" clip-path="url(#p5aea336cf9)" style="fill: none; stroke: #cc78bc; stroke-width: 0.75; stroke-linecap: square"/>
   </g>
   <g id="line2d_21">
    <path d="M 42.129477 191.916805 
L 142.444084 155.12121 
L 242.75869 121.37264 
L 343.073297 109.603933 
L 443.387904 86.701595 
L 543.702511 71.452 
L 644.017117 72.092398 
L 744.331724 55.365221 
L 844.646331 51.683899 
L 944.960938 55.336598 
" clip-path="url(#p5aea336cf9)" style="fill: none; stroke: #ca9161; stroke-width: 0.75; stroke-linecap: square"/>
   </g>
   <g id="line2d_22">
    <path d="M 42.129477 155.395394 
L 142.444084 135.571213 
L 242.75869 126.296476 
L 343.073297 90.455399 
L 443.387904 81.701162 
L 543.702511 68.362355 
L 644.017117 62.087317 
L 744.331724 48.162553 
L 844.646331 46.198836 
L 944.960938 52.446403 
" clip-path="url(#p5aea336cf9)" style="fill: none; stroke: #fbafe4; stroke-width: 0.75; stroke-linecap: square"/>
   </g>
   <g id="line2d_23">
    <path d="M 242.75869 268.253006 
L 343.073297 268.253006 
L 443.387904 248.180127 
L 543.702511 233.643244 
L 644.017117 259.238381 
L 744.331724 246.053478 
L 844.646331 236.458122 
L 944.960938 261.843534 
" clip-path="url(#p5aea336cf9)" style="fill: none; stroke: #949494; stroke-width: 0.75; stroke-linecap: square"/>
   </g>
   <g id="line2d_24">
    <path d="M 242.75869 273.233438 
L 343.073297 243.350844 
L 443.387904 261.581135 
L 543.702511 228.135286 
L 644.017117 219.655149 
L 744.331724 206.971561 
L 844.646331 202.730509 
L 944.960938 181.724993 
" clip-path="url(#p5aea336cf9)" style="fill: none; stroke: #ece133; stroke-width: 0.75; stroke-linecap: square"/>
   </g>
   <g id="line2d_25">
    <path d="M 242.75869 268.253006 
L 343.073297 288.174735 
L 443.387904 210.649965 
L 543.702511 251.221955 
L 644.017117 299.753925 
L 744.331724 250.367181 
L 844.646331 224.291635 
L 944.960938 231.550774 
" clip-path="url(#p5aea336cf9)" style="fill: none; stroke: #56b4e9; stroke-width: 0.75; stroke-linecap: square"/>
   </g>
   <g id="line2d_26">
    <path d="M 242.75869 258.292141 
L 343.073297 273.233438 
L 443.387904 274.95863 
L 543.702511 281.903193 
L 644.017117 274.379312 
L 744.331724 304.002764 
L 844.646331 308.718051 
L 944.960938 315.749238 
" clip-path="url(#p5aea336cf9)" style="fill: none; stroke: #0173b2; stroke-width: 0.75; stroke-linecap: square"/>
   </g>
   <g id="line2d_27"/>
   <g id="line2d_28"/>
   <g id="line2d_29"/>
   <g id="line2d_30"/>
   <g id="line2d_31"/>
   <g id="line2d_32"/>
   <g id="line2d_33"/>
   <g id="line2d_34"/>
   <g id="line2d_35"/>
   <g id="line2d_36"/>
   <g id="line2d_37"/>
   <g id="line2d_38"/>
   <g id="patch_3">
    <path d="M 52.160938 354.958125 
L 52.160938 22.318125 
" style="fill: none; stroke: #000000; stroke-width: 0.8; stroke-linejoin: miter; stroke-linecap: square"/>
   </g>
   <g id="patch_4">
    <path d="M 944.960938 354.958125 
L 944.960938 22.318125 
" style="fill: none; stroke: #000000; stroke-width: 0.8; stroke-linejoin: miter; stroke-linecap: square"/>
   </g>
   <g id="patch_5">
    <path d="M 52.160938 354.958125 
L 944.960938 354.958125 
" style="fill: none; stroke: #000000; stroke-width: 0.8; stroke-linejoin: miter; stroke-linecap: square"/>
   </g>
   <g id="patch_6">
    <path d="M 52.160938 22.318125 
L 944.960938 22.318125 
" style="fill: none; stroke: #000000; stroke-width: 0.8; stroke-linejoin: miter; stroke-linecap: square"/>
   </g>
   <g id="text_18">
    <!-- Relationship between number of samples used for training and R2 -->
    <g transform="translate(299.283125 16.318125)scale(0.12 -0.12)">
     <defs>
      <path id="DejaVuSans-68" d="M 3513 2113 
L 3513 0 
L 2938 0 
L 2938 2094 
Q 2938 2591 2744 2837 
Q 2550 3084 2163 3084 
Q 1697 3084 1428 2787 
Q 1159 2491 1159 1978 
L 1159 0 
L 581 0 
L 581 4863 
L 1159 4863 
L 1159 2956 
Q 1366 3272 1645 3428 
Q 1925 3584 2291 3584 
Q 2894 3584 3203 3211 
Q 3513 2838 3513 2113 
z
" transform="scale(0.015625)"/>
      <path id="DejaVuSans-77" d="M 269 3500 
L 844 3500 
L 1563 769 
L 2278 3500 
L 2956 3500 
L 3675 769 
L 4391 3500 
L 4966 3500 
L 4050 0 
L 3372 0 
L 2619 2869 
L 1863 0 
L 1184 0 
L 269 3500 
z
" transform="scale(0.015625)"/>
     </defs>
     <use xlink:href="#DejaVuSans-52"/>
     <use xlink:href="#DejaVuSans-65" x="64.982422"/>
     <use xlink:href="#DejaVuSans-6c" x="126.505859"/>
     <use xlink:href="#DejaVuSans-61" x="154.289062"/>
     <use xlink:href="#DejaVuSans-74" x="215.568359"/>
     <use xlink:href="#DejaVuSans-69" x="254.777344"/>
     <use xlink:href="#DejaVuSans-6f" x="282.560547"/>
     <use xlink:href="#DejaVuSans-6e" x="343.742188"/>
     <use xlink:href="#DejaVuSans-73" x="407.121094"/>
     <use xlink:href="#DejaVuSans-68" x="459.220703"/>
     <use xlink:href="#DejaVuSans-69" x="522.599609"/>
     <use xlink:href="#DejaVuSans-70" x="550.382812"/>
     <use xlink:href="#DejaVuSans-20" x="613.859375"/>
     <use xlink:href="#DejaVuSans-62" x="645.646484"/>
     <use xlink:href="#DejaVuSans-65" x="709.123047"/>
     <use xlink:href="#DejaVuSans-74" x="770.646484"/>
     <use xlink:href="#DejaVuSans-77" x="809.855469"/>
     <use xlink:href="#DejaVuSans-65" x="891.642578"/>
     <use xlink:href="#DejaVuSans-65" x="953.166016"/>
     <use xlink:href="#DejaVuSans-6e" x="1014.689453"/>
     <use xlink:href="#DejaVuSans-20" x="1078.068359"/>
     <use xlink:href="#DejaVuSans-6e" x="1109.855469"/>
     <use xlink:href="#DejaVuSans-75" x="1173.234375"/>
     <use xlink:href="#DejaVuSans-6d" x="1236.613281"/>
     <use xlink:href="#DejaVuSans-62" x="1334.025391"/>
     <use xlink:href="#DejaVuSans-65" x="1397.501953"/>
     <use xlink:href="#DejaVuSans-72" x="1459.025391"/>
     <use xlink:href="#DejaVuSans-20" x="1500.138672"/>
     <use xlink:href="#DejaVuSans-6f" x="1531.925781"/>
     <use xlink:href="#DejaVuSans-66" x="1593.107422"/>
     <use xlink:href="#DejaVuSans-20" x="1628.3125"/>
     <use xlink:href="#DejaVuSans-73" x="1660.099609"/>
     <use xlink:href="#DejaVuSans-61" x="1712.199219"/>
     <use xlink:href="#DejaVuSans-6d" x="1773.478516"/>
     <use xlink:href="#DejaVuSans-70" x="1870.890625"/>
     <use xlink:href="#DejaVuSans-6c" x="1934.367188"/>
     <use xlink:href="#DejaVuSans-65" x="1962.150391"/>
     <use xlink:href="#DejaVuSans-73" x="2023.673828"/>
     <use xlink:href="#DejaVuSans-20" x="2075.773438"/>
     <use xlink:href="#DejaVuSans-75" x="2107.560547"/>
     <use xlink:href="#DejaVuSans-73" x="2170.939453"/>
     <use xlink:href="#DejaVuSans-65" x="2223.039062"/>
     <use xlink:href="#DejaVuSans-64" x="2284.5625"/>
     <use xlink:href="#DejaVuSans-20" x="2348.039062"/>
     <use xlink:href="#DejaVuSans-66" x="2379.826172"/>
     <use xlink:href="#DejaVuSans-6f" x="2415.03125"/>
     <use xlink:href="#DejaVuSans-72" x="2476.212891"/>
     <use xlink:href="#DejaVuSans-20" x="2517.326172"/>
     <use xlink:href="#DejaVuSans-74" x="2549.113281"/>
     <use xlink:href="#DejaVuSans-72" x="2588.322266"/>
     <use xlink:href="#DejaVuSans-61" x="2629.435547"/>
     <use xlink:href="#DejaVuSans-69" x="2690.714844"/>
     <use xlink:href="#DejaVuSans-6e" x="2718.498047"/>
     <use xlink:href="#DejaVuSans-69" x="2781.876953"/>
     <use xlink:href="#DejaVuSans-6e" x="2809.660156"/>
     <use xlink:href="#DejaVuSans-67" x="2873.039062"/>
     <use xlink:href="#DejaVuSans-20" x="2936.515625"/>
     <use xlink:href="#DejaVuSans-61" x="2968.302734"/>
     <use xlink:href="#DejaVuSans-6e" x="3029.582031"/>
     <use xlink:href="#DejaVuSans-64" x="3092.960938"/>
     <use xlink:href="#DejaVuSans-20" x="3156.4375"/>
     <use xlink:href="#DejaVuSans-52" x="3188.224609"/>
     <use xlink:href="#DejaVuSans-32" x="3257.707031"/>
    </g>
   </g>
   <g id="legend_1">
    <g id="patch_7">
     <path d="M 834.767187 285.545937 
L 937.960938 285.545937 
Q 939.960938 285.545937 939.960938 283.545937 
L 939.960938 93.730313 
Q 939.960938 91.730313 937.960938 91.730313 
L 834.767187 91.730313 
Q 832.767187 91.730313 832.767187 93.730313 
L 832.767187 283.545937 
Q 832.767187 285.545937 834.767187 285.545937 
z
" style="fill: #ffffff; opacity: 0.8; stroke: #cccccc; stroke-linejoin: miter"/>
    </g>
    <g id="text_19">
     <!-- Metabolite -->
     <g transform="translate(859.900781 103.32875)scale(0.1 -0.1)">
      <defs>
       <path id="DejaVuSans-4d" d="M 628 4666 
L 1569 4666 
L 2759 1491 
L 3956 4666 
L 4897 4666 
L 4897 0 
L 4281 0 
L 4281 4097 
L 3078 897 
L 2444 897 
L 1241 4097 
L 1241 0 
L 628 0 
L 628 4666 
z
" transform="scale(0.015625)"/>
      </defs>
      <use xlink:href="#DejaVuSans-4d"/>
      <use xlink:href="#DejaVuSans-65" x="86.279297"/>
      <use xlink:href="#DejaVuSans-74" x="147.802734"/>
      <use xlink:href="#DejaVuSans-61" x="187.011719"/>
      <use xlink:href="#DejaVuSans-62" x="248.291016"/>
      <use xlink:href="#DejaVuSans-6f" x="311.767578"/>
      <use xlink:href="#DejaVuSans-6c" x="372.949219"/>
      <use xlink:href="#DejaVuSans-69" x="400.732422"/>
      <use xlink:href="#DejaVuSans-74" x="428.515625"/>
      <use xlink:href="#DejaVuSans-65" x="467.724609"/>
     </g>
    </g>
    <g id="line2d_39">
     <path d="M 836.767187 114.506875 
L 846.767187 114.506875 
L 856.767187 114.506875 
" style="fill: none; stroke: #0173b2; stroke-width: 1.5; stroke-linecap: square"/>
    </g>
    <g id="text_20">
     <!-- g6p;f6p;g6p-B -->
     <g transform="translate(864.767187 118.006875)scale(0.1 -0.1)">
      <defs>
       <path id="DejaVuSans-3b" d="M 750 3309 
L 1409 3309 
L 1409 2516 
L 750 2516 
L 750 3309 
z
M 750 794 
L 1409 794 
L 1409 256 
L 897 -744 
L 494 -744 
L 750 256 
L 750 794 
z
" transform="scale(0.015625)"/>
       <path id="DejaVuSans-2d" d="M 313 2009 
L 1997 2009 
L 1997 1497 
L 313 1497 
L 313 2009 
z
" transform="scale(0.015625)"/>
       <path id="DejaVuSans-42" d="M 1259 2228 
L 1259 519 
L 2272 519 
Q 2781 519 3026 730 
Q 3272 941 3272 1375 
Q 3272 1813 3026 2020 
Q 2781 2228 2272 2228 
L 1259 2228 
z
M 1259 4147 
L 1259 2741 
L 2194 2741 
Q 2656 2741 2882 2914 
Q 3109 3088 3109 3444 
Q 3109 3797 2882 3972 
Q 2656 4147 2194 4147 
L 1259 4147 
z
M 628 4666 
L 2241 4666 
Q 2963 4666 3353 4366 
Q 3744 4066 3744 3513 
Q 3744 3084 3544 2831 
Q 3344 2578 2956 2516 
Q 3422 2416 3680 2098 
Q 3938 1781 3938 1306 
Q 3938 681 3513 340 
Q 3088 0 2303 0 
L 628 0 
L 628 4666 
z
" transform="scale(0.015625)"/>
      </defs>
      <use xlink:href="#DejaVuSans-67"/>
      <use xlink:href="#DejaVuSans-36" x="63.476562"/>
      <use xlink:href="#DejaVuSans-70" x="127.099609"/>
      <use xlink:href="#DejaVuSans-3b" x="190.576172"/>
      <use xlink:href="#DejaVuSans-66" x="224.267578"/>
      <use xlink:href="#DejaVuSans-36" x="259.472656"/>
      <use xlink:href="#DejaVuSans-70" x="323.095703"/>
      <use xlink:href="#DejaVuSans-3b" x="386.572266"/>
      <use xlink:href="#DejaVuSans-67" x="420.263672"/>
      <use xlink:href="#DejaVuSans-36" x="483.740234"/>
      <use xlink:href="#DejaVuSans-70" x="547.363281"/>
      <use xlink:href="#DejaVuSans-2d" x="610.839844"/>
      <use xlink:href="#DejaVuSans-42" x="643.298828"/>
     </g>
    </g>
    <g id="line2d_40">
     <path d="M 836.767187 129.185 
L 846.767187 129.185 
L 856.767187 129.185 
" style="fill: none; stroke: #de8f05; stroke-width: 1.5; stroke-linecap: square"/>
    </g>
    <g id="text_21">
     <!-- dhap -->
     <g transform="translate(864.767187 132.685)scale(0.1 -0.1)">
      <use xlink:href="#DejaVuSans-64"/>
      <use xlink:href="#DejaVuSans-68" x="63.476562"/>
      <use xlink:href="#DejaVuSans-61" x="126.855469"/>
      <use xlink:href="#DejaVuSans-70" x="188.134766"/>
     </g>
    </g>
    <g id="line2d_41">
     <path d="M 836.767187 143.863125 
L 846.767187 143.863125 
L 856.767187 143.863125 
" style="fill: none; stroke: #029e73; stroke-width: 1.5; stroke-linecap: square"/>
    </g>
    <g id="text_22">
     <!-- pep -->
     <g transform="translate(864.767187 147.363125)scale(0.1 -0.1)">
      <use xlink:href="#DejaVuSans-70"/>
      <use xlink:href="#DejaVuSans-65" x="63.476562"/>
      <use xlink:href="#DejaVuSans-70" x="125"/>
     </g>
    </g>
    <g id="line2d_42">
     <path d="M 836.767187 158.54125 
L 846.767187 158.54125 
L 856.767187 158.54125 
" style="fill: none; stroke: #d55e00; stroke-width: 1.5; stroke-linecap: square"/>
    </g>
    <g id="text_23">
     <!-- 3pg;2pg -->
     <g transform="translate(864.767187 162.04125)scale(0.1 -0.1)">
      <use xlink:href="#DejaVuSans-33"/>
      <use xlink:href="#DejaVuSans-70" x="63.623047"/>
      <use xlink:href="#DejaVuSans-67" x="127.099609"/>
      <use xlink:href="#DejaVuSans-3b" x="190.576172"/>
      <use xlink:href="#DejaVuSans-32" x="224.267578"/>
      <use xlink:href="#DejaVuSans-70" x="287.890625"/>
      <use xlink:href="#DejaVuSans-67" x="351.367188"/>
     </g>
    </g>
    <g id="line2d_43">
     <path d="M 836.767187 173.219375 
L 846.767187 173.219375 
L 856.767187 173.219375 
" style="fill: none; stroke: #cc78bc; stroke-width: 1.5; stroke-linecap: square"/>
    </g>
    <g id="text_24">
     <!-- pyr -->
     <g transform="translate(864.767187 176.719375)scale(0.1 -0.1)">
      <defs>
       <path id="DejaVuSans-79" d="M 2059 -325 
Q 1816 -950 1584 -1140 
Q 1353 -1331 966 -1331 
L 506 -1331 
L 506 -850 
L 844 -850 
Q 1081 -850 1212 -737 
Q 1344 -625 1503 -206 
L 1606 56 
L 191 3500 
L 800 3500 
L 1894 763 
L 2988 3500 
L 3597 3500 
L 2059 -325 
z
" transform="scale(0.015625)"/>
      </defs>
      <use xlink:href="#DejaVuSans-70"/>
      <use xlink:href="#DejaVuSans-79" x="63.476562"/>
      <use xlink:href="#DejaVuSans-72" x="122.65625"/>
     </g>
    </g>
    <g id="line2d_44">
     <path d="M 836.767187 187.8975 
L 846.767187 187.8975 
L 856.767187 187.8975 
" style="fill: none; stroke: #ca9161; stroke-width: 1.5; stroke-linecap: square"/>
    </g>
    <g id="text_25">
     <!-- r5p -->
     <g transform="translate(864.767187 191.3975)scale(0.1 -0.1)">
      <use xlink:href="#DejaVuSans-72"/>
      <use xlink:href="#DejaVuSans-35" x="41.113281"/>
      <use xlink:href="#DejaVuSans-70" x="104.736328"/>
     </g>
    </g>
    <g id="line2d_45">
     <path d="M 836.767187 202.575625 
L 846.767187 202.575625 
L 856.767187 202.575625 
" style="fill: none; stroke: #fbafe4; stroke-width: 1.5; stroke-linecap: square"/>
    </g>
    <g id="text_26">
     <!-- f6p -->
     <g transform="translate(864.767187 206.075625)scale(0.1 -0.1)">
      <use xlink:href="#DejaVuSans-66"/>
      <use xlink:href="#DejaVuSans-36" x="35.205078"/>
      <use xlink:href="#DejaVuSans-70" x="98.828125"/>
     </g>
    </g>
    <g id="line2d_46">
     <path d="M 836.767187 217.25375 
L 846.767187 217.25375 
L 856.767187 217.25375 
" style="fill: none; stroke: #949494; stroke-width: 1.5; stroke-linecap: square"/>
    </g>
    <g id="text_27">
     <!-- accoa -->
     <g transform="translate(864.767187 220.75375)scale(0.1 -0.1)">
      <use xlink:href="#DejaVuSans-61"/>
      <use xlink:href="#DejaVuSans-63" x="61.279297"/>
      <use xlink:href="#DejaVuSans-63" x="116.259766"/>
      <use xlink:href="#DejaVuSans-6f" x="171.240234"/>
      <use xlink:href="#DejaVuSans-61" x="232.421875"/>
     </g>
    </g>
    <g id="line2d_47">
     <path d="M 836.767187 231.931875 
L 846.767187 231.931875 
L 856.767187 231.931875 
" style="fill: none; stroke: #ece133; stroke-width: 1.5; stroke-linecap: square"/>
    </g>
    <g id="text_28">
     <!-- oaa -->
     <g transform="translate(864.767187 235.431875)scale(0.1 -0.1)">
      <use xlink:href="#DejaVuSans-6f"/>
      <use xlink:href="#DejaVuSans-61" x="61.181641"/>
      <use xlink:href="#DejaVuSans-61" x="122.460938"/>
     </g>
    </g>
    <g id="line2d_48">
     <path d="M 836.767187 246.61 
L 846.767187 246.61 
L 856.767187 246.61 
" style="fill: none; stroke: #56b4e9; stroke-width: 1.5; stroke-linecap: square"/>
    </g>
    <g id="text_29">
     <!-- g6p;g6p-B -->
     <g transform="translate(864.767187 250.11)scale(0.1 -0.1)">
      <use xlink:href="#DejaVuSans-67"/>
      <use xlink:href="#DejaVuSans-36" x="63.476562"/>
      <use xlink:href="#DejaVuSans-70" x="127.099609"/>
      <use xlink:href="#DejaVuSans-3b" x="190.576172"/>
      <use xlink:href="#DejaVuSans-67" x="224.267578"/>
      <use xlink:href="#DejaVuSans-36" x="287.744141"/>
      <use xlink:href="#DejaVuSans-70" x="351.367188"/>
      <use xlink:href="#DejaVuSans-2d" x="414.84375"/>
      <use xlink:href="#DejaVuSans-42" x="447.302734"/>
     </g>
    </g>
    <g id="line2d_49">
     <path d="M 836.767187 261.288125 
L 846.767187 261.288125 
L 856.767187 261.288125 
" style="fill: none; stroke: #0173b2; stroke-width: 1.5; stroke-linecap: square"/>
    </g>
    <g id="text_30">
     <!-- akg -->
     <g transform="translate(864.767187 264.788125)scale(0.1 -0.1)">
      <defs>
       <path id="DejaVuSans-6b" d="M 581 4863 
L 1159 4863 
L 1159 1991 
L 2875 3500 
L 3609 3500 
L 1753 1863 
L 3688 0 
L 2938 0 
L 1159 1709 
L 1159 0 
L 581 0 
L 581 4863 
z
" transform="scale(0.015625)"/>
      </defs>
      <use xlink:href="#DejaVuSans-61"/>
      <use xlink:href="#DejaVuSans-6b" x="61.279297"/>
      <use xlink:href="#DejaVuSans-67" x="119.189453"/>
     </g>
    </g>
    <g id="line2d_50">
     <path d="M 836.767187 275.96625 
L 846.767187 275.96625 
L 856.767187 275.96625 
" style="fill: none; stroke: #333333; stroke-width: 0.75; stroke-linecap: square"/>
    </g>
    <g id="text_31">
     <!-- 10 -->
     <g transform="translate(864.767187 279.46625)scale(0.1 -0.1)">
      <use xlink:href="#DejaVuSans-31"/>
      <use xlink:href="#DejaVuSans-30" x="63.623047"/>
     </g>
    </g>
   </g>
  </g>
 </g>
 <defs>
  <clipPath id="p5aea336cf9">
   <rect x="52.160938" y="22.318125" width="892.8" height="332.64"/>
  </clipPath>
 </defs>
</svg>
