<?xml version="1.0" encoding="utf-8" standalone="no"?>
<!DOCTYPE svg PUBLIC "-//W3C//DTD SVG 1.1//EN"
  "http://www.w3.org/Graphics/SVG/1.1/DTD/svg11.dtd">
<svg xmlns:xlink="http://www.w3.org/1999/xlink" width="460.8pt" height="345.6pt" viewBox="0 0 460.8 345.6" xmlns="http://www.w3.org/2000/svg" version="1.1">
 <metadata>
  <rdf:RDF xmlns:dc="http://purl.org/dc/elements/1.1/" xmlns:cc="http://creativecommons.org/ns#" xmlns:rdf="http://www.w3.org/1999/02/22-rdf-syntax-ns#">
   <cc:Work>
    <dc:type rdf:resource="http://purl.org/dc/dcmitype/StillImage"/>
    <dc:date>2022-11-28T20:19:55.508510</dc:date>
    <dc:format>image/svg+xml</dc:format>
    <dc:creator>
     <cc:Agent>
      <dc:title>Matplotlib v3.5.2, https://matplotlib.org/</dc:title>
     </cc:Agent>
    </dc:creator>
   </cc:Work>
  </rdf:RDF>
 </metadata>
 <defs>
  <style type="text/css">*{stroke-linejoin: round; stroke-linecap: butt}</style>
 </defs>
 <g id="figure_1">
  <g id="patch_1">
   <path d="M 0 345.6 
L 460.8 345.6 
L 460.8 0 
L 0 0 
z
" style="fill: #ffffff"/>
  </g>
  <g id="axes_1">
   <g id="patch_2">
    <path d="M 57.6 307.584 
L 414.72 307.584 
L 414.72 41.472 
L 57.6 41.472 
z
" style="fill: #ffffff"/>
   </g>
   <g id="matplotlib.axis_1">
    <g id="xtick_1">
     <g id="line2d_1">
      <path d="M 73.832727 307.584 
L 73.832727 41.472 
" clip-path="url(#pbfb3b68333)" style="fill: none; stroke: #b0b0b0; stroke-width: 0.8; stroke-linecap: square"/>
     </g>
     <g id="line2d_2">
      <defs>
       <path id="mb665fd6f0c" d="M 0 0 
L 0 3.5 
" style="stroke: #000000; stroke-width: 0.8"/>
      </defs>
      <g>
       <use xlink:href="#mb665fd6f0c" x="73.832727" y="307.584" style="stroke: #000000; stroke-width: 0.8"/>
      </g>
     </g>
     <g id="text_1">
      <!-- 0 -->
      <g transform="translate(70.651477 322.182437)scale(0.1 -0.1)">
       <defs>
        <path id="DejaVuSans-30" d="M 2034 4250 
Q 1547 4250 1301 3770 
Q 1056 3291 1056 2328 
Q 1056 1369 1301 889 
Q 1547 409 2034 409 
Q 2525 409 2770 889 
Q 3016 1369 3016 2328 
Q 3016 3291 2770 3770 
Q 2525 4250 2034 4250 
z
M 2034 4750 
Q 2819 4750 3233 4129 
Q 3647 3509 3647 2328 
Q 3647 1150 3233 529 
Q 2819 -91 2034 -91 
Q 1250 -91 836 529 
Q 422 1150 422 2328 
Q 422 3509 836 4129 
Q 1250 4750 2034 4750 
z
" transform="scale(0.015625)"/>
       </defs>
       <use xlink:href="#DejaVuSans-30"/>
      </g>
     </g>
    </g>
    <g id="xtick_2">
     <g id="line2d_3">
      <path d="M 128.122785 307.584 
L 128.122785 41.472 
" clip-path="url(#pbfb3b68333)" style="fill: none; stroke: #b0b0b0; stroke-width: 0.8; stroke-linecap: square"/>
     </g>
     <g id="line2d_4">
      <g>
       <use xlink:href="#mb665fd6f0c" x="128.122785" y="307.584" style="stroke: #000000; stroke-width: 0.8"/>
      </g>
     </g>
     <g id="text_2">
      <!-- 50 -->
      <g transform="translate(121.760285 322.182437)scale(0.1 -0.1)">
       <defs>
        <path id="DejaVuSans-35" d="M 691 4666 
L 3169 4666 
L 3169 4134 
L 1269 4134 
L 1269 2991 
Q 1406 3038 1543 3061 
Q 1681 3084 1819 3084 
Q 2600 3084 3056 2656 
Q 3513 2228 3513 1497 
Q 3513 744 3044 326 
Q 2575 -91 1722 -91 
Q 1428 -91 1123 -41 
Q 819 9 494 109 
L 494 744 
Q 775 591 1075 516 
Q 1375 441 1709 441 
Q 2250 441 2565 725 
Q 2881 1009 2881 1497 
Q 2881 1984 2565 2268 
Q 2250 2553 1709 2553 
Q 1456 2553 1204 2497 
Q 953 2441 691 2322 
L 691 4666 
z
" transform="scale(0.015625)"/>
       </defs>
       <use xlink:href="#DejaVuSans-35"/>
       <use xlink:href="#DejaVuSans-30" x="63.623047"/>
      </g>
     </g>
    </g>
    <g id="xtick_3">
     <g id="line2d_5">
      <path d="M 182.412843 307.584 
L 182.412843 41.472 
" clip-path="url(#pbfb3b68333)" style="fill: none; stroke: #b0b0b0; stroke-width: 0.8; stroke-linecap: square"/>
     </g>
     <g id="line2d_6">
      <g>
       <use xlink:href="#mb665fd6f0c" x="182.412843" y="307.584" style="stroke: #000000; stroke-width: 0.8"/>
      </g>
     </g>
     <g id="text_3">
      <!-- 100 -->
      <g transform="translate(172.869093 322.182437)scale(0.1 -0.1)">
       <defs>
        <path id="DejaVuSans-31" d="M 794 531 
L 1825 531 
L 1825 4091 
L 703 3866 
L 703 4441 
L 1819 4666 
L 2450 4666 
L 2450 531 
L 3481 531 
L 3481 0 
L 794 0 
L 794 531 
z
" transform="scale(0.015625)"/>
       </defs>
       <use xlink:href="#DejaVuSans-31"/>
       <use xlink:href="#DejaVuSans-30" x="63.623047"/>
       <use xlink:href="#DejaVuSans-30" x="127.246094"/>
      </g>
     </g>
    </g>
    <g id="xtick_4">
     <g id="line2d_7">
      <path d="M 236.702901 307.584 
L 236.702901 41.472 
" clip-path="url(#pbfb3b68333)" style="fill: none; stroke: #b0b0b0; stroke-width: 0.8; stroke-linecap: square"/>
     </g>
     <g id="line2d_8">
      <g>
       <use xlink:href="#mb665fd6f0c" x="236.702901" y="307.584" style="stroke: #000000; stroke-width: 0.8"/>
      </g>
     </g>
     <g id="text_4">
      <!-- 150 -->
      <g transform="translate(227.159151 322.182437)scale(0.1 -0.1)">
       <use xlink:href="#DejaVuSans-31"/>
       <use xlink:href="#DejaVuSans-35" x="63.623047"/>
       <use xlink:href="#DejaVuSans-30" x="127.246094"/>
      </g>
     </g>
    </g>
    <g id="xtick_5">
     <g id="line2d_9">
      <path d="M 290.992958 307.584 
L 290.992958 41.472 
" clip-path="url(#pbfb3b68333)" style="fill: none; stroke: #b0b0b0; stroke-width: 0.8; stroke-linecap: square"/>
     </g>
     <g id="line2d_10">
      <g>
       <use xlink:href="#mb665fd6f0c" x="290.992958" y="307.584" style="stroke: #000000; stroke-width: 0.8"/>
      </g>
     </g>
     <g id="text_5">
      <!-- 200 -->
      <g transform="translate(281.449208 322.182437)scale(0.1 -0.1)">
       <defs>
        <path id="DejaVuSans-32" d="M 1228 531 
L 3431 531 
L 3431 0 
L 469 0 
L 469 531 
Q 828 903 1448 1529 
Q 2069 2156 2228 2338 
Q 2531 2678 2651 2914 
Q 2772 3150 2772 3378 
Q 2772 3750 2511 3984 
Q 2250 4219 1831 4219 
Q 1534 4219 1204 4116 
Q 875 4013 500 3803 
L 500 4441 
Q 881 4594 1212 4672 
Q 1544 4750 1819 4750 
Q 2544 4750 2975 4387 
Q 3406 4025 3406 3419 
Q 3406 3131 3298 2873 
Q 3191 2616 2906 2266 
Q 2828 2175 2409 1742 
Q 1991 1309 1228 531 
z
" transform="scale(0.015625)"/>
       </defs>
       <use xlink:href="#DejaVuSans-32"/>
       <use xlink:href="#DejaVuSans-30" x="63.623047"/>
       <use xlink:href="#DejaVuSans-30" x="127.246094"/>
      </g>
     </g>
    </g>
    <g id="xtick_6">
     <g id="line2d_11">
      <path d="M 345.283016 307.584 
L 345.283016 41.472 
" clip-path="url(#pbfb3b68333)" style="fill: none; stroke: #b0b0b0; stroke-width: 0.8; stroke-linecap: square"/>
     </g>
     <g id="line2d_12">
      <g>
       <use xlink:href="#mb665fd6f0c" x="345.283016" y="307.584" style="stroke: #000000; stroke-width: 0.8"/>
      </g>
     </g>
     <g id="text_6">
      <!-- 250 -->
      <g transform="translate(335.739266 322.182437)scale(0.1 -0.1)">
       <use xlink:href="#DejaVuSans-32"/>
       <use xlink:href="#DejaVuSans-35" x="63.623047"/>
       <use xlink:href="#DejaVuSans-30" x="127.246094"/>
      </g>
     </g>
    </g>
    <g id="xtick_7">
     <g id="line2d_13">
      <path d="M 399.573074 307.584 
L 399.573074 41.472 
" clip-path="url(#pbfb3b68333)" style="fill: none; stroke: #b0b0b0; stroke-width: 0.8; stroke-linecap: square"/>
     </g>
     <g id="line2d_14">
      <g>
       <use xlink:href="#mb665fd6f0c" x="399.573074" y="307.584" style="stroke: #000000; stroke-width: 0.8"/>
      </g>
     </g>
     <g id="text_7">
      <!-- 300 -->
      <g transform="translate(390.029324 322.182437)scale(0.1 -0.1)">
       <defs>
        <path id="DejaVuSans-33" d="M 2597 2516 
Q 3050 2419 3304 2112 
Q 3559 1806 3559 1356 
Q 3559 666 3084 287 
Q 2609 -91 1734 -91 
Q 1441 -91 1130 -33 
Q 819 25 488 141 
L 488 750 
Q 750 597 1062 519 
Q 1375 441 1716 441 
Q 2309 441 2620 675 
Q 2931 909 2931 1356 
Q 2931 1769 2642 2001 
Q 2353 2234 1838 2234 
L 1294 2234 
L 1294 2753 
L 1863 2753 
Q 2328 2753 2575 2939 
Q 2822 3125 2822 3475 
Q 2822 3834 2567 4026 
Q 2313 4219 1838 4219 
Q 1578 4219 1281 4162 
Q 984 4106 628 3988 
L 628 4550 
Q 988 4650 1302 4700 
Q 1616 4750 1894 4750 
Q 2613 4750 3031 4423 
Q 3450 4097 3450 3541 
Q 3450 3153 3228 2886 
Q 3006 2619 2597 2516 
z
" transform="scale(0.015625)"/>
       </defs>
       <use xlink:href="#DejaVuSans-33"/>
       <use xlink:href="#DejaVuSans-30" x="63.623047"/>
       <use xlink:href="#DejaVuSans-30" x="127.246094"/>
      </g>
     </g>
    </g>
    <g id="text_8">
     <!-- Generations -->
     <g transform="translate(205.662344 335.860562)scale(0.1 -0.1)">
      <defs>
       <path id="DejaVuSans-47" d="M 3809 666 
L 3809 1919 
L 2778 1919 
L 2778 2438 
L 4434 2438 
L 4434 434 
Q 4069 175 3628 42 
Q 3188 -91 2688 -91 
Q 1594 -91 976 548 
Q 359 1188 359 2328 
Q 359 3472 976 4111 
Q 1594 4750 2688 4750 
Q 3144 4750 3555 4637 
Q 3966 4525 4313 4306 
L 4313 3634 
Q 3963 3931 3569 4081 
Q 3175 4231 2741 4231 
Q 1884 4231 1454 3753 
Q 1025 3275 1025 2328 
Q 1025 1384 1454 906 
Q 1884 428 2741 428 
Q 3075 428 3337 486 
Q 3600 544 3809 666 
z
" transform="scale(0.015625)"/>
       <path id="DejaVuSans-65" d="M 3597 1894 
L 3597 1613 
L 953 1613 
Q 991 1019 1311 708 
Q 1631 397 2203 397 
Q 2534 397 2845 478 
Q 3156 559 3463 722 
L 3463 178 
Q 3153 47 2828 -22 
Q 2503 -91 2169 -91 
Q 1331 -91 842 396 
Q 353 884 353 1716 
Q 353 2575 817 3079 
Q 1281 3584 2069 3584 
Q 2775 3584 3186 3129 
Q 3597 2675 3597 1894 
z
M 3022 2063 
Q 3016 2534 2758 2815 
Q 2500 3097 2075 3097 
Q 1594 3097 1305 2825 
Q 1016 2553 972 2059 
L 3022 2063 
z
" transform="scale(0.015625)"/>
       <path id="DejaVuSans-6e" d="M 3513 2113 
L 3513 0 
L 2938 0 
L 2938 2094 
Q 2938 2591 2744 2837 
Q 2550 3084 2163 3084 
Q 1697 3084 1428 2787 
Q 1159 2491 1159 1978 
L 1159 0 
L 581 0 
L 581 3500 
L 1159 3500 
L 1159 2956 
Q 1366 3272 1645 3428 
Q 1925 3584 2291 3584 
Q 2894 3584 3203 3211 
Q 3513 2838 3513 2113 
z
" transform="scale(0.015625)"/>
       <path id="DejaVuSans-72" d="M 2631 2963 
Q 2534 3019 2420 3045 
Q 2306 3072 2169 3072 
Q 1681 3072 1420 2755 
Q 1159 2438 1159 1844 
L 1159 0 
L 581 0 
L 581 3500 
L 1159 3500 
L 1159 2956 
Q 1341 3275 1631 3429 
Q 1922 3584 2338 3584 
Q 2397 3584 2469 3576 
Q 2541 3569 2628 3553 
L 2631 2963 
z
" transform="scale(0.015625)"/>
       <path id="DejaVuSans-61" d="M 2194 1759 
Q 1497 1759 1228 1600 
Q 959 1441 959 1056 
Q 959 750 1161 570 
Q 1363 391 1709 391 
Q 2188 391 2477 730 
Q 2766 1069 2766 1631 
L 2766 1759 
L 2194 1759 
z
M 3341 1997 
L 3341 0 
L 2766 0 
L 2766 531 
Q 2569 213 2275 61 
Q 1981 -91 1556 -91 
Q 1019 -91 701 211 
Q 384 513 384 1019 
Q 384 1609 779 1909 
Q 1175 2209 1959 2209 
L 2766 2209 
L 2766 2266 
Q 2766 2663 2505 2880 
Q 2244 3097 1772 3097 
Q 1472 3097 1187 3025 
Q 903 2953 641 2809 
L 641 3341 
Q 956 3463 1253 3523 
Q 1550 3584 1831 3584 
Q 2591 3584 2966 3190 
Q 3341 2797 3341 1997 
z
" transform="scale(0.015625)"/>
       <path id="DejaVuSans-74" d="M 1172 4494 
L 1172 3500 
L 2356 3500 
L 2356 3053 
L 1172 3053 
L 1172 1153 
Q 1172 725 1289 603 
Q 1406 481 1766 481 
L 2356 481 
L 2356 0 
L 1766 0 
Q 1100 0 847 248 
Q 594 497 594 1153 
L 594 3053 
L 172 3053 
L 172 3500 
L 594 3500 
L 594 4494 
L 1172 4494 
z
" transform="scale(0.015625)"/>
       <path id="DejaVuSans-69" d="M 603 3500 
L 1178 3500 
L 1178 0 
L 603 0 
L 603 3500 
z
M 603 4863 
L 1178 4863 
L 1178 4134 
L 603 4134 
L 603 4863 
z
" transform="scale(0.015625)"/>
       <path id="DejaVuSans-6f" d="M 1959 3097 
Q 1497 3097 1228 2736 
Q 959 2375 959 1747 
Q 959 1119 1226 758 
Q 1494 397 1959 397 
Q 2419 397 2687 759 
Q 2956 1122 2956 1747 
Q 2956 2369 2687 2733 
Q 2419 3097 1959 3097 
z
M 1959 3584 
Q 2709 3584 3137 3096 
Q 3566 2609 3566 1747 
Q 3566 888 3137 398 
Q 2709 -91 1959 -91 
Q 1206 -91 779 398 
Q 353 888 353 1747 
Q 353 2609 779 3096 
Q 1206 3584 1959 3584 
z
" transform="scale(0.015625)"/>
       <path id="DejaVuSans-73" d="M 2834 3397 
L 2834 2853 
Q 2591 2978 2328 3040 
Q 2066 3103 1784 3103 
Q 1356 3103 1142 2972 
Q 928 2841 928 2578 
Q 928 2378 1081 2264 
Q 1234 2150 1697 2047 
L 1894 2003 
Q 2506 1872 2764 1633 
Q 3022 1394 3022 966 
Q 3022 478 2636 193 
Q 2250 -91 1575 -91 
Q 1294 -91 989 -36 
Q 684 19 347 128 
L 347 722 
Q 666 556 975 473 
Q 1284 391 1588 391 
Q 1994 391 2212 530 
Q 2431 669 2431 922 
Q 2431 1156 2273 1281 
Q 2116 1406 1581 1522 
L 1381 1569 
Q 847 1681 609 1914 
Q 372 2147 372 2553 
Q 372 3047 722 3315 
Q 1072 3584 1716 3584 
Q 2034 3584 2315 3537 
Q 2597 3491 2834 3397 
z
" transform="scale(0.015625)"/>
      </defs>
      <use xlink:href="#DejaVuSans-47"/>
      <use xlink:href="#DejaVuSans-65" x="77.490234"/>
      <use xlink:href="#DejaVuSans-6e" x="139.013672"/>
      <use xlink:href="#DejaVuSans-65" x="202.392578"/>
      <use xlink:href="#DejaVuSans-72" x="263.916016"/>
      <use xlink:href="#DejaVuSans-61" x="305.029297"/>
      <use xlink:href="#DejaVuSans-74" x="366.308594"/>
      <use xlink:href="#DejaVuSans-69" x="405.517578"/>
      <use xlink:href="#DejaVuSans-6f" x="433.300781"/>
      <use xlink:href="#DejaVuSans-6e" x="494.482422"/>
      <use xlink:href="#DejaVuSans-73" x="557.861328"/>
     </g>
    </g>
   </g>
   <g id="matplotlib.axis_2">
    <g id="ytick_1">
     <g id="line2d_15">
      <path d="M 57.6 298.486445 
L 414.72 298.486445 
" clip-path="url(#pbfb3b68333)" style="fill: none; stroke: #b0b0b0; stroke-width: 0.8; stroke-linecap: square"/>
     </g>
     <g id="line2d_16">
      <defs>
       <path id="m0315d53f8b" d="M 0 0 
L -3.5 0 
" style="stroke: #000000; stroke-width: 0.8"/>
      </defs>
      <g>
       <use xlink:href="#m0315d53f8b" x="57.6" y="298.486445" style="stroke: #000000; stroke-width: 0.8"/>
      </g>
     </g>
     <g id="text_9">
      <!-- −10 -->
      <g transform="translate(29.495313 302.285664)scale(0.1 -0.1)">
       <defs>
        <path id="DejaVuSans-2212" d="M 678 2272 
L 4684 2272 
L 4684 1741 
L 678 1741 
L 678 2272 
z
" transform="scale(0.015625)"/>
       </defs>
       <use xlink:href="#DejaVuSans-2212"/>
       <use xlink:href="#DejaVuSans-31" x="83.789062"/>
       <use xlink:href="#DejaVuSans-30" x="147.412109"/>
      </g>
     </g>
    </g>
    <g id="ytick_2">
     <g id="line2d_17">
      <path d="M 57.6 266.921665 
L 414.72 266.921665 
" clip-path="url(#pbfb3b68333)" style="fill: none; stroke: #b0b0b0; stroke-width: 0.8; stroke-linecap: square"/>
     </g>
     <g id="line2d_18">
      <g>
       <use xlink:href="#m0315d53f8b" x="57.6" y="266.921665" style="stroke: #000000; stroke-width: 0.8"/>
      </g>
     </g>
     <g id="text_10">
      <!-- −8 -->
      <g transform="translate(35.857813 270.720884)scale(0.1 -0.1)">
       <defs>
        <path id="DejaVuSans-38" d="M 2034 2216 
Q 1584 2216 1326 1975 
Q 1069 1734 1069 1313 
Q 1069 891 1326 650 
Q 1584 409 2034 409 
Q 2484 409 2743 651 
Q 3003 894 3003 1313 
Q 3003 1734 2745 1975 
Q 2488 2216 2034 2216 
z
M 1403 2484 
Q 997 2584 770 2862 
Q 544 3141 544 3541 
Q 544 4100 942 4425 
Q 1341 4750 2034 4750 
Q 2731 4750 3128 4425 
Q 3525 4100 3525 3541 
Q 3525 3141 3298 2862 
Q 3072 2584 2669 2484 
Q 3125 2378 3379 2068 
Q 3634 1759 3634 1313 
Q 3634 634 3220 271 
Q 2806 -91 2034 -91 
Q 1263 -91 848 271 
Q 434 634 434 1313 
Q 434 1759 690 2068 
Q 947 2378 1403 2484 
z
M 1172 3481 
Q 1172 3119 1398 2916 
Q 1625 2713 2034 2713 
Q 2441 2713 2670 2916 
Q 2900 3119 2900 3481 
Q 2900 3844 2670 4047 
Q 2441 4250 2034 4250 
Q 1625 4250 1398 4047 
Q 1172 3844 1172 3481 
z
" transform="scale(0.015625)"/>
       </defs>
       <use xlink:href="#DejaVuSans-2212"/>
       <use xlink:href="#DejaVuSans-38" x="83.789062"/>
      </g>
     </g>
    </g>
    <g id="ytick_3">
     <g id="line2d_19">
      <path d="M 57.6 235.356885 
L 414.72 235.356885 
" clip-path="url(#pbfb3b68333)" style="fill: none; stroke: #b0b0b0; stroke-width: 0.8; stroke-linecap: square"/>
     </g>
     <g id="line2d_20">
      <g>
       <use xlink:href="#m0315d53f8b" x="57.6" y="235.356885" style="stroke: #000000; stroke-width: 0.8"/>
      </g>
     </g>
     <g id="text_11">
      <!-- −6 -->
      <g transform="translate(35.857813 239.156104)scale(0.1 -0.1)">
       <defs>
        <path id="DejaVuSans-36" d="M 2113 2584 
Q 1688 2584 1439 2293 
Q 1191 2003 1191 1497 
Q 1191 994 1439 701 
Q 1688 409 2113 409 
Q 2538 409 2786 701 
Q 3034 994 3034 1497 
Q 3034 2003 2786 2293 
Q 2538 2584 2113 2584 
z
M 3366 4563 
L 3366 3988 
Q 3128 4100 2886 4159 
Q 2644 4219 2406 4219 
Q 1781 4219 1451 3797 
Q 1122 3375 1075 2522 
Q 1259 2794 1537 2939 
Q 1816 3084 2150 3084 
Q 2853 3084 3261 2657 
Q 3669 2231 3669 1497 
Q 3669 778 3244 343 
Q 2819 -91 2113 -91 
Q 1303 -91 875 529 
Q 447 1150 447 2328 
Q 447 3434 972 4092 
Q 1497 4750 2381 4750 
Q 2619 4750 2861 4703 
Q 3103 4656 3366 4563 
z
" transform="scale(0.015625)"/>
       </defs>
       <use xlink:href="#DejaVuSans-2212"/>
       <use xlink:href="#DejaVuSans-36" x="83.789062"/>
      </g>
     </g>
    </g>
    <g id="ytick_4">
     <g id="line2d_21">
      <path d="M 57.6 203.792105 
L 414.72 203.792105 
" clip-path="url(#pbfb3b68333)" style="fill: none; stroke: #b0b0b0; stroke-width: 0.8; stroke-linecap: square"/>
     </g>
     <g id="line2d_22">
      <g>
       <use xlink:href="#m0315d53f8b" x="57.6" y="203.792105" style="stroke: #000000; stroke-width: 0.8"/>
      </g>
     </g>
     <g id="text_12">
      <!-- −4 -->
      <g transform="translate(35.857813 207.591324)scale(0.1 -0.1)">
       <defs>
        <path id="DejaVuSans-34" d="M 2419 4116 
L 825 1625 
L 2419 1625 
L 2419 4116 
z
M 2253 4666 
L 3047 4666 
L 3047 1625 
L 3713 1625 
L 3713 1100 
L 3047 1100 
L 3047 0 
L 2419 0 
L 2419 1100 
L 313 1100 
L 313 1709 
L 2253 4666 
z
" transform="scale(0.015625)"/>
       </defs>
       <use xlink:href="#DejaVuSans-2212"/>
       <use xlink:href="#DejaVuSans-34" x="83.789062"/>
      </g>
     </g>
    </g>
    <g id="ytick_5">
     <g id="line2d_23">
      <path d="M 57.6 172.227325 
L 414.72 172.227325 
" clip-path="url(#pbfb3b68333)" style="fill: none; stroke: #b0b0b0; stroke-width: 0.8; stroke-linecap: square"/>
     </g>
     <g id="line2d_24">
      <g>
       <use xlink:href="#m0315d53f8b" x="57.6" y="172.227325" style="stroke: #000000; stroke-width: 0.8"/>
      </g>
     </g>
     <g id="text_13">
      <!-- −2 -->
      <g transform="translate(35.857813 176.026544)scale(0.1 -0.1)">
       <use xlink:href="#DejaVuSans-2212"/>
       <use xlink:href="#DejaVuSans-32" x="83.789062"/>
      </g>
     </g>
    </g>
    <g id="ytick_6">
     <g id="line2d_25">
      <path d="M 57.6 140.662546 
L 414.72 140.662546 
" clip-path="url(#pbfb3b68333)" style="fill: none; stroke: #b0b0b0; stroke-width: 0.8; stroke-linecap: square"/>
     </g>
     <g id="line2d_26">
      <g>
       <use xlink:href="#m0315d53f8b" x="57.6" y="140.662546" style="stroke: #000000; stroke-width: 0.8"/>
      </g>
     </g>
     <g id="text_14">
      <!-- 0 -->
      <g transform="translate(44.2375 144.461764)scale(0.1 -0.1)">
       <use xlink:href="#DejaVuSans-30"/>
      </g>
     </g>
    </g>
    <g id="ytick_7">
     <g id="line2d_27">
      <path d="M 57.6 109.097766 
L 414.72 109.097766 
" clip-path="url(#pbfb3b68333)" style="fill: none; stroke: #b0b0b0; stroke-width: 0.8; stroke-linecap: square"/>
     </g>
     <g id="line2d_28">
      <g>
       <use xlink:href="#m0315d53f8b" x="57.6" y="109.097766" style="stroke: #000000; stroke-width: 0.8"/>
      </g>
     </g>
     <g id="text_15">
      <!-- 2 -->
      <g transform="translate(44.2375 112.896984)scale(0.1 -0.1)">
       <use xlink:href="#DejaVuSans-32"/>
      </g>
     </g>
    </g>
    <g id="ytick_8">
     <g id="line2d_29">
      <path d="M 57.6 77.532986 
L 414.72 77.532986 
" clip-path="url(#pbfb3b68333)" style="fill: none; stroke: #b0b0b0; stroke-width: 0.8; stroke-linecap: square"/>
     </g>
     <g id="line2d_30">
      <g>
       <use xlink:href="#m0315d53f8b" x="57.6" y="77.532986" style="stroke: #000000; stroke-width: 0.8"/>
      </g>
     </g>
     <g id="text_16">
      <!-- 4 -->
      <g transform="translate(44.2375 81.332205)scale(0.1 -0.1)">
       <use xlink:href="#DejaVuSans-34"/>
      </g>
     </g>
    </g>
    <g id="ytick_9">
     <g id="line2d_31">
      <path d="M 57.6 45.968206 
L 414.72 45.968206 
" clip-path="url(#pbfb3b68333)" style="fill: none; stroke: #b0b0b0; stroke-width: 0.8; stroke-linecap: square"/>
     </g>
     <g id="line2d_32">
      <g>
       <use xlink:href="#m0315d53f8b" x="57.6" y="45.968206" style="stroke: #000000; stroke-width: 0.8"/>
      </g>
     </g>
     <g id="text_17">
      <!-- 6 -->
      <g transform="translate(44.2375 49.767425)scale(0.1 -0.1)">
       <use xlink:href="#DejaVuSans-36"/>
      </g>
     </g>
    </g>
    <g id="text_18">
     <!-- Fitness -->
     <g transform="translate(23.415625 191.845187)rotate(-90)scale(0.1 -0.1)">
      <defs>
       <path id="DejaVuSans-46" d="M 628 4666 
L 3309 4666 
L 3309 4134 
L 1259 4134 
L 1259 2759 
L 3109 2759 
L 3109 2228 
L 1259 2228 
L 1259 0 
L 628 0 
L 628 4666 
z
" transform="scale(0.015625)"/>
      </defs>
      <use xlink:href="#DejaVuSans-46"/>
      <use xlink:href="#DejaVuSans-69" x="50.269531"/>
      <use xlink:href="#DejaVuSans-74" x="78.052734"/>
      <use xlink:href="#DejaVuSans-6e" x="117.261719"/>
      <use xlink:href="#DejaVuSans-65" x="180.640625"/>
      <use xlink:href="#DejaVuSans-73" x="242.164062"/>
      <use xlink:href="#DejaVuSans-73" x="294.263672"/>
     </g>
    </g>
   </g>
   <g id="line2d_33">
    <path d="M 73.832727 156.79671 
L 74.918528 162.045971 
L 79.261733 162.054486 
L 84.690739 162.057077 
L 85.77654 161.079559 
L 86.862341 161.400567 
L 87.948142 160.849638 
L 89.033943 161.153068 
L 90.119745 161.150233 
L 91.205546 161.444388 
L 92.291347 161.44086 
L 94.462949 161.929948 
L 95.54875 163.03682 
L 96.634552 162.615462 
L 97.720353 162.629722 
L 98.806154 161.480367 
L 99.891955 162.317593 
L 100.977756 159.368324 
L 102.063557 162.758351 
L 103.149358 153.018629 
L 104.23516 152.938539 
L 105.320961 151.491389 
L 106.406762 155.301674 
L 107.492563 154.215103 
L 108.578364 153.754482 
L 109.664165 150.401645 
L 110.749967 151.016771 
L 111.835768 150.332252 
L 112.921569 150.338252 
L 114.00737 149.628892 
L 115.093171 150.35058 
L 116.178972 149.685732 
L 117.264773 150.526809 
L 118.350575 149.706335 
L 119.436376 151.948795 
L 120.522177 150.061501 
L 121.607978 151.90844 
L 122.693779 156.587713 
L 123.77958 154.402099 
L 124.865382 155.079008 
L 125.951183 151.577368 
L 127.036984 155.38993 
L 128.122785 166.639543 
L 129.208586 152.952795 
L 130.294387 161.826477 
L 131.380189 161.684726 
L 132.46599 150.739106 
L 133.551791 151.300866 
L 134.637592 154.882678 
L 135.723393 153.263743 
L 136.809194 152.277752 
L 137.894995 153.65538 
L 138.980797 155.406776 
L 140.066598 159.245962 
L 141.152399 154.10815 
L 142.2382 154.016814 
L 143.324001 157.22899 
L 144.409802 151.372563 
L 145.495604 155.296898 
L 146.581405 173.031943 
L 147.667206 168.721569 
L 148.753007 155.432936 
L 149.838808 155.878123 
L 150.924609 174.007975 
L 152.01041 150.534116 
L 153.096212 154.006526 
L 154.182013 159.413463 
L 155.267814 160.580627 
L 156.353615 152.721424 
L 157.439416 167.753043 
L 158.525217 160.550478 
L 159.611019 152.492327 
L 160.69682 152.188781 
L 161.782621 168.25829 
L 162.868422 150.860226 
L 163.954223 161.201191 
L 165.040024 169.036552 
L 166.125825 159.190813 
L 167.211627 155.635382 
L 168.297428 154.08994 
L 169.383229 160.487278 
L 170.46903 156.031168 
L 172.640632 160.418262 
L 173.726434 166.152131 
L 174.812235 154.828465 
L 175.898036 152.878853 
L 176.983837 162.048039 
L 179.155439 152.321987 
L 180.24124 155.294544 
L 181.327042 153.024267 
L 182.412843 155.748452 
L 183.498644 150.664831 
L 184.584445 156.932018 
L 185.670246 153.535987 
L 186.756047 155.980464 
L 187.841849 165.494751 
L 188.92765 156.687188 
L 190.013451 156.289708 
L 191.099252 154.47663 
L 192.185053 155.490114 
L 193.270854 157.766099 
L 194.356656 166.547269 
L 195.442457 159.964039 
L 196.528258 158.919029 
L 197.614059 156.932074 
L 198.69986 163.63703 
L 199.785661 156.376832 
L 200.871462 150.518645 
L 201.957264 164.447632 
L 203.043065 153.32629 
L 204.128866 149.501478 
L 205.214667 158.336457 
L 206.300468 149.575622 
L 207.386269 150.750754 
L 208.472071 157.332077 
L 209.557872 156.785521 
L 210.643673 163.879676 
L 211.729474 152.832341 
L 212.815275 155.294453 
L 213.901076 158.116795 
L 214.986877 155.597179 
L 216.072679 157.352099 
L 217.15848 149.677736 
L 218.244281 154.290681 
L 219.330082 172.391485 
L 220.415883 179.682014 
L 221.501684 171.3385 
L 222.587486 153.281857 
L 223.673287 152.558928 
L 224.759088 166.018377 
L 225.844889 156.510394 
L 226.93069 161.409981 
L 228.016491 161.176985 
L 229.102292 155.409312 
L 230.188094 158.55687 
L 231.273895 156.987295 
L 232.359696 157.338437 
L 234.531298 154.584921 
L 235.617099 160.524272 
L 236.702901 152.464841 
L 237.788702 151.48767 
L 238.874503 167.135521 
L 239.960304 152.244832 
L 241.046105 157.101951 
L 243.217708 162.411521 
L 244.303509 150.601603 
L 245.38931 155.541099 
L 246.475111 162.344475 
L 247.560912 158.657434 
L 248.646713 169.05128 
L 249.732514 159.028337 
L 250.818316 158.957779 
L 251.904117 152.342015 
L 252.989918 159.841628 
L 254.075719 152.527997 
L 255.16152 153.744043 
L 256.247321 151.51615 
L 257.333123 164.999702 
L 258.418924 154.852238 
L 259.504725 154.855766 
L 260.590526 157.318595 
L 261.676327 158.169256 
L 262.762128 159.457073 
L 263.847929 157.633016 
L 264.933731 162.973937 
L 266.019532 157.812654 
L 267.105333 158.391948 
L 268.191134 161.682194 
L 269.276935 157.954394 
L 270.362736 168.801282 
L 271.448538 160.678857 
L 272.534339 153.786636 
L 273.62014 150.972107 
L 274.705941 173.479585 
L 275.791742 156.210327 
L 276.877543 159.638638 
L 277.963344 164.719475 
L 279.049146 164.523106 
L 280.134947 154.972271 
L 281.220748 156.803849 
L 282.306549 158.13295 
L 283.39235 150.168833 
L 284.478151 153.313988 
L 285.563953 162.087673 
L 286.649754 172.625859 
L 287.735555 168.076854 
L 288.821356 158.66865 
L 289.907157 162.779909 
L 290.992958 153.469731 
L 292.07876 159.185785 
L 293.164561 155.032726 
L 294.250362 154.415965 
L 295.336163 154.602996 
L 296.421964 162.404775 
L 297.507765 168.408525 
L 298.593566 154.206395 
L 299.679368 150.733668 
L 300.765169 159.104405 
L 301.85097 150.363782 
L 302.936771 158.269852 
L 304.022572 154.239245 
L 305.108373 174.440609 
L 306.194175 154.321487 
L 307.279976 153.261454 
L 308.365777 156.126321 
L 309.451578 164.517716 
L 310.537379 157.132764 
L 311.62318 155.368417 
L 312.708981 150.181109 
L 313.794783 166.6218 
L 314.880584 158.475781 
L 315.966385 154.49223 
L 317.052186 166.867981 
L 318.137987 150.513316 
L 319.223788 151.84751 
L 320.30959 174.528 
L 321.395391 166.031437 
L 322.481192 160.866321 
L 323.566993 159.307203 
L 324.652794 152.028123 
L 325.738595 160.826844 
L 326.824396 171.017553 
L 327.910198 161.750405 
L 328.995999 164.822022 
L 330.0818 159.155087 
L 331.167601 167.208251 
L 332.253402 151.427709 
L 333.339203 167.654862 
L 334.425005 149.923663 
L 335.510806 150.495883 
L 336.596607 155.341618 
L 337.682408 162.835959 
L 338.768209 156.665529 
L 339.85401 158.613974 
L 340.939811 166.616816 
L 342.025613 153.708311 
L 343.111414 155.219812 
L 344.197215 159.494074 
L 345.283016 159.057687 
L 346.368817 150.394398 
L 347.454618 155.357301 
L 348.54042 155.538793 
L 349.626221 152.563997 
L 350.712022 150.078876 
L 351.797823 153.951016 
L 352.883624 155.730197 
L 353.969425 159.981101 
L 355.055227 163.300673 
L 356.141028 161.252911 
L 357.226829 149.933537 
L 358.31263 167.360262 
L 359.398431 160.652045 
L 360.484232 152.64187 
L 361.570033 152.005572 
L 362.655835 155.862616 
L 363.741636 149.55385 
L 364.827437 152.449225 
L 365.913238 151.338036 
L 366.999039 153.0604 
L 368.08484 169.586192 
L 369.170642 154.689841 
L 370.256443 158.060211 
L 371.342244 160.085493 
L 372.428045 158.086324 
L 373.513846 161.759808 
L 374.599647 159.968577 
L 375.685448 152.472591 
L 376.77125 156.45178 
L 377.857051 175.243914 
L 378.942852 159.393146 
L 380.028653 156.756078 
L 381.114454 162.941795 
L 382.200255 173.086727 
L 383.286057 151.962365 
L 384.371858 159.627943 
L 385.457659 160.546758 
L 386.54346 156.779186 
L 387.629261 154.372 
L 388.715062 162.343188 
L 389.800863 160.264641 
L 390.886665 168.108133 
L 391.972466 155.822867 
L 393.058267 153.223226 
L 394.144068 157.912225 
L 395.229869 158.977034 
L 396.31567 153.778182 
L 397.401472 150.049467 
L 398.487273 154.546462 
L 398.487273 154.546462 
" clip-path="url(#pbfb3b68333)" style="fill: none; stroke: #0000ff; stroke-width: 1.5; stroke-linecap: square"/>
   </g>
   <g id="line2d_34">
    <path d="M 73.832727 159.759387 
L 74.918528 188.165084 
L 76.00433 188.315471 
L 77.090131 188.11429 
L 78.175932 188.235531 
L 81.433335 188.080923 
L 82.519137 188.250923 
L 84.690739 188.131861 
L 85.77654 183.522108 
L 86.862341 185.021118 
L 87.948142 178.11223 
L 89.033943 179.460348 
L 90.119745 179.548441 
L 91.205546 180.516344 
L 92.291347 180.516077 
L 94.462949 181.934287 
L 95.54875 184.413849 
L 96.634552 184.705776 
L 97.720353 184.874102 
L 98.806154 182.210123 
L 99.891955 184.628721 
L 100.977756 175.709242 
L 102.063557 204.049762 
L 103.149358 156.054602 
L 104.23516 156.968361 
L 105.320961 154.626865 
L 106.406762 186.660746 
L 107.492563 176.734092 
L 108.578364 169.790618 
L 109.664165 152.539159 
L 110.749967 158.237909 
L 111.835768 152.995082 
L 112.921569 152.685115 
L 114.00737 149.966308 
L 115.093171 153.001142 
L 116.178972 150.100191 
L 117.264773 153.160486 
L 118.350575 150.25855 
L 119.436376 163.708455 
L 120.522177 152.190238 
L 121.607978 160.249029 
L 122.693779 186.946844 
L 123.77958 166.458821 
L 124.865382 174.259881 
L 125.951183 158.205481 
L 127.036984 178.06618 
L 128.122785 220.247565 
L 129.208586 168.337249 
L 130.294387 204.697091 
L 131.380189 203.729532 
L 132.46599 153.544605 
L 133.551791 157.304078 
L 134.637592 168.556171 
L 135.723393 167.940221 
L 136.809194 160.759124 
L 138.980797 170.543939 
L 140.066598 203.588349 
L 141.152399 167.586271 
L 142.2382 178.669224 
L 143.324001 182.883848 
L 144.409802 158.479641 
L 145.495604 176.018614 
L 146.581405 241.889988 
L 147.667206 232.895225 
L 148.753007 172.307856 
L 149.838808 177.220777 
L 150.924609 248.303482 
L 152.01041 155.104786 
L 153.096212 168.753541 
L 154.182013 198.221436 
L 155.267814 214.173069 
L 156.353615 163.284376 
L 157.439416 236.033039 
L 158.525217 212.119977 
L 159.611019 168.094307 
L 160.69682 159.53402 
L 161.782621 233.563651 
L 162.868422 156.216996 
L 163.954223 206.488067 
L 165.040024 266.512174 
L 166.125825 194.172813 
L 167.211627 182.48531 
L 168.297428 176.110446 
L 169.383229 197.919609 
L 170.46903 180.265379 
L 171.554831 195.296972 
L 172.640632 201.142914 
L 173.726434 240.133836 
L 174.812235 184.81519 
L 175.898036 165.436196 
L 176.983837 216.70582 
L 179.155439 161.790826 
L 180.24124 178.297165 
L 181.327042 172.745788 
L 182.412843 188.815063 
L 183.498644 154.174759 
L 184.584445 187.557138 
L 185.670246 167.99283 
L 187.841849 210.664141 
L 188.92765 190.605857 
L 190.013451 197.270805 
L 191.099252 169.78955 
L 192.185053 175.285491 
L 194.356656 222.231247 
L 195.442457 210.185041 
L 196.528258 211.90906 
L 197.614059 198.021419 
L 198.69986 220.064513 
L 199.785661 181.061825 
L 200.871462 153.081128 
L 201.957264 221.137105 
L 203.043065 171.977717 
L 204.128866 150.738337 
L 205.214667 185.703091 
L 206.300468 150.55976 
L 207.386269 154.0734 
L 208.472071 186.185457 
L 209.557872 181.569602 
L 210.643673 224.996386 
L 211.729474 165.060039 
L 212.815275 183.104345 
L 213.901076 194.00237 
L 214.986877 176.806328 
L 216.072679 184.422346 
L 217.15848 150.661077 
L 218.244281 182.749738 
L 219.330082 242.470273 
L 220.415883 257.204698 
L 221.501684 243.221105 
L 222.587486 168.345463 
L 223.673287 163.461907 
L 224.759088 223.251581 
L 225.844889 189.042835 
L 226.93069 209.301593 
L 228.016491 199.444411 
L 229.102292 177.757558 
L 230.188094 188.322746 
L 231.273895 189.856636 
L 232.359696 191.02124 
L 233.445497 187.508161 
L 234.531298 167.461204 
L 235.617099 212.712343 
L 236.702901 161.983761 
L 237.788702 161.718384 
L 238.874503 234.257862 
L 239.960304 164.291477 
L 241.046105 189.869975 
L 242.131906 189.393394 
L 243.217708 198.665472 
L 244.303509 154.121346 
L 245.38931 178.202783 
L 246.475111 212.017882 
L 247.560912 208.575641 
L 248.646713 254.220655 
L 249.732514 191.622044 
L 250.818316 193.119573 
L 251.904117 167.075896 
L 252.989918 209.782792 
L 254.075719 162.924402 
L 255.16152 167.804088 
L 256.247321 160.816879 
L 257.333123 230.787566 
L 258.418924 181.84292 
L 259.504725 173.732622 
L 260.590526 177.641085 
L 262.762128 195.038975 
L 263.847929 188.081616 
L 264.933731 233.326477 
L 266.019532 208.360381 
L 267.105333 199.721544 
L 268.191134 204.21725 
L 269.276935 181.581931 
L 270.362736 249.785427 
L 271.448538 203.459438 
L 272.534339 174.04952 
L 273.62014 155.844235 
L 274.705941 291.757574 
L 275.791742 185.428151 
L 276.877543 192.638814 
L 277.963344 232.534549 
L 279.049146 220.297494 
L 280.134947 183.302891 
L 281.220748 184.013435 
L 282.306549 201.117733 
L 283.39235 152.588784 
L 284.478151 168.245648 
L 285.563953 211.397793 
L 286.649754 262.817102 
L 287.735555 221.547452 
L 288.821356 200.926983 
L 289.907157 226.503983 
L 290.992958 167.29093 
L 292.07876 200.959512 
L 293.164561 180.529566 
L 294.250362 170.828553 
L 295.336163 185.989175 
L 296.421964 221.674852 
L 297.507765 221.570284 
L 298.593566 179.099211 
L 299.679368 154.867137 
L 300.765169 205.135669 
L 301.85097 152.653262 
L 302.936771 212.551356 
L 304.022572 167.488473 
L 305.108373 266.473303 
L 306.194175 167.250952 
L 307.279976 170.542511 
L 308.365777 180.139204 
L 309.451578 238.181698 
L 310.537379 194.657595 
L 311.62318 176.839078 
L 312.708981 151.973653 
L 313.794783 226.553761 
L 314.880584 193.089347 
L 315.966385 178.669313 
L 317.052186 230.641754 
L 318.137987 153.337811 
L 319.223788 160.279686 
L 320.30959 295.488 
L 321.395391 237.807568 
L 322.481192 206.719881 
L 323.566993 209.047808 
L 324.652794 162.892815 
L 325.738595 200.631416 
L 326.824396 252.265551 
L 327.910198 196.71577 
L 328.995999 214.001318 
L 330.0818 217.339832 
L 331.167601 256.252664 
L 332.253402 156.686592 
L 333.339203 255.809788 
L 334.425005 152.000291 
L 335.510806 153.653799 
L 336.596607 178.617802 
L 337.682408 217.998658 
L 338.768209 181.499588 
L 339.85401 199.980187 
L 340.939811 236.779161 
L 342.025613 169.330179 
L 343.111414 179.921028 
L 344.197215 202.253924 
L 345.283016 192.093095 
L 346.368817 153.95113 
L 347.454618 179.700249 
L 348.54042 178.858052 
L 349.626221 166.278595 
L 350.712022 152.06492 
L 351.797823 172.619813 
L 352.883624 177.479809 
L 353.969425 190.466463 
L 355.055227 240.196138 
L 356.141028 225.72675 
L 357.226829 151.645924 
L 358.31263 228.742436 
L 360.484232 166.954281 
L 361.570033 160.087922 
L 362.655835 183.155065 
L 363.741636 150.592583 
L 364.827437 165.707357 
L 365.913238 163.170949 
L 366.999039 165.355965 
L 368.08484 228.079423 
L 369.170642 171.751924 
L 370.256443 195.046117 
L 371.342244 207.013641 
L 372.428045 191.07594 
L 373.513846 209.199698 
L 374.599647 195.645791 
L 375.685448 164.37033 
L 376.77125 180.326557 
L 377.857051 284.065522 
L 378.942852 203.45789 
L 380.028653 188.671299 
L 381.114454 238.175411 
L 382.200255 244.625773 
L 383.286057 161.9781 
L 384.371858 190.12617 
L 385.457659 199.609772 
L 386.54346 186.767022 
L 387.629261 178.58437 
L 388.715062 210.78574 
L 389.800863 202.797277 
L 390.886665 227.928848 
L 391.972466 181.016715 
L 393.058267 169.421609 
L 394.144068 202.576689 
L 396.31567 178.373362 
L 397.401472 152.492218 
L 398.487273 178.140564 
L 398.487273 178.140564 
" clip-path="url(#pbfb3b68333)" style="fill: none; stroke-dasharray: 9.6,2.4,1.5,2.4; stroke-dashoffset: 0; stroke: #008000; stroke-width: 1.5"/>
   </g>
   <g id="line2d_35">
    <path d="M 73.832727 153.834032 
L 74.918528 135.926857 
L 76.00433 135.826588 
L 77.090131 135.964972 
L 80.347534 135.947801 
L 81.433335 136.01411 
L 82.519137 135.867119 
L 84.690739 135.982293 
L 85.77654 138.637011 
L 86.862341 137.780016 
L 87.948142 143.587046 
L 89.033943 142.845788 
L 90.119745 142.752026 
L 91.205546 142.372432 
L 92.291347 142.365642 
L 93.377148 142.244857 
L 95.54875 141.659791 
L 96.634552 140.525148 
L 97.720353 140.385342 
L 98.806154 140.750611 
L 99.891955 140.006465 
L 100.977756 143.027406 
L 102.063557 121.46694 
L 103.149358 149.982656 
L 104.23516 148.908716 
L 105.320961 148.355914 
L 106.406762 123.942602 
L 107.492563 131.696113 
L 108.578364 137.718347 
L 109.664165 148.264132 
L 110.749967 143.795634 
L 111.835768 147.669422 
L 112.921569 147.991389 
L 114.00737 149.291475 
L 115.093171 147.700018 
L 116.178972 149.271273 
L 117.264773 147.893132 
L 118.350575 149.154121 
L 119.436376 140.189135 
L 120.522177 147.932765 
L 121.607978 143.567852 
L 122.693779 126.228582 
L 123.77958 142.345377 
L 124.865382 135.898134 
L 125.951183 144.949256 
L 127.036984 132.713679 
L 128.122785 113.031521 
L 129.208586 137.568342 
L 130.294387 118.955863 
L 131.380189 119.63992 
L 132.46599 147.933606 
L 133.551791 145.297654 
L 134.637592 141.209186 
L 135.723393 138.587266 
L 136.809194 143.796379 
L 137.894995 141.899688 
L 138.980797 140.269613 
L 140.066598 114.903576 
L 141.152399 140.63003 
L 142.2382 129.364404 
L 143.324001 131.574133 
L 144.409802 144.265485 
L 145.495604 134.575182 
L 146.581405 104.173897 
L 147.667206 104.547912 
L 148.753007 138.558015 
L 149.838808 134.53547 
L 150.924609 99.712469 
L 152.01041 145.963446 
L 153.096212 139.259512 
L 154.182013 120.60549 
L 155.267814 106.988185 
L 156.353615 142.158472 
L 157.439416 99.473046 
L 158.525217 108.980978 
L 159.611019 136.890347 
L 160.69682 144.843541 
L 161.782621 102.952929 
L 162.868422 145.503456 
L 163.954223 115.914314 
L 165.040024 71.560929 
L 166.125825 124.208813 
L 167.211627 128.785454 
L 168.297428 132.069433 
L 169.383229 123.054947 
L 170.46903 131.796957 
L 171.554831 121.012613 
L 172.640632 119.693609 
L 173.726434 92.170425 
L 174.812235 124.841739 
L 175.898036 140.32151 
L 176.983837 107.390259 
L 179.155439 142.853147 
L 180.24124 132.291923 
L 181.327042 133.302746 
L 182.412843 122.68184 
L 183.498644 147.154903 
L 184.584445 126.306898 
L 185.670246 139.079144 
L 186.756047 121.721211 
L 187.841849 120.325361 
L 188.92765 122.768518 
L 190.013451 115.308611 
L 191.099252 139.163709 
L 192.185053 135.694738 
L 193.270854 116.683367 
L 194.356656 110.863291 
L 195.442457 109.743038 
L 196.528258 105.928998 
L 197.614059 115.842729 
L 198.69986 107.209548 
L 199.785661 131.69184 
L 200.871462 147.956163 
L 201.957264 107.758158 
L 203.043065 134.674863 
L 204.128866 148.26462 
L 205.214667 130.969822 
L 206.300468 148.591483 
L 207.386269 147.428108 
L 208.472071 128.478696 
L 209.557872 132.001441 
L 210.643673 102.762965 
L 211.729474 140.604644 
L 212.815275 127.48456 
L 213.901076 122.231221 
L 214.986877 134.388029 
L 216.072679 130.281852 
L 217.15848 148.694395 
L 219.330082 102.312697 
L 220.415883 102.15933 
L 221.501684 99.455895 
L 222.587486 138.218251 
L 223.673287 141.65595 
L 224.759088 108.785173 
L 225.844889 123.977952 
L 226.93069 113.518369 
L 229.102292 133.061067 
L 231.273895 124.117955 
L 232.359696 123.655634 
L 233.445497 124.427334 
L 234.531298 141.708638 
L 235.617099 108.336201 
L 236.702901 142.945921 
L 237.788702 141.256957 
L 238.874503 100.013179 
L 239.960304 140.198187 
L 241.046105 124.333927 
L 242.131906 130.398937 
L 243.217708 126.15757 
L 244.303509 147.08186 
L 245.38931 132.879415 
L 246.475111 112.671068 
L 247.560912 108.739227 
L 248.646713 83.881906 
L 249.732514 126.434629 
L 250.818316 124.795986 
L 251.904117 137.608134 
L 252.989918 109.900463 
L 254.075719 142.131592 
L 255.16152 139.683998 
L 256.247321 142.215422 
L 257.333123 99.211837 
L 258.418924 127.861556 
L 259.504725 135.97891 
L 260.590526 136.996105 
L 262.762128 123.875172 
L 263.847929 127.184415 
L 264.933731 92.621397 
L 266.019532 107.264926 
L 267.105333 117.062352 
L 268.191134 119.147138 
L 269.276935 134.326857 
L 270.362736 87.817137 
L 271.448538 117.898275 
L 272.534339 133.523751 
L 273.62014 146.099979 
L 274.705941 55.201597 
L 275.791742 126.992503 
L 276.877543 126.638462 
L 277.963344 96.904402 
L 279.049146 108.748718 
L 280.134947 126.641651 
L 281.220748 129.594262 
L 282.306549 115.148167 
L 283.39235 147.748883 
L 284.478151 138.382328 
L 285.563953 112.777554 
L 286.649754 82.434616 
L 287.735555 114.606256 
L 288.821356 116.410318 
L 289.907157 99.055836 
L 290.992958 139.648531 
L 292.07876 117.412058 
L 293.164561 129.535885 
L 294.250362 138.003377 
L 295.336163 123.216818 
L 296.421964 103.134699 
L 297.507765 115.246767 
L 298.593566 129.313578 
L 299.679368 146.600199 
L 300.765169 113.073142 
L 301.85097 148.074301 
L 302.936771 103.988349 
L 304.022572 140.990017 
L 305.108373 82.407915 
L 306.194175 141.392021 
L 307.279976 135.980398 
L 308.365777 132.113439 
L 309.451578 90.853734 
L 310.537379 119.607933 
L 312.708981 148.388565 
L 313.794783 106.689838 
L 314.880584 123.862215 
L 315.966385 130.315147 
L 317.052186 103.094207 
L 318.137987 147.68882 
L 319.223788 143.415334 
L 320.30959 53.568 
L 321.395391 94.255307 
L 322.481192 115.012761 
L 323.566993 109.566598 
L 324.652794 141.16343 
L 325.738595 121.022271 
L 326.824396 89.769554 
L 327.910198 126.785041 
L 328.995999 115.642725 
L 330.0818 100.970341 
L 331.167601 78.163838 
L 332.253402 146.168826 
L 333.339203 79.499935 
L 334.425005 147.847035 
L 335.510806 147.337967 
L 336.596607 132.065433 
L 337.682408 107.673259 
L 338.768209 131.83147 
L 339.85401 117.247761 
L 340.939811 96.454471 
L 342.025613 138.086442 
L 343.111414 130.518595 
L 344.197215 116.734224 
L 345.283016 126.022279 
L 346.368817 146.837666 
L 347.454618 131.014352 
L 348.54042 132.219534 
L 349.626221 138.849398 
L 350.712022 148.092832 
L 351.797823 135.28222 
L 352.883624 133.980585 
L 353.969425 129.495739 
L 355.055227 86.405208 
L 356.141028 96.779071 
L 357.226829 148.221151 
L 358.31263 105.978087 
L 359.398431 124.785788 
L 360.484232 138.329459 
L 361.570033 143.923222 
L 362.655835 128.570167 
L 363.741636 148.515117 
L 364.827437 139.191093 
L 365.913238 139.505123 
L 366.999039 140.764836 
L 368.08484 111.09296 
L 369.170642 137.627758 
L 370.256443 121.074306 
L 371.342244 113.157344 
L 372.428045 125.096708 
L 373.513846 114.319919 
L 374.599647 124.291363 
L 375.685448 140.574853 
L 376.77125 132.577004 
L 377.857051 66.422306 
L 378.942852 115.328403 
L 380.028653 124.840856 
L 381.114454 87.708179 
L 382.200255 101.547681 
L 383.286057 141.946629 
L 384.371858 129.129717 
L 385.457659 121.483744 
L 386.54346 126.791351 
L 387.629261 130.159631 
L 388.715062 113.900636 
L 389.800863 117.732005 
L 390.886665 108.287418 
L 391.972466 130.62902 
L 393.058267 137.024844 
L 394.144068 113.247762 
L 395.229869 127.812915 
L 396.31567 129.183003 
L 397.401472 147.606716 
L 398.487273 130.952361 
L 398.487273 130.952361 
" clip-path="url(#pbfb3b68333)" style="fill: none; stroke-dasharray: 9.6,2.4,1.5,2.4; stroke-dashoffset: 0; stroke: #008000; stroke-width: 1.5"/>
   </g>
   <g id="line2d_36">
    <path d="M 73.832727 151.689763 
L 74.918528 149.56127 
L 76.00433 149.431599 
L 77.090131 149.652692 
L 79.261733 149.556116 
L 81.433335 149.654487 
L 83.604938 149.568379 
L 85.77654 149.571444 
L 86.862341 149.517798 
L 87.948142 149.639456 
L 90.119745 149.585743 
L 93.377148 149.616256 
L 94.462949 149.476231 
L 98.806154 149.649376 
L 100.977756 149.538941 
L 103.149358 149.661168 
L 104.23516 149.038633 
L 106.406762 149.047243 
L 107.492563 148.943501 
L 108.578364 149.035183 
L 114.00737 148.95411 
L 115.093171 149.107732 
L 116.178972 148.948821 
L 121.607978 149.000234 
L 123.77958 149.010498 
L 129.208586 148.948741 
L 130.294387 148.830611 
L 131.380189 148.517961 
L 132.46599 148.62923 
L 135.723393 148.546946 
L 138.980797 148.555675 
L 140.066598 148.466847 
L 141.152399 148.575896 
L 142.2382 148.536189 
L 143.324001 148.609238 
L 144.409802 148.536189 
L 145.495604 148.621982 
L 146.581405 148.529665 
L 148.753007 148.5797 
L 149.838808 148.465771 
L 150.924609 148.476823 
L 152.01041 148.305698 
L 153.096212 148.543745 
L 155.267814 148.490364 
L 157.439416 148.506598 
L 159.611019 148.490036 
L 160.69682 148.390321 
L 162.868422 148.408887 
L 169.383229 148.400813 
L 170.46903 148.240442 
L 176.983837 148.414423 
L 178.069638 148.280314 
L 182.412843 148.365495 
L 183.498644 148.217802 
L 184.584445 148.331932 
L 185.670246 148.300715 
L 186.756047 148.407867 
L 187.841849 148.315863 
L 190.013451 148.348661 
L 193.270854 148.357561 
L 195.442457 148.31844 
L 196.528258 148.288369 
L 197.614059 148.385624 
L 198.69986 148.288369 
L 199.785661 148.389686 
L 201.957264 148.30174 
L 203.043065 148.378385 
L 208.472071 148.279226 
L 213.901076 148.180209 
L 214.986877 148.32547 
L 220.415883 148.175446 
L 222.587486 148.239404 
L 229.102292 148.243312 
L 230.188094 148.181554 
L 233.445497 148.340267 
L 236.702901 148.24212 
L 237.788702 148.314617 
L 239.960304 148.160093 
L 242.131906 148.270597 
L 255.16152 148.247202 
L 296.421964 148.338253 
L 297.507765 148.198244 
L 298.593566 148.288914 
L 302.936771 148.197746 
L 305.108373 148.232504 
L 306.194175 148.147992 
L 308.365777 148.254924 
L 323.566993 148.236226 
L 325.738595 148.251657 
L 327.910198 148.239985 
L 332.253402 148.318348 
L 333.339203 148.229069 
L 334.425005 148.298468 
L 336.596607 148.18433 
L 337.682408 148.280141 
L 338.768209 148.169726 
L 343.111414 148.248989 
L 344.197215 148.178345 
L 347.454618 148.278295 
L 349.626221 148.193733 
L 351.797823 148.22792 
L 356.141028 148.249867 
L 362.655835 148.272522 
L 363.741636 148.227811 
L 364.827437 148.303275 
L 366.999039 148.215059 
L 397.401472 148.27642 
L 398.487273 148.337955 
L 398.487273 148.337955 
" clip-path="url(#pbfb3b68333)" style="fill: none; stroke: #ff0000; stroke-width: 1.5; stroke-linecap: square"/>
   </g>
   <g id="patch_3">
    <path d="M 57.6 307.584 
L 57.6 41.472 
" style="fill: none; stroke: #000000; stroke-width: 0.8; stroke-linejoin: miter; stroke-linecap: square"/>
   </g>
   <g id="patch_4">
    <path d="M 414.72 307.584 
L 414.72 41.472 
" style="fill: none; stroke: #000000; stroke-width: 0.8; stroke-linejoin: miter; stroke-linecap: square"/>
   </g>
   <g id="patch_5">
    <path d="M 57.6 307.584 
L 414.72 307.584 
" style="fill: none; stroke: #000000; stroke-width: 0.8; stroke-linejoin: miter; stroke-linecap: square"/>
   </g>
   <g id="patch_6">
    <path d="M 57.6 41.472 
L 414.72 41.472 
" style="fill: none; stroke: #000000; stroke-width: 0.8; stroke-linejoin: miter; stroke-linecap: square"/>
   </g>
   <g id="text_19">
    <!-- Population's average and best fitness -->
    <g transform="translate(123.529687 35.472)scale(0.12 -0.12)">
     <defs>
      <path id="DejaVuSans-50" d="M 1259 4147 
L 1259 2394 
L 2053 2394 
Q 2494 2394 2734 2622 
Q 2975 2850 2975 3272 
Q 2975 3691 2734 3919 
Q 2494 4147 2053 4147 
L 1259 4147 
z
M 628 4666 
L 2053 4666 
Q 2838 4666 3239 4311 
Q 3641 3956 3641 3272 
Q 3641 2581 3239 2228 
Q 2838 1875 2053 1875 
L 1259 1875 
L 1259 0 
L 628 0 
L 628 4666 
z
" transform="scale(0.015625)"/>
      <path id="DejaVuSans-70" d="M 1159 525 
L 1159 -1331 
L 581 -1331 
L 581 3500 
L 1159 3500 
L 1159 2969 
Q 1341 3281 1617 3432 
Q 1894 3584 2278 3584 
Q 2916 3584 3314 3078 
Q 3713 2572 3713 1747 
Q 3713 922 3314 415 
Q 2916 -91 2278 -91 
Q 1894 -91 1617 61 
Q 1341 213 1159 525 
z
M 3116 1747 
Q 3116 2381 2855 2742 
Q 2594 3103 2138 3103 
Q 1681 3103 1420 2742 
Q 1159 2381 1159 1747 
Q 1159 1113 1420 752 
Q 1681 391 2138 391 
Q 2594 391 2855 752 
Q 3116 1113 3116 1747 
z
" transform="scale(0.015625)"/>
      <path id="DejaVuSans-75" d="M 544 1381 
L 544 3500 
L 1119 3500 
L 1119 1403 
Q 1119 906 1312 657 
Q 1506 409 1894 409 
Q 2359 409 2629 706 
Q 2900 1003 2900 1516 
L 2900 3500 
L 3475 3500 
L 3475 0 
L 2900 0 
L 2900 538 
Q 2691 219 2414 64 
Q 2138 -91 1772 -91 
Q 1169 -91 856 284 
Q 544 659 544 1381 
z
M 1991 3584 
L 1991 3584 
z
" transform="scale(0.015625)"/>
      <path id="DejaVuSans-6c" d="M 603 4863 
L 1178 4863 
L 1178 0 
L 603 0 
L 603 4863 
z
" transform="scale(0.015625)"/>
      <path id="DejaVuSans-27" d="M 1147 4666 
L 1147 2931 
L 616 2931 
L 616 4666 
L 1147 4666 
z
" transform="scale(0.015625)"/>
      <path id="DejaVuSans-20" transform="scale(0.015625)"/>
      <path id="DejaVuSans-76" d="M 191 3500 
L 800 3500 
L 1894 563 
L 2988 3500 
L 3597 3500 
L 2284 0 
L 1503 0 
L 191 3500 
z
" transform="scale(0.015625)"/>
      <path id="DejaVuSans-67" d="M 2906 1791 
Q 2906 2416 2648 2759 
Q 2391 3103 1925 3103 
Q 1463 3103 1205 2759 
Q 947 2416 947 1791 
Q 947 1169 1205 825 
Q 1463 481 1925 481 
Q 2391 481 2648 825 
Q 2906 1169 2906 1791 
z
M 3481 434 
Q 3481 -459 3084 -895 
Q 2688 -1331 1869 -1331 
Q 1566 -1331 1297 -1286 
Q 1028 -1241 775 -1147 
L 775 -588 
Q 1028 -725 1275 -790 
Q 1522 -856 1778 -856 
Q 2344 -856 2625 -561 
Q 2906 -266 2906 331 
L 2906 616 
Q 2728 306 2450 153 
Q 2172 0 1784 0 
Q 1141 0 747 490 
Q 353 981 353 1791 
Q 353 2603 747 3093 
Q 1141 3584 1784 3584 
Q 2172 3584 2450 3431 
Q 2728 3278 2906 2969 
L 2906 3500 
L 3481 3500 
L 3481 434 
z
" transform="scale(0.015625)"/>
      <path id="DejaVuSans-64" d="M 2906 2969 
L 2906 4863 
L 3481 4863 
L 3481 0 
L 2906 0 
L 2906 525 
Q 2725 213 2448 61 
Q 2172 -91 1784 -91 
Q 1150 -91 751 415 
Q 353 922 353 1747 
Q 353 2572 751 3078 
Q 1150 3584 1784 3584 
Q 2172 3584 2448 3432 
Q 2725 3281 2906 2969 
z
M 947 1747 
Q 947 1113 1208 752 
Q 1469 391 1925 391 
Q 2381 391 2643 752 
Q 2906 1113 2906 1747 
Q 2906 2381 2643 2742 
Q 2381 3103 1925 3103 
Q 1469 3103 1208 2742 
Q 947 2381 947 1747 
z
" transform="scale(0.015625)"/>
      <path id="DejaVuSans-62" d="M 3116 1747 
Q 3116 2381 2855 2742 
Q 2594 3103 2138 3103 
Q 1681 3103 1420 2742 
Q 1159 2381 1159 1747 
Q 1159 1113 1420 752 
Q 1681 391 2138 391 
Q 2594 391 2855 752 
Q 3116 1113 3116 1747 
z
M 1159 2969 
Q 1341 3281 1617 3432 
Q 1894 3584 2278 3584 
Q 2916 3584 3314 3078 
Q 3713 2572 3713 1747 
Q 3713 922 3314 415 
Q 2916 -91 2278 -91 
Q 1894 -91 1617 61 
Q 1341 213 1159 525 
L 1159 0 
L 581 0 
L 581 4863 
L 1159 4863 
L 1159 2969 
z
" transform="scale(0.015625)"/>
      <path id="DejaVuSans-66" d="M 2375 4863 
L 2375 4384 
L 1825 4384 
Q 1516 4384 1395 4259 
Q 1275 4134 1275 3809 
L 1275 3500 
L 2222 3500 
L 2222 3053 
L 1275 3053 
L 1275 0 
L 697 0 
L 697 3053 
L 147 3053 
L 147 3500 
L 697 3500 
L 697 3744 
Q 697 4328 969 4595 
Q 1241 4863 1831 4863 
L 2375 4863 
z
" transform="scale(0.015625)"/>
     </defs>
     <use xlink:href="#DejaVuSans-50"/>
     <use xlink:href="#DejaVuSans-6f" x="56.677734"/>
     <use xlink:href="#DejaVuSans-70" x="117.859375"/>
     <use xlink:href="#DejaVuSans-75" x="181.335938"/>
     <use xlink:href="#DejaVuSans-6c" x="244.714844"/>
     <use xlink:href="#DejaVuSans-61" x="272.498047"/>
     <use xlink:href="#DejaVuSans-74" x="333.777344"/>
     <use xlink:href="#DejaVuSans-69" x="372.986328"/>
     <use xlink:href="#DejaVuSans-6f" x="400.769531"/>
     <use xlink:href="#DejaVuSans-6e" x="461.951172"/>
     <use xlink:href="#DejaVuSans-27" x="525.330078"/>
     <use xlink:href="#DejaVuSans-73" x="552.820312"/>
     <use xlink:href="#DejaVuSans-20" x="604.919922"/>
     <use xlink:href="#DejaVuSans-61" x="636.707031"/>
     <use xlink:href="#DejaVuSans-76" x="697.986328"/>
     <use xlink:href="#DejaVuSans-65" x="757.166016"/>
     <use xlink:href="#DejaVuSans-72" x="818.689453"/>
     <use xlink:href="#DejaVuSans-61" x="859.802734"/>
     <use xlink:href="#DejaVuSans-67" x="921.082031"/>
     <use xlink:href="#DejaVuSans-65" x="984.558594"/>
     <use xlink:href="#DejaVuSans-20" x="1046.082031"/>
     <use xlink:href="#DejaVuSans-61" x="1077.869141"/>
     <use xlink:href="#DejaVuSans-6e" x="1139.148438"/>
     <use xlink:href="#DejaVuSans-64" x="1202.527344"/>
     <use xlink:href="#DejaVuSans-20" x="1266.003906"/>
     <use xlink:href="#DejaVuSans-62" x="1297.791016"/>
     <use xlink:href="#DejaVuSans-65" x="1361.267578"/>
     <use xlink:href="#DejaVuSans-73" x="1422.791016"/>
     <use xlink:href="#DejaVuSans-74" x="1474.890625"/>
     <use xlink:href="#DejaVuSans-20" x="1514.099609"/>
     <use xlink:href="#DejaVuSans-66" x="1545.886719"/>
     <use xlink:href="#DejaVuSans-69" x="1581.091797"/>
     <use xlink:href="#DejaVuSans-74" x="1608.875"/>
     <use xlink:href="#DejaVuSans-6e" x="1648.083984"/>
     <use xlink:href="#DejaVuSans-65" x="1711.462891"/>
     <use xlink:href="#DejaVuSans-73" x="1772.986328"/>
     <use xlink:href="#DejaVuSans-73" x="1825.085938"/>
    </g>
   </g>
   <g id="legend_1">
    <g id="patch_7">
     <path d="M 64.6 108.1845 
L 137.540625 108.1845 
Q 139.540625 108.1845 139.540625 106.1845 
L 139.540625 48.472 
Q 139.540625 46.472 137.540625 46.472 
L 64.6 46.472 
Q 62.6 46.472 62.6 48.472 
L 62.6 106.1845 
Q 62.6 108.1845 64.6 108.1845 
z
" style="fill: #ffffff; opacity: 0.8; stroke: #cccccc; stroke-linejoin: miter"/>
    </g>
    <g id="line2d_37">
     <path d="M 66.6 54.570438 
L 76.6 54.570438 
L 86.6 54.570438 
" style="fill: none; stroke: #0000ff; stroke-width: 1.5; stroke-linecap: square"/>
    </g>
    <g id="text_20">
     <!-- average -->
     <g transform="translate(94.6 58.070438)scale(0.1 -0.1)">
      <use xlink:href="#DejaVuSans-61"/>
      <use xlink:href="#DejaVuSans-76" x="61.279297"/>
      <use xlink:href="#DejaVuSans-65" x="120.458984"/>
      <use xlink:href="#DejaVuSans-72" x="181.982422"/>
      <use xlink:href="#DejaVuSans-61" x="223.095703"/>
      <use xlink:href="#DejaVuSans-67" x="284.375"/>
      <use xlink:href="#DejaVuSans-65" x="347.851562"/>
     </g>
    </g>
    <g id="line2d_38">
     <path d="M 66.6 69.248563 
L 76.6 69.248563 
L 86.6 69.248563 
" style="fill: none; stroke-dasharray: 9.6,2.4,1.5,2.4; stroke-dashoffset: 0; stroke: #008000; stroke-width: 1.5"/>
    </g>
    <g id="text_21">
     <!-- -1 sd -->
     <g transform="translate(94.6 72.748563)scale(0.1 -0.1)">
      <defs>
       <path id="DejaVuSans-2d" d="M 313 2009 
L 1997 2009 
L 1997 1497 
L 313 1497 
L 313 2009 
z
" transform="scale(0.015625)"/>
      </defs>
      <use xlink:href="#DejaVuSans-2d"/>
      <use xlink:href="#DejaVuSans-31" x="36.083984"/>
      <use xlink:href="#DejaVuSans-20" x="99.707031"/>
      <use xlink:href="#DejaVuSans-73" x="131.494141"/>
      <use xlink:href="#DejaVuSans-64" x="183.59375"/>
     </g>
    </g>
    <g id="line2d_39">
     <path d="M 66.6 83.926688 
L 76.6 83.926688 
L 86.6 83.926688 
" style="fill: none; stroke-dasharray: 9.6,2.4,1.5,2.4; stroke-dashoffset: 0; stroke: #008000; stroke-width: 1.5"/>
    </g>
    <g id="text_22">
     <!-- +1 sd -->
     <g transform="translate(94.6 87.426688)scale(0.1 -0.1)">
      <defs>
       <path id="DejaVuSans-2b" d="M 2944 4013 
L 2944 2272 
L 4684 2272 
L 4684 1741 
L 2944 1741 
L 2944 0 
L 2419 0 
L 2419 1741 
L 678 1741 
L 678 2272 
L 2419 2272 
L 2419 4013 
L 2944 4013 
z
" transform="scale(0.015625)"/>
      </defs>
      <use xlink:href="#DejaVuSans-2b"/>
      <use xlink:href="#DejaVuSans-31" x="83.789062"/>
      <use xlink:href="#DejaVuSans-20" x="147.412109"/>
      <use xlink:href="#DejaVuSans-73" x="179.199219"/>
      <use xlink:href="#DejaVuSans-64" x="231.298828"/>
     </g>
    </g>
    <g id="line2d_40">
     <path d="M 66.6 98.604813 
L 76.6 98.604813 
L 86.6 98.604813 
" style="fill: none; stroke: #ff0000; stroke-width: 1.5; stroke-linecap: square"/>
    </g>
    <g id="text_23">
     <!-- best -->
     <g transform="translate(94.6 102.104813)scale(0.1 -0.1)">
      <use xlink:href="#DejaVuSans-62"/>
      <use xlink:href="#DejaVuSans-65" x="63.476562"/>
      <use xlink:href="#DejaVuSans-73" x="125"/>
      <use xlink:href="#DejaVuSans-74" x="177.099609"/>
     </g>
    </g>
   </g>
  </g>
 </g>
 <defs>
  <clipPath id="pbfb3b68333">
   <rect x="57.6" y="41.472" width="357.12" height="266.112"/>
  </clipPath>
 </defs>
</svg>
